<svg width="1116" height="943" viewBox="0 0 1116 943" fill="none" xmlns="http://www.w3.org/2000/svg">
<mask id="path-1-inside-1_76_476" fill="white">
<path d="M574.698 246.306C574.698 110.493 486.234 0 377.498 0H0V943H377.498C486.234 943 574.698 832.507 574.698 696.694C574.698 596.366 526.423 509.857 457.367 471.5C526.423 433.143 574.698 346.633 574.698 246.306ZM540.892 696.694C540.892 809.224 467.593 900.776 377.498 900.776H33.8058V492.612H377.498C467.593 492.612 540.892 584.164 540.892 696.694ZM377.498 450.388H33.8058V42.2239H377.498C467.593 42.2239 540.892 133.776 540.892 246.306C540.892 358.836 467.593 450.388 377.498 450.388Z"/>
</mask>
<path d="M574.698 246.306C574.698 110.493 486.234 0 377.498 0H0V943H377.498C486.234 943 574.698 832.507 574.698 696.694C574.698 596.366 526.423 509.857 457.367 471.5C526.423 433.143 574.698 346.633 574.698 246.306ZM540.892 696.694C540.892 809.224 467.593 900.776 377.498 900.776H33.8058V492.612H377.498C467.593 492.612 540.892 584.164 540.892 696.694ZM377.498 450.388H33.8058V42.2239H377.498C467.593 42.2239 540.892 133.776 540.892 246.306C540.892 358.836 467.593 450.388 377.498 450.388Z" fill="black"/>
<path d="M0 0V-388H-388V0H0ZM0 943H-388V1331H0V943ZM457.367 471.5L268.967 132.31L-341.701 471.5L268.967 810.69L457.367 471.5ZM33.8058 900.776H-354.194V1288.78H33.8058V900.776ZM33.8058 492.612V104.612H-354.194V492.612H33.8058ZM33.8058 450.388H-354.194V838.388H33.8058V450.388ZM33.8058 42.2239V-345.776H-354.194V42.2239H33.8058ZM962.698 246.306C962.698 -18.8361 776.591 -388 377.498 -388V388C292.637 388 237.404 343.966 213.99 314.721C191.049 286.068 186.698 260.697 186.698 246.306H962.698ZM377.498 -388H0V388H377.498V-388ZM-388 0V943H388V0H-388ZM0 1331H377.498V555H0V1331ZM377.498 1331C776.591 1331 962.698 961.836 962.698 696.694H186.698C186.698 682.302 191.049 656.932 213.99 628.278C237.404 599.034 292.637 555 377.498 555V1331ZM962.698 696.694C962.698 482.53 860.004 251.307 645.766 132.31L268.967 810.69C229.241 788.624 208.738 760.693 199.286 742.902C189.378 724.252 186.698 708.224 186.698 696.694H962.698ZM645.766 810.69C860.004 691.693 962.698 460.47 962.698 246.306H186.698C186.698 234.776 189.378 218.747 199.286 200.098C208.738 182.307 229.241 154.376 268.967 132.31L645.766 810.69ZM152.892 696.694C152.892 670.66 161.035 634.733 190.097 598.435C219.631 561.547 283.315 512.776 377.498 512.776V1288.78C757.95 1288.78 928.892 938.553 928.892 696.694H152.892ZM377.498 512.776H33.8058V1288.78H377.498V512.776ZM421.806 900.776V492.612H-354.194V900.776H421.806ZM33.8058 880.612H377.498V104.612H33.8058V880.612ZM377.498 880.612C283.315 880.612 219.631 831.841 190.097 794.952C161.035 758.654 152.892 722.728 152.892 696.694H928.892C928.892 454.835 757.95 104.612 377.498 104.612V880.612ZM377.498 62.3879H33.8058V838.388H377.498V62.3879ZM421.806 450.388V42.2239H-354.194V450.388H421.806ZM33.8058 430.224H377.498V-345.776H33.8058V430.224ZM377.498 430.224C283.315 430.224 219.631 381.453 190.097 344.564C161.035 308.266 152.892 272.34 152.892 246.306H928.892C928.892 4.44688 757.95 -345.776 377.498 -345.776V430.224ZM152.892 246.306C152.892 220.272 161.035 184.346 190.097 148.047C219.631 111.159 283.315 62.3879 377.498 62.3879V838.388C757.95 838.388 928.892 488.165 928.892 246.306H152.892Z" fill="black" mask="url(#path-1-inside-1_76_476)"/>
<path d="M1115.59 584.097C1115.59 386.197 1006.91 225.194 873.316 225.194C739.724 225.194 631.041 386.197 631.041 584.097C631.041 781.997 739.724 943 873.316 943C959.842 943 1040.38 873.978 1083.49 762.87L1053.06 744.456C1015.65 840.878 946.776 900.776 873.316 900.776C763.036 900.776 672.484 770.016 665.306 605.209H1115.59V584.097ZM665.306 562.985C672.484 398.179 763.036 267.418 873.316 267.418C983.596 267.418 1074.15 398.179 1081.33 562.985H665.306Z" fill="black"/>
<path d="M1008.54 0H738.093V42.2239H1008.54V0Z" fill="black"/>
</svg>
