<svg xmlns="http://www.w3.org/2000/svg" viewBox="0 0 61.96 68.43"><defs><style>.cls-1{fill:#fff;}.cls-2{fill:#202020;}.cls-3{fill:#0a78b5;}.cls-4{fill:none;}</style></defs><g id="BACKGROUND_1" data-name="BACKGROUND 1"><circle class="cls-1" cx="33" cy="36.24" r="26.91" transform="translate(-8.63 62.11) rotate(-79.53)"/><path class="cls-2" d="M6.59,36.24c-.06-.09-.21,0-.17.21l.26.16Z"/><path class="cls-2" d="M6.22,37.89c.13.28.36.59.58.39-.26-.27-.16-.34-.46-.63,0-.24.06-.43.15-.39-.06-.08,0-.37-.12-.5a1.25,1.25,0,0,0,0,1.13C6.33,38,6.26,37.9,6.22,37.89Z"/><path class="cls-2" d="M17.21,58.43l-.1-.11Z"/><path class="cls-2" d="M31.19,63.54c-.12,0-.17,0-.17.05S31.21,63.57,31.19,63.54Z"/><path class="cls-2" d="M33.77,63.87h-.15A.2.2,0,0,0,33.77,63.87Z"/><path class="cls-2" d="M17.21,58.43l.28.31C17.56,58.69,17.36,58.57,17.21,58.43Z"/><path class="cls-2" d="M7.19,41.05a.48.48,0,0,0-.09-.19l.05.19Z"/><path class="cls-2" d="M12.18,54.11,12.09,54,12,54Z"/><path class="cls-2" d="M9.19,50c.05.1.25,0,.36,0a.38.38,0,0,1-.26-.14A.25.25,0,0,0,9.19,50Z"/><path class="cls-2" d="M6.59,42.32l-.07-.13Z"/><path class="cls-2" d="M14.72,56.75a.29.29,0,0,0,0,.09A.09.09,0,0,0,14.72,56.75Z"/><path class="cls-2" d="M7.7,30.67h0S7.69,30.71,7.7,30.67Z"/><path class="cls-2" d="M6,36.24v-.08l-.11,0Z"/><path class="cls-2" d="M38.57,63.62h0C38.42,63.66,38.49,63.65,38.57,63.62Z"/><path class="cls-2" d="M60.15,30.36c-.06.52-.43-.72-.45,0C59.76,30.32,60.18,31,60.15,30.36Z"/><path class="cls-2" d="M7.18,41.18l0,.2A.77.77,0,0,0,7.18,41.18Z"/><path class="cls-2" d="M59.7,30.4h0v0Z"/><path class="cls-2" d="M48.66,59.23a.22.22,0,0,0-.14,0S48.57,59.24,48.66,59.23Z"/><path class="cls-2" d="M41.18,62.52l.2-.05A1,1,0,0,0,41.18,62.52Z"/><path class="cls-2" d="M51.77,56.32a.61.61,0,0,0,.23-.18h0A.33.33,0,0,1,51.77,56.32Z"/><path class="cls-2" d="M54.73,53.08l-.08,0-.07.11Z"/><path class="cls-2" d="M13.16,19.43a.7.7,0,0,1-.28,0C13,19.5,12.67,20,13.16,19.43Z"/><path class="cls-2" d="M7.08,41.08a.13.13,0,0,1,.1.1l0-.13S7.09,41,7.08,41.08Z"/><path class="cls-2" d="M50.76,55l.51-.41A5.39,5.39,0,0,0,50.76,55Z"/><path class="cls-2" d="M40.2,11.22h-.15A.26.26,0,0,0,40.2,11.22Z"/><path class="cls-2" d="M52.56,53.11a1.11,1.11,0,0,0,.36-.18.14.14,0,0,0,0-.09Z"/><path class="cls-2" d="M12.88,19.45Z"/><path class="cls-2" d="M10.81,23.3c.33-.53-.08-.39-.15-.58.33-.69.36-.19.61-.34.17-.44.16-.88.39-1.15.05,0,.11,0,.11.06.12-.53.86-1.19,1-1.83h.1a.55.55,0,0,1-.35-.17c.19-.22.23-.52.44-.48-.13.13-.08.19-.09.29l.14-.28c.38,0-.21.37-.06.49a7.17,7.17,0,0,1,1-1.42c.25.11-.64.83-.07.55l-.54.44c.66-.12-.3.29.35.22.66-.6.55-.86,1.26-1.42.05-.24-.2-.1-.15-.34.79-1.06,1.18-.21,1.65-1.09.08-.29,0-.59.6-.86v.36c.71-.49.15-.63,1-1-.07.19-.5.49-.37.44.61-.17.24-.39.61-.66l.22.15c.78-.49,1.53-1.25,2.44-1.74,0,.09-.13.24.12.21a12.33,12.33,0,0,1,1.82-.9c.66-.19,1.33-.35,1.94-.49l.38-.38c.1,0,.22,0,.12.11.5,0,0-.14.19-.28s.39,0,.24.14a11.52,11.52,0,0,1,1.55-.65A4.06,4.06,0,0,1,29,10.44l-.17.09c.71,0,.74-.56,1.42-.46l-.12.06c1.54,0,3.26-.31,4.41.14.25-.32,1.51.21,1.65-.17a8,8,0,0,0,1.77.72c.32,0,.54-.17.95-.12l0,.23.6-.1.21.34.39,0c-.15-.05-.29-.18-.25-.24a2.37,2.37,0,0,1,.91.29c.26.15.43.33.42.38l1.39.3c-.06.08-.3,0-.49,0,.79,0,0,.27.76.31-.07-.08.1-.11.13-.15a5.62,5.62,0,0,0,1.52.79l-.17.1a30.83,30.83,0,0,1,3,1.58c-.32-.28-.09-.46.22-.31v.28c.27,0-.26-.27.23-.18.35.28.09.4-.16.32L48,15c0,.08-.14,0-.22.09.26,0,.58.74,1,.72l0,.08a22.37,22.37,0,0,1,2.07,1.64c.16-.14.4.14.74.22A19.1,19.1,0,0,0,53,19.57c.46.39.25,0,.51.15-.12.16.4.83,0,.56.32.4.52.65.75.92l.4.45.5.64c0-.17-.06-.32,0-.29.15.19.21.51.12.52l0,0a5,5,0,0,1,1,2.12,6.32,6.32,0,0,0,.85,1.95l0-.06.61,1.05c.15.53-.25-.26-.23.16a4.75,4.75,0,0,1,.43.78c.08.26.13.5.18.73a5.48,5.48,0,0,0,.41,1.41,4.09,4.09,0,0,0,.08,1.91c.08.37.17.75.21,1.11a3.36,3.36,0,0,1-.08,1l.13-.07c.15.28-.05.35-.07.56.1,0,.1-.32.18-.14a13.55,13.55,0,0,1-.11,3.7c-.09.62-.27,1.23-.4,1.84l-.21.91L58,42.3c-.26.86.54.68-.05,1.7l-.16-.39A12.5,12.5,0,0,1,57,46.27a25.31,25.31,0,0,0-1.1,2.52c0-.12-.06-.16,0-.31-.33.25-.73,1.18-.6,1.27-.16.23-.15,0-.3.1s-.29.94-.57,1c0,0,0-.12.05-.18-.07.24-.71.9-.4.83-.48.48-.68,1.11-1.13,1.43-.06.41-.85.78-.69,1.08-.22-.27-1,.7-1.2,1.08,0-.17-.35.17-.32-.05-.36.33-.64.68-.47.75-.89.32-1.19,1.39-1.9,1.29l-.78.74-.82.62a13.52,13.52,0,0,1-1.66,1.13c-.09-.29,1.25-.73,1-1-.25.19-.46.38-.66.55l-.6.44a6.77,6.77,0,0,1-1.4.77c-.3.1.11-.21.18-.31a7.18,7.18,0,0,1-1.64.72c-.55.18-1,.43-1.57.63,0,0,.1-.09.2-.14-.2.06-.5.08-.43.22l.19-.1c.4.13-.71.67-.73.79.26-.52-1.09.17-.65-.52-.13.07-.28.18-.23.27-.21,0-.29,0-.11-.18-.73.28-.44.34-1.13.46,0-.08.12-.13.18-.22a2.49,2.49,0,0,1-1.26.42c0-.05,0-.1.13-.12a9.67,9.67,0,0,1-2.85.48c.32-.34-.39-.09-.45-.37a3.09,3.09,0,0,1-.61.08l.25.15a8.14,8.14,0,0,1-1.47,0l.4-.09h-1l.55.14c-.55.11,0,.35-.67.24.15,0-.54,0-.8-.25h0a1.69,1.69,0,0,1-.94,0c-.09-.1.13-.29.07-.36-.29.19-1.24-.1-1.61,0a.17.17,0,0,0,.12-.21l-.25.14c-.23-.13-.25-.16-.19-.27-.71-.22.15.41-.67,0,.07,0,0,0,.19,0a15.67,15.67,0,0,1-2.43-.69c-.14-.35.69.18.5-.14-.55-.18-1.15-.31-1.74-.45A7.21,7.21,0,0,1,21.34,60l.18.12c-.32.28-.69-.53-1.28-.64.14.05.27-.1.21-.08A19.67,19.67,0,0,0,18,58.17h.17c-.31-.35-.93-.76-1.3-1.1-.18,0-.4-.19-.35,0a5.66,5.66,0,0,0-1.59-1.54,3.35,3.35,0,0,1-1.41-1.5c.11.11.32.22.23.12l-.84-.78c-.07.18,0,.18.08.44a1.66,1.66,0,0,1-.65-.44c.45.31.2-.18.15-.42,0,.06-.11,0-.15.09-.12-.68-.33.13-.67-.67h.1a4.71,4.71,0,0,1-.67-.67c.08-.23.27.21.42.13-.28-.37-.88-.52-.92-1a5.56,5.56,0,0,0,.47.51,2.2,2.2,0,0,0-.29-.84v0l-.32-.73.05.21c-.73-.25-.74-1-1.36-1.52.62.55.22,0,.45,0,0-.21-.1-.52,0-.47-.32-.25-.13-.61-.6-1,0,0-.17-.36,0-.36-.26-.4-.06.16-.16.16-.56-.58-.34-1.74-1-2.62-.39-.84-.66-.95-1-1.77,0-.31.32.17.32.17a3.36,3.36,0,0,0-.29-1.23c.08.07.12,0,.18-.18-.08-.34-.3-.18-.27-.66a1,1,0,0,1,.35.3c-.13-.4-.33-.79-.46-1.21.11-.13.23.23.34.37a4.12,4.12,0,0,0-.5-1.35L6.42,39c0-.18.17-.11.22,0,.22.4,0,.6,0,.64l-.09-.3c-.38.37.25,1.22.32,1.83L6.48,41l.35.59c0,.15-.21.28-.31,0-.07.48.2.37.12.78,0,0,0,0,0,0l.2.4c-.09-.06-.2.13-.22-.15,0,.82.54,1.19.39,1.54l0-.06c.43,1,.25,0,.77.73l-.34.71.25,0c0,.11.09.32,0,.32.3.34.07-.11.29.07a2.65,2.65,0,0,0,.28.94c.14.29.25.54.11.67.24.1-.11-.53.26-.05-.29.31.35.58.4,1.1-.24,0-.35-.52-.3,0,.43.12.36.92.66,1.25.25-.12.58.73,1,1.29-.13,0,.65,1.18,1,1.77h0c.3-.07.64.53,1,.85-.13.09-.25.07-.48-.09.1.13.21.24.31.36a1,1,0,0,1,.51.3l-.24,0a11.62,11.62,0,0,1,1.49,1.44c.17-.11-.09-.8.62-.33-.05.09-.15.24-.34.12.06,0,.25.11.32.24l-.37-.1c.22.3.25,0,.45.23-.11.11.09.22,0,.28s-.14-.21-.26-.25a2,2,0,0,1,.48.75c0-.08.13-.15.32,0,.47.41.05.28.27.58.17,0,.42.36.57.19.15.11.11.21.13.3.32.12,1.23.89,1.08.48L17,58.23l0,0h0c.94.49,1.77,1.29,2.7,1.78l0,.06a8.35,8.35,0,0,0,1.74.64c.17.08.34.31.23.35a4.27,4.27,0,0,1,1.13.48c-.5,0,.11.16-.5-.09a2.56,2.56,0,0,0,1.35.48c-.28.1.37.39.67.43L24,62.12a5.12,5.12,0,0,1,.86.32l-.22.18a3.67,3.67,0,0,0,1.73.38,2.68,2.68,0,0,1,1.48.41c.37-.12-.67-.23-.32-.38a8,8,0,0,1,1.3.6c.79.25.8-.22,1.63-.05-.1-.1-.18-.34.45-.39s.69.41.32.46c-.14,0-.21,0-.2-.06-.2,0-.45,0-.22.16l.08-.09c.29.11,1.1.14.91.27.45-.06.19-.13-.14-.2a9.24,9.24,0,0,0,2,.13c-.12,0-.24-.14-.12-.14,1.15.05.5-.2,1.27-.28.44.12-.14.33.63.18.49.07.13.23-.06.31a6.88,6.88,0,0,1,1.76-.07l-.37.13a4,4,0,0,1,.59-.13l-.24-.14c.23,0,.41,0,.42,0,.21-.15-.22-.27.2-.49.31,0,.87-.22,1,0-.93.09.15.22-.62.39a2,2,0,0,1,.55-.09s0,.06-.07.08c.91,0,.34-.36,1.23-.58-.08.16.27.19.41.13-.36.09-.23-.17.08-.35.59,0,.59-.24.89-.3l-.35,0c.08-.16.37-.21.73-.4.07.09-.32.19-.17.19.34-.38,1-.12,1.58-.49.31,0,.12.22.38.19.61-.4.79-.14,1.42-.58-.27-.07-.28,0,.11-.4l-1.05.65.6-.58a7.85,7.85,0,0,1-.87.49c.29-.27.26-.23,0-.28.56,0,.83-.58,1.43-.66l.18.4a2.85,2.85,0,0,0,1.12-.58,5.35,5.35,0,0,1,1.2-.84l-.36.13c0-.23.59-.39.87-.64.05.14.28.07.47.06-.08-.08.68-.5.59-.8l.52-.15c.79-.5.6-.94,1.27-1.5-.09.3.28.11-.09.59.22-.19.44-.35.37-.43.19,0,.48-.7.77-.78,0-.13,0-.27.22-.49,0,0,0,.06,0,.06s.3-.44,0-.35a3.68,3.68,0,0,0,1.3-1.11c.2-.24.4-.47.59-.66a1.75,1.75,0,0,1,.56-.48c.34-.55.78-1.19,1.1-1.68,0,.06.06,0,0,.13.54-.62-.1-.65.51-1.35.44-.27-.15.48.08.28.48.14.55-1,1.06-1.38l0,.15c.36-.36.34-1.13.71-1.81,0,0,0,0,.06,0a14.52,14.52,0,0,1,.46-2.25c.1.27,0,.34.21.28.09-.32-.32,0-.15-.65.17-.17.43-.58.63-.59a6,6,0,0,1-.19.6c.38-.22.25-.78.37-1.09l.1.08c.2-1-.08-1,.2-2l-.12.08c-.16-.6.25-.43.13-1l.32-.12c0-.38-.07-1.32-.07-2a6.2,6.2,0,0,1,.23,1.68A4.36,4.36,0,0,0,60.3,39a1.15,1.15,0,0,1,0,.49,5.08,5.08,0,0,1-.2-1.8c.56.16.26-1.9.61-2.44a10,10,0,0,1-.15-2,18.83,18.83,0,0,0-.23-2.14c-.35.61-.08-.44-.51-.26a2.1,2.1,0,0,1-.11-.51V29.3c.07-.28.19.31.28.25-.16-.77.1-.37.09-.91-.13.15-.29-.2-.35-.65l0,.67c-.49-1,.09-1-.5-2l.25.28c-.26-.51-.71-2-1.33-2.31,0-.11.06-.28.2-.07a10,10,0,0,0-1.09-1.85,6.47,6.47,0,0,1-1-1.63l.15,0c-.17-.19-.39-.27-.5-.58,0,0,.16,0,.09-.08a2.53,2.53,0,0,1-.7-.72l.27.15a5.08,5.08,0,0,0-1.07-1.25,10.55,10.55,0,0,1-1.2-.91c.24-.21-.35-1.09-.71-1.47l0,0A12.5,12.5,0,0,0,51,15c-.54-.35-1.13-.61-1.72-1a4.51,4.51,0,0,0-1.53-1.31c-.69-.43-1.42-.92-2-1.29.16.15-.15.21-.39.13s-.93-.18-.75-.44l.1.06c-.1-.37-.74-.63-1.25-.8l-.23.34a4.91,4.91,0,0,0-2.24-1A3.67,3.67,0,0,1,39,9.06a8.22,8.22,0,0,0-1.11,0L38,8.84a13.43,13.43,0,0,0-2.54-.37l.25-.14c-.65-.05-.87.57-1.46.55l-.16-.32a9,9,0,0,0-3.4.07s0-.14.22-.16c-.53,0-2.09,0-1.83.43,0-.27-1.17.14-1.74.38l.05-.23a2.43,2.43,0,0,1-1.11.71c-.17,0-.19-.12,0-.13-.57,0-.37.3-1.06.37l.21-.2c-.57.14-.51.18-.76.44s-1,.32-1.19.18a.88.88,0,0,1-.62.45c-.07,0,0-.13.08-.18-1,.18-1.21.81-1.91.89a.17.17,0,0,0-.16-.06c.7-.33,1.27-.59,1.22-.55-.07-.18-.65.06-.31-.4a5.52,5.52,0,0,1-1.63,1.2l-.1,0,0-.05a.79.79,0,0,0-.33.2,2.4,2.4,0,0,0-.46.21c-.14-.1-.67.3-.94.46.13.16-.23.35.19.3-.05,0,0-.06.21-.17a.9.9,0,0,0,.1-.09v0l.65-.42a1.08,1.08,0,0,1-.68.51c-.07.2-.14.41-.19.52-.52,0-1.3.26-1.49.2-.68.69-1.8,1.38-1.95,2.12-.16.22-.3.12-.41.14.08-.13.23-.25.25-.35-.33.44-1.16,1.11-1.06,1.39-.58.37.09-.45-.54.24l0-.16a5.19,5.19,0,0,0-1.55,1.89,5.23,5.23,0,0,1-1.54,2.07c.12-.09.17-.14.23-.14-1.51,1.8-2.28,4.17-3.38,6.18A1.59,1.59,0,0,0,7.07,28L6.8,28c0,.24,0,.49.08.73A3,3,0,0,1,6.39,30a2.11,2.11,0,0,0-.34,1.5l.17-.13c-.09.42-.11,1.37-.28,1.28A.25.25,0,0,1,6,33H5.85A8,8,0,0,0,6,34.05c-.12.82-.46-.17-.54,1.05,0,.46.28,1.3.36,1.13s.1-.47.22-.48l0,.41c.35.08.69.37,1-.59l-.18-.68L7,34.68v.57c.17-.31,0-.52,0-.76a.39.39,0,0,0,.2-.26l-.3-.69c.15-.07.23.32.37-.11-.11-.33-.35.26-.38-.26.21-.31.32-.19.25-.59.09,0,.14.05.15.2,0-.34.09-.88-.06-1.08A1.65,1.65,0,0,0,7.38,31c0-.23.13-.41.28-.36a2.47,2.47,0,0,1,0-.94c.24.65.31-1.12.68-.85-.26-.51.35-1.46.41-2.23,0,.05,0,.15,0,.2a2.64,2.64,0,0,1,.47-.67c-.25-.16,0-.78,0-1.17.48-.34.18.43.49.39-.22-.07.17-.89-.08-.83.33-.27.22-.26.52-.33-.29-.23.09-.36.08-.74.45-.4.37.05.59-.54C11,22.77,10.81,23.3,10.81,23.3Zm10.1-10.45h0l-.28.15ZM22,12.3l-.49.23c-.07,0-.06-.13.05-.19C21.56,12.42,21.85,12.33,22,12.3Zm-3.09,0c.17-.14.25-.14.29-.12l-.29.22v0A.2.2,0,0,1,19,12.27Z"/><path class="cls-2" d="M18.78,12.7l-.07.06.13,0,0-.09Z"/><path class="cls-2" d="M17.09,58.3l0,0a.09.09,0,0,1,0-.06S17.08,58.28,17.09,58.3Z"/><polygon class="cls-2" points="38.84 10.98 38.85 10.93 38.74 10.94 38.84 10.98"/><path class="cls-2" d="M12.47,53a.28.28,0,0,0,0-.11S12.45,52.93,12.47,53Z"/><path class="cls-2" d="M10.76,50.52l-.16-.4A3,3,0,0,0,10.76,50.52Z"/><path class="cls-2" d="M9.69,48.49a.32.32,0,0,0-.1,0h.1Z"/><path class="cls-2" d="M40.61,61.21l.08,0C40.88,61.08,40.75,61.14,40.61,61.21Z"/><path class="cls-2" d="M29.93,62.64a2.2,2.2,0,0,1,.36,0C30.1,62.55,30,62.53,29.93,62.64Z"/><polygon class="cls-2" points="50.7 55.04 50.71 55.04 50.76 54.99 50.7 55.04"/><path class="cls-2" d="M30.8,62.63a1.3,1.3,0,0,0-.51,0A2.15,2.15,0,0,0,30.8,62.63Z"/><path class="cls-2" d="M6.9,39v-.11h0Z"/><path class="cls-2" d="M6.86,38.92l0-.12A.19.19,0,0,0,6.86,38.92Z"/><path class="cls-2" d="M6.77,38.54l.06.26A.38.38,0,0,0,6.77,38.54Z"/><path class="cls-2" d="M7.31,42H7.4A.13.13,0,0,0,7.31,42Z"/><path class="cls-2" d="M7.57,42.92a3,3,0,0,0-.11-.85l-.06,0C7.54,42.16,7.39,42.75,7.57,42.92Z"/><path class="cls-2" d="M7.91,46.93c-.09-.25-.15-.51-.22-.77,0,.16-.07.38-.21,0C7.6,47.24,7.57,45.94,7.91,46.93Z"/><path class="cls-2" d="M8.88,49.22c-.22-.37-.1.06-.15.07C8.93,49.49,9,49.54,8.88,49.22Z"/><path class="cls-2" d="M21.84,61.24l-.12.16C22,61.52,21.76,61.33,21.84,61.24Z"/><path class="cls-2" d="M25.34,61.5a1.64,1.64,0,0,1-.26-.2l-.19.12A3.54,3.54,0,0,0,25.34,61.5Z"/><polygon class="cls-2" points="26.94 63.33 26.79 63.31 27.35 63.39 26.94 63.33"/><path class="cls-2" d="M54.41,53.82l-.25-.07C54,53.94,54.22,54.15,54.41,53.82Z"/><path class="cls-2" d="M59.85,42a.73.73,0,0,0,.21-.71C60,41.58,59.86,41.85,59.85,42Z"/><polygon class="cls-2" points="42.63 10.14 42.91 10.16 42.42 10.05 42.63 10.14"/><path class="cls-2" d="M4.55,34.24c-.06-.08-.21,0-.17.21l.26.17Z"/><path class="cls-2" d="M4.17,35.89c.14.28.37.59.58.39-.25-.26-.15-.34-.45-.62,0-.25.06-.43.15-.4-.07-.08,0-.37-.13-.5a1.3,1.3,0,0,0,0,1.14C4.29,36,4.22,35.91,4.17,35.89Z"/><path class="cls-2" d="M15.17,56.44l-.11-.12Z"/><path class="cls-2" d="M29.15,61.55c-.12,0-.17,0-.18,0S29.17,61.57,29.15,61.55Z"/><path class="cls-2" d="M31.73,61.87h-.15A.19.19,0,0,0,31.73,61.87Z"/><path class="cls-2" d="M15.17,56.44l.28.3C15.52,56.69,15.32,56.57,15.17,56.44Z"/><path class="cls-2" d="M5.15,39.06a.54.54,0,0,0-.1-.2l.06.19Z"/><path class="cls-2" d="M10.13,52.11,10.05,52H9.91Z"/><path class="cls-2" d="M7.15,48c0,.1.25,0,.35,0a.38.38,0,0,1-.25-.14A.25.25,0,0,0,7.15,48Z"/><path class="cls-2" d="M4.54,40.32l-.06-.13Z"/><path class="cls-2" d="M12.68,54.75a.16.16,0,0,0,0,.09S12.68,54.79,12.68,54.75Z"/><path class="cls-2" d="M5.66,28.68h0S5.65,28.71,5.66,28.68Z"/><path class="cls-2" d="M4,34.24v-.08H3.87Z"/><path class="cls-2" d="M36.52,61.63h0C36.38,61.67,36.45,61.65,36.52,61.63Z"/><path class="cls-2" d="M58.11,28.37c-.06.52-.44-.73-.46,0C57.72,28.32,58.14,29,58.11,28.37Z"/><path class="cls-2" d="M5.14,39.19l0,.19A.44.44,0,0,0,5.14,39.19Z"/><path class="cls-2" d="M57.65,28.41h0v0Z"/><path class="cls-2" d="M46.61,57.23a.21.21,0,0,0-.14,0S46.52,57.24,46.61,57.23Z"/><path class="cls-2" d="M39.14,60.52l.2,0A.88.88,0,0,0,39.14,60.52Z"/><path class="cls-2" d="M49.73,54.33c.09-.07.14-.07.23-.19h-.05A.31.31,0,0,1,49.73,54.33Z"/><path class="cls-2" d="M52.69,51.08l-.08,0-.08.12Z"/><path class="cls-2" d="M11.12,17.43a1,1,0,0,1-.28,0C11,17.5,10.63,18,11.12,17.43Z"/><path class="cls-2" d="M5,39.08c.06,0,.09,0,.11.11l0-.14A.07.07,0,0,0,5,39.08Z"/><path class="cls-2" d="M48.72,53l.51-.42A5.61,5.61,0,0,0,48.72,53Z"/><path class="cls-2" d="M38.16,9.22H38A.2.2,0,0,0,38.16,9.22Z"/><path class="cls-2" d="M50.52,51.12a1.35,1.35,0,0,0,.36-.18.18.18,0,0,0,0-.1Z"/><path class="cls-2" d="M10.84,17.45h0Z"/><path class="cls-2" d="M8.77,21.31c.33-.53-.08-.39-.15-.59.33-.69.36-.19.61-.33.17-.45.16-.89.39-1.16.05,0,.1,0,.1.06.13-.53.87-1.19,1-1.82a.22.22,0,0,1,.1,0,.47.47,0,0,1-.35-.17c.19-.22.22-.51.43-.47-.12.12-.07.18-.09.28l.15-.28c.38,0-.21.37-.06.49a7.17,7.17,0,0,1,1-1.42c.25.11-.64.84-.07.55l-.54.44c.65-.12-.3.29.35.22.66-.6.55-.85,1.25-1.42.06-.23-.19-.1-.14-.34.79-1.06,1.18-.2,1.65-1.09.07-.28,0-.59.6-.86v.37c.72-.5.16-.63,1-1-.07.19-.5.49-.37.44.6-.17.24-.38.61-.66l.22.16c.78-.5,1.53-1.25,2.44-1.75,0,.1-.14.24.12.21a11.38,11.38,0,0,1,1.82-.89c.66-.2,1.33-.36,1.93-.5l.38-.38c.11,0,.23.05.13.11.49,0,0-.14.18-.28s.39,0,.24.14a11.72,11.72,0,0,1,1.56-.65A4,4,0,0,1,27,8.45l-.17.09c.71,0,.73-.57,1.41-.47l-.12.06c1.54,0,3.26-.31,4.42.14.25-.31,1.5.21,1.65-.17a8,8,0,0,0,1.77.72c.32.06.53-.17.94-.12l0,.23.59-.1.22.34.39,0c-.15-.05-.29-.18-.25-.24a2.43,2.43,0,0,1,.91.29c.26.15.43.33.42.39l1.39.3c-.06.07-.3,0-.49,0,.79,0,0,.28.76.31-.07-.08.1-.11.13-.15a5.69,5.69,0,0,0,1.51.8l-.17.09a32.18,32.18,0,0,1,3,1.58c-.32-.28-.09-.46.22-.3l0,.27c.28,0-.25-.26.24-.18.35.28.08.41-.16.32l.47.25c0,.08-.13,0-.21.09.26,0,.58.75,1,.72l0,.08a25.87,25.87,0,0,1,2.07,1.64c.16-.14.4.15.73.22a19.28,19.28,0,0,0,1.42,1.87c.46.39.25,0,.51.16-.12.15.4.82,0,.55.31.4.52.65.75.93l.4.44.49.64c0-.16-.06-.32,0-.28s.21.5.12.52l0,0a5,5,0,0,1,1,2.11,6.09,6.09,0,0,0,.85,1.95l0-.05.6,1c.16.53-.25-.26-.22.16a5.2,5.2,0,0,1,.43.78c.08.26.13.5.18.74a5.49,5.49,0,0,0,.4,1.4,4.26,4.26,0,0,0,.09,1.91c.07.37.17.75.21,1.11a3.3,3.3,0,0,1-.08,1l.13-.07c.15.28-.06.35-.08.56.11,0,.11-.31.19-.14a13.62,13.62,0,0,1-.11,3.71c-.09.62-.27,1.23-.4,1.83l-.21.91-.28.89c-.26.85.54.67,0,1.69l-.16-.38a12.59,12.59,0,0,1-.79,2.65,25.4,25.4,0,0,0-1.11,2.52c0-.12,0-.15,0-.31-.33.25-.73,1.19-.6,1.28-.16.23-.15,0-.3.09s-.29.94-.57,1c0,0,0-.12,0-.18-.08.25-.71.9-.4.84-.49.47-.68,1.1-1.13,1.43-.06.41-.86.77-.69,1.08-.22-.27-1,.7-1.2,1.07,0-.17-.35.17-.33,0-.35.32-.63.67-.46.74-.89.32-1.19,1.39-1.91,1.29l-.77.74-.83.63A13.69,13.69,0,0,1,43,57.57c-.1-.28,1.25-.72,1-1-.25.19-.46.37-.66.54l-.61.45a6.67,6.67,0,0,1-1.39.77c-.3.09.11-.22.18-.31a7.83,7.83,0,0,1-1.64.71c-.55.18-1.06.44-1.57.64,0,0,.1-.1.2-.15-.21.07-.5.08-.43.22l.19-.09c.4.12-.71.66-.73.79.25-.52-1.09.16-.65-.53-.13.07-.29.18-.23.28-.21,0-.29,0-.11-.19-.73.28-.44.34-1.14.46,0-.07.13-.12.19-.22a2.41,2.41,0,0,1-1.27.42c0-.05,0-.09.13-.12a9.35,9.35,0,0,1-2.85.48c.33-.34-.38-.09-.45-.36-.2,0-.4.06-.6.08l.24.14a9.11,9.11,0,0,1-1.46,0l.4-.1h-1l.56.13c-.55.12,0,.36-.67.24.15,0-.55,0-.8-.24h0a1.69,1.69,0,0,1-.94,0c-.09-.11.13-.3.07-.36-.29.18-1.24-.11-1.61.05.11,0,.15-.17.12-.21l-.25.13c-.23-.12-.26-.16-.19-.27-.71-.21.15.41-.68,0,.08,0,.05,0,.2,0a15.8,15.8,0,0,1-2.44-.69c-.13-.35.69.18.51-.14-.55-.18-1.15-.3-1.74-.45A6.78,6.78,0,0,1,19.3,58l.17.12c-.31.29-.68-.53-1.27-.63.13,0,.27-.11.21-.08a20.25,20.25,0,0,0-2.47-1.27h.17c-.31-.35-.94-.77-1.3-1.1-.18,0-.4-.19-.36,0a5.37,5.37,0,0,0-1.58-1.54,3.45,3.45,0,0,1-1.42-1.51c.11.12.33.22.24.13l-.84-.79c-.07.18,0,.18.08.45a1.63,1.63,0,0,1-.65-.45c.44.31.2-.18.14-.42,0,.06-.11,0-.14.09-.12-.68-.33.13-.67-.66l.1,0A3.86,3.86,0,0,1,9,49.72c.08-.23.27.21.42.13-.29-.36-.89-.51-.93-1a5.68,5.68,0,0,0,.47.51,2.05,2.05,0,0,0-.28-.84v0l-.32-.73.05.21c-.73-.25-.75-.94-1.36-1.51.62.54.22,0,.44,0,0-.21-.1-.51,0-.46-.33-.26-.14-.62-.61-1,.06,0-.16-.36,0-.35-.26-.41-.07.15-.17.15-.55-.58-.33-1.74-1-2.62-.39-.84-.65-.95-1-1.77,0-.31.32.17.32.17A3.36,3.36,0,0,0,4.8,39.4c.07.08.11,0,.17-.17-.07-.35-.29-.19-.26-.67a1.28,1.28,0,0,1,.34.3c-.12-.4-.32-.78-.45-1.2.11-.13.23.23.33.37a4.08,4.08,0,0,0-.49-1.36L4.38,37c0-.18.16-.11.22,0,.22.39,0,.6,0,.63l-.09-.3c-.38.37.25,1.23.32,1.84L4.43,39l.36.58c-.06.15-.21.28-.31,0-.07.48.2.37.12.78,0,0,0,0-.06,0l.2.41c-.08-.07-.19.12-.22-.15,0,.82.55,1.18.4,1.54l0-.06c.43,1,.24,0,.77.73l-.34.71.25,0c0,.11.09.33,0,.32.29.34.07-.1.29.07a2.36,2.36,0,0,0,.28.94c.14.29.24.54.11.67.24.11-.11-.52.25-.05-.28.32.36.58.41,1.11-.24,0-.36-.53-.3,0,.43.12.36.92.66,1.24.25-.12.58.73,1,1.29-.13,0,.65,1.18,1,1.77H9.19c.31-.07.64.53,1,.86-.14.09-.25.07-.48-.09l.31.35a1,1,0,0,1,.51.31l-.24,0a13.13,13.13,0,0,1,1.49,1.44c.16-.11-.09-.8.62-.33,0,.09-.15.24-.35.13a.74.74,0,0,1,.33.24l-.37-.1c.22.3.24,0,.45.23-.11.1.08.22,0,.28s-.14-.22-.27-.25a2,2,0,0,1,.49.74c0-.08.13-.15.32,0,.47.41,0,.28.27.58.17,0,.42.36.57.19.15.11.11.21.13.3.32.12,1.23.89,1.07.48l0-.06,0,0h0c.93.49,1.76,1.29,2.7,1.78l0,.06a8.15,8.15,0,0,0,1.74.64c.16.08.33.31.23.36a3.74,3.74,0,0,1,1.12.47c-.5,0,.12.16-.5-.08a2.67,2.67,0,0,0,1.36.47c-.28.1.36.39.66.44l-.37-.28a5.86,5.86,0,0,1,.87.32l-.23.18a3.74,3.74,0,0,0,1.74.38,2.68,2.68,0,0,1,1.48.41c.37-.12-.67-.22-.33-.38a9.88,9.88,0,0,1,1.31.6c.79.25.8-.22,1.62-.05-.1-.09-.17-.34.46-.39s.69.41.31.46c-.14,0-.2,0-.2-.06-.19,0-.44,0-.22.16l.09-.09c.28.11,1.1.14.9.28.46-.07.2-.14-.13-.2a10.76,10.76,0,0,0,2,.13c-.13,0-.24-.15-.12-.15,1.15.05.5-.2,1.26-.27.45.11-.13.33.64.17.48.07.12.23-.06.32a6.45,6.45,0,0,1,1.76-.07l-.37.12a3.73,3.73,0,0,1,.59-.13L35,61.72c.23,0,.41,0,.42,0,.21-.15-.22-.26.2-.49.3,0,.86-.21,1,0-.93.09.15.23-.62.39a2,2,0,0,1,.55-.08s0,.06-.08.08c.92,0,.35-.36,1.24-.58-.08.15.27.19.41.12-.36.09-.23-.17.07-.35.6,0,.6-.24.9-.3l-.35,0c.08-.15.36-.21.73-.4.06.09-.33.2-.18.19.35-.38,1-.12,1.59-.49.31,0,.11.22.38.19.61-.39.79-.13,1.42-.58-.27-.07-.29,0,.11-.4l-1.05.65.6-.58c-.34.15-.65.45-.87.49.29-.26.26-.23,0-.28.56,0,.83-.57,1.43-.66l.18.4a2.75,2.75,0,0,0,1.11-.58,5.33,5.33,0,0,1,1.21-.83l-.36.12c0-.23.59-.39.87-.64.05.14.28.07.46.06-.07-.08.68-.5.59-.8l.53-.15c.79-.49.6-.94,1.27-1.5-.09.3.27.11-.09.6.22-.2.43-.36.37-.44.19,0,.47-.7.77-.78.05-.13,0-.27.22-.48,0,0,0,0,0,0s.29-.44,0-.34a3.61,3.61,0,0,0,1.29-1.12c.2-.23.4-.46.6-.66a1.89,1.89,0,0,1,.56-.48c.34-.55.78-1.19,1.1-1.68,0,.06.06.05,0,.13.54-.61-.1-.65.5-1.35.45-.27-.14.49.09.28.47.14.54-1,1.06-1.38l0,.15c.36-.35.34-1.13.71-1.81,0,0,0,.06.06,0a13.64,13.64,0,0,1,.46-2.25c.1.28,0,.35.21.28.09-.32-.33,0-.15-.65.17-.17.43-.58.63-.59,0,.21-.13.4-.19.6.38-.22.25-.77.36-1.08l.11.07c.2-1-.08-1,.19-2l-.11.08c-.16-.6.25-.43.13-1l.31-.11c0-.39-.06-1.33-.06-2a6.26,6.26,0,0,1,.23,1.68,4.08,4.08,0,0,0,0-1.46,1.15,1.15,0,0,1,0,.49,5.26,5.26,0,0,1-.21-1.8c.57.16.27-1.89.62-2.44a10,10,0,0,1-.15-2c-.06-.67-.1-1.38-.23-2.14-.36.62-.08-.44-.51-.26-.09-.34-.14-.46-.11-.5v-1.1c.07-.28.18.3.28.24-.17-.77.1-.36.09-.9-.13.14-.3-.2-.35-.66l0,.67c-.49-1,.08-1-.51-2l.26.29c-.27-.51-.71-2-1.33-2.32,0-.11.06-.28.2-.07a10,10,0,0,0-1.09-1.85,6.16,6.16,0,0,1-1-1.62l.14,0c-.16-.19-.38-.26-.49-.57.05,0,.15,0,.09-.08a2.91,2.91,0,0,1-.71-.73l.28.15a5.08,5.08,0,0,0-1.07-1.25,9.73,9.73,0,0,1-1.2-.91c.24-.21-.35-1.08-.71-1.46l.05,0A11.75,11.75,0,0,0,48.9,13c-.53-.36-1.12-.62-1.72-1a4.46,4.46,0,0,0-1.52-1.32c-.69-.43-1.42-.92-2-1.29.17.15-.15.22-.39.14s-.92-.19-.74-.44l.1,0c-.1-.37-.75-.63-1.26-.8l-.22.34a5.06,5.06,0,0,0-2.25-1A3.77,3.77,0,0,1,37,7.07a6.86,6.86,0,0,0-1.11,0l.06-.2a12.62,12.62,0,0,0-2.54-.38l.25-.14c-.66,0-.87.57-1.46.55L32,6.56a9,9,0,0,0-3.39.08s0-.14.22-.17c-.54,0-2.09,0-1.83.43-.06-.27-1.17.14-1.74.38l0-.23a2.35,2.35,0,0,1-1.11.71c-.17,0-.19-.12,0-.13-.57,0-.37.31-1.06.37l.21-.19c-.57.13-.51.17-.76.43s-1,.33-1.19.18a.85.85,0,0,1-.62.45c-.07,0,0-.13.08-.17-1,.17-1.22.8-1.91.89a.17.17,0,0,0-.16-.07c.7-.33,1.27-.59,1.22-.55-.07-.18-.66.07-.31-.4a5.47,5.47,0,0,1-1.63,1.2l-.11,0,.05-.05a1,1,0,0,0-.33.2,3.35,3.35,0,0,0-.47.21c-.14-.1-.66.3-.93.46.13.17-.23.35.18.3-.05,0,0,0,.21-.17a.53.53,0,0,0,.11-.09v0l.65-.41a1.1,1.1,0,0,1-.68.51c-.07.19-.14.4-.19.51-.52,0-1.31.27-1.49.21-.69.68-1.8,1.38-1.95,2.11-.16.22-.3.13-.42.15.09-.14.23-.26.26-.36-.33.44-1.16,1.11-1.06,1.39-.58.38.09-.45-.54.24l0-.15a5.06,5.06,0,0,0-1.55,1.88,5.26,5.26,0,0,1-1.54,2.07c.11-.09.17-.14.22-.13-1.5,1.79-2.28,4.16-3.37,6.17A1.66,1.66,0,0,0,5,26L4.76,26c0,.24,0,.48.08.72A3,3,0,0,1,4.35,28,2.06,2.06,0,0,0,4,29.5l.17-.13c-.09.43-.12,1.37-.28,1.28a.26.26,0,0,1,0,.32H3.81a6.57,6.57,0,0,0,.1,1.08c-.13.82-.46-.17-.55,1.05,0,.46.28,1.3.37,1.13s.1-.46.22-.47l0,.4c.35.08.69.38,1-.58l-.18-.68L5,32.69l0,.56a.74.74,0,0,0,0-.75.41.41,0,0,0,.2-.27l-.29-.69c.14-.07.23.32.36-.11-.1-.32-.35.26-.37-.26.21-.3.32-.19.24-.58.1,0,.15,0,.16.2,0-.35.09-.89-.07-1.09a1.47,1.47,0,0,0,.2-.67c0-.23.13-.41.28-.36a2.28,2.28,0,0,1,0-.94c.24.65.31-1.11.68-.85-.26-.51.35-1.46.4-2.22a.23.23,0,0,1,0,.2,2.73,2.73,0,0,1,.47-.68c-.25-.16,0-.77,0-1.17.48-.34.17.43.49.4-.23-.08.17-.9-.08-.83.32-.28.22-.27.52-.34-.29-.23.09-.36.07-.74.45-.39.38.05.6-.54C8.94,20.77,8.77,21.31,8.77,21.31Zm10.1-10.46h0L18.6,11ZM20,10.3l-.49.23c-.08,0-.07-.13,0-.18C19.52,10.42,19.8,10.33,20,10.3Zm-3.09,0c.17-.13.25-.14.29-.11l-.3.21v0A.2.2,0,0,1,16.91,10.27Z"/><path class="cls-2" d="M16.73,10.7l-.06.06.13,0,0-.1Z"/><path class="cls-2" d="M15,56.3l0,0a.14.14,0,0,1,0-.06Z"/><polygon class="cls-2" points="36.8 8.98 36.81 8.93 36.7 8.95 36.8 8.98"/><path class="cls-2" d="M10.42,51a.15.15,0,0,0,0-.11A.23.23,0,0,0,10.42,51Z"/><path class="cls-2" d="M8.72,48.52l-.16-.4A3,3,0,0,0,8.72,48.52Z"/><path class="cls-2" d="M7.64,46.49a.33.33,0,0,0-.1,0h.1Z"/><path class="cls-2" d="M38.57,59.21l.08,0C38.84,59.08,38.71,59.14,38.57,59.21Z"/><path class="cls-2" d="M27.89,60.65l.36,0C28.06,60.56,27.91,60.53,27.89,60.65Z"/><polygon class="cls-2" points="48.66 53.04 48.66 53.05 48.72 53 48.66 53.04"/><path class="cls-2" d="M28.75,60.63a1.25,1.25,0,0,0-.5,0A2.1,2.1,0,0,0,28.75,60.63Z"/><path class="cls-2" d="M4.86,37v-.11h0Z"/><path class="cls-2" d="M4.82,36.92l0-.12C4.79,36.86,4.8,36.91,4.82,36.92Z"/><path class="cls-2" d="M4.72,36.55l.07.25C4.78,36.71,4.79,36.6,4.72,36.55Z"/><path class="cls-2" d="M5.27,40h.09A.13.13,0,0,0,5.27,40Z"/><path class="cls-2" d="M5.52,40.92a3.42,3.42,0,0,0-.1-.85l-.06,0C5.5,40.17,5.35,40.75,5.52,40.92Z"/><path class="cls-2" d="M5.87,44.94c-.09-.25-.15-.52-.23-.77,0,.16-.06.37-.21,0C5.56,45.25,5.52,44,5.87,44.94Z"/><path class="cls-2" d="M6.84,47.23c-.22-.37-.1.06-.15.06C6.88,47.5,6.94,47.54,6.84,47.23Z"/><path class="cls-2" d="M19.8,59.24l-.12.16C20,59.52,19.71,59.33,19.8,59.24Z"/><path class="cls-2" d="M23.3,59.51A2.65,2.65,0,0,1,23,59.3l-.2.12A3.4,3.4,0,0,0,23.3,59.51Z"/><polygon class="cls-2" points="24.9 61.33 24.75 61.32 25.31 61.39 24.9 61.33"/><path class="cls-2" d="M52.37,51.82l-.25-.07C52,51.94,52.17,52.16,52.37,51.82Z"/><path class="cls-2" d="M57.81,40a.73.73,0,0,0,.21-.71C58,39.58,57.82,39.85,57.81,40Z"/><polygon class="cls-2" points="40.59 8.15 40.87 8.16 40.37 8.05 40.59 8.15"/><path class="cls-3" d="M29.11,25.63a5.38,5.38,0,0,1,1,3.24,4.68,4.68,0,0,1-1,3.12,5,5,0,0,1-1.62,1.21,4.73,4.73,0,0,1,2.45,1.87,5.64,5.64,0,0,1,.83,3.11,6.17,6.17,0,0,1-1,3.38,5.86,5.86,0,0,1-3.89,2.74,14.9,14.9,0,0,1-3,.29H13.36V23.37H23.61Q27.49,23.43,29.11,25.63ZM17.59,27.06v4.67h5.16A4.25,4.25,0,0,0,25,31.21a2,2,0,0,0,.86-1.87,1.89,1.89,0,0,0-1.14-1.95,8,8,0,0,0-2.5-.33Zm0,8.19V40.9h5.15a5,5,0,0,0,2.15-.37,2.67,2.67,0,0,0,1.39-2.65,2.3,2.3,0,0,0-1.35-2.28,5.21,5.21,0,0,0-2.12-.35Z"/><path class="cls-4" d="M29.11,25.63a5.38,5.38,0,0,1,1,3.24,4.68,4.68,0,0,1-1,3.12,5,5,0,0,1-1.62,1.21,4.73,4.73,0,0,1,2.45,1.87,5.64,5.64,0,0,1,.83,3.11,6.17,6.17,0,0,1-1,3.38,5.86,5.86,0,0,1-3.89,2.74,14.9,14.9,0,0,1-3,.29H13.36V23.37H23.61Q27.49,23.43,29.11,25.63ZM17.59,27.06v4.67h5.16A4.25,4.25,0,0,0,25,31.21a2,2,0,0,0,.86-1.87,1.89,1.89,0,0,0-1.14-1.95,8,8,0,0,0-2.5-.33Zm0,8.19V40.9h5.15a5,5,0,0,0,2.15-.37,2.67,2.67,0,0,0,1.39-2.65,2.3,2.3,0,0,0-1.35-2.28,5.21,5.21,0,0,0-2.12-.35Z"/><path class="cls-2" d="M17.59,34.75c0,.06,0,.21,0,.18l0-.25Z"/><path class="cls-2" d="M17.85,35.21a1.47,1.47,0,0,0,.07-.56,4.09,4.09,0,0,0-.11.42s-.06-.08-.06-.17c0,.06-.06-.06-.08.1s.11.2.18,0A1,1,0,0,1,17.85,35.21Z"/><path class="cls-2" d="M21.59,35.59l0,0S21.58,35.59,21.59,35.59Z"/><path class="cls-2" d="M23.83,35.8a.09.09,0,0,0,0,.05A.05.05,0,0,0,23.83,35.8Z"/><path class="cls-2" d="M24.12,36.13v0S24.11,36.15,24.12,36.13Z"/><path class="cls-2" d="M21.59,35.59l.06.08C21.65,35.59,21.62,35.61,21.59,35.59Z"/><path class="cls-2" d="M18.36,34.61l0,.06,0,0Z"/><path class="cls-2" d="M20.57,35.79h0l0,.11Z"/><path class="cls-2" d="M19.78,35.83s0-.2,0-.29c0,.09,0,.13,0,.14Z"/><path class="cls-2" d="M18.54,35.46l0,0Z"/><path class="cls-2" d="M21.13,35.84v0Z"/><path class="cls-2" d="M16.6,36.15h0Z"/><polygon class="cls-2" points="17.64 35.24 17.66 35.26 17.77 35.26 17.64 35.24"/><path class="cls-2" d="M24.53,36.55Z"/><path class="cls-2" d="M24,39.91c.11.17-.05.26.09.44C24.09,40.27,24.12,40,24,39.91Z"/><path class="cls-2" d="M18.38,34.63h0Z"/><polygon class="cls-2" points="24.11 40.35 24.11 40.35 24.13 40.37 24.11 40.35"/><path class="cls-2" d="M25.26,37.13l.08,0Z"/><path class="cls-2" d="M25,36.33v0Z"/><path class="cls-2" d="M25.66,37.5s-.05,0,0,0h0S25.63,37.52,25.66,37.5Z"/><path class="cls-2" d="M25.68,38.07h0v0Z"/><path class="cls-2" d="M16.7,38.2l.19,0C16.74,38.17,16.69,38.08,16.7,38.2Z"/><path class="cls-2" d="M18.36,34.73a.41.41,0,0,1,0-.1l0,0Z"/><path class="cls-2" d="M27.31,37.33l0,.14A.22.22,0,0,0,27.31,37.33Z"/><path class="cls-2" d="M19.7,41.76l0,0S19.7,41.78,19.7,41.76Z"/><path class="cls-2" d="M27.34,37.88a.26.26,0,0,0-.14.07h.05Z"/><path class="cls-2" d="M16.89,38.16Z"/><path class="cls-2" d="M16.39,37.46c0,.1.27,0,.43.07s-.2.06-.34.1c.07.07.33.13.31.19h-.11c.22.08,0,.24.28.33h.31c0,.05.18.08,0,.1,0,0-.07,0-.13,0l.08,0c-.26,0-.09-.07-.28-.07.08.09.3.2.23.27-.26,0-.09-.16-.32-.07l.1-.11c-.4.09,0-.07-.4,0-.07.15.13.16.06.31.14,0,.2,0,.35,0,.25.21-.64.16-.31.32.17,0,.5.05.33.16l-.29,0c0,.14.41.08.22.23-.11,0-.1-.11-.13-.09-.23.09.16.07.16.14l-.25,0c0,.16.22.26.27.55-.08,0-.16,0-.24,0a2.07,2.07,0,0,1-.18,1.24l.22,0a.26.26,0,0,1-.14.13c-.08.2.14-.1.23-.1s-.13.2-.2.2a.61.61,0,0,1,.24.21c.22-.05.37-.05.4.07l-.09.07c.14.09.52-.45.54-.25l-.06,0c.36.1.79-.11,1.07.23.08-.32.26.14.29-.3.14.21.1.29.3.44s.07-.28.14-.32v.23l.09-.24.05.27.06-.06a.28.28,0,0,1-.05-.17c.1-.1.24.17.24.28l.23-.19a.43.43,0,0,1-.08.18c.12-.23,0,.25.14,0a.36.36,0,0,1,0-.18.17.17,0,0,0,.27.08l0,.16c.17,0,.36-.08.55-.08-.07-.07,0-.35,0-.37l0,.24c0-.15,0-.09,0-.28.07,0,0,.28,0,.36l.08-.08a.75.75,0,0,1,0,.2c0-.15.15.25.2,0V42c.19,0,.27-.08.43-.09,0-.21.06-.16.11-.33.11.06.23.23.37.21s0-.18.07-.3c0,.19.15.17.07.31a.72.72,0,0,0,.42-.2c0-.07-.05-.11,0-.17s.09.08.08.17v0c.23-.29.61.54.8.12v0l.19-.23c.11,0,0,.15,0,.26.19-.35.39,0,.55-.26.3.51.54-.19.89,0l-.06-.12c0-.14.1,0,.16,0s-.12-.08-.11-.16c.38-.36,1-.43,1.52-.89.16-.17-.52-.47-.12-.52l.18.19c-.05-.5.36-.78.19-1.21,0,0,.13,0,.12.08.19,0,.06-.28-.09-.3,0-.05.14,0,.21,0s-.2-.21,0-.23.06,0,.07,0,0-.23-.17-.2c.11-.12-.08-.24.05-.34-.23-.06.1-.23-.22-.24.34,0,.26-.26.09-.33.1,0,.09-.08.24-.07,0-.1-.1-.19-.27-.14.37-.27-.39-.28.08-.53-.28-.26-.52-.46-.74-.64.29-.18.19.24.49.06-.27-.19-.59-.14-.7-.38,0-.08.13-.07.19-.09-.28-.11-.37-.4-.67-.38a.16.16,0,0,1,.09-.05s-.06-.1-.14,0h.06c-.07.22-.39.3-.45.41.28-.35-.12-.2.24-.64a.29.29,0,0,0-.15.16s0-.11.08-.19c-.18,0-.19.17-.32.12,0-.07.07-.09.12-.16-.13.1-.25.21-.33.11s0-.1.06-.08c-.2,0-.42.27-.57.09.13-.31-.05-.12,0-.4l-.12.06v.14c-.09,0-.2.17-.27.07l.09-.11-.18,0,.08.12c-.11.13,0,.35-.15.26s-.08,0-.11-.19h0c-.05.09-.1.17-.16.1a3.5,3.5,0,0,1,0-.37c-.07.23-.22,0-.29.29a1,1,0,0,0,0-.23L23.3,35c0-.07,0-.09,0-.21s0,.36-.12.19c0,0,0,0,0-.07-.15-.08-.29.11-.42,0,0-.28.11-.07.07-.31-.19.05-.39.34-.57.27l0,0c0,.39-.14-.2-.23,0,0,0,0-.22,0-.18s-.25.1-.44.22l0-.1c-.08-.09-.19,0-.27-.1,0,.1-.07.09,0,.24-.24-.59-.47.31-.68-.18,0,0,.06-.09,0-.09l-.18.1c0,.17,0,.1.06.24s-.08.18-.12.18,0-.28,0-.38a1,1,0,0,1,0,.17c-.1-.31,0,.35-.15.14v-.09c-.05.05-.1.17-.15.14,0-.2,0-.09.06-.26-.08,0-.15.38-.22.18,0,0,.08,0,.11-.11-.07-.23-.08-.17-.13-.21h0l-.12-.1,0,.06c-.1.52-.19.1-.32.44.13-.33,0-.19,0-.42,0-.06-.08-.13-.06-.19-.06.18-.1-.15-.18.12,0-.07-.07,0-.05-.19-.08.06,0,.13,0,.22-.12.25-.28-.31-.45,0-.15.14-.17.39-.31.51a.35.35,0,0,1,0-.27c-.08-.11-.13-.09-.2,0a.47.47,0,0,0,0-.2c-.06,0,0,.26-.12.16a2.65,2.65,0,0,1,.06-.3c-.07.07-.13.21-.2.27a.43.43,0,0,1,.07-.27A.4.4,0,0,0,18,35l.05.07s0-.17,0-.21.09.07.1.15l-.05,0c.05.43.19-.06.29,0l0,.31.1-.26c0,.09,0,.26,0,.31s.06-.11.12.06a0,0,0,0,1,0,.05l.07-.09c0,.06,0,.22,0,.17.12.18.2-.23.24,0v0c.17-.11,0-.23.15-.5l.08.56,0-.23s.05,0,.05.12c.06-.16,0-.1,0-.25.09.21.24-.09.26.27,0-.17-.09-.13,0-.26,0,.4.1-.06.18.12s-.1.09,0,.27c0-.34.15.08.21,0,0-.27.15-.11.26-.2,0,.09.2.15.3.25v0c0-.27.13-.22.2-.28a.5.5,0,0,1-.06.31h.08a.22.22,0,0,1,.08-.16l0,.2c.1,0,.2-.24.32-.1,0-.19-.1-.54,0-.66a1,1,0,0,1,0,.32s0-.09.06,0l-.05.17c.06.08,0-.14.07-.13s0,.11,0,.23,0-.06-.06,0a.36.36,0,0,1,.14.23c0-.08,0-.2,0-.22s0,.18.09.26c0-.11.09,0,.09-.22,0,0,0,.1,0,.16.05-.1.23,0,.18-.26v0h0c.17-.22.34.13.5,0v.08c.1-.09.22,0,.29-.21,0,0,.06.13.05.22s.08-.14.19,0c-.07.12,0,.11-.08.09.1.06.12.18.22,0,0,.19.08.24.12.18l-.07-.13a.17.17,0,0,1,.14,0l0,.25c.16.31.35-.5.46,0,.06-.17-.09-.12,0-.33.08,0,.14.41.16.41s.14-.35.25-.24c0-.09,0-.33.11-.4s.05.38,0,.45,0,0,0-.06a.14.14,0,0,0-.05.16l0-.08c0,.09.14.1.09.24a.13.13,0,0,0,0-.19c.08.14.16,0,.24.13s0-.15,0-.15.1-.15.21-.16c0,.15-.1.31,0,.22,0,.11-.06.23-.1.3.13-.14.11.15.13.19l-.06.06s.05,0,.07,0l0-.17a.1.1,0,0,1,0,.11c.07-.1.09-.28.2-.41,0,.09.14,0,.05.18-.06-.12-.09.21-.18.21s0,0,.05,0a.11.11,0,0,1,0,0c0,.23.16-.22.24-.17s-.11.23-.08.22.1-.2.18-.27c0,.12.1,0,.13,0v-.06c.09-.1.11-.07.17-.07s-.07,0-.09.08c.19-.15-.05.26.1.18,0,.09-.17.19-.2.25.17-.08-.09.17.06.12a.48.48,0,0,1,.26-.18h-.18l.25-.11s-.14,0-.14,0,.1,0,.2-.16c-.16.23.2,0,.11.17l-.36.27c-.11.17.28,0,.24.16l.05-.07c.17-.07.06.06.14.07a1,1,0,0,0-.26.15c.1,0,0,.08.31,0l-.17.11c-.05.11.44,0,.41.14s-.26.07-.38,0,0,.07.08,0c-.09,0,.21.07.08.12.07,0,.22,0,.21,0h-.07c.07,0,.1.07.26,0-.44.15.05.37-.35.47a.83.83,0,0,1,.09.28s-.08,0-.06,0c-.15.09.42.12.24.23s-.11-.08-.21-.06c-.48-.06,0,.16-.25.18l0,0c-.17,0,.15.18.09.26l-.07,0a.52.52,0,0,1,.26.42c-.16-.11-.07-.08-.26-.15,0,.05.29.12.3.23a1.19,1.19,0,0,1-.4-.1l0-.07c-.26-.09,0,.08-.1.1l-.1-.07c0,.11.22.27.13.37l.08,0c.17.24-.17-.06-.05.14l-.24-.18a.81.81,0,0,1,.06.42c-.1-.21-.11-.35-.17-.48a.18.18,0,0,0,0,.23s0-.1,0-.07c.13.2.13.35.05.4-.32-.47-.3,0-.56-.35,0,.26-.29,0-.44.1.18.42-.05,0,.08.47,0,0-.06,0-.08,0l-.19-.24c-.06-.12,0-.11,0-.21s-.08-.18-.16-.29c0,.16,0,.24-.06.19l.11.19c-.1.27-.17-.36-.27-.1l0-.15c-.06.09-.25,0-.3.39,0-.05-.05-.17,0-.21-.17,0-.39.41-.55.18l0-.11s-.07.21-.12.1,0-.11,0-.12-.1.2-.15.13l0-.12c-.2-.15-.3.3-.47.38a.53.53,0,0,0-.23-.49v0c-.23,0-.39.28-.61.41-.13-.36-.45-.15-.67-.36a.36.36,0,0,1,0,.29c-.05-.06-.14.23-.13-.07h0c0-.3-.14-.22-.22-.23l0,.4c-.21-.58-.55.21-.67-.31-.05.1-.11.1-.16.2V40a.45.45,0,0,0-.38,0l0-.16c-.1,0-.13.62-.18.63l0-.32c-.08,0,0-.27-.17,0a.94.94,0,0,1,.08-.15s.1-.22-.21.22c.2-.29,0,0-.2.09l.2-.21a3.22,3.22,0,0,1-.3.28.23.23,0,0,1-.14.07s.17-.16.12-.1c.11-.14-.2.14-.09,0l.13-.09c0-.06-.05,0-.21.08s.06-.15.24-.25c-.11.06-.26.11-.21,0l.14,0c.14-.12-.25,0,0-.17l.12,0c0,.06,0,.11,0,.11a2.69,2.69,0,0,1,.49-.18c-.14.05-.46.07-.37,0h.09s0,0,0,0,.06,0,.06,0c.16,0,.09-.11.09-.15-.21,0-.17-.06-.35,0,0,0,0,0,0,0l0,0h0v.12c-.1,0-.19-.08-.08-.13l-.34-.06c.3-.07.46-.19.64-.21-.12-.15-.08-.34-.48-.43,0,0,.12,0,.18-.07s0,.06.09.07c-.1-.08,0-.25-.32-.27.13-.1.26.06.21-.08l.09,0c.44-.28-.71-.46-.14-.77a.3.3,0,0,1-.1,0c.25-.36-.23-.73.16-1.08.08-.1-.09-.12-.23-.18l.23,0-.26-.1c-.19-.15.55-.26.19-.44l-.15,0c0-.07-.09-.21.09-.2,0,0-.16,0-.08,0H18l-.2-.17c.09-.12.47,0,.49-.16a.66.66,0,0,0-.42-.17s-.07.07-.19.07l-.06-.06a1.81,1.81,0,0,0-.95.09l.21.11-.17,0v-.1c-.16.06,0,.09.08.13a.38.38,0,0,0-.19,0l.33.11c-.13,0-.27,0-.34,0,.15,0,.3-.05.41,0-.16,0-.29,0-.16.09a.31.31,0,0,1-.18,0c.1,0,0,.14.23.17-.2.05,0,.18-.28.17.08,0,.26.1.27.15-.39-.09,0,.19-.45.16.36.07.16.24.36.36,0,0-.09,0-.07,0s-.13.09-.2.13c.29,0,.36.12.54.17-.28.08-.34-.05-.62,0,.24,0,.24.14.44.11a.87.87,0,0,1-.33.09c.37,0,.06.06.29.11-.18.09-.35,0-.23.12A.29.29,0,0,1,16.39,37.46ZM17,39.91h0v-.07Zm0,.29a.57.57,0,0,0,0-.13c.07,0,.15,0,.14,0S17.09,40.13,17,40.2Zm1.46-.59s0,0,0,0,0,0,0,0h.08Z"/><path class="cls-2" d="M18.22,39.56l0,0-.05,0h.07Z"/><path class="cls-2" d="M21.56,35.56h0a.08.08,0,0,0,0,0Z"/><polygon class="cls-2" points="19.48 41.86 19.48 41.81 19.46 41.86 19.48 41.86"/><path class="cls-2" d="M20.46,34.83a.11.11,0,0,0,0,0A.11.11,0,0,0,20.46,34.83Z"/><path class="cls-2" d="M20,34.79l-.07-.08A.19.19,0,0,0,20,34.79Z"/><path class="cls-2" d="M19.62,34.68v.09h0Z"/><path class="cls-2" d="M25.78,35.16h0Z"/><path class="cls-2" d="M23.73,35l.07-.09S23.75,34.86,23.73,35Z"/><polygon class="cls-2" points="27.31 37.31 27.31 37.31 27.31 37.33 27.31 37.31"/><path class="cls-2" d="M23.89,34.9s-.06,0-.09,0S23.86,34.93,23.89,34.9Z"/><path class="cls-2" d="M18,34.59h0v0Z"/><path class="cls-2" d="M18,34.61l0,0S18,34.64,18,34.61Z"/><path class="cls-2" d="M18,34.69l0,0S18,34.63,18,34.69Z"/><path class="cls-2" d="M18.52,34.68v-.07S18.52,34.65,18.52,34.68Z"/><path class="cls-2" d="M18.67,34.66s-.09-.16-.14-.11v.06C18.55,34.49,18.64,34.79,18.67,34.66Z"/><path class="cls-2" d="M19.28,35.61l-.12-.06c0,.08.05.19,0,.21C19.31,36,19.12,35.58,19.28,35.61Z"/><path class="cls-2" d="M19.66,35.73c-.06,0,0,.11,0,.16S19.71,35.8,19.66,35.73Z"/><path class="cls-2" d="M22.42,35.73v.19C22.46,35.89,22.41,35.84,22.42,35.73Z"/><polygon class="cls-2" points="22.96 34.74 22.91 34.62 22.88 34.79 22.96 34.74"/><polygon class="cls-2" points="23.21 36.12 23.19 36.14 23.27 36.08 23.21 36.12"/><path class="cls-2" d="M25.49,38h.24S25.42,37.91,25.49,38Z"/><path class="cls-2" d="M25.28,39.52c-.1-.05-.18-.07-.11,0S25.29,39.56,25.28,39.52Z"/><polygon class="cls-2" points="20.01 39.97 20.05 39.89 19.98 39.95 20.01 39.97"/><path class="cls-2" d="M17.59,26.56c0,.06,0,.21,0,.18l0-.25Z"/><path class="cls-2" d="M17.82,27a1.31,1.31,0,0,0,.06-.56c0,.24-.05.14-.09.42,0,0-.06-.08-.05-.17s-.06-.06-.08.1.11.2.17,0A.47.47,0,0,1,17.82,27Z"/><path class="cls-2" d="M21.21,27.4l0,0S21.2,27.4,21.21,27.4Z"/><path class="cls-2" d="M23.26,27.59s0,0,0,.05S23.26,27.61,23.26,27.59Z"/><path class="cls-2" d="M23.56,27.9l0,0S23.55,27.92,23.56,27.9Z"/><path class="cls-2" d="M21.21,27.4l.06.08C21.27,27.4,21.24,27.42,21.21,27.4Z"/><path class="cls-2" d="M18.29,26.42a.16.16,0,0,0,0,.06l0,0Z"/><path class="cls-2" d="M20.29,27.6h0v.1Z"/><path class="cls-2" d="M19.58,27.64a1.57,1.57,0,0,0,0-.29.34.34,0,0,1,0,.14Z"/><path class="cls-2" d="M18.45,27.27l0,0Z"/><path class="cls-2" d="M20.79,27.65v.08A.19.19,0,0,0,20.79,27.65Z"/><path class="cls-2" d="M16.6,27.88h0Z"/><polygon class="cls-2" points="17.64 27.06 17.66 27.07 17.77 27.07 17.64 27.06"/><path class="cls-2" d="M24.07,28.27h0S24.05,28.28,24.07,28.27Z"/><path class="cls-2" d="M23.83,30.74c.1.17,0,.26.1.44C23.91,31.11,23.93,30.85,23.83,30.74Z"/><path class="cls-2" d="M18.31,26.45h0Z"/><polygon class="cls-2" points="23.93 31.18 23.93 31.19 23.95 31.2 23.93 31.18"/><path class="cls-2" d="M24.78,28.55l.07-.06Z"/><path class="cls-2" d="M24.48,27.94v0S24.48,27.94,24.48,27.94Z"/><path class="cls-2" d="M25.18,28.76s0,0,0,0h0S25.15,28.78,25.18,28.76Z"/><path class="cls-2" d="M25.25,29.23h0Z"/><path class="cls-2" d="M16.7,29.73l.19,0C16.74,29.71,16.69,29.62,16.7,29.73Z"/><path class="cls-2" d="M18.29,26.54c0-.06,0-.08,0-.09h0Z"/><path class="cls-2" d="M26.8,28.38v.14A.33.33,0,0,0,26.8,28.38Z"/><path class="cls-2" d="M20,32.59l0,0S20,32.62,20,32.59Z"/><path class="cls-2" d="M26.89,28.91a.43.43,0,0,0-.14.08h.06Z"/><path class="cls-2" d="M16.89,29.7Z"/><path class="cls-2" d="M16.39,29.06c0,.1.27.05.43.07s-.2.05-.34.08c.07.07.33.13.31.18h-.11c.22.07,0,.21.28.3h-.07a2.53,2.53,0,0,1,.38,0s.18.07,0,.09c0,0-.07,0-.13,0l.08,0c-.26,0-.09-.06-.28-.06.08.09.3.19.23.25-.26,0-.09-.15-.32-.06l.1-.1c-.4.07,0-.06-.4,0-.07.13.13.14.06.27.14,0,.2,0,.35,0,.25.19-.64.15-.31.29.17,0,.5,0,.33.16l-.29,0c0,.22.41.09.22.32-.11,0-.1-.15-.13-.11-.23.17.16.08.16.18l-.25.07c0,.24.22.41.27.61a.41.41,0,0,0-.24.13c.12.22,0,.58-.12,1l.07.05.33-.22s0,.1-.11.14.13-.14.26-.22,0,.12-.11.19c.4-.19.83-.4.94-.17l-.07.07c.15.09.35-.45.42-.25l0,0a2.24,2.24,0,0,0,.52,0,.31.31,0,0,1,.3.2c0-.32.22.14.24-.3.12.22.09.3.27.44s.07-.27.13-.32v.23l.08-.24,0,.28.06-.06a.27.27,0,0,1,0-.17c.08-.11.21.16.21.28l.21-.2a.38.38,0,0,1-.07.18c.11-.23,0,.25.12,0a1,1,0,0,1,0-.18.15.15,0,0,0,.25.08l0,.16c.16,0,.32-.08.5-.07-.06-.08-.05-.36,0-.38l0,.24c0-.15-.05-.09,0-.27.07,0,.05.27,0,.35l.08-.08c0,.07,0,.11,0,.2,0-.15.13.25.18,0v.08c.18,0,.25-.09.39-.1,0-.21.06-.16.1-.33.11.07.22.23.34.21s0-.18.07-.3c0,.19.13.17.06.31a.67.67,0,0,0,.38-.19.42.42,0,0,1,0-.18s.08.08.07.17v0c.22-.28.58.54.75.12v0l.17-.23c.1,0,0,.15.05.26.17-.35.36,0,.5-.26.29.52.49-.18.8.08L25,32.33c0-.14.09,0,.14.05s-.1-.08-.1-.16a1.61,1.61,0,0,1,.67-.32,2.19,2.19,0,0,0,.82-.47c.16-.18-.51-.46-.12-.52l.19.18c-.07-.49.31-.78.11-1.17.06,0,.13,0,.12.07.19,0,0-.27-.1-.28,0-.05.13,0,.21,0s-.22-.19,0-.22a.1.1,0,0,1,.07,0c-.09-.05,0-.22-.19-.17.1-.13-.09-.23,0-.34-.23,0,.09-.23-.24-.21.34,0,.23-.27.06-.32.1,0,.08-.1.23-.1,0-.1-.12-.17-.28-.1.32-.32-.43-.22,0-.53a6.92,6.92,0,0,0-.84-.47c.24-.25.23.18.49-.06-.31-.13-.6,0-.75-.19s.11-.11.17-.14c-.29,0-.43-.29-.74-.2a.23.23,0,0,1,.07-.07c-.05,0-.07-.07-.11.07l.05,0c0,.23-.27.41-.31.52.18-.41-.13-.15.1-.66a.29.29,0,0,0-.1.18s0-.09,0-.2c-.14.05-.13.22-.24.19a1.08,1.08,0,0,1,.07-.18c-.09.13-.17.26-.25.18s0-.1,0-.09c-.17,0-.33.33-.48.16.09-.31,0-.11,0-.39l-.1.07,0,.14c-.08,0-.18.18-.24.08l.08-.11-.16,0,.07.12c-.09.13,0,.35-.12.26s-.07,0-.1-.18h0c0,.09-.09.18-.15.11a3.7,3.7,0,0,1,0-.37c-.06.23-.19,0-.25.3,0-.06,0-.2,0-.23l0,.18c0-.06,0-.09,0-.21s0,.36-.1.2,0,0,0-.07c-.13-.08-.26.12-.38,0,0-.28.11-.07.07-.3-.18,0-.35.33-.52.27l0,0c0,.39-.12-.2-.2,0a.82.82,0,0,0,0-.18c-.11-.06-.23.1-.4.22l0-.1c-.07-.09-.17-.05-.24-.1s-.07.09,0,.24c-.22-.58-.42.31-.62-.18,0,0,.06-.09,0-.09l-.16.1a.78.78,0,0,0,0,.24c0,.1-.07.18-.11.18s0-.28,0-.37,0,.11,0,.16c-.09-.31,0,.35-.14.14v-.09c0,.05-.08.17-.13.14,0-.2.05-.09.05-.26-.07,0-.13.38-.19.18s.06-.05.09-.11c-.06-.23-.07-.17-.12-.21h0l-.12-.1,0,.06c-.08.52-.17.1-.28.44.11-.33,0-.19,0-.42a.35.35,0,0,1-.06-.19c-.05.18-.09-.15-.16.12,0-.07-.06,0-.05-.19-.07.06,0,.13,0,.22-.1.25-.25-.3-.4,0-.14.14-.16.39-.28.51a.43.43,0,0,1,0-.27c-.07-.11-.12-.09-.18,0a.47.47,0,0,0,0-.2s0,.26-.1.16,0-.22.05-.3-.12.21-.18.27a.54.54,0,0,1,.06-.27.38.38,0,0,0-.2.31l0,.08s0-.18,0-.21.08.07.09.14l0,.05c0,.42.18-.07.27-.05l0,.31.09-.26c0,.09,0,.26,0,.31s.06-.11.11.06a0,0,0,0,1,0,.05l.06-.09c0,.06,0,.22,0,.17.12.18.18-.23.23,0v0c.15-.11,0-.23.13-.5l.08.56v-.23s0,0,0,.12c.06-.16,0-.1,0-.25.07.21.21-.09.23.27,0-.17-.08-.13,0-.25,0,.39.09-.07.16.11s-.09.09,0,.27c.05-.34.14.08.2,0,0-.27.13-.11.23-.2,0,.09.18.15.28.25v0c0-.27.12-.22.19-.28a.7.7,0,0,1-.06.31h.07a.23.23,0,0,1,.08-.17l0,.2c.09,0,.18-.24.29-.1,0-.19-.09-.53,0-.66a1,1,0,0,1,0,.32s0-.09.05,0l-.05.17c.06.08,0-.14.07-.13s0,.11,0,.23,0-.06-.05,0a.35.35,0,0,1,.11.23c0-.08,0-.2,0-.22s0,.18.08.26c0-.11.08,0,.08-.22,0,0,0,.1,0,.16s.21,0,.16-.26l0,0h0c.15-.22.31.13.45,0v.08c.09-.09.2-.05.26-.21,0,0,.06.13.05.22s.08-.14.17,0c-.07.13,0,.11-.07.09.09.06.11.18.2,0,0,.19.06.24.1.18l-.05-.13s.08,0,.12,0l0,.25c.16.31.32-.51.43,0,.05-.17-.08-.13,0-.33.08,0,.14.4.16.4.1.15.13-.36.23-.25a.61.61,0,0,1,.09-.41c.08.05.06.39,0,.45s0,0,0-.05a.14.14,0,0,0,0,.16l0-.09c0,.1.13.1.09.24a.14.14,0,0,0,0-.19c.08.14.15,0,.23.12s0-.16,0-.15.09-.16.19-.18c0,.14-.07.31.05.22,0,.1,0,.23-.06.3.11-.16.13.14.17.18l-.06.06a.08.08,0,0,1,.08,0V28.1s0,0,0,.12c.06-.11.05-.3.13-.44,0,.1.14-.07.09.16-.09-.1,0,.24-.14.25s0,0,.06,0,0,.05,0,.06c0,.23.1-.25.21-.22-.05.13-.05.25,0,.23s0-.22.11-.3c0,.11.1-.05.11,0a.11.11,0,0,0,0-.05c.05-.12.07-.1.12-.13s-.06.06-.06.11c.12-.2,0,.25.1.14,0,.09-.12.22-.13.28.13-.12-.06.18.06.09s.06-.12.2-.23l-.15,0,.2-.17s-.12.05-.12,0a.41.41,0,0,0,.14-.2c-.1.25.19-.07.13.12l-.28.34c-.09.18.24-.09.22.07l0-.08c.15-.09.06,0,.14,0a1.31,1.31,0,0,0-.23.18c.09-.06,0,.06.29-.07l-.16.13c0,.09.43-.08.42,0s-.25.09-.38.08,0,0,.09,0c-.08,0,.21,0,.09.09.06,0,.22,0,.21,0l-.07,0c.07,0,.11,0,.26,0-.43.18.08.32-.31.44a.64.64,0,0,1,.11.24s-.08,0-.06,0c-.14.09.42.08.26.19s-.12-.07-.22,0c-.48,0,.06.13-.24.16l0,0c-.17,0,.16.15.11.23l-.07,0a.5.5,0,0,1,.29.37c-.16-.1-.07-.07-.26-.13,0,0,.29.1.31.2a1.19,1.19,0,0,1-.4-.1l0-.06c-.26-.09,0,.07-.08.08l-.1-.06c0,.08.24.25.15.33l.08,0c.18.24-.16-.06,0,.12l-.22-.19a.73.73,0,0,1,.06.39c-.09-.2-.1-.33-.17-.45s-.06.08,0,.21c0,0,0-.1,0-.08.11.21.12.35,0,.39-.28-.5-.28,0-.52-.39-.05.25-.29,0-.43.09.18.42,0,0,.09.47,0,0-.06,0-.07,0L23.75,31c-.06-.13,0-.11,0-.21s-.08-.18-.15-.29c0,.16,0,.23-.05.18l.11.2c-.08.26-.17-.36-.25-.11l0-.15c-.05.1-.22,0-.26.4,0,0,0-.18,0-.21-.16-.05-.34.4-.49.18v-.12s-.06.21-.1.1,0-.11,0-.12-.09.2-.14.13l0-.12c-.18-.15-.28.3-.43.38a.53.53,0,0,0-.21-.49v-.05c-.21,0-.36.28-.55.41-.12-.36-.41-.15-.6-.35a.47.47,0,0,1,0,.29c-.05-.07-.13.23-.12-.08h0c0-.3-.12-.22-.2-.23v.4c-.19-.58-.5.21-.6-.31,0,.1-.11.1-.15.2v-.21a.39.39,0,0,0-.35,0l0-.15c-.09,0-.11.61-.19.62l0-.32c-.07,0-.16-.06-.23-.09s0,0-.07.11a1,1,0,0,1,0-.15s0-.22-.13.22c.1-.28,0,0-.16.1l.13-.21a1.3,1.3,0,0,1-.35.41s.11-.17.09-.11c0-.11-.18.19-.16.08l.13-.13s-.08.06-.25.21-.07,0,0-.06l.18-.2c-.11.11-.26.22-.21.14a.59.59,0,0,1,.14-.11c.14-.18-.25.07,0-.14l.12-.09c0,.06,0,.11,0,.12.19-.16.23-.2.49-.4-.14.12-.46.28-.37.19l.07-.05h0s0,0,0,0,.06,0,.06-.05c.16-.07.09-.06.09-.07a2.38,2.38,0,0,0-.35.12s0,0,0,0h0a.07.07,0,0,1,0,.05c-.1,0-.19,0-.08,0l-.34.08a2.35,2.35,0,0,1,.64-.26.34.34,0,0,1-.14-.08.5.5,0,0,0-.34-.17s.12,0,.18-.06,0,.05.09.06c-.1-.08,0-.22-.32-.24.13-.09.26.05.21-.08l.09,0c.44-.25-.71-.41-.14-.7a.3.3,0,0,1-.1,0c.25-.32-.23-.66.16-1,.08-.09-.09-.1-.23-.16l.23,0-.26-.09c-.19-.13.55-.23.19-.4l-.15,0c0-.06-.09-.19.09-.18,0,0-.16,0-.08,0H18l-.2-.15c.09-.11.47,0,.49-.15a.69.69,0,0,0-.42-.15s-.07.06-.19.06l-.06-.05a1.93,1.93,0,0,0-.95.08l.21.1-.17,0V27.2c-.16.05,0,.08.08.11a.54.54,0,0,0-.19,0l.33.1c-.13,0-.27-.05-.34,0,.15,0,.3,0,.41,0-.16.05-.29,0-.16.09a.24.24,0,0,1-.18,0c.1.05,0,.13.23.16-.2.05,0,.16-.28.16.08,0,.26.09.27.13-.39-.08,0,.17-.45.15.36.06.16.22.36.33,0,0-.09,0-.07,0s-.13.08-.2.12a1.34,1.34,0,0,1,.54.15c-.28.07-.34-.05-.62,0,.24,0,.24.13.44.1a.88.88,0,0,1-.33.08c.37,0,.06.05.29.1-.18.08-.35,0-.23.11A.34.34,0,0,1,16.39,29.06ZM17,31.54h0v-.06Zm0,.26a.49.49,0,0,0,0-.12c.07-.06.15-.1.14-.07A.68.68,0,0,0,17,31.8Zm1.46-1.15,0,0h-.05Z"/><path class="cls-2" d="M18.22,30.73h0l-.05,0,.07,0Z"/><path class="cls-2" d="M21.19,27.37h0a0,0,0,0,1,0,0Z"/><polygon class="cls-2" points="19.75 32.7 19.75 32.64 19.73 32.69 19.75 32.7"/><path class="cls-2" d="M20.19,26.65s0,0,0-.06A.15.15,0,0,0,20.19,26.65Z"/><path class="cls-2" d="M19.76,26.6l-.06-.08C19.73,26.57,19.74,26.59,19.76,26.6Z"/><path class="cls-2" d="M19.43,26.49v.09h0Z"/><path class="cls-2" d="M24.91,26.6h0C25,26.58,25,26.58,24.91,26.6Z"/><path class="cls-2" d="M23.15,26.77l.06-.09S23.16,26.65,23.15,26.77Z"/><polygon class="cls-2" points="26.8 28.36 26.8 28.36 26.8 28.38 26.8 28.36"/><path class="cls-2" d="M23.28,26.69c0-.05-.05,0-.07,0S23.26,26.72,23.28,26.69Z"/><path class="cls-2" d="M18,26.4h0v0Z"/><path class="cls-2" d="M18,26.42l0,0S18,26.45,18,26.42Z"/><path class="cls-2" d="M17.92,26.5l0-.05S17.93,26.44,17.92,26.5Z"/><path class="cls-2" d="M18.43,26.5v0Z"/><path class="cls-2" d="M18.57,26.47s-.08-.16-.13-.11v.06C18.46,26.31,18.54,26.6,18.57,26.47Z"/><path class="cls-2" d="M19.12,27.42,19,27.36c0,.08,0,.19,0,.21C19.15,27.81,19,27.39,19.12,27.42Z"/><path class="cls-2" d="M19.47,27.54c-.06,0,0,.12,0,.16S19.51,27.61,19.47,27.54Z"/><path class="cls-2" d="M22,27.54v.19C22,27.7,22,27.66,22,27.54Z"/><polygon class="cls-2" points="22.45 26.55 22.41 26.43 22.38 26.6 22.45 26.55"/><polygon class="cls-2" points="22.69 27.92 22.67 27.95 22.75 27.88 22.69 27.92"/><path class="cls-2" d="M25.06,29.16l.23,0S25,29.12,25.06,29.16Z"/><path class="cls-2" d="M25,30.48c-.1-.06-.17-.09-.1,0S25,30.51,25,30.48Z"/><polygon class="cls-2" points="20.23 30.8 20.27 30.72 20.2 30.79 20.23 30.8"/><path class="cls-2" d="M28.71,25.93c.07,0,.18-.12.09-.18l-.24.1Z"/><path class="cls-2" d="M28.61,25.11a.56.56,0,0,0-.52.29c.25-.1.2,0,.49-.12a.14.14,0,0,1,0,.23c.08,0,.06.15.22.1.07-.23-.06-.37-.29-.39C28.5,25.16,28.57,25.14,28.61,25.11Z"/><path class="cls-2" d="M18.58,23l.07,0Z"/><path class="cls-2" d="M12.87,24.64a.1.1,0,0,0,0-.08C12.84,24.62,12.85,24.65,12.87,24.64Z"/><path class="cls-2" d="M12.6,25.75l0-.06S12.58,25.74,12.6,25.75Z"/><path class="cls-2" d="M18.58,23,18.41,23C18.39,23,18.5,23,18.58,23Z"/><path class="cls-2" d="M27.18,24.79a.12.12,0,0,0,.1,0H27.2Z"/><path class="cls-2" d="M21.44,22.82h.06a1,1,0,0,0,0-.1Z"/><path class="cls-2" d="M23.64,22.79c-.05,0-.07.2-.09.29,0-.09.07-.13.12-.14A.44.44,0,0,0,23.64,22.79Z"/><path class="cls-2" d="M27.12,23.82h0Z"/><path class="cls-2" d="M19.87,22.78a.19.19,0,0,0,0-.08A.24.24,0,0,0,19.87,22.78Z"/><path class="cls-2" d="M29,28.11h0Z"/><polygon class="cls-2" points="29.15 25.6 29.18 25.62 29.28 25.56 29.15 25.6"/><path class="cls-2" d="M12.33,27.78h0C12.31,27.72,12.32,27.75,12.33,27.78Z"/><path class="cls-2" d="M15.18,45.46c-.21-.19.34-.24,0-.45C15.23,45.09,14.91,45.34,15.18,45.46Z"/><path class="cls-2" d="M27.15,24.74l-.08,0A.13.13,0,0,0,27.15,24.74Z"/><path class="cls-2" d="M15.2,45h0Z"/><path class="cls-2" d="M12.46,32.45a.15.15,0,0,0,.09,0A.16.16,0,0,0,12.46,32.45Z"/><path class="cls-2" d="M12.76,29l0,.09A.19.19,0,0,0,12.76,29Z"/><path class="cls-2" d="M12.76,34.26c0,.05,0,.07,0,.13s0,0,0,0S12.72,34.32,12.76,34.26Z"/><path class="cls-2" d="M12.76,36.14l0,0v-.06Z"/><path class="cls-2" d="M26.33,32.8a4.79,4.79,0,0,1,.49,0C26.5,32.75,26.92,32.47,26.33,32.8Z"/><path class="cls-2" d="M27.23,24.69s-.06.06-.08,0l.05,0A.13.13,0,0,0,27.23,24.69Z"/><path class="cls-2" d="M14.42,34.34l0,.3A1.39,1.39,0,0,0,14.42,34.34Z"/><path class="cls-2" d="M27.28,42.89l0,0S27.28,42.86,27.28,42.89Z"/><path class="cls-2" d="M14.42,35.53a.44.44,0,0,0-.15.16l.06,0Z"/><path class="cls-2" d="M26.82,32.75Z"/><path class="cls-2" d="M28.41,30.91c-.11.16.17.22.28.35-.09.27-.24,0-.4,0a1.31,1.31,0,0,0,0,.28.28.28,0,0,1,0,.13.46.46,0,0,1-.11.16c-.05,0-.11,0-.11-.07-.06.2-.28.36-.55.53s-.57.34-.54.49h-.17a3.28,3.28,0,0,1,.71,0c-.15.09.06.18-.35.19.1-.05,0-.06-.09-.1a.43.43,0,0,0,0,.11c-.69.07.07-.14-.29-.18a2.84,2.84,0,0,0-.31.45.65.65,0,0,1,.25.09,1.51,1.51,0,0,1-.66-.07c0-.06.13-.11-.35,0l.7-.26c-1.25.2.39-.18-.9,0a2.87,2.87,0,0,0-.56.29,7.22,7.22,0,0,1,1.29.43c.43,0,.32-.09.73-.08.68.14.6.29.61.45s.05.31.53.4c.29,0,.6-.19.66.1l-.25.16c.21.23.42-.18.52.21-.12,0-.24-.12-.23-.06,0,.31.22,0,.34.13l-.18.19a3.71,3.71,0,0,1,.79.83c-.08,0-.18,0-.21.09a1.87,1.87,0,0,1,.14,1.52l.23.18s-.09.08-.14,0c-.07.19.14,0,.23.09s-.12.15-.19.08c.2.33.36,1,0,1.34l-.05-.08c-.15.24.37.42.09.62l0-.06c-.26.55-.43,1.26-1,1.47.21.27-.46.38-.16.69-.4.11-.39,0-.83.19-.11.06,0,.33-.08.47l-.14-.19,0,.32-.24-.17-.09.13a.16.16,0,0,1,.18.09.46.46,0,0,1-.62,0,5.3,5.3,0,0,1-.43.38c0-.09.05-.15.1-.23-.19.32-.13-.21-.31.07.05,0,0,.14,0,.19a.85.85,0,0,0-.68.08l0-.17c-.43,0-.89.23-1.39.27a.21.21,0,0,1,0,.38l-.08-.24c-.09.16.16.08,0,.28-.2,0-.15-.27,0-.36l-.22.1c0-.07,0-.11,0-.2-.08.15-.4-.23-.52,0l0-.07c-.48,0-.74.08-1.17.1,0,.21-.17.16-.3.33a3.83,3.83,0,0,0-1.06-.21c-.26.1-.07.17-.19.3,0-.19-.41-.17-.21-.31a4.77,4.77,0,0,0-1.17.19c.07.08.14.11.1.18s-.24-.08-.22-.17l0,0c-.66.29-1.51-.56-2-.16l0,0-.54.21c-.25,0,.15-.15,0-.27-.58.32-.92,0-1.4.17a.54.54,0,0,0-.37-.24.87.87,0,0,0-.23,0c-.09,0,0,0-.08,0s-.2.1-.06-.08l-.12.13-.06,0a1.14,1.14,0,0,1,.15-.17c-.1.09-.12.13-.19.18a13.94,13.94,0,0,1,.31-2.57c0-.41-.69-.23-.37-.75l.25.15c-.3-.83,0-1.69-.24-2.5,0,0,.13,0,.13.13.18-.17,0-.64-.14-.64,0-.12.13,0,.21-.11s-.23-.43-.05-.52c0,0,.05,0,.07.08s0-.52-.19-.41c.1-.31-.09-.58,0-.83-.23-.15.11-.52-.21-.57.34,0,.27-.53.11-.72.1.06.11-.17.25-.09,0-.22-.07-.42-.24-.39.4-.4-.33-.81.19-1A13.81,13.81,0,0,1,14,31c.34,0,0,.65.39.63-.14-.56-.43-.88-.34-1.43,0-.15.14.08.2.13-.14-.56,0-1.08-.15-1.57,0,0,.06.05.09.1s.05-.22-.11-.21l0,.09c-.23.16-.47-.39-.59-.4.44.16.11-.49.67-.23A.22.22,0,0,0,14,28c0-.09.1-.12.21,0-.08-.35-.25-.22-.24-.54.07,0,.1.07.19.1a.61.61,0,0,1-.23-.59c.05,0,.1,0,.1.07,0-.46-.38-.79-.24-1.29.32.15.1-.17.38-.2l-.08-.27-.14.11c0-.24-.19-.45-.1-.65l.11.18c0-.14,0-.34,0-.4a.71.71,0,0,0-.11.2c-.14-.23-.35,0-.27-.27,0,.07,0-.22.17-.24h0c-.09-.12-.19-.3-.12-.39s.31.26.37.28a.44.44,0,0,1-.14-.29c.08,0,.18,0,.16-.17a.62.62,0,0,0,.13.24L14,23.68a.31.31,0,0,1,.19.2c.22,0-.24-.35.11-.2,0,0,0,0,0,.07.22.08.63-.12,1,0,.1.28-.32.07-.2.3a7.45,7.45,0,0,1,1.59-.27l-.1,0c.07-.4.38.2.63,0-.06,0-.08.22-.06.18a3.34,3.34,0,0,0,1.23-.23l-.06.11a3.66,3.66,0,0,0,.75.09c.07-.1.19-.08.12-.23.67.58,1.29-.31,1.89.17-.07,0-.17.09-.11.09l.51-.09c0-.17-.06-.11-.17-.24a.43.43,0,0,1,.34-.18c-.23.11,0,.27.1.37,0-.05,0-.11,0-.16.26.3,0-.35.41-.15l0,.1c.13-.05.26-.17.41-.15.06.21-.15.1-.16.26.21,0,.41-.38.6-.18-.09.06-.21.06-.3.12.2.23.22.17.38.21h0l.35.11-.09-.06c.27-.53.52-.1.88-.42-.35.31-.06.18-.1.41.08.07.2.15.16.21.17-.17.25.16.49-.08,0,.07.17,0,.11.2.2,0,0-.13,0-.22.35-.2.66.4,1.16.19.41,0,.56-.24,1-.21.07.16-.19.21-.19.21a.55.55,0,0,0,.48.22c-.06,0-.05.11,0,.21s.22-.19.33,0a.85.85,0,0,1-.27.18c.18,0,.39,0,.58.05,0,.13-.2.1-.29.13.19.06.46.2.64.1l-.06-.14c.07,0-.08.15-.14.15-.22,0-.15-.2-.12-.27l.14,0c.14-.43-.48-.26-.69-.39l.25-.22-.37.1c0-.1,0-.27.17-.25-.11-.23-.21,0-.29-.21,0,0,0,0,0,0h-.21c.06,0,.05-.22.15-.13-.28-.31-.62,0-.68-.24h0c-.5,0-.11.2-.52.37,0-.21-.07-.41-.11-.61l-.1.22c-.05,0-.14-.06-.11-.14-.21.11,0,.1-.12.22-.2-.25-.66,0-.67-.36-.11.16.21.16-.06.25,0-.4-.3,0-.5-.16.08-.19.29-.07.07-.27-.15.33-.43-.09-.62,0,0,.26-.41.11-.71.2,0-.09-.58-.15-.87-.25v-.05c-.06.28-.35.23-.57.28a.31.31,0,0,1,.17-.3h-.2a.32.32,0,0,1-.25.17l.06-.21c-.27,0-.55.24-.89.11,0,.19.27.53-.1.66,0-.1,0-.28.07-.32s-.11.08-.17,0l.15-.18c-.16-.07-.09.15-.21.13s-.1-.1-.08-.22.11.06.16,0a.54.54,0,0,1-.37-.22c0,.08,0,.2-.1.22-.27,0-.09-.18-.25-.26-.07.1-.24,0-.24.22-.08,0-.1-.11-.13-.17-.14.1-.65,0-.49.27h0c-.45.22-.94-.12-1.4,0V23c-.27.08-.6.05-.79.21a.21.21,0,0,1-.16-.23c-.2.06-.23.14-.52,0,.2-.13-.08-.11.21-.09-.27-.07-.33-.19-.62,0,.1-.19-.2-.24-.33-.19l.19.14a1.07,1.07,0,0,1-.4,0l.07-.25a.6.6,0,0,0-.42-.05,2.86,2.86,0,0,0-.56.14,1.2,1.2,0,0,1-1.09-.08c-.06.18.56.13.52.33a2.41,2.41,0,0,1-.62-.18c-.1.09-.21.17-.21.24-.14.52.36.74.27,1.21.08-.06.32,0,.41.29s-.38.31-.45.16,0-.1.05-.1-.07-.28-.17-.14l.09.06c-.09.2-.08.49-.22.43.08.19.14.08.19-.06-.13.32,0,.5-.09.84.05-.06.15-.11.15-.05-.11.49.17.21.21.54-.14.19-.33-.06-.21.27-.09.2-.24,0-.31,0,.17.31-.11.57-.14.74L12.24,27a.42.42,0,0,1,0,.26l.18-.09c0,.09,0,.17-.1.17.11.1.29-.07.45.12-.09.12.1.38-.14.42.08-.39-.23.05-.27-.29a.29.29,0,0,1,0,.24s-.05,0-.06,0c-.21.38.27.17.26.57-.13-.05-.25.09-.22.15,0-.16.22-.08.32.07-.1.25.08.27.07.4l.05-.15c.13.05.11.18.15.35-.1,0-.07-.15-.11-.09.23.19-.24.44-.09.71-.09.12-.25,0-.31.12.17.3-.18.33,0,.65.18-.1.14-.11.31.11l-.12-.52.26.33c0-.15-.12-.33-.09-.42.15.16.1.14.25.06-.26.22.16.43,0,.68h-.44c-.2.37.22.66.11,1.15l.08-.15c.17.06,0,.3.09.46-.14,0-.2.08-.29.15.11,0,0,.35.29.4l-.2.22c-.08.39.42.45.37.83-.16-.12-.26,0-.38-.2,0,.13,0,.24.08.24-.1.08.19.35,0,.47.07.05.22.07.21.21a.08.08,0,0,1-.07,0c.07,0,.1.23.26.1-.46.39,0,1.09-.36,1.43a7,7,0,0,1,.11.86c-.05,0-.08,0-.06,0-.14.35.42.21.27.61-.24.2-.13-.21-.22-.09-.49.06.07.48-.22.74l0-.06c-.16.2.19.49.15.83a.11.11,0,0,0-.07,0,1.9,1.9,0,0,1,.4,1c-.19-.1-.1-.15-.3-.09,0,.14.32,0,.37.24-.1.1-.2.3-.4.33v-.27c-.27.14,0,.35,0,.49l-.12,0c0,.41.34.42.31.86l.09,0c.29.24-.16.2.06.44l-.3.07a4.16,4.16,0,0,1,.34.85,2.34,2.34,0,0,1-.46-.71c0,.16,0,.54.17.62,0-.06-.1-.14-.06-.2a.91.91,0,0,1,.34.76.26.26,0,0,0-.27.11,1.32,1.32,0,0,0-.07.45,2.16,2.16,0,0,1-.25,1.12,2,2,0,0,1,.07.41,7.07,7.07,0,0,1,1.13.06,10.22,10.22,0,0,0,1.1.07c-.23-.45.19,0,.15-.47.15,0,.21,0,.22,0l.46.28c.11.13-.14.1-.13.2.33,0,.14.2.36.32-.05-.17.11-.24.3-.17l-.26-.21c.46-.25.4.38.86.14l-.14.14c.24-.08.88,0,1.11-.36,0,0,.1.18,0,.21.57.05,1.27-.39,1.72-.17l-.05.12c.11,0,.19-.21.32-.1s0,.11,0,.12.28-.2.42-.13l-.12.12c.56.15.86-.31,1.33-.38,0,.33.43.43.65.49v0a5.34,5.34,0,0,0,1.73-.42c.42.35,1.34.06,2,.13-.11,0,0-.26.07-.31s.36-.31.41,0H26.2c.18.26.49.11.74,0l-.08-.39A1.17,1.17,0,0,0,28,44.4c.33-.25.58-.51.88-.42.06-.17.22-.3.28-.48l.13.16a2.79,2.79,0,0,0,.89-.89l0,.18c.22-.25-.24-.69-.1-.92l.32.1c.26-.41.79-.83.71-1.45,0,0,.12.07.1.16.11-.23.51-.92.06-.93.28.06.15-.55.05-.84l.2.07c-.24-.28-.31-.29-.37-.62,0-.07.17-.06.12,0,.12-.25-.19-.2-.08-.51l.13.11c0-.26-.06-.24-.22-.38a.47.47,0,0,1,.2-.57c-.13,0-.29-.14-.27-.3a.12.12,0,0,1,.15,0c.06-.49-.38-.6-.27-1a.18.18,0,0,0,.1-.09,2.36,2.36,0,0,1,.14.62c.19,0,.15-.36.47-.18-.2-.22-.63-.52-.66-.82a.13.13,0,0,1,.05-.06l0,0a.23.23,0,0,0-.11-.17.71.71,0,0,0-.06-.25c.13-.1-.1-.36-.18-.5-.17.13-.25-.06-.29.19,0,0,0,0,.09.09l.06,0h0a2.61,2.61,0,0,1,.2.32c-.15-.06-.29-.12-.27-.32h-.4c.15-.32,0-.74.11-.9a5,5,0,0,0-.65-.45.29.29,0,0,0-.26-.06l-.3.06c-.11,0,0-.11.08-.15a.49.49,0,0,0,.17,0,1.94,1.94,0,0,0-.76-.08c0-.11.46,0,.19-.11h.16c.05,0,.06-.06,0-.08s-.1-.1-.1-.24.16-.33.52-.36c-.08,0-.09,0-.13,0a2.43,2.43,0,0,0,.94-1.36,12.55,12.55,0,0,1,.52-1.57c.11-.29-.07-.34-.2-.52l.23-.06a3.88,3.88,0,0,0-.26-.31c-.2-.4.51-.82,0-1.32l-.14.1c0-.21-.24-.58-.07-.6,0,0-.17,0-.12-.12l.11,0a3.41,3.41,0,0,0-.38-.38c-.09-.38.47-.15.21-.68-.16-.18-.63-.33-.65-.22a.23.23,0,0,1,0,.29l-.16-.12c-.31.17-.65.3-.65.73.1,0,.21.07.31.12l-.11.15-.11-.18c-.08.18.08.18.21.21a.3.3,0,0,0-.13.18,3,3,0,0,1,.41.09c-.12.08-.29,0-.3.18.18.06.24-.22.41-.06-.11.17-.25.17-.07.27a.16.16,0,0,1-.2,0c.14.09.13.31.33.34-.16.16.13.43-.2.47a.61.61,0,0,1,.31.32c-.41-.2,0,.47-.43.41.35.17.14.59.29.89,0,0-.08-.06-.06-.08-.05.16-.16.18-.25.26.29.08.3.34.43.53-.33.1-.29-.22-.58-.23.24.05.13.37.34.38-.22.07-.12.09-.38.06.33.17,0,.14.16.34-.26.09-.32-.12-.34.12C28.42,31.13,28.41,30.91,28.41,30.91Zm1.42,5.18h0L29.77,36Zm.16.47a2.09,2.09,0,0,0,0-.21c.06,0,.14-.05.15,0S30,36.47,30,36.56Zm.88-1.69c.07.08.05.13,0,.17a.63.63,0,0,0-.11-.15h0Z"/><path class="cls-2" d="M30.53,34.85l0,0v.07h.07Z"/><path class="cls-2" d="M18.66,23.06h0l0,0S18.66,23.07,18.66,23.06Z"/><polygon class="cls-2" points="27.66 42.52 27.69 42.56 27.7 42.5 27.66 42.52"/><path class="cls-2" d="M21.74,23.78a.07.07,0,0,0,0,.06A.21.21,0,0,0,21.74,23.78Z"/><path class="cls-2" d="M23.07,23.83l.18.07Z"/><path class="cls-2" d="M24.06,24a.92.92,0,0,0,0-.09h0Z"/><path class="cls-2" d="M14.17,28.9s0,0,0,0S14.2,29,14.17,28.9Z"/><path class="cls-2" d="M13.68,24.2l.1.14C13.79,24.29,13.8,24.25,13.68,24.2Z"/><polygon class="cls-2" points="14.42 34.31 14.42 34.31 14.42 34.34 14.42 34.31"/><path class="cls-2" d="M13.77,24.49s0-.09,0-.15A.16.16,0,0,0,13.77,24.49Z"/><path class="cls-2" d="M27.83,25.25l0,0,0,0Z"/><path class="cls-2" d="M27.88,25.26h.06S27.9,25.24,27.88,25.26Z"/><path class="cls-2" d="M28.05,25.29l-.11,0A.08.08,0,0,0,28.05,25.29Z"/><path class="cls-2" d="M26.86,24.55l-.05.06S26.84,24.58,26.86,24.55Z"/><path class="cls-2" d="M26.5,24.43c.08.05.15.22.28.23l0-.05C26.72,24.69,26.63,24.34,26.5,24.43Z"/><path class="cls-2" d="M25.09,23.12l.34.11c-.05-.09-.11-.21.05-.2C25.07,22.72,25.55,23.22,25.09,23.12Z"/><path class="cls-2" d="M24,22.9c.2,0,0-.12,0-.16S23.85,22.83,24,22.9Z"/><path class="cls-2" d="M16.25,22.89l0-.19C16.12,22.73,16.26,22.77,16.25,22.89Z"/><polygon class="cls-2" points="14.77 23.88 14.91 24 14.97 23.82 14.77 23.88"/><polygon class="cls-2" points="13.42 22.52 13.51 22.49 13.15 22.56 13.42 22.52"/><path class="cls-2" d="M12.57,35.81l.24,0C12.76,35.67,12.5,35.65,12.57,35.81Z"/><path class="cls-2" d="M12.81,41.41a.2.2,0,0,0-.08.32C12.75,41.6,12.84,41.48,12.81,41.41Z"/><polygon class="cls-2" points="27.26 44.87 27.16 44.99 27.37 44.84 27.26 44.87"/><path class="cls-3" d="M44.46,29.22a6.39,6.39,0,0,1,2.72,2.32,7.85,7.85,0,0,1,1.25,3.24,20.24,20.24,0,0,1,.13,3.11H37.13a3.77,3.77,0,0,0,1.65,3.31,4.09,4.09,0,0,0,2.26.59,3.45,3.45,0,0,0,2.27-.72A3.54,3.54,0,0,0,44.16,40h4.19a5.12,5.12,0,0,1-1.52,2.84,7.63,7.63,0,0,1-5.91,2.29,8.58,8.58,0,0,1-5.52-1.93Q33,41.26,33,36.91a8.45,8.45,0,0,1,2.17-6.25,7.56,7.56,0,0,1,5.61-2.18A8.89,8.89,0,0,1,44.46,29.22Zm-6.13,3.54a4.22,4.22,0,0,0-1.09,2.43H44.3a3.41,3.41,0,0,0-1.09-2.48,3.62,3.62,0,0,0-2.43-.85A3.24,3.24,0,0,0,38.33,32.76Z"/><path class="cls-4" d="M44.46,29.22a6.39,6.39,0,0,1,2.72,2.32,7.85,7.85,0,0,1,1.25,3.24,20.24,20.24,0,0,1,.13,3.11H37.13a3.77,3.77,0,0,0,1.65,3.31,4.09,4.09,0,0,0,2.26.59,3.45,3.45,0,0,0,2.27-.72A3.54,3.54,0,0,0,44.16,40h4.19a5.12,5.12,0,0,1-1.52,2.84,7.63,7.63,0,0,1-5.91,2.29,8.58,8.58,0,0,1-5.52-1.93Q33,41.26,33,36.91a8.45,8.45,0,0,1,2.17-6.25,7.56,7.56,0,0,1,5.61-2.18A8.89,8.89,0,0,1,44.46,29.22Zm-6.13,3.54a4.22,4.22,0,0,0-1.09,2.43H44.3a3.41,3.41,0,0,0-1.09-2.48,3.62,3.62,0,0,0-2.43-.85A3.24,3.24,0,0,0,38.33,32.76Z"/><path class="cls-2" d="M38,32.41c0,.05.15.15.15.11L38,32.33Z"/><path class="cls-2" d="M38.43,32.61a1.65,1.65,0,0,0-.34-.45c.13.2.06.13.23.37,0,0-.09,0-.15-.1s-.07,0,0,.12.19.08.12-.06A.63.63,0,0,1,38.43,32.61Z"/><path class="cls-2" d="M40.8,32.21v0A0,0,0,0,0,40.8,32.21Z"/><path class="cls-2" d="M42.14,32.61s0,0,0,0S42.14,32.63,42.14,32.61Z"/><path class="cls-2" d="M42.22,33v0S42.21,33,42.22,33Z"/><path class="cls-2" d="M40.8,32.21l0,.08C40.84,32.21,40.82,32.23,40.8,32.21Z"/><path class="cls-2" d="M38.36,31.9a.41.41,0,0,0,0,.07s0,0,0,0Z"/><path class="cls-2" d="M40.19,32.45h0v0Z"/><path class="cls-2" d="M39.76,32.58a1.79,1.79,0,0,0-.07-.29c0,.09,0,.13,0,.15Z"/><path class="cls-2" d="M38.94,32.54v0Z"/><path class="cls-2" d="M40.53,32.47v0Z"/><path class="cls-2" d="M37.12,32.68l0,0Z"/><polygon class="cls-2" points="38.37 32.8 38.37 32.81 38.45 32.9 38.37 32.8"/><path class="cls-2" d="M42.39,33.37h0S42.37,33.38,42.39,33.37Z"/><path class="cls-2" d="M42.76,34.32c0,.18,0,.24.05.45A2.58,2.58,0,0,0,42.76,34.32Z"/><path class="cls-2" d="M38.39,31.91l0,0A0,0,0,0,0,38.39,31.91Z"/><polygon class="cls-2" points="42.81 34.77 42.81 34.77 42.81 34.79 42.81 34.77"/><path class="cls-2" d="M43,33.81l.08-.05Z"/><path class="cls-2" d="M42.82,33.17v0S42.83,33.18,42.82,33.17Z"/><path class="cls-2" d="M43.35,33.86s-.05,0,0,0h0S43.32,33.87,43.35,33.86Z"/><path class="cls-2" d="M43.43,34.07h0Z"/><path class="cls-2" d="M36.4,34.83l.22-.1C36.45,34.79,36.41,34.71,36.4,34.83Z"/><path class="cls-2" d="M38.43,32a.18.18,0,0,1,0-.08v0A.15.15,0,0,0,38.43,32Z"/><path class="cls-2" d="M45,33.57v.13A.2.2,0,0,0,45,33.57Z"/><path class="cls-2" d="M39.79,36.05v0S39.79,36.07,39.79,36.05Z"/><path class="cls-2" d="M45.19,34.07a.31.31,0,0,0-.13.06h.06Z"/><path class="cls-2" d="M36.62,34.72h0Z"/><path class="cls-2" d="M36.26,34.07c0,.12.27,0,.44,0s-.24.08-.41.14c.06.08.32.1.3.15a.35.35,0,0,1-.14,0c.22,0,0,.25.25.25l-.08,0,.42-.14s.18,0,0,.08c0,0-.06,0-.12,0H37c-.29.14-.08,0-.3,0,.08.06.3.05.21.15-.29.14-.07-.11-.34.08l.13-.15c-.46.25,0-.08-.44.18-.11.19.11.12,0,.31.15,0,.24-.13.39-.17s-.75.55-.39.5c.18-.07.54-.29.33-.07l-.32.18c0,.09.09,0,.18,0s.11,0,.09,0c-.18.11-.15,0-.19.06s-.06.1,0,0,.21-.14.24-.13l-.26.21c.2,0,.54-.16.73-.19-.07.07-.18.14-.21.22.32-.1.4.08.52.26L37.6,36s0,.1-.07.14.09-.14.19-.23,0,.13-.08.19c.29-.18.61-.4.69-.16l0,.06c.12.09.25-.45.31-.24l0,0a1.17,1.17,0,0,0,.37,0c.08,0,.16,0,.22.2,0-.31.17.14.18-.3.1.22.07.3.2.45s.06-.28.1-.33v.24l.06-.25,0,.28.05-.06a.3.3,0,0,1,0-.17c.07-.1.16.16.16.28l.16-.2a.64.64,0,0,1-.05.19c.08-.24,0,.24.09,0a.59.59,0,0,1,0-.19c0,.14.12.14.18.08v.16c.11,0,.24-.07.37-.07a.55.55,0,0,1,0-.38l0,.25c0-.15,0-.1,0-.28,0,0,0,.28,0,.36l.06-.09c0,.08,0,.11,0,.21,0-.16.1.24.13,0v.07c.12,0,.18-.08.29-.09,0-.21,0-.17.07-.34.08.07.16.24.25.22s0-.18.05-.31c0,.2.1.18,0,.32a.49.49,0,0,0,.28-.2.58.58,0,0,1,0-.18s.06.08.06.18v0c.16-.29.36.56.49.15v0l.13-.2c.06,0,0,.14,0,.26.13-.32.21.05.42-.17.1.29.27.28.41.24a.4.4,0,0,1,.47.08l-.08-.13c0-.13.11.08.17.11s-.13-.12-.13-.19a1.34,1.34,0,0,1,.69,0,6.45,6.45,0,0,0,.88.14c.19,0-.58-.57-.14-.38l.25.24c-.3-.52,0-.69-.32-1.12.06.05.14.08.14.11.19,0,0-.25-.17-.29,0,0,.14,0,.21,0s-.26-.24-.08-.22a.11.11,0,0,1,.08,0c-.1-.07,0-.21-.22-.21.08-.1-.14-.23,0-.31-.26-.07.06-.21-.29-.22.36,0,.21-.23,0-.27.11,0,.08-.08.24-.08a.22.22,0,0,0-.3-.1c.32-.28-.45-.17,0-.46-.32-.19-.5-.22-.68-.32.27-.2.15.14.43-.08-.22-.07-.51,0-.55-.12s.12-.09.17-.11c-.21,0-.21-.27-.45-.23l.08,0s0-.08-.11,0h.05c-.12.19-.39.29-.46.38.31-.32,0-.17.36-.57a.43.43,0,0,0-.15.14s0-.09.12-.17c-.14,0-.2.16-.28.11l.14-.14c-.13.09-.24.18-.27.09s0-.09.07-.08c-.13-.05-.38.22-.44,0,.19-.26,0-.11.13-.36l-.11,0,0,.14c-.06,0-.19.13-.21,0l.09-.08H42.5l0,.13c-.12.11-.13.33-.18.22s-.05,0,0-.19h0c-.06.08-.12.15-.14.07s.11-.29.12-.35c-.1.22-.17,0-.28.25a1.06,1.06,0,0,0,.08-.23l-.08.18a.34.34,0,0,1,0-.21c-.08-.06-.07.35-.13.18a.25.25,0,0,1,0-.07c-.08-.11-.22.07-.29,0,0-.28.09-.05.11-.29-.16,0-.35.28-.47.2l0,0c-.06.4-.08-.2-.17,0,0,0,0-.22,0-.17s-.2.08-.34.2l0-.1c-.05-.09-.14-.05-.2-.1,0,.1,0,.09,0,.24-.2-.58-.31.32-.5-.14,0,0,0-.1,0-.1l-.13.12a.87.87,0,0,0,.08.23c0,.1,0,.19-.06.19a.58.58,0,0,0-.08-.37l0,.17c-.12-.3,0,.34-.08.15v-.09c0,.06,0,.18-.07.16-.06-.19,0-.1,0-.26-.06,0,0,.39-.11.21s0-.07.05-.13c-.11-.22-.1-.16-.15-.18h0l-.12-.08,0,.06c.08.52-.11.13-.09.48,0-.33-.05-.18-.11-.4a.45.45,0,0,1-.11-.17c0,.19-.13-.11-.1.17,0-.07-.05,0-.11-.17,0,.08.06.12.09.2,0,.27-.33-.19-.3.19,0,.18.07.4,0,.55a.49.49,0,0,1-.12-.24c-.1-.06-.13,0-.12.08a.61.61,0,0,0-.13-.16s.13.24,0,.18a2.1,2.1,0,0,1-.13-.26c0,.08,0,.22,0,.31a.52.52,0,0,1-.12-.25.35.35,0,0,0,.06.35l.07,0s-.12-.12-.13-.16.1,0,.15.06v.06c.3.32.07-.14.15-.16l.15.27-.09-.25a.69.69,0,0,1,.17.25c.12.11,0-.11.09,0a.09.09,0,0,1,0,0v-.1c0,.06.12.18.08.16.15.11,0-.27.13-.08v0c0-.14-.1-.2-.15-.48l.3.48-.09-.21s0,0,.08.09c0-.16-.05-.08-.09-.23.13.17.11-.15.25.19,0-.17-.09-.11-.08-.24.15.36,0-.09.15.06s0,.11.08.27c-.08-.34.11,0,.12,0-.07-.26,0-.14.1-.24,0,.09.16.12.23.21v0c0-.27,0-.23.08-.29a1.06,1.06,0,0,1,0,.3h0c0-.09,0-.13,0-.17v.21c.06,0,.09-.26.18-.13,0-.19-.11-.52,0-.66a1.2,1.2,0,0,1,0,.32s0-.08,0,0l0,.18c0,.07,0-.15,0-.14s0,.11,0,.22,0-.06,0,0a.45.45,0,0,1,.1.23c0-.09,0-.2,0-.22s0,.17.06.25c0-.11,0,0,0-.22a.74.74,0,0,1,0,.16c0-.1.14,0,.1-.26v0h0c.11-.22.21.13.32,0v.08c.07-.08.14,0,.2-.19s0,.14,0,.22.07-.13.11,0,0,.12-.06.09,0,.19.14,0c-.06.18,0,.24,0,.19v-.14s.06,0,.08,0l-.07.24c0,.32.33-.45.26.07.08-.16,0-.14.07-.33,0,.05,0,.41,0,.41s.18-.32.22-.2c0-.09.1-.32.19-.37s-.09.37-.14.42,0,0,0-.05-.06.05-.08.15l0-.08c0,.09,0,.11,0,.24a.26.26,0,0,0,.07-.18c0,.14.08,0,.1.15,0,0,.05-.15.06-.14s.12-.13.2-.13-.17.27-.06.21a.57.57,0,0,1-.16.26c.14-.12,0,.15,0,.19l-.06,0a.07.07,0,0,1,.06,0l.08-.15a.12.12,0,0,1,0,.1,3.27,3.27,0,0,1,.28-.36c0,.09.12,0,0,.16,0-.11-.13.2-.2.19s0,0,0,0l0,0c-.08.2.18-.2.24-.15-.09.1-.15.21-.12.19s.12-.18.21-.24c0,.11.09,0,.1,0v-.06c.1-.09.11-.06.16-.07s-.07,0-.09.08c.18-.15-.1.23,0,.15,0,.08-.17.18-.21.24.17-.08-.09.16.05.1a.57.57,0,0,1,.24-.19l-.15,0,.23-.13s-.12,0-.12,0a.53.53,0,0,0,.2-.16c-.17.21.17,0,.07.12l-.34.29c-.11.17.26,0,.22.09l0-.07c.15-.09,0,0,.13,0a2.75,2.75,0,0,0-.24.17c.09,0,0,0,.27-.1l-.17.11c-.06.06.43-.11.41,0s-.26.08-.39.09,0,0,.09,0c-.09,0,.22,0,.08,0,.07,0,.23,0,.23,0h-.08a1,1,0,0,0,.29,0c-.47.09.11.2-.32.21a.7.7,0,0,1,.15.15l-.07,0c-.15,0,.53.18.35.2s-.16-.09-.27-.11c-.59-.2.1.1-.25,0l0,0c-.2-.08.24.16.21.19l-.1,0a1.6,1.6,0,0,1,.53.47,2.47,2.47,0,0,0-.38-.28c0,.05.4.27.48.37a2.48,2.48,0,0,1-.52-.33l0,0c-.34-.24,0,.05-.07,0l-.14-.12s.35.33.26.31l.1.09c.27.29-.21-.16,0,0l-.31-.29c.05.07.19.28.17.34-.15-.22-.2-.33-.31-.46s0,0,.08.17c0,0-.07-.11,0-.06.18.23.22.35.16.34-.41-.57-.25-.14-.52-.59,0,.21-.13-.09-.15-.06.1.45,0,0,.06.48,0,0,0,0,0,0a1.29,1.29,0,0,1-.08-.28c0-.13,0-.1,0-.2s0-.19,0-.32c0,.17,0,.24-.08.18l.07.21c-.12.24-.1-.39-.21-.15l0-.14c-.06.09-.21,0-.27.37a.54.54,0,0,1,0-.22c-.13,0-.3.4-.41.17v-.11s0,.21-.08.1,0-.12,0-.12-.07.19-.1.13l0-.13c-.14-.15-.21.31-.32.39a.6.6,0,0,0-.16-.49v0c-.16,0-.27.27-.41.4-.09-.36-.31-.15-.45-.35a.67.67,0,0,1,0,.29c0-.07-.1.23-.09-.07h0c0-.29-.1-.22-.15-.22v.39c-.14-.57-.38.21-.45-.3,0,.1-.08.1-.11.2v-.22c-.1,0-.15-.08-.26,0l0-.15c-.07,0-.08.61-.15.63v-.32c-.06,0-.12-.07-.18-.1s0,0-.07.11l0-.15s0-.21-.09.22c.07-.28,0,0-.12.1l.09-.21c-.13.27-.16.34-.25.41s.08-.16.07-.11c0-.11-.14.2-.12.09l.09-.14s0,.06-.18.22,0-.06.1-.25c-.09.12-.23.27-.21.22l.12-.14c.08-.14-.31.24-.16,0l.12-.13s0,0,0,0a6.32,6.32,0,0,1,.43-.5c-.12.15-.47.46-.41.37l.07-.06,0,0,0,0a.25.25,0,0,1,0-.06c.18-.16.09-.09.09-.1-.26.22-.24.18-.43.36a.1.1,0,0,1,.05,0l0,0,0,0,.06,0c-.13.11-.26.2-.14.08l-.45.34a9.66,9.66,0,0,1,.75-.63c-.18.1-.11,0-.64.3-.06,0,.16-.11.24-.16a.38.38,0,0,0,.12,0c-.13,0,0-.05-.4.12.18-.12.33-.14.28-.16l.11-.05c.3-.17.08-.08-.11-.07s-.35,0,0-.14l-.12,0c.17-.1.12-.15.11-.23s0-.18.24-.17-.08-.07-.18-.15l.21.09a1.92,1.92,0,0,1-.21-.16c-.12-.17.54.18.3-.11l-.13-.08s0-.15.14,0-.12-.11,0-.07l.09.07-.09-.21c.11,0,.35.31.43.26a1.38,1.38,0,0,0-.24-.37s-.09,0-.17-.1l0-.07c-.25-.24-.47-.53-.74-.6l.1.21-.15-.09.05-.06c-.15-.08-.07,0,0,.12a.71.71,0,0,0-.17-.09l.2.28c-.11-.08-.18-.2-.28-.2.09.13.26.16.3.28-.15-.07-.25-.16-.17,0a.27.27,0,0,1-.13-.13c.05.1,0,.13.1.25-.19-.07,0,.15-.32,0a.79.79,0,0,1,.17.25c-.29-.29-.13.16-.49-.06.28.24,0,.33.13.52,0,0-.07,0-.05,0s-.18,0-.26.09c.28.08.31.19.47.27-.32,0-.33-.1-.62-.12.24,0,.18.19.4.18a1.58,1.58,0,0,1-.37.06c.38,0,0,.07.26.13-.22.09-.37,0-.29.13A.24.24,0,0,1,36.26,34.07Zm.86,1.63Zm.18,0h-.07c.06-.07.13-.14.14-.13S37.32,35.65,37.3,35.71Zm1.25-1.43s0,0-.06.06l0,0,0,0Z"/><path class="cls-2" d="M38.2,34.56l0,0,0,0,.08-.06Z"/><path class="cls-2" d="M40.78,32.18h0v0Z"/><polygon class="cls-2" points="39.64 36.15 39.64 36.1 39.63 36.14 39.64 36.15"/><path class="cls-2" d="M40,31.51s0,0,0-.05Z"/><path class="cls-2" d="M39.62,31.54l-.07-.06Z"/><path class="cls-2" d="M39.32,31.51l0,.09h0Z"/><path class="cls-2" d="M43.73,32.09h0S43.77,32.08,43.73,32.09Z"/><path class="cls-2" d="M42.32,31.81l.07-.08S42.36,31.7,42.32,31.81Z"/><polygon class="cls-2" points="45.04 33.56 45.04 33.56 45.04 33.57 45.04 33.56"/><path class="cls-2" d="M42.45,31.76c0-.05,0-.05-.06,0S42.42,31.78,42.45,31.76Z"/><path class="cls-2" d="M38.13,32.05h0l0,0Z"/><path class="cls-2" d="M38.14,32.08v0S38.15,32.1,38.14,32.08Z"/><path class="cls-2" d="M38.15,32.17v-.06S38.12,32.12,38.15,32.17Z"/><path class="cls-2" d="M38.52,31.89l0-.07Z"/><path class="cls-2" d="M38.61,31.81s-.15-.1-.16,0l0,.05C38.44,31.72,38.65,31.93,38.61,31.81Z"/><path class="cls-2" d="M39.41,32.46l-.09,0c0,.06.1.16.08.19C39.58,32.82,39.31,32.47,39.41,32.46Z"/><path class="cls-2" d="M39.66,32.5s0,.11.05.16A.18.18,0,0,0,39.66,32.5Z"/><path class="cls-2" d="M41.3,32.38l0,.19S41.29,32.49,41.3,32.38Z"/><polygon class="cls-2" points="41.83 31.47 41.82 31.34 41.76 31.51 41.83 31.47"/><polygon class="cls-2" points="41.69 32.84 41.67 32.86 41.73 32.81 41.69 32.84"/><path class="cls-2" d="M43.2,34l.27,0Z"/><path class="cls-2" d="M43.46,34.64c-.14-.12-.24-.19-.13-.08S43.48,34.67,43.46,34.64Z"/><polygon class="cls-2" points="40 34.26 40.03 34.17 39.98 34.24 40 34.26"/><path class="cls-2" d="M44.26,29.67c.06,0,.1-.19,0-.2l-.16.2Z"/><path class="cls-2" d="M43.77,29a.55.55,0,0,0-.35.48c.18-.19.18-.09.4-.31a.14.14,0,0,1,.1.21s.13.11.24,0a.3.3,0,0,0-.45-.21C43.69,29.07,43.74,29,43.77,29Z"/><path class="cls-2" d="M34,31.61l.07-.05A.18.18,0,0,0,34,31.61Z"/><path class="cls-2" d="M32.58,38.24c0-.06,0-.08-.06-.08S32.56,38.25,32.58,38.24Z"/><path class="cls-2" d="M32.48,39.46v-.08S32.46,39.44,32.48,39.46Z"/><path class="cls-2" d="M34,31.61a.61.61,0,0,0-.16.12C33.87,31.78,33.9,31.67,34,31.61Z"/><path class="cls-2" d="M42.25,29.23l.1-.05h-.09Z"/><path class="cls-2" d="M36,29.27l0,0a.49.49,0,0,0,0-.11Z"/><path class="cls-2" d="M38.17,28.23c-.06,0,0,.22,0,.31a.23.23,0,0,1,.07-.17A.73.73,0,0,0,38.17,28.23Z"/><path class="cls-2" d="M41.87,28.32l.07,0Z"/><path class="cls-2" d="M34.64,30.34l-.07,0A.11.11,0,0,0,34.64,30.34Z"/><path class="cls-2" d="M45.82,31.4l0,0S45.81,31.39,45.82,31.4Z"/><polygon class="cls-2" points="44.49 29.17 44.52 29.17 44.58 29.07 44.49 29.17"/><path class="cls-2" d="M33,41.73v0C32.9,41.67,32.92,41.7,33,41.73Z"/><path class="cls-2" d="M48.27,39.15c.13.21-.64.18-.39.43C47.89,39.49,48.53,39.32,48.27,39.15Z"/><path class="cls-2" d="M42.2,29.19h-.08A.08.08,0,0,0,42.2,29.19Z"/><path class="cls-2" d="M47.88,39.58h0l0,0Z"/><path class="cls-2" d="M37,45.21a.3.3,0,0,0,0-.1A.27.27,0,0,0,37,45.21Z"/><path class="cls-2" d="M34.05,42.67l0,.09A.39.39,0,0,0,34.05,42.67Z"/><path class="cls-2" d="M39,45.53s.06.06.13,0,0,0,0,0S39,45.58,39,45.53Z"/><path class="cls-2" d="M41,45.72l0,0h-.06Z"/><path class="cls-2" d="M47.65,36.12a.82.82,0,0,1,.19-.09C47.69,36.07,47.62,35.8,47.65,36.12Z"/><path class="cls-2" d="M42.27,29.11c0,.05,0,.08-.07.08h.06A.12.12,0,0,0,42.27,29.11Z"/><path class="cls-2" d="M39.38,43.92l.26.07A.89.89,0,0,0,39.38,43.92Z"/><path class="cls-2" d="M36.28,38l0-.13A.31.31,0,0,0,36.28,38Z"/><path class="cls-2" d="M40.44,44a.47.47,0,0,0,.15.16l0-.06Z"/><path class="cls-2" d="M47.84,36Z"/><path class="cls-2" d="M47.11,34.29c0,.25.29.06.46.08.14.29-.17.18-.29.31.11.17.38.28.39.43s-.06,0-.12,0c.25.18.07.62.36.86l-.07,0a1.14,1.14,0,0,1,.38-.06c0,.13.18.23,0,.29,0-.08-.08-.09-.13-.12l.08.13c-.26.13-.1-.18-.29-.17.1.24.32.6.25.69s-.15-.07-.17-.12,0-.14-.15,0l.09-.31c-.39.25,0-.18-.4,0a1,1,0,0,0,0,.25c0,.07,0,0,0,.06s.06.06,0,.09a3,3,0,0,1,.35.19c.13.22,0,.19-.19.07s-.29-.27-.19-.09.26.49,0,.32c0-.1,0-.19-.08-.29s.08.42-.25.22c.13-.11.17-.09.16-.13s0-.07,0-.07a.1.1,0,0,0-.07.07c-.05.07-.08.17-.18.17L47.05,37c-.42,0-.9.22-1.37.27,0-.07.11-.15,0-.23a4.21,4.21,0,0,1-1.86-.19l-.22.23a.1.1,0,0,1,0-.15c-.22-.08,0,.14-.12.23a.11.11,0,0,1-.09-.19,2,2,0,0,1-1.54.16l.08-.06c-.33-.09-.37.45-.67.24l.06,0c-.71-.09-1.49.11-2-.22-.12.32-.67-.14-.77.3a3.84,3.84,0,0,0-1.55-.42c-.28,0-.15.3-.37.36l-.23-.21,0,.06,0,0,0,.08.14.29-.28,0,.08.32c0-.1.09-.17.16-.11a1,1,0,0,1-.19,1,5.38,5.38,0,0,0,.46,1.06c-.1,0-.18-.16-.28-.3.2.27.15.3.1.35s-.11.08.06.23c0-.07.14,0,.19,0a1.18,1.18,0,0,0,.41.9L37,41a3.83,3.83,0,0,0,1.59,1.27.19.19,0,0,1,.18-.33l0,.25c.18-.08-.14-.17.17-.22.2.12,0,.32-.13.33l.31,0c0,.08-.09.09-.14.17.16-.09.44.42.69.2v.08a4.83,4.83,0,0,0,1.49.06c0-.21.21-.17.35-.35a2.47,2.47,0,0,0,1.31-.06c.29-.22,0-.2.12-.37.1.17.54-.08.37.16a2.4,2.4,0,0,0,1-1.11c-.11,0-.19.05-.21,0s.24-.17.3-.11v0c0-.2.07-.23.16-.28a.44.44,0,0,1,.18.12c.08,0,0,.08.17.12a.75.75,0,0,0,.66-.07l0,0,.55-.21c.25,0-.15.15,0,.27.77-.32.47,0,.8-.17-.16.29-.16.26-.07.25s.1.09-.14.15l.17,0c.15,0-.11,0-.14.05s.15,0,.22,0a.23.23,0,0,1-.08.21,3,3,0,0,1-.53.55,7.27,7.27,0,0,1-1.25.8c-.3.16.21.7-.35.66v-.28c-.49.63-1.34.61-2,1,0-.06,0-.14.09-.15-.19-.14-.57.09-.56.23s0-.12-.12-.19-.37.27-.47.09c0,0,0-.06.07-.07s-.49,0-.38.21c-.29-.09-.55.1-.77,0-.16.22-.47-.14-.55.18.05-.34-.45-.33-.65-.21.07-.09-.13-.13,0-.26-.19,0-.38,0-.39.16-.24-.47-.82.11-.84-.46a4.53,4.53,0,0,1-1.68-.44c.19-.27.53.3.69,0-.5-.12-.92-.06-1.29-.45-.07-.12.15-.07.23-.09-.5-.2-.68-.63-1.08-.87,0,0,.08,0,.13,0s-.08-.19-.2-.09l.09,0c-.1.25-.59,0-.7,0,.45-.1-.14-.46.46-.52a.19.19,0,0,0-.23,0c0-.09,0-.14.17-.12-.22-.23-.32-.06-.44-.33.07,0,.12,0,.21,0-.18-.07-.39-.16-.41-.42,0,0,.09-.05.12,0-.17-.39-.6-.61-.57-1.12.34.08.08-.19.35-.26l-.13-.24-.12.12c0-.22-.26-.4-.18-.61l.13.16L33.58,38l-.09.26c-.16-.22-.35.06-.3-.26,0,.06,0-.25.15-.38h0a.39.39,0,0,1-.13-.41c.09,0,.31,0,.37,0-.24-.11-.06-.54-.31-.69a.34.34,0,0,0,.23,0l-.18-.1c.06-.11.09-.13.21-.1,0-.33-.36.08-.19-.3,0,0,0,0,.07.09.1-.38-.06-.77.09-1.11.29-.06,0,.32.28.23a3.83,3.83,0,0,1,.06-1.55l-.06.08c-.36-.19.29-.3.21-.58,0,.06.18.15.14.12a5.79,5.79,0,0,0,.3-1.16l.06.1c.17-.12.31-.41.48-.55,0-.11,0-.19-.13-.22.44-.09.56-.35.72-.63s.33-.55.71-.53c-.06,0-.08.17,0,.14a3.82,3.82,0,0,1,.34-.36c-.13-.12-.11-.05-.28-.1a.4.4,0,0,1,.18-.34c-.13.22.16.23.29.26-.05,0-.05-.1-.08-.14.38.13-.14-.33.28-.33l0,.09c.1-.1.16-.26.31-.3.14.15-.1.14,0,.3.17-.1.22-.52.47-.4-.06.08-.18.13-.24.22a.46.46,0,0,0,.42.06h.34l-.1,0c.08-.57.46-.24.72-.64-.26.39,0,.2,0,.42.1.05.23.09.21.16.12-.21.28.1.46-.2,0,.07.17,0,.15.18.2-.08-.06-.12,0-.22.3-.29.76.24,1.21-.1.4-.13.49-.38.89-.47.12.13-.13.26-.13.26a.64.64,0,0,0,.55.07c0,.05,0,.11,0,.2s.15-.25.33-.1a1.13,1.13,0,0,1-.2.26,5.5,5.5,0,0,1,.58-.16c0,.14-.15.16-.23.23.21,0,.55,0,.67-.16l-.12-.1c.08,0,0,.17-.07.19S43,29.05,43,29l.15,0c0-.45-.56-.05-.81-.11l.16-.29-.32.21c-.05-.09-.07-.27.08-.29-.19-.18-.19.08-.35-.11,0,0,0,0,0-.05l-.2.07c0-.06,0-.22.1-.16-.35-.22-.59.19-.72-.05h0c-.5.09,0,.22-.42.49l-.26-.56,0,.23s-.15,0-.14-.11c-.18.17,0,.1-.06.25-.27-.19-.66.16-.76-.19-.07.18.25.1,0,.26-.13-.38-.28.1-.53,0,0-.21.26-.15,0-.28-.07.36-.46,0-.64.14.07.27-.37.23-.65.43,0-.1-.62.09-.94.16l0,0c.08.27-.22.37-.38.55a.3.3,0,0,1,0-.35l-.19.11a.33.33,0,0,1-.12.29l-.07-.2c-.25.18-.33.54-.7.69.12.15.56.21.37.55-.07-.07-.21-.19-.16-.29s0,.15-.11.16V30.2c-.18.05,0,.16-.07.24-.1-.11-.15,0-.22-.1s.13,0,.13-.12a.7.7,0,0,1-.45.12c.07.05.15.14.08.24s-.2,0-.37,0c0,.13-.17.2,0,.35-.05.06-.14,0-.21,0,0,.18-.39.61-.09.59l0,0v0h0c-.08.51-.62.81-.71,1.3l-.07,0c0,.29-.17.62-.07.86a.19.19,0,0,1-.26.09c0,.23.07.27-.11.55-.08-.24-.13.06,0-.24-.13.27-.26.32-.11.65-.17-.13-.28.18-.23.33l.16-.19a1.77,1.77,0,0,1-.06.42l-.24-.1c-.37.58.42,1.09-.09,1.52.17.15.13-.32.33-.18,0,.27-.4.55-.39.63-.14.38.37.34.29.73a.28.28,0,0,1,.43.15c0,.26-.34.36-.43.2s0-.1,0-.1-.09-.19-.17-.08l.09,0c-.08.14,0,.52-.19.44.12.2.16.07.19-.08-.09.36.06.54,0,.91,0-.06.13-.13.14-.08,0,.55.22.2.33.53-.08.23-.34,0-.13.33,0,.24-.21.12-.31.05.26.28.09.64.13.85l-.13-.15a1,1,0,0,1,.15.26l.12-.16c0,.11,0,.2,0,.22.15.06.24-.19.47,0,0,.17.27.34.08.49-.13-.44-.19.15-.4-.18a.42.42,0,0,1,.12.25s-.05,0-.07,0c0,.49.33.06.54.44a.18.18,0,0,0-.09.28c-.1-.16.14-.19.32-.12.07.3.24.21.32.34L34,42.5c.15,0,.21.09.37.21-.07.08-.17-.09-.16,0,.31,0,.14.54.48.64,0,.17-.16.2-.11.33.39.1.19.39.56.5,0-.21,0-.18.29-.18a5.29,5.29,0,0,1-.54-.25l.45,0c-.13-.11-.35-.14-.41-.23.23,0,.18,0,.21-.15,0,.36.45.16.56.46l-.26.36c.24.4.74.22,1.15.57l-.11-.15c.14-.12.3.13.49.14-.08.12,0,.22,0,.34,0-.11.37.16.52-.1l.16.27c.39.22.6-.24,1-.09-.16.12,0,.27-.31.31.14,0,.26.1.28,0,.06.11.42-.11.51,0,.07-.06.12-.2.27-.17s0,.07,0,.07.25-.06.15-.24c.35.53,1.13.08,1.48.47.3,0,.65-.12.91-.15,0,0,0,.08,0,.06.38.1.18-.44.6-.34.25.21-.2.16-.05.24.12.47.49-.14.82.08l-.06,0c.26.11.49-.3.84-.37a.08.08,0,0,0,0,.07,2.71,2.71,0,0,1,.83-.75c0,.21-.1.15,0,.3.13-.09-.16-.26.08-.44.14,0,.37,0,.5.19-.09,0-.17.11-.26.15.26.17.34-.19.49-.23l0,.11c.37-.28.21-.53.6-.8l-.09,0c0-.39.27,0,.32-.35l.26.17c.09-.17.23-.63.38-.89a2.06,2.06,0,0,1-.18.87c.13-.12.4-.44.34-.61,0,.07,0,.18-.1.2a1.14,1.14,0,0,1,.26-.84c.21.2.38,0,.55-.17a2.48,2.48,0,0,1,.72-.81,10,10,0,0,1,.3-1.23c.06-.22.13-.44.18-.7s-.1-.12-.18-.16a3.43,3.43,0,0,0-.34-.06c-.11.44-.28,0-.63.4-.2,0-.26,0-.26,0a1.78,1.78,0,0,0-.5-.29c-.13-.13.28-.1.32-.2-.58,0-.16-.2-.57-.32.06.17-.29.24-.58.17.11.07.31.14.43.21-.44.13-.5,0-.6-.07a.33.33,0,0,0-.44-.07l.15-.14c-.25.08-.91,0-1.14.36-.05-.05-.11-.18,0-.21a3.76,3.76,0,0,0-.62,0,4.63,4.63,0,0,0-.68.1,6,6,0,0,1-.34.82c-.12.2-.16.22-.28.27l-.07-.1c0,.08.06.25-.09.23s0-.1-.08-.08,0,.28-.16.29v-.16c-.37.08-.39.57-.8.75-.07-.32-.42-.37-.6-.42v0c-.52,0-.92.25-1.45.22-.17-.41-.88-.58-1-1,0,.08-.2.16-.28.11s-.37-.14-.1-.28l0,0c.21-.22,0-.36,0-.53l-.38.12c.21-.26.17-.25.07-.42s-.18-.4.18-.09c-.06-.1,0-.1,0-.19l.13.21c.06,0,.09,0,.12,0h0l.32,0-.1.15c.28,0,.36-.61.62-.63l.07.32c.5,0,1,.28,1.48,0,0,0,0,.14-.1.15.23,0,.89.21.8-.22,0,.28.51,0,.78-.1l-.05.21c.23-.27.24-.34.55-.41.07,0,.06.16,0,.11.25.11.2-.2.5-.09l-.12.14c.26,0,.24-.06.38-.21a.42.42,0,0,1,.52.24c0-.12.17-.27.32-.22a.13.13,0,0,1-.06.14c.42.14.63-.24.92,0a.23.23,0,0,0,.05.13,4.55,4.55,0,0,1-.58,0c0,.19.27.22,0,.49.22-.15.59-.46.86-.37,0,0,0,0,0,.06l0,0a.22.22,0,0,0,.17,0,.43.43,0,0,0,.22.06c0,.16.31.09.44.1,0-.21.17-.18,0-.35,0,0,0,0-.11,0l-.06,0v0l-.34,0c.11-.11.22-.2.37-.08a3.84,3.84,0,0,1,.19-.34c.19.29.54.45.59.63.55-.11,1.64-.08,1.6-.48a.14.14,0,0,1,.09,0h0l.13,0a.74.74,0,0,1,0,.18s-.08,0-.08.06.09,0,.1-.06l0-.18,0-.38a.78.78,0,0,0-.22-.55c.12-.35.25.34.21-.25l.08.1A1.34,1.34,0,0,0,49.05,36a1.19,1.19,0,0,1-.13-1.17c0,.07,0,.1-.08.12.1-1.12-.69-2-.87-3.14-.09-.31-.26-.25-.47-.32l.15-.18-.39-.11c-.4-.21,0-1-.73-1.13l-.06.16c-.12-.16-.53-.35-.4-.46,0,0-.15.08-.16,0l.07-.1a5,5,0,0,0-.53-.12c-.28-.28.32-.37-.18-.69-.23-.07-.71,0-.67.15a.22.22,0,0,1,.12.26l-.2,0c-.18.3-.42.58-.18,1,.11,0,.23,0,.34-.06v.19l-.2-.1c0,.2.17.11.3.08a.28.28,0,0,0,0,.22l.4-.13c-.05.13-.25.15-.15.31.19,0,.08-.32.31-.27,0,.21-.1.28.1.27a.15.15,0,0,1-.17.1c.17,0,.3.2.47.11,0,.23.37.3.11.51a.63.63,0,0,1,.45.11c-.45.06.27.38-.12.59.4-.06.47.41.78.59,0,0-.1,0-.1,0,.06.16,0,.26,0,.38.27-.11.44.11.67.18-.19.31-.37,0-.6.18.22-.11.35.24.51.11-.11.21,0,.16-.24.32.36-.09.1.12.36.18-.12.28-.32.15-.15.37C47.29,34.48,47.11,34.29,47.11,34.29Zm-1.43,3Zm-.57,0h.25c0,.08,0,.15-.06.15S45.19,37.4,45.11,37.33Zm1.21,1.47c-.1,0-.13,0-.14-.06l.16,0v0Z"/><path class="cls-2" d="M46.48,38.52l0,0,0,0,0,.06Z"/><path class="cls-2" d="M34.05,31.55h0Z"/><polygon class="cls-2" points="36.27 37.02 36.33 37.07 36.36 37.02 36.27 37.02"/><path class="cls-2" d="M36.77,29.91a.06.06,0,0,0,.06,0Z"/><path class="cls-2" d="M37.93,29.41h.2A.47.47,0,0,0,37.93,29.41Z"/><path class="cls-2" d="M38.9,29.24v-.1h0Z"/><path class="cls-2" d="M35.12,41.75l0,0C35.23,41.81,35.18,41.77,35.12,41.75Z"/><path class="cls-2" d="M33.34,37.58l.11.15C33.46,37.65,33.46,37.58,33.34,37.58Z"/><polygon class="cls-2" points="39.35 43.91 39.35 43.91 39.38 43.91 39.35 43.91"/><path class="cls-2" d="M33.46,38a.3.3,0,0,0,0-.23A.36.36,0,0,0,33.46,38Z"/><path class="cls-2" d="M43.09,29.43l0,0,0,0Z"/><path class="cls-2" d="M43.15,29.41h.05S43.16,29.39,43.15,29.41Z"/><path class="cls-2" d="M43.32,29.38l-.12,0S43.28,29.44,43.32,29.38Z"/><path class="cls-2" d="M41.84,29.1l0,.07A.12.12,0,0,0,41.84,29.1Z"/><path class="cls-2" d="M41.45,29.08c.09,0,.22.18.35.15l0-.06C41.75,29.28,41.55,29,41.45,29.08Z"/><path class="cls-2" d="M39.7,28.17l.36,0c-.06-.07-.16-.18,0-.21C39.58,27.78,40.18,28.16,39.7,28.17Z"/><path class="cls-2" d="M38.55,28.25c.19-.09,0-.12,0-.17C38.41,28.19,38.39,28.21,38.55,28.25Z"/><path class="cls-2" d="M32.88,33.86l-.18-.07C32.69,34,32.77,33.81,32.88,33.86Z"/><polygon class="cls-2" points="33.59 35.51 33.72 35.39 33.55 35.31 33.59 35.51"/><polygon class="cls-2" points="32.16 36.31 32.14 36.24 32.2 36.5 32.16 36.31"/><path class="cls-2" d="M40.65,45.9l0-.24C40.51,45.7,40.47,46,40.65,45.9Z"/><path class="cls-2" d="M46.39,44a.23.23,0,0,0,.32-.17C46.59,43.9,46.42,43.91,46.39,44Z"/><path class="cls-2" d="M38.29,39.15h.09l-.08,0Z"/><rect class="cls-3" x="36.51" y="24.3" width="8.83" height="2.63"/><path class="cls-2" d="M44.84,26.93c.07,0,.22,0,.19,0l-.25,0Z"/><path class="cls-2" d="M45.3,26.7a1.47,1.47,0,0,0-.56-.06c.24,0,.14.05.43.09,0,0-.08.06-.17.06.06,0-.06.05.1.07s.2-.1,0-.16Z"/><path class="cls-2" d="M44.61,24v0A0,0,0,0,0,44.61,24Z"/><path class="cls-2" d="M42.49,23.81s0,0,0,0S42.48,23.79,42.49,23.81Z"/><path class="cls-2" d="M42.14,23.54l0,0S42.15,23.52,42.14,23.54Z"/><path class="cls-2" d="M44.61,24l0-.08C44.53,24,44.58,23.93,44.61,24Z"/><path class="cls-2" d="M44.71,26.26l.06,0,0,0Z"/><path class="cls-2" d="M45.89,23.81v0l.1-.08Z"/><path class="cls-2" d="M45.93,24.79s-.2.05-.29.08c.08,0,.13,0,.14,0Z"/><path class="cls-2" d="M45.56,26.1l0,0Z"/><path class="cls-2" d="M45.28,23.7a.21.21,0,0,1,0-.07A.25.25,0,0,0,45.28,23.7Z"/><path class="cls-2" d="M44.55,25.94v0S44.56,25.94,44.55,25.94Z"/><polygon class="cls-2" points="45.34 26.98 45.33 26.99 45.33 27.11 45.34 26.98"/><path class="cls-2" d="M41.51,23.27h0S41.52,23.25,41.51,23.27Z"/><path class="cls-2" d="M35.64,24.76c.19,0,.24.25.45.17C36,24.93,35.76,24.67,35.64,24.76Z"/><path class="cls-2" d="M44.73,26.24v0S44.73,26.23,44.73,26.24Z"/><polygon class="cls-2" points="36.09 24.93 36.09 24.93 36.11 24.93 36.09 24.93"/><path class="cls-2" d="M40.06,23.4s0,.06,0,.09A.51.51,0,0,0,40.06,23.4Z"/><path class="cls-2" d="M41.14,23.7l0,0Z"/><path class="cls-2" d="M39.5,23.69s0,0,0,0v0S39.48,23.66,39.5,23.69Z"/><path class="cls-2" d="M38.92,23.69v0h0Z"/><path class="cls-2" d="M42.78,26l0,.19C42.8,26.08,42.88,26,42.78,26Z"/><path class="cls-2" d="M44.82,26.26l-.09,0v0Z"/><path class="cls-2" d="M39.48,25.36l-.09,0A.12.12,0,0,0,39.48,25.36Z"/><path class="cls-2" d="M38.59,26.07l0,0S38.6,26.05,38.59,26.07Z"/><path class="cls-2" d="M39.11,25.36a.5.5,0,0,0,0-.15v.06Z"/><path class="cls-2" d="M42.81,26.23Z"/><path class="cls-2" d="M43.42,25.73c-.09,0,0,.27-.06.43s0-.2-.09-.35c-.06.08-.11.33-.16.32a.16.16,0,0,1,0-.12c-.07.22-.21,0-.29.29a.17.17,0,0,1,0-.07c0,.14,0,.28,0,.38s-.07.18-.09,0c0,0,0-.07,0-.13l0,.08c0-.26.05-.09.05-.28-.08.08-.17.3-.23.22,0-.25.14-.08.06-.31l.09.1c-.07-.4.06,0,0-.4-.13-.08-.15.13-.27.05,0,.14,0,.21,0,.35s-.14-.64-.27-.3c0,.17,0,.49-.14.32L42,26c-.12,0-.07.41-.2.22,0-.12.1-.1.08-.13-.09-.23-.06.16-.13.16V26c-.13,0-.27.23-.42.28a.39.39,0,0,0,0-.24c-.18.13-.39,0-.56-.18l-.07.22a.2.2,0,0,1,0-.14c-.07-.09,0,.14,0,.22s-.05-.12,0-.19c-.12.19-.35.4-.47.17l0-.07c-.1-.09-.11.45-.2.25l0,0c-.22-.1-.46.1-.62-.23,0,.32-.21-.14-.23.3-.12-.22-.09-.3-.26-.44s-.07.27-.12.32V26l-.07.24,0-.28-.06.06a.27.27,0,0,1,0,.17c-.08.11-.2-.16-.2-.28l-.2.2a.42.42,0,0,1,.07-.18c-.11.23,0-.25-.12,0a1,1,0,0,1,0,.18A.14.14,0,0,0,38,26l0-.16a.45.45,0,0,0-.23,0s0,.06-.06.06a1.22,1.22,0,0,1-.07.37l0-.24a2.42,2.42,0,0,1-.06.28s0-.28.07-.36l0,.08.06-.2c0,.15.08-.25,0,0l0-.08s-.06.09-.09.1a3.4,3.4,0,0,1-.29.33,1.11,1.11,0,0,1,.09-.19s0,0,0-.05-.18.16-.3.25c.19-.17.17-.19.31-.28,0,0,0,0-.19,0l-.18.11s.08-.09.17-.13h0c-.14,0,0-.11.12-.16s.24-.05,0-.11h0l-.21-.17c0-.07.15,0,.27,0-.33-.09,0-.06-.17-.15.28.07.27.08.24,0s-.1-.12.08,0l-.13-.1c-.13-.12.07.05.1.07l-.19-.16a.16.16,0,0,1,0-.09c.1,0,.35.26.36.36s-.14-.69,0-.37l0,.25c0-.15.12-.15.25-.14a.43.43,0,0,0,.39-.11c0,.06,0,.14,0,.14,0,.18.19,0,.19-.14s0,.13,0,.2.13-.23.16-.05a.19.19,0,0,1,0,.08c0-.09.17,0,.13-.19.1.1.18-.09.26,0,0-.23.16.11.17-.22,0,.34.17.28.23.12,0,.1,0,.1,0,.25.07,0,.13-.07.12-.25.12.41.25-.32.32.2a2.23,2.23,0,0,1,.57-.39c0,.34-.2,0-.19.39.17-.14.27-.43.44-.35s0,.15,0,.21c.17-.14.33,0,.49-.16a.18.18,0,0,1,0,.1s.07.05.07-.11l0,0c-.05-.22.12-.46.13-.58,0,.44.15.11.07.67a.42.42,0,0,0,0-.21s0,.09,0,.21c.1-.08.07-.25.16-.24a1.81,1.81,0,0,1,0,.19c.05-.15.1-.29.19-.23s0,.1,0,.1c.14,0,.24-.38.4-.24,0,.32.05.1.06.38l.08-.08,0-.14c.07,0,.14-.2.2-.1l-.06.11.14-.05-.08-.11c.08-.14,0-.35.09-.28s.08,0,.12.17h0c0-.08.07-.18.12-.11s0,.31,0,.37c0-.23.17-.07.22-.31a.61.61,0,0,0,0,.23l0-.19a.31.31,0,0,1,0,.21c.1,0,0-.36.09-.2s0,0,0,.07.23-.12.34,0c0,.28-.09.07-.06.31.17-.05.34-.34.5-.27l0,0c0-.4.11.19.19,0a.76.76,0,0,0,0,.17c.13.07.13-.1.3-.22l0,.1c0,.09.08.05.11.1a1.2,1.2,0,0,0,.12-.23c-.06.29,0,.21.15.12s.3-.19.14.05c0,0-.11.09-.11.09l.12-.06h0c.17-.18.1-.12.24-.28s.18-.12.18-.08-.28.27-.38.37l.17-.15c-.31.33.35-.28.14,0l-.09.07c.05,0,.17-.05.14,0-.2.15-.09,0-.26.14,0,0,.38-.14.18,0-.05,0-.06,0-.11,0-.24.19-.18.15-.21.21h0l-.11.12.07-.05c.52-.18.09.07.44.05-.33,0-.19,0-.42.09a.5.5,0,0,1-.2.08c.19,0-.14.06.13.06-.07,0,0,0-.19,0,0,0,.12,0,.22,0s-.31.21,0,.35c.14.12.38.15.51.27a.41.41,0,0,1-.27,0c-.11.07-.09.12,0,.18a.47.47,0,0,0-.2,0c0,.05.26,0,.15.09a1.47,1.47,0,0,1-.29,0c.07.06.2.12.27.18a.73.73,0,0,1-.28-.06.44.44,0,0,0,.32.2l.07-.05s-.17,0-.21,0,.07-.09.15-.09l0,0c.43,0-.07-.17,0-.25l.31,0-.26-.08c.08,0,.26,0,.3,0s-.11-.06.07-.11c0,0,0,0,.05,0L45.47,26c.06,0,.22,0,.17,0,.18-.11-.23-.17,0-.21h0c-.1-.15-.23,0-.49-.13l.56-.07-.23,0s0,0,.12,0c-.16-.06-.1,0-.25,0,.21-.08-.1-.2.27-.26-.18,0-.14.09-.26,0,.4-.08-.06-.08.12-.19s.09.08.27-.05c-.34,0,.08-.19,0-.25-.27.1-.11-.11-.2-.18.09-.05.15-.32.25-.52l0,0c-.27.2-.22.05-.28,0,.17-.15.23-.2.3-.21v-.09q-.11.07-.15.06h0l.22-.2c-.14,0-.45.24-.49.1a2.7,2.7,0,0,1-.53.67,1.65,1.65,0,0,1,.26-.33s-.1.09-.09,0l.18-.17c0-.08-.13.15-.17.13s0-.11.13-.22,0,.06.06,0a.22.22,0,0,1,0-.23.6.6,0,0,1-.18.22c-.12,0,.06-.18,0-.25-.08.1-.11,0-.22.21,0,0,0-.1,0-.16-.11.1-.3,0-.31.26v0h0c-.21.22-.34-.13-.53,0V23.9c-.08.09-.18.05-.24.21,0,0-.06-.13-.05-.22s-.07.14-.16,0,0-.12.06-.1c-.08-.06-.1-.18-.19,0,0-.19-.06-.24-.1-.18l.06.14a.15.15,0,0,1-.13,0l0-.25c-.17-.3-.31.52-.44,0,0,.17.09.12,0,.33-.08,0-.16-.4-.18-.4s-.1.37-.22.27c0,.09,0,.33,0,.41s-.1-.37-.05-.44,0,0,0,.05a.16.16,0,0,0,0-.17v.09c0-.09-.15-.08-.13-.23a.15.15,0,0,0,0,.2c-.1-.13-.15,0-.26-.09a.31.31,0,0,1,0,.15c-.15-.11-.07.17-.17.21-.06-.14,0-.33-.09-.21a.37.37,0,0,1,0-.31c-.1.17-.18-.11-.23-.15l0-.07a.09.09,0,0,1-.08,0l0,.18s-.06,0-.06-.1c0,.11,0,.29,0,.45,0-.09-.12.1-.14-.14.13.08,0-.24.09-.27s0,0-.07,0,0,0,0-.06c-.11-.21,0,.27-.17.26s0-.25-.05-.22,0,.22,0,.32c-.08-.1-.09.08-.13.07l0,0c0,.14-.06.12-.11.16s.05-.07,0-.11c-.06.23-.14-.25-.22-.09,0-.09,0-.25,0-.31-.09.17-.1-.18-.2,0s0,.13,0,.31l.16-.13-.11.26s.11-.11.14-.08-.05.1,0,.25c-.07-.27-.14.16-.22,0v-.45c-.12-.19-.21.23-.36.12l.05.08c0,.17-.1,0-.15.09a.75.75,0,0,0,0-.29c0,.11-.11,0-.13.28l-.07-.19c-.12-.08-.13.42-.25.37s0-.27.06-.38-.08,0-.08.07c0-.09-.11.2-.14.06,0,.07,0,.22-.07.21v-.07c0,.07-.07.1,0,.26-.12-.46-.34,0-.44-.36a1.18,1.18,0,0,1-.27.11c0-.05,0-.08,0-.06-.11-.14-.07.42-.19.27s.06-.13,0-.22c0-.49-.14.06-.22-.22l0,0c-.07-.16-.16.19-.26.15v-.07a.64.64,0,0,1-.3.4.61.61,0,0,0,0-.3s0,.31-.07.37a1.43,1.43,0,0,1-.16-.4l.12,0c-.08-.26-.16,0-.23,0v-.12c-.2,0-.12.33-.31.31l0,.09c0,.29-.15-.16-.15.05l-.17-.29c-.05.07-.08.28-.14.34a.55.55,0,0,1,0-.46c-.08,0-.25,0-.19.17,0,0,0-.11.06-.06.06.23.06.35-.06.34a.73.73,0,0,0-.61-.36c0,.05-.07.08-.22,0,.21.46-.09.5-.06.89.45.09,0,.11.47.28,0,.07,0,.09,0,.08l-.27.13c-.13,0-.1-.09-.2-.12,0,.18-.2,0-.32.14.16,0,.23.11.17.21a1.13,1.13,0,0,1,.21-.12c.13.14,0,.17-.07.22s-.19.13-.07.19l-.14,0s0,.11.07.17a.36.36,0,0,0,.29.28s-.18.08-.21,0c-.06.37.39.54.17.86l-.12.05s.21,0,.1.11-.11,0-.12.08.2,0,.13.13l-.12,0c-.12.35.16.28.31.28l.18-.07c-.32.33-.17.44-.09.49L36,28c.37,0,.82-.28,1.14-.41,0,.36.72.15.81.35a.47.47,0,0,1,0-.29c0,.07.12-.23.12.08h0c0,.3.12.22.2.23v-.4c.18.58.48-.21.58.31,0-.1.1-.1.14-.2v.21a.35.35,0,0,0,.33,0l0,.15c.09,0,.11-.61.19-.62l0,.32c.15,0,.3.27.45,0,0,.05,0,.14,0,.15s.27.22.25-.22c0,.29.15,0,.23-.09v.2c.07-.26.07-.34.16-.41s0,.17,0,.11c.08.11.06-.19.15-.08l0,.13c.08,0,.07-.05.11-.21s.15.05.16.24c0-.11.05-.27.1-.21a.31.31,0,0,1,0,.13c.13.15.19-.24.28,0a1.05,1.05,0,0,0,0,.12c-.1,0-.18,0-.17,0,0,.19.08.23,0,.49.07-.14.18-.46.27-.37v.09s0,0,0,0a.13.13,0,0,0,.07.06c0,.16.09.08.13.09,0-.21,0-.18,0-.35,0,0,0,0,0,0s0,0,0,0v0h-.1c0-.11.07-.2.11-.08l.06-.34c.06.29.16.45.18.63.13-.11.3-.07.38-.47,0,0,0,.11,0,.18s0,0-.06.09c.08-.1.22,0,.23-.32.09.13,0,.26.08.21l0,.08c.24.45.4-.7.67-.13a.17.17,0,0,1,0-.1c.3.25.63-.24.94.16.08.08.09-.1.14-.23l0,.23.09-.26c.13-.2.23.55.39.19l0-.15c.05,0,.18-.09.17.08,0,0,0-.16,0-.08v.12l.14-.2c.11.08,0,.47.14.49a.76.76,0,0,0,.15-.42.26.26,0,0,1-.06-.2l0-.06a2.07,2.07,0,0,0-.08-.95l-.09.22,0-.17h.07c0-.16-.07,0-.1.07a.48.48,0,0,0,0-.18L45,26.3c0-.14,0-.27,0-.35-.05.16,0,.31,0,.41-.05-.16,0-.29-.09-.15a.33.33,0,0,1,0-.19c0,.11-.13.05-.15.23-.05-.19-.16.06-.16-.27a.61.61,0,0,1-.12.27c.08-.4-.16,0-.14-.45-.06.36-.21.16-.32.36,0,0,0-.09,0-.07s-.08-.14-.11-.2a1.53,1.53,0,0,1-.15.54c-.07-.29,0-.35,0-.62,0,.24-.12.24-.1.44a1.14,1.14,0,0,1-.08-.33c0,.36,0,.06-.09.29-.08-.19,0-.35-.11-.24A.32.32,0,0,1,43.42,25.73Zm-2.07.64h0Zm-.17,0h.08a.3.3,0,0,1,0,.14C41.25,26.47,41.21,26.43,41.18,26.37Zm.37,1.46s0,0,0,0l0,0v.08Z"/><path class="cls-2" d="M41.6,27.55a0,0,0,0,1,0,0l0-.05v.07Z"/><path class="cls-2" d="M44.63,24h0v0Z"/><polygon class="cls-2" points="38.78 25.96 38.78 26.02 38.8 25.97 38.78 25.96"/><path class="cls-2" d="M44.93,24.8l0,.05Z"/><path class="cls-2" d="M44.89,25.1l-.08.07Z"/><path class="cls-2" d="M44.78,25.32l.09,0h0Z"/><path class="cls-2" d="M41.16,25.11h0Z"/><path class="cls-2" d="M42.67,24.61l-.05.1S42.67,24.73,42.67,24.61Z"/><polygon class="cls-2" points="39.49 25.36 39.49 25.36 39.48 25.36 39.49 25.36"/><path class="cls-2" d="M42.55,24.71s.05,0,.07,0S42.57,24.68,42.55,24.71Z"/><path class="cls-2" d="M44.69,26.54h0Z"/><path class="cls-2" d="M44.71,26.56h0S44.73,26.56,44.71,26.56Z"/><path class="cls-2" d="M44.79,26.61l0,0S44.73,26.6,44.79,26.61Z"/><path class="cls-2" d="M44.78,26.12h0Z"/><path class="cls-2" d="M44.76,26s-.16.08-.11.12h.06C44.59,26.09,44.89,26,44.76,26Z"/><path class="cls-2" d="M45.71,25.44a.67.67,0,0,1-.06.12c.08,0,.19,0,.21,0C46.1,25.43,45.67,25.61,45.71,25.44Z"/><path class="cls-2" d="M45.82,25c0,.07.12,0,.17,0S45.9,24.89,45.82,25Z"/><path class="cls-2" d="M43.78,23.82v-.2S43.78,23.7,43.78,23.82Z"/><polygon class="cls-2" points="43.32 24.81 43.36 24.93 43.38 24.75 43.32 24.81"/><polygon class="cls-2" points="43.05 23.44 43.07 23.41 42.99 23.48 43.05 23.44"/><path class="cls-2" d="M39,23.51l0,.23S39.07,23.44,39,23.51Z"/><path class="cls-2" d="M37.08,23.75c-.06-.12-.18-.19-.17-.08S37.07,23.78,37.08,23.75Z"/><polygon class="cls-2" points="38.32 27.86 38.29 27.94 38.35 27.87 38.32 27.86"/></g></svg>