<svg xmlns="http://www.w3.org/2000/svg" viewBox="0 0 200 200"><defs><style>.cls-1{fill:#212121;}</style></defs><g id="BACKGROUND_2" data-name="BACKGROUND 2"><path d="M106.82,192.69c-1.2-5.71,1.79-11.3,4.08-16.33.23-.51-.5-1-.78-.45-2.73,5.12-5.49,11.06-4,17,.12.48.84.28.74-.2Z"/><path d="M121.58,160.14a93.12,93.12,0,0,1,12.16-14.49c.36-.35-.17-.87-.54-.55a72.58,72.58,0,0,0-12.68,14.42c-.45.66.62,1.28,1.06.62Z"/><path d="M146.25,140.33a102,102,0,0,1,15.94-4.15c.34-.06.27-.65-.09-.62A52.09,52.09,0,0,0,146,139.64c-.39.17-.11.82.29.69Z"/><path d="M169.34,136.79a27.78,27.78,0,0,1,15.44,7.45.31.31,0,0,0,.44-.45c-4-4.76-9.75-7.2-15.88-7.73-.48,0-.46.68,0,.73Z"/><path d="M191.54,151.1c3.33,4.89,7.41,10.16,12.6,13.19a.48.48,0,0,0,.58-.76c-4.52-4.12-9-7.67-12.55-12.8-.26-.39-.9,0-.63.37Z"/></g><g id="BACKGROUND_1" data-name="BACKGROUND 1"><path class="cls-1" d="M51.35,112.92l-.65.17S50.89,113.08,51.35,112.92Z"/><path class="cls-1" d="M105.16,119.73l.11-.11C105.19,119.69,105.16,119.72,105.16,119.73Z"/><path class="cls-1" d="M26.77,121.23l0,0,.15-.09Z"/><path class="cls-1" d="M58.47,108.7c-2.16.62-3.89,1.18-5.45,1.67s-2.91.92-4.27,1.38-2.74.92-4.29,1.54-3.32,1.27-5.44,2.23c-4.11,1.66-8.35,3.76-12.22,5.69-1.73,1.14-5.06,2.6-7.08,4l-.89.35c-.7.45-1.54,1-2.29,1.35l0-.06c-1,.71-2.27,1.38-2.79,1.73l0-.06c-.44.26-.87.52-1.3.8l.2-.18c-.9.62-1.83,1.22-2.74,1.8S8.13,132,7.28,132.62l.22,0a14.07,14.07,0,0,0-3.81,3.54,9.94,9.94,0,0,0-1.16,2.06,6.82,6.82,0,0,0-.5,2.9l0-.06a6.46,6.46,0,0,0,1.66,3.49,8.41,8.41,0,0,0,2.71,1.9,13.8,13.8,0,0,0,6.58,1.06c-.64,0,.27.08.22.11,2.32-.08,4.74-.18,4.77-.46,1.67-.05,1.36,0,1.58.14a11.72,11.72,0,0,1,2.73-.29l-.6.08,3.73-.22-.75-.19c2,0,.52.26,2.41.1l0-.19c2.73-.13,4.35,0,7,0,5.49-.43,11.17-1.21,16.7-2.21s10.92-2.25,15.92-3.47l.47,0c.26.15,2.64-1.11,3.07-1l1.11-.46c.33-.07,1-.25.46,0a14.36,14.36,0,0,0,1.81-.69l1.16-.27a106.63,106.63,0,0,0,11.68-4.93,69.85,69.85,0,0,0,9.52-5.08,80.1,80.1,0,0,0,9-6.55c.82-.67,1.62-1.38,2.44-2.09s1.67-1.44,2.49-2.2,1.67-1.5,2.49-2.3l1.25-1.18a17.13,17.13,0,0,0,1.19-1.35,13,13,0,0,0,1.9-3.13,6.43,6.43,0,0,0,.45-3.92,5,5,0,0,0-2.57-3.18,11.89,11.89,0,0,0-3.38-1,5,5,0,0,0-1-.16,59.56,59.56,0,0,0-7.86-1.15l-1.59-.11c-1,0-2.39-.09-4-.06a53.74,53.74,0,0,0-10,1.12c-2.92.64-4.86,1.36-4.31,1.45a17,17,0,0,0,2.87-.22c1.72-.18,4.26-.46,7.83-.51L93,102c4.22-.18,6.87,0,9.8,0,.43.31,3.45.38,4.41.68h-.1a20.7,20.7,0,0,1,3.86.74,11.64,11.64,0,0,1,3.28,1.25,1.54,1.54,0,0,1-.55-.24,3,3,0,0,1,1.44,1.61,1.72,1.72,0,0,1,0,1.23c-.16,3.87-5.42,8-7.16,10l.11-.16a32.89,32.89,0,0,1-2.81,2.59c-.09.05-.19.12-.18.1-.62.61-1.61,1.39-2.57,2.14s-2,1.4-2.5,1.84l-.14,0c-.93.67-1.89,1.3-2.83,2l1.08-.7c-.2.52-2.28,1.28-4.31,2.74-2,1.14-3.82,2.91-6.07,3.88-1,.64.81-.67-.7.2-.12-.11.68-.45.22-.36-1.48.83-2.57,1.08-4.44,2l-.13-.08a27.37,27.37,0,0,1-3.52,1.54,22.36,22.36,0,0,0-2.93,1.16c-2.63,1-1.89.32-4.6,1.48l-1.14.19a17.25,17.25,0,0,1-2.16.8c0-.13-1.71.42-1,.09-3.07.71-6.12,1.95-10.25,2.53-.84.4-2.92.67-3.55,1-.13-.06-4.14.73-1.86.12.2-.05.55-.11.53-.07l.26-.17c-2.37.2-4.23.86-6.56,1.16.7,0,1.61-.2,1,0l-2.16.29.43-.16c-1.07.13-2.15.25-3.23.36l.46.07a24.45,24.45,0,0,0-3.93.35c-.79.19,1.52,0-.15.23l-8,.46c.26.12-.47.17-1.22.24l-.1-.12c-2.87.36-1.07-.19-3.92.1l.25-.1-.74.3c-2.57.38-1.41-.2-4.26.27,1.13-.08.54.26-.86.25l.35-.14c-.77.05-1,.11-1.54.1.45-.07.23-.18-.9-.12l.75-.18-2.14.29c-.83,0-1.92,0-2.85,0a7.56,7.56,0,0,1-2-.15s-.86-.08-1.77-.24-1.89-.43-2.25-.5c.32.07.07-.07-.19-.22s-.49-.33-.25-.29a4.1,4.1,0,0,1-1.62-1,3.12,3.12,0,0,1-.87-1.66,1,1,0,0,0,.07.15,4.89,4.89,0,0,1,.91-4.11,11.7,11.7,0,0,1,3.44-3.25c-.22,0,1.36-1,.88-.9,1.54-1.07,3-1.89,4.26-2.6A9,9,0,0,0,16.49,129a20.36,20.36,0,0,1,2.59-1.32l-.34.23c2.79-1.58,3.57-2.08,5.7-3.15a21.68,21.68,0,0,1,3-1.84c-.57.42.19,0,.91-.35-.45.24-.57.34.4,0a4,4,0,0,1,.5-.32s.05,0,0,0c1.18-.61,1-.54.4-.29,0,0,0,0-.22,0,1.3-.49,3.45-1.69,3.69-1.58,3.6-1.71,6.16-3,9.21-4.33.38,0-.32.29-1.19.71.72-.32,1.45-.61,2.18-.91,0,.14-1.24.55-1.9.87,2.69-.84,5.29-2.36,8.47-3.27l.6-.33.19-.06a4.69,4.69,0,0,1,1.1-.55c.48,0,.06.27,1.6-.26,1.26-.3,3.45-1.23,5.05-1.76-.88.25-.62.1-.25-.06.78-.24,1.26-.26,1.85-.5l.12.13c-.35,0,2-.78,2.26-.9.48,0-1.19.43-1.36.58l4.72-1.35c1.64-.58-.35,0,.42-.41,1.48-.42,2.92-.88,4.66-1.23h-.58a44.38,44.38,0,0,1,6.43-1.42c5.23-1.36,8.15-2,9.54-2.49s1.26-.56.47-.57-2.25.17-3.51.33l-1.64.21-.68.11a98,98,0,0,0-10.75,2.25C66.82,106.12,63.31,107.14,58.47,108.7Z"/><path class="cls-1" d="M17.64,153.1l.37.1S17.91,153.14,17.64,153.1Z"/><path class="cls-1" d="M106.14,128.62l.06-.07S106.14,128.61,106.14,128.62Z"/><polygon class="cls-1" points="32.13 155.99 32.11 155.99 32.02 156 32.13 155.99"/><path class="cls-1" d="M12.81,154.12c2.54.6,4.15.84,5.76,1.08s3.26.4,5.89.58,5.2.24,7.65.21c1.17-.22,3.23,0,4.61-.2l.53.12a6.41,6.41,0,0,1,1.51-.11l0,0c.71-.13,1.51-.12,1.86-.18l0,0,.86-.06-.14.05c1.23-.16,2.5-.2,3.62-.3l-.1-.13c2.4-.08,3.24-.46,5.42-.5l0,0c2.65-.8,4.33-.35,7-1.21-.34.12.16,0,.14.09,1.27-.3,2.63-.6,2.59-.89.92-.18.77-.07.91,0,0-.12.77-.34,1.49-.49l-.32.11c.69-.14,1.36-.36,2-.54l-.45-.13c1.1-.21.34.21,1.37-.12l-.06-.18c1.5-.36,2.46-.3,4-.54,6-1.72,12.13-4.63,17.51-6.88l.29,0c.2.14,1.28-1.05,1.56-1l.55-.41c.19,0,.56-.21.29,0a4.86,4.86,0,0,0,.92-.61l.66-.2c.55-.27,1.08-.55,1.59-.85l1.45-1c1-.66,1.93-1.33,3-2a42.94,42.94,0,0,0,5-3.49,31.06,31.06,0,0,0,2.56-2.21l2.15-2c.89-.8,1.7-1.74,2.64-2.59S111,126,112,125.13a23.14,23.14,0,0,0,4.67-6.21,1.4,1.4,0,0,0,.22-.54,23.94,23.94,0,0,0,1.86-4.2l.27-.9a9.77,9.77,0,0,0,.23-1,8.83,8.83,0,0,0,.2-1.28,11.35,11.35,0,0,0-.79-5.88c-.2-.41-.38-.78-.57-1.09s-.4-.54-.56-.72c-.32-.38-.52-.5-.54-.31a5.72,5.72,0,0,0,.45,1.61,12.21,12.21,0,0,1,.44,4.25l0-.1a34.59,34.59,0,0,1-.74,5.26c-.35.14-.71,1.78-1.06,2.23v-.06c-.41,1.4-1.52,2.53-2.14,3.77,0-.06,0-.13.14-.39-.52.86-1.31,2-1.49,2-1.38,2-4,4.24-4.87,5.55l0-.11a16.23,16.23,0,0,1-1.46,1.61l-.11.05c-.63.76-2.16,1.87-2.71,2.44l-.11-.05-1.46,1.28.57-.46c0,.2-.32.41-.74.69a8.14,8.14,0,0,0-1.53,1.09c-1.09.75-1.8,2.11-3,2.8-.45.51.34-.53-.39.14-.12-.11.31-.35,0-.31-.75.6-1.42.71-2.36,1.44l-.11-.08c-1.19,1-2.54,1.44-3.32,2.14-1.35.84-1.12.18-2.46,1.18l-.65.16c-.63.32-.35.43-1.08.73,0-.12-.91.4-.55.09-1.65.67-3.18,1.74-5.41,2.48-.37.43-1.52.75-1.82,1-.09-.06-2.21.85-1.05.18.1-.05.29-.12.29-.08l.1-.18a24.34,24.34,0,0,0-3.46,1.45c.38-.11.86-.31.57-.1l-1.15.43.2-.19c-.58.2-1.17.34-1.76.52l.28,0a6.81,6.81,0,0,0-2.14.59c-.41.23.86-.1,0,.23-1.17.29-2.91.73-4.41,1,.17.1-.23.2-.63.34l-.08-.11c-1.52.58-.64-.12-2.16.42l.11-.12-.35.36c-1.35.61-.81,0-2.32.62.62-.15.36.21-.43.31l.17-.15a5.57,5.57,0,0,1-.84.22c.24-.11.1-.2-.53-.05l.39-.23-1.14.46c-.94,0-2.36.53-2.77.41a12.25,12.25,0,0,0-2.43.47c.38-.17-.72-.05-.43-.23a8.83,8.83,0,0,1-2.62.5l.11,0c-2.27.15-3.85.6-5.9.65.11.13-1,.16-.7.32-2.1.32-3.87-.17-4.61.45a8.42,8.42,0,0,1-1.64-.08l.23,0c-1.81.11-2.33.07-3.67.08a7.23,7.23,0,0,1-2,.26c.39-.11-.1-.09-.55-.08.29,0,.37-.06-.21-.13a2.53,2.53,0,0,1-.34.07s0,0,0,0c-.75,0-.62.05-.28.09,0,0,0,0,.12.07-.77-.17-2.17-.09-2.25-.27-2.26-.08-3.88.1-5.76,0-.2-.11.24-.16.79-.14l-1.33-.09c0-.13.77,0,1.18,0-1.56-.36-3.28-.08-5.11-.44l-.39.06-.11,0c0,.06-.43.08-.7.07s.05-.26-.86-.38c-.7-.21-2-.25-2.95-.4.49.13.32.16.09.15-.44-.09-.67-.27-1-.3v-.17c.13.2-1.17-.16-1.35-.16-.2-.19.7.12.83.06-.86-.25-1.07-.33-1.28-.4s-.42-.14-1.24-.49.09.21-.38.14A7.63,7.63,0,0,1,6.86,150a2.75,2.75,0,0,0,.17.29,6.9,6.9,0,0,1-2.57-2.58,10.35,10.35,0,0,1-2.48-5c-.19-.86-.34-.78-.48-.35a6.08,6.08,0,0,0-.07,2.26,8.63,8.63,0,0,0,.37,1.47A10.46,10.46,0,0,0,6,151.47,19.21,19.21,0,0,0,12.81,154.12Z"/><path class="cls-1" d="M23.13,134.15l.26-.1S23.3,134.05,23.13,134.15Z"/><path class="cls-1" d="M88.61,111.55l.07,0Z"/><path class="cls-1" d="M33.32,130.48h0l-.05,0Z"/><path class="cls-1" d="M21.3,137.47c1.52-1,2.58-1.5,3.6-2.08s2.05-1.16,3.65-2.17c1.58-.86,3.23-1.85,4.76-2.73.62-.62,2.06-1.06,2.86-1.67l.4-.07a3.12,3.12,0,0,1,1-.51v0c.41-.31.95-.52,1.16-.68v.05l.54-.3-.07.1a11.85,11.85,0,0,1,2.35-1.15l-.13-.11c1.65-.55,2.11-1.09,3.61-1.54v0c1.66-1.16,3-.93,4.74-2-.22.14.13,0,.12.07.86-.38,1.78-.76,1.69-1,.64-.24.55-.11.68,0-.05-.12.49-.36,1-.54l-.21.13,1.43-.54-.36-.13c.79-.2.29.21,1-.1l-.07-.18a26.26,26.26,0,0,1,2.86-.48c2.16-.64,4.38-1.37,6.56-2.1a56.55,56.55,0,0,1,6.47-1.56l.21.1c.12.18,1.06-.54,1.26-.38l.46-.2c.14,0,.44,0,.21.09a2.64,2.64,0,0,0,.75-.24l.5,0c1.77-.23,3.19-.85,5-1a32.83,32.83,0,0,0,4.35-.59l4.48-.75a21.84,21.84,0,0,1,2.64-.35c.91,0,1.84,0,2.78,0a49.16,49.16,0,0,0,5.49-.23.7.7,0,0,0,.4-.07l3.21,0h.65c.4,0,1,0,1.6,0,1.28,0,2.85,0,4.06-.07,2.42-.14,3.42-.54-2.54-1.58l.08,0c-.88-.08-1.61-.13-2.26-.14a10.18,10.18,0,0,0-1.86.22c-.2-.29-1.46,0-1.88-.09l0,0c-1.08.25-2.24-.15-3.28.09a.36.36,0,0,1,.3-.12c-.76.07-1.8.21-1.86,0a34.29,34.29,0,0,0-5.5.62l.07,0a9.07,9.07,0,0,1-1.58.29s-.09,0-.09,0A24.26,24.26,0,0,1,86,112l-.06-.11-1.42.19.53,0c-.14.33-1.11-.07-2.11.3-1,.11-1.86.94-2.88.94-.46.22.38-.29-.32-.07,0-.15.32-.15.12-.25-.69.19-1.18,0-2,.26l-.06-.11c-1.08.42-2.14.26-2.85.61-1.14.34-.85-.2-2,.28l-.51-.07c-.52.08-.32.28-.91.31,0-.11-.74.07-.43-.1-1.33.14-2.55.87-4.31,1-.31.3-1.19.39-1.43.61-.07-.08-1.7.41-.8,0,.08,0,.22-.07.22,0l.08-.15c-1,0-1.7.62-2.65.85.29,0,.66-.16.43,0l-.88.25.16-.16-1.33.33.22.07c-.66.13-.94,0-1.61.37-.3.19.65,0,0,.22a27.81,27.81,0,0,0-3.27.79c.15.11-.14.2-.43.33l-.08-.11c-1.08.56-.5-.11-1.59.41l.07-.12-.21.35c-.94.58-.64,0-1.66.65.44-.17.31.19-.26.33l.09-.16c-.29.12-.37.21-.58.27.15-.13,0-.21-.4,0l.24-.26-.76.54c-.69.13-1.65.68-2,.63a6.68,6.68,0,0,0-1.66.76c.23-.21-.55,0-.38-.16a5.73,5.73,0,0,1-1.8.84l.07-.05c-1.6.56-2.56,1.36-4,1.82.13.1-.64.35-.38.44-1.36.78-2.73.91-3,1.66a4.76,4.76,0,0,1-1.15.39l.14-.1c-1.18.64-1.52.81-2.41,1.25-.42.27-.37.52-1.17.9.2-.23-.11,0-.4.12.18-.11.22-.18-.2,0a1,1,0,0,1-.18.18s0,0,0,0c-.47.3-.37.29-.14.17,0,0,0,0,.11,0-.57.16-1.39.78-1.54.66-1.43.86-2.4,1.55-3.53,2.35-.18,0,.05-.24.37-.48l-.81.54c-.07-.12.44-.36.68-.54-1.11.43-1.94,1.45-3.21,2l-.19.24-.08,0s-.18.28-.35.4-.13-.24-.7.13a7.28,7.28,0,0,0-1.81,1.31c.33-.2.26-.07.15.05-.28.2-.5.21-.69.4l-.12-.11c.2,0-.64.63-.71.75s.38-.38.4-.5l-1.67,1.17c-.54.5.19,0,0,.35a10.38,10.38,0,0,1-1.62,1.17l.27,0a10.09,10.09,0,0,1-2.22,1.58c-3.24,3.14-3.35,3.73-2.69,3.53a12.44,12.44,0,0,0,2.12-1.16,31.42,31.42,0,0,0,3.61-2.62C18.46,139.62,19.62,138.68,21.3,137.47Z"/><path class="cls-1" d="M119,99.26h.1S119.06,99.23,119,99.26Z"/><path class="cls-1" d="M137.48,87.8l0,0Z"/><polygon class="cls-1" points="122.79 98.61 122.79 98.61 122.78 98.64 122.79 98.61"/><path class="cls-1" d="M119.46,101.29a15.38,15.38,0,0,0,2.08-1.55,16.76,16.76,0,0,0,1.25-1.13c.06-.33.55-.44.68-.76l.17,0c0-.11.12-.22.24-.23l0,0c.07-.17.24-.23.27-.32l0,0,.14-.12v.06a1.49,1.49,0,0,1,.62-.53l-.11-.1c.53-.18.51-.54,1-.66v0c.28-.67.94-.32,1.25-1,0,.08.07,0,.09.08.21-.2.46-.38.31-.63.17-.11.19,0,.27.06-.07-.1.06-.24.2-.34l0,.09.38-.29-.21-.15c.25-.07.21.21.38,0l-.1-.17c.31-.15.64,0,1,0,1.22-.64,2.29-1.79,3.6-2.08l.12.11c.12.17.18-.44.31-.29l.09-.15c.06,0,.15,0,.11.09.13,0,.11-.09.18-.19l.19.06c.54-.15.84-.59,1.39-.77a7,7,0,0,0,2.48-1.19c.87-.71,2.32-.31,3.21-1,0,0,.11-.08.1-.1l.95-.27.66-.22a6.59,6.59,0,0,0,1.15-.51c.66-.39.86-.89-1.18-1.23v0a1.51,1.51,0,0,0-1.21.46c-.14-.25-.44.11-.59.06v0c-.25.31-.72,0-1,.33,0,0,0-.1.05-.13-.21.11-.49.28-.57.13-.52.24-1.3.43-1.54.82v-.06c-.12.25-.24.13-.42.3,0,0,0,0,0,0-.14.25-.6.28-.74.41l-.05-.09-.41.19.16,0c.07.3-.39-.06-.61.26-.3.09-.31.84-.66.83-.08.19,0-.27-.13-.08-.07-.14.05-.13,0-.22-.17.15-.4,0-.61.2l-.06-.11c-.23.36-.68.15-.8.45-.29.25-.38-.23-.62.16l-.21-.09c-.16,0,0,.24-.22.25,0-.1-.24,0-.19-.11-.45,0-.64.6-1.25.6,0,.24-.31.26-.31.44-.06-.08-.5.24-.32-.08,0,0,.06,0,.07,0l0-.12c-.39-.06-.43.39-.72.5.1,0,.2-.07.17,0l-.26.13v-.12l-.4.16.12.08c-.21,0-.39-.11-.5.17s.26.05.09.19a5.12,5.12,0,0,0-1,.32c.1.11,0,.15,0,.23l-.07-.1c-.23.35-.26-.16-.51.15l0-.09,0,.28c-.15.38-.29-.13-.43.36.11-.1.21.19,0,.24l0-.12c-.08.07-.08.13-.15.15s-.06-.17-.18-.07V93l-.12.34c-.25,0-.45.34-.62.25,0,0-.43.19-.42.4,0-.14-.22,0-.24-.19,0,.17-.26.46-.46.43l0,0c-.52.2-.63.69-1.11.83.1.1-.15.18,0,.3-.3.42-.94.24-.74.8-.16.16-.29,0-.4.1l0-.06a4.13,4.13,0,0,1-.65.55c-.08.14.06.36-.19.49,0-.14-.07-.06-.15,0s0-.1-.12-.07a.36.36,0,0,1,0,.11s0,0,0,0-.06.14,0,.1,0,0,.06,0c-.22,0-.38.32-.51.2a8.33,8.33,0,0,0-.82,1.08c-.1,0-.08-.17,0-.28l-.2.23c-.09-.11.08-.18.13-.26-.41.08-.42.66-.87.8v.13h0s0,.16,0,.21-.17-.2-.33,0-.32.36-.43.56c.1-.07.12,0,.11.07s-.2,0-.23.12l-.11-.1c.13.08-.09.3-.08.38s0-.19,0-.27c-.3.3-.15.15-.44.46-.09.24.13.07.15.25s-.19.37-.42.46l.15,0a1,1,0,0,1-.63.57c-.57,1.39-.38,1.76-.07,1.78a1.54,1.54,0,0,0,.77-.28C118.5,102.91,118.6,102.24,119.46,101.29Z"/><path class="cls-1" d="M120.43,107.53l.11,0S120.49,107.48,120.43,107.53Z"/><path class="cls-1" d="M141.91,95l0,0Z"/><polygon class="cls-1" points="124.56 106.48 124.55 106.48 124.54 106.51 124.56 106.48"/><path class="cls-1" d="M120.83,109.64a22.28,22.28,0,0,0,2.31-1.85c.49-.4.94-.9,1.41-1.3.1-.35.63-.52.79-.87h.18a.4.4,0,0,1,.28-.26v0c.09-.18.29-.25.33-.34l0,0,.16-.14V105a2.08,2.08,0,0,1,.71-.59l-.11-.11c.58-.23.6-.6,1.16-.75l0,0c.36-.71,1-.41,1.45-1.09-.05.08.07,0,.08.07.26-.2.55-.41.4-.65.21-.12.22,0,.3,0-.06-.11.09-.26.24-.37l0,.09.43-.32-.21-.15c.28-.09.21.21.42,0l-.1-.17c.36-.16.71,0,1.12-.08,1.41-.71,2.73-1.91,4.22-2.19l.12.1c.12.19.25-.45.38-.3l.11-.16c.06,0,.17,0,.11.09.15-.05.14-.08.22-.19l.21.06c.62-.13,1-.57,1.65-.77a9.08,9.08,0,0,0,2.94-1.13c1.07-.68,2.65-.2,3.76-.85,0,0,.13-.06.12-.09l1.11-.2.78-.18a7.84,7.84,0,0,0,1.38-.4c.8-.34,1.11-.82-1.16-1.34l0,0a1.93,1.93,0,0,0-1.44.38c-.12-.27-.51.08-.68,0v0c-.33.3-.83,0-1.15.27,0,0,0-.1.08-.13-.26.11-.6.26-.67.11-.62.21-1.53.35-1.86.75l0-.06c-.18.25-.29.12-.52.28,0,0,0,0,0,0-.19.25-.72.25-.89.39l-.05-.11-.48.19.19,0c0,.31-.43,0-.72.26-.35.08-.46.84-.85.82-.11.19.06-.27-.14-.08-.07-.15.08-.13,0-.23-.22.15-.45,0-.7.21l-.06-.11c-.3.36-.78.13-1,.44-.36.25-.41-.24-.73.15l-.22-.08c-.18,0,0,.24-.27.25,0-.1-.27,0-.2-.11-.5,0-.78.62-1.47.62,0,.24-.37.28-.4.46-.05-.07-.57.27-.34-.06,0,0,.07-.05.09,0l0-.13c-.42,0-.53.41-.86.54.12,0,.23-.09.19,0l-.3.13v-.12l-.46.17.12.08c-.25,0-.42-.1-.57.19s.27,0,.07.2a7.5,7.5,0,0,0-1.18.37c.11.11,0,.16-.08.24l-.07-.11c-.29.37-.28-.16-.58.18v-.1l0,.29c-.2.41-.31-.11-.51.4.14-.11.21.19,0,.26l0-.13c-.08.08-.09.14-.17.16s-.06-.17-.2-.06l0-.19-.16.36c-.28,0-.53.37-.71.28,0,0-.49.23-.49.45,0-.16-.24,0-.25-.19,0,.19-.32.51-.54.49l0,0c-.59.22-.76.74-1.29.93.1.1-.17.21,0,.31-.34.48-1.05.32-.87.89-.19.18-.32.08-.45.14l0-.07a5.52,5.52,0,0,1-.73.65c-.11.15,0,.38-.25.53,0-.15-.07,0-.17,0,.05-.06.05-.1-.12-.06a.36.36,0,0,1,0,.11s0,0,0,0c-.14.16-.09.16,0,.11s0,0,.07,0c-.25,0-.44.38-.57.26-.42.43-.62.85-.94,1.23-.11,0-.08-.17,0-.29l-.24.25c-.09-.1.1-.19.16-.28-.46.12-.5.73-1,.93v.15h0s0,.17,0,.23-.18-.19-.35,0-.36.42-.5.64c.12-.08.13,0,.12.07s-.22,0-.25.15l-.12-.1c.13.07-.11.34-.09.42s.05-.21,0-.29l-.49.54c-.09.28.14.07.16.26-.14.19-.21.42-.46.55l.16,0a1.46,1.46,0,0,1-.46.55l.28,0a.59.59,0,0,1,0-.23,1.59,1.59,0,0,1-.17-1.57c.11-.33,0-.42-.19-.47a1.38,1.38,0,0,0-.85.58,2,2,0,0,0-.32.6,2.19,2.19,0,0,0,.2,1.93l1,1.52,1.25-1.33C119.9,111.07,120.15,110.45,120.83,109.64Z"/><path class="cls-1" d="M144.66,87.39l0,.06S144.67,87.41,144.66,87.39Z"/><path class="cls-1" d="M148.86,92.89h0Z"/><path class="cls-1" d="M143.74,89.42Z"/><path class="cls-1" d="M143,88.22c.16.33,0,.57.32.81a1.8,1.8,0,0,0,.39.39c.22-.06.14.19.35.16l-.08.1c.07,0,.13,0,.1.07h0c.1,0,.09.07.15.06l0,0,.05,0-.05,0c.13,0,.19.08.2.18l.12-.1c0,.24.25.11.19.35l0,0c.43-.08,0,.4.39.35,0,0,0,0-.08.07s.17.12.4-.06c0,.06,0,.1-.12.18.1-.08.17-.06.21,0h0l.13.1.17-.17c0,.11-.22.19-.13.22l.16-.12c0,.11-.16.35-.21.52.2.41.89.49.87,1l-.1.1c-.17.14.32-.1.17,0l.11,0s0,.08-.09.09.05,0,.12,0l-.08.12c0,.2.32.17.4.35-.09.34.37.53.63.64.47.08,0,.91.53,1,0,0,.06,0,.08,0l.17.28s.87,1.29,1.57-.73l0,0c0-.21-.06-.31-.32-.27.22-.19-.06-.13,0-.22h0c-.24,0,0-.29-.21-.25,0,0,.08-.06.1,0s-.19-.08-.06-.19c-.14-.12-.23-.36-.51-.29l0,0c-.18,0-.07-.06-.19-.06s0,0,0,0c-.19,0-.15-.15-.25-.15l.09-.07-.11-.1,0,.06c-.26.17.08-.2-.14-.17,0-.1-.62.23-.56.06-.15,0,.21-.11.08-.1.12-.09.1,0,.19-.12-.11,0,.06-.19-.08-.2l.1-.07c-.25,0,0-.27-.22-.2s.25-.29,0-.24l.1-.14s-.18.1-.15,0,0-.11.12-.14c.05-.2-.35-.07-.23-.38-.18.1-.14,0-.28,0,.07-.06-.09-.15.12-.19,0,0,0,0,0,0l.1-.06c.13-.22-.21-.07-.24-.17,0,.05,0,.07-.06.1l0-.08.09,0,0-.15-.09.09c0-.09.17-.24,0-.19s-.1.16-.17.13a1.18,1.18,0,0,0,0-.42c-.11.09-.12.06-.16.06l.09-.08c-.21,0,.19-.2,0-.21l.08,0-.23.14c-.26.06.17-.21-.17-.1,0,0-.2.19-.19.11l.1-.06s-.09,0-.08,0,.15-.1.1-.13l.14-.06-.23.06c.06-.13-.13-.12,0-.24a.12.12,0,0,0-.19-.09c.11,0,.09-.13.21-.2-.12,0-.28,0-.19-.09h0c0-.21-.32-.11-.28-.33-.11.09-.09,0-.23.11s.13-.45-.36-.15c-.06,0,.06-.15.06-.19h0a.49.49,0,0,1-.19-.19c-.07,0-.29.15-.29,0s.06-.06,0-.08.06,0,.09-.09l-.07,0s0,0,0,0-.08,0-.08,0l0,0c.07-.13-.11-.12,0-.24-.13-.11-.35-.09-.49-.15a.26.26,0,0,1,.21-.09l-.09-.05c.11-.08.09,0,.13,0,.11-.22-.31-.06-.24-.28l-.1,0v0a.24.24,0,0,1-.15,0c.08-.08.22-.16.17-.21s-.14-.09-.23-.1,0,.07-.09.08.06-.11,0-.1l.12-.1c-.11.1-.18,0-.24.06.09-.09.12,0,.19-.07l-.14-.15c-.14,0-.11.1-.24.16s-.19,0-.16-.13l-.09.1c-.16,0-.19-.09-.13-.24-1.44,0-1.35.79-1.35.79C142.25,88.06,142.69,88,143,88.22Z"/><path class="cls-1" d="M147.6,80h.16S147.7,80,147.6,80Z"/><path class="cls-1" d="M181.8,69.69l0,0Z"/><polygon class="cls-1" points="153.42 79.97 153.41 79.98 153.38 80 153.42 79.97"/><path class="cls-1" d="M146.94,82.37a9.34,9.34,0,0,1,1.86-.74,20.46,20.46,0,0,0,2-.71c.86-.28,1.79-.63,2.64-.94.35-.34,1.14-.37,1.57-.69l.22,0a.87.87,0,0,1,.53-.2v0a5.46,5.46,0,0,1,.63-.28v0l.3-.11,0,.07a4.34,4.34,0,0,1,1.27-.46l-.08-.13c.9-.11,1.12-.49,1.94-.54v0c.86-.66,1.61-.21,2.51-.87-.12.09.07.06.07.1.45-.18.94-.35.86-.62.34-.1.3,0,.38.09,0-.12.24-.25.5-.34l-.11.08.74-.26-.21-.19c.41,0,.18.25.55.08l-.06-.18a7.23,7.23,0,0,1,1.54,0c2.25-.57,4.51-1.73,6.68-2l.13.11c.09.2.49-.46.62-.29l.21-.16c.08,0,.24,0,.13.09a.69.69,0,0,0,.36-.19l.28.06c.91-.14,1.59-.59,2.53-.79a17.83,17.83,0,0,0,4.41-1.29c1.63-.76,3.82-.43,5.48-1.22.07,0,.2-.09.19-.11l1.61-.37a25.76,25.76,0,0,0,3.12-.93c1.16-.48,1.53-1-1.64-1.17l0,0a4,4,0,0,0-2,.59c-.17-.26-.73.14-1,.1v0c-.48.34-1.15.09-1.62.41,0,0,0-.1.13-.14-.37.13-.87.32-.94.17a10.44,10.44,0,0,0-2.68.92l0-.06c-.28.26-.42.14-.76.32,0,0,0,0,0,0-.31.27-1,.3-1.31.45l0-.1-.71.21.27,0c0,.32-.58,0-1,.28-.49.1-.81.88-1.35.87-.2.2.15-.28-.18-.08-.05-.15.14-.14,0-.24-.33.16-.62,0-1,.22l-.05-.12c-.51.37-1.11.13-1.43.44-.55.26-.48-.25-1,.15l-.28-.09c-.27,0-.13.25-.44.25,0-.11-.39,0-.25-.13-.69,0-1.25.59-2.18.57-.13.25-.59.25-.69.44,0-.08-.86.23-.43-.1,0,0,.11,0,.11,0l0-.13c-.55-.09-.85.37-1.34.48.15,0,.34-.07.23,0l-.45.11.07-.13-.68.14.12.09c-.34,0-.52-.14-.83.14-.14.14.35.08,0,.21a15.19,15.19,0,0,0-1.71.24c.09.12-.06.16-.21.23L165,74c-.54.34-.29-.2-.84.1l0-.1-.08.3c-.46.39-.36-.16-.85.33.23-.09.19.23-.11.27l0-.14c-.15.07-.19.14-.3.14.07-.09,0-.18-.23-.09l.11-.19-.37.34c-.38,0-.87.3-1.06.18,0,0-.75.14-.86.37.11-.16-.3-.08-.22-.24a1.38,1.38,0,0,1-.94.39l0,0c-.86.11-1.34.62-2.13.68.07.13-.34.18-.19.32-.71.41-1.5.08-1.6.71-.34.14-.45,0-.64,0l.07,0a11.4,11.4,0,0,1-1.3.45c-.23.13-.18.4-.63.47.1-.14-.07-.07-.23,0,.1,0,.12-.1-.11-.1a.35.35,0,0,1-.1.11s0,0,0,0c-.26.12-.2.14-.08.11s0,0,.07,0c-.32,0-.78.26-.87.1-.79.3-1.32.68-2,1-.1-.06,0-.2.21-.3l-.47.2c0-.12.25-.17.39-.25-.65,0-1.1.64-1.83.75l-.1.15h0s-.1.19-.18.25-.11-.24-.43-.08-.71.41-1,.66c.18-.08.16,0,.1.09s-.3,0-.39.16l-.1-.13c.14.09-.32.4-.33.49-.16,0,.18-.24.17-.34a8.19,8.19,0,0,0-.89.66c-.23.34.14.07.09.3a4.55,4.55,0,0,1-.77.74h.19a3.91,3.91,0,0,1-1,1.06,3.89,3.89,0,0,0-.25.78,6.22,6.22,0,0,0,.1.62,3.45,3.45,0,0,0,.23.77c.15.32.31.32.46.18a4.38,4.38,0,0,0,.51-1.12h.05s0,0,.08-.06l.3-.37.55-.71A6.61,6.61,0,0,1,146.94,82.37Z"/><path class="cls-1" d="M159.41,93.82l.18,0S159.54,93.81,159.41,93.82Z"/><path class="cls-1" d="M197.2,79.65l0,0A.11.11,0,0,0,197.2,79.65Z"/><path class="cls-1" d="M166.26,94.42h0l0,0Z"/><path class="cls-1" d="M157.72,96a39.67,39.67,0,0,0,5.19-.77c1.11-.2,2.27-.51,3.34-.78.46-.32,1.41-.32,2-.62l.26.06a1.3,1.3,0,0,1,.66-.19v0c.29-.16.65-.19.79-.27v0l.37-.1,0,.06a6.87,6.87,0,0,1,1.57-.44l-.08-.13c1.09-.1,1.4-.48,2.39-.54v0c1.09-.68,1.95-.23,3.08-.91-.14.08.08,0,.08.09.55-.19,1.15-.38,1.08-.65.41-.11.36,0,.44.08,0-.12.3-.27.62-.37l-.13.09.9-.3-.24-.17c.5-.07.2.24.65,0l-.06-.18a11.29,11.29,0,0,1,1.84,0c2.72-.71,5.44-2.08,8-2.58l.15.1c.12.19.59-.53.74-.37l.26-.19c.1,0,.28,0,.15.08a1,1,0,0,0,.45-.25l.33,0a13.63,13.63,0,0,0,3-1.57,5.35,5.35,0,0,0,2.33-2,5.93,5.93,0,0,0,.9-3.13c-.1-2.36-.25-5-1.35-7a.36.36,0,0,0-.16-.22,17.22,17.22,0,0,0-.87-1.92,8.06,8.06,0,0,0-.84-1.27A5.5,5.5,0,0,0,193.21,68c-.84-.29-1.46-.2-1.36,0s.93.65,1.77,2.1h-.06A13.16,13.16,0,0,0,195,72c-.2.23.36.77.36,1h0c.47.49.33,1.28.73,1.8,0,0-.11,0-.16-.14.19.42.45,1,.3,1.08.41,1,.66,2.43,1,3l0,0c.21.36.06.48.15.88l0,.05c.18.41-.11,1.14-.14,1.45l-.11,0a6.15,6.15,0,0,1-.28.71l.15-.25c.22.23-.4.44-.59,1-.33.37-.31,1.27-.91,1.52-.15.29.07-.33-.21,0-.1-.13.1-.2-.06-.24-.3.3-.64.23-1,.57l-.08-.1c-.48.52-1.2.4-1.53.77-.62.35-.56-.18-1.17.3l-.33-.06c-.3.07-.14.26-.51.3,0-.11-.45.06-.29-.1-.81.09-1.47.74-2.57.8-.16.26-.7.31-.82.51-.05-.08-1,.31-.51-.06,0,0,.13-.06.13,0l0-.14c-.65,0-1,.45-1.6.59.19,0,.41-.09.28,0l-.53.14.08-.13-.81.19.14.09c-.4.05-.6-.11-1,.19-.17.16.42.06,0,.22s-1.36.17-2,.33c.1.12-.08.17-.26.25l-.05-.12c-.66.37-.34-.19-1,.14l0-.1-.12.31c-.56.41-.41-.16-1,.37.27-.1.21.22-.15.27l.05-.14c-.18.08-.23.14-.36.15.09-.09,0-.18-.26-.09l.14-.19-.47.35c-.44,0-1,.32-1.25.2,0,0-.9.16-1,.39.14-.16-.35-.08-.25-.24a1.83,1.83,0,0,1-1.14.39l0,0c-1,.13-1.65.62-2.59.68.07.13-.42.17-.26.32-.88.4-1.78,0-2,.67-.42.13-.54,0-.76,0l.09,0a14.83,14.83,0,0,1-1.6.4c-.29.12-.28.39-.82.45.15-.14-.06-.08-.26,0,.12,0,.15-.09-.12-.1a.3.3,0,0,1-.13.09s0,0,0,0c-.33.11-.26.13-.11.11,0,0,0,0,.07,0-.37-.06-.95.21-1,0-1,.25-1.66.58-2.48.81-.11-.07.07-.19.3-.27l-.58.15c0-.13.32-.14.5-.21-.75-.07-1.4.51-2.27.47l-.15.13h0c0,.05-.16.16-.28.2s0-.26-.44-.18a3.77,3.77,0,0,0-1.32.37c.23,0,.17.05.08.11s-.34,0-.49,0l0-.16c.11.14-.51.26-.57.33-.14-.09.3-.15.33-.25l-1.22.24c-.42.2.11.14-.08.31a3.76,3.76,0,0,1-1.2.25l.16.11a3.61,3.61,0,0,1-1.66.23c-5.26,2-.9,1.71-.9,1.71C154.15,97.12,155.19,96.53,157.72,96Z"/><path class="cls-1" d="M148.43,97l.06,0Z"/><path class="cls-1" d="M148.28,96.27h0Z"/><path class="cls-1" d="M150.34,96.57Z"/><path class="cls-1" d="M150.21,96.75c.07,0,.33-.11.22-.13s-.05,0-.09-.05c-.21,0,0,0-.18,0l.12,0c-.06,0-.11,0,0,0h0c-.09,0,0,0-.08,0h.07c-.1,0-.11,0-.07,0l-.14,0c.16,0-.14,0,0-.06h0c-.38,0,.25-.08-.11,0l.11,0a1.33,1.33,0,0,0-.35,0l.2,0-.19,0h0l-.23,0c.07,0,.29-.06.23-.06l-.19,0s.32-.08.46-.12-.43,0-.09-.13l.14,0c.21,0-.32,0-.12,0h-.1l.13,0h-.09l.13,0c.09,0-.16,0-.11,0,.26-.07,0-.07-.14-.07-.33,0,.51-.18.14-.15,0,0,0,0-.06,0l0,0s.05-.18-1.67.26h-.05c-.11,0-.13.06.1,0-.28,0,0,0-.11,0h0c.22,0-.17,0,0,0l-.1,0s.1,0-.07,0c.05,0,0,.05.25,0h-.05c.18,0,0,0,.12,0h0c.18,0,0,0,.11,0l-.11,0h.05c.3,0-.19,0,0,0,0,0,.63-.09.48,0,.14,0-.23,0-.12,0l-.22,0c.07,0-.16,0,0,0l-.13,0c.23,0-.15,0,.06,0s-.36.07-.12,0l-.16,0s.2,0,.12,0l-.18,0c-.16,0,.24,0,0,0,.2,0,.08,0,.23,0a1.23,1.23,0,0,1-.2,0s0,0,0,0l-.12,0c-.23.06.13,0,.09,0l.12,0,0,0H148l-.06,0,.13,0c-.07,0-.28.06-.1,0l.21,0-.25.09.17,0-.12,0c.17,0-.27.06-.13,0h-.09l.26,0c.24,0-.26,0,.08,0,0,0,.27,0,.22,0l-.12,0h0l-.15,0-.15,0,.22,0c-.13,0,0,0-.13,0,0,0-.08,0,.1,0l-.29,0c.13,0,.24,0,.1,0h0c-.14,0,.19,0,0,0l.25,0c.18,0-.37.09.19,0,0,0-.13,0-.15,0h0s0,0,0,0,.32,0,.26,0-.09,0-.09,0l-.12,0h0a.13.13,0,0,0,.08,0h.07c-.13,0,0,0-.17,0,.05,0,.23,0,.31,0l-.21,0h-.07c-.21.05.22,0,0,0l.11,0h0l.15,0a2.11,2.11,0,0,0-.26.06c-.11,0,.06,0,.12,0l.13,0s-.11,0-.06,0l-.16,0,.23,0-.19,0,0,0c.12,0,.15,0,.29,0s.14,0,.05,0l.13,0c.11,0,.1,0,0,0a6.78,6.78,0,0,0,1.54-.25C150.73,96.72,150.33,96.78,150.21,96.75Z"/><path class="cls-1" d="M39.63,91l-.14-.3S39.5,90.76,39.63,91Z"/><path class="cls-1" d="M71.21,24.47l0-.07A.17.17,0,0,0,71.21,24.47Z"/><path class="cls-1" d="M36.9,79.16h0l0,.08Z"/><path class="cls-1" d="M43.51,92.56l-1-1c-.28-.32-.51-.63-.73-.92A15.35,15.35,0,0,1,40.68,89a36.34,36.34,0,0,1-2.2-4.08,23.25,23.25,0,0,1-1.57-5.76,18,18,0,0,1-.28-3.63l.14-.42a3,3,0,0,1,.06-1.2l0,0c0-.57.12-1.2.12-1.49l0,0c0-.23.07-.45.11-.68l0,.13a14.25,14.25,0,0,1,.21-1.48c.12-.48.25-.94.39-1.37l-.16,0c.33-.91.54-1.54.7-2.16a10,10,0,0,1,.82-2l0,0c.54-2.2,1.72-3,2.55-5.21-.11.26.13-.07.15,0,.51-.93,1.1-1.89.89-2.06.43-.64.42-.48.57-.5-.11-.06.22-.66.58-1.15l-.13.25,1-1.43-.4.14c.62-.7.37,0,.87-.75l-.16-.11a21.19,21.19,0,0,1,2.43-2.23A102,102,0,0,1,58.36,40.86l.25,0c.22.1.76-1.14,1-1.12l.34-.46c.14-.08.41-.28.24-.06a2.93,2.93,0,0,0,.6-.69l.5-.29c1.56-1.35,2.64-2.76,4.2-4.27a29.54,29.54,0,0,0,3.56-3.68,26.44,26.44,0,0,0,3.14-4.39,11,11,0,0,0,1.11-3.17,6,6,0,0,0-.54-3.62,10.89,10.89,0,0,0-2.07-2.81,19.53,19.53,0,0,0-2.39-2.1,1,1,0,0,0-.4-.26C67,13.07,66,12.27,65,11.51c0,0-.91-.69-2.16-1.52a36.56,36.56,0,0,0-4.13-2.35c-1.29-.6-2.23-.89-2.13-.57s1.27,1.22,3.9,3.38h-.1A32,32,0,0,0,64.25,13c0,.35,1.29,1,1.58,1.4h0c1.08.6,1.79,1.76,2.78,2.42a.48.48,0,0,1-.32-.16c.65.56,1.53,1.33,1.43,1.49a7.49,7.49,0,0,1,1.74,2.45,5.91,5.91,0,0,1,.33,2.32l0-.09c0,.69-.19.84-.43,1.58,0,0-.08.07-.08.06A9.46,9.46,0,0,1,69.68,27l-.11,0c-.32.42-.68.84-1,1.26l.41-.45c.09.36-.93.83-1.58,1.83-.76.8-1,2.09-2,2.83-.28.49.17-.51-.32.16-.14-.09.19-.35,0-.28-.51.63-1,.83-1.67,1.61l-.11-.06c-.76,1.08-1.87,1.6-2.34,2.36-.9,1-.9.36-1.75,1.5l-.51.25c-.45.39-.17.45-.71.84,0-.1-.67.52-.46.18-1.21.91-2.06,2.26-3.7,3.43-.17.45-1,1.06-1.1,1.39-.1,0-1.44,1.4-.78.47.06-.07.19-.19.2-.16v-.18c-1,.63-1.38,1.54-2.2,2.32.27-.21.57-.53.42-.26l-.74.74.07-.23-1.12,1.08.24-.06c-.58.5-.92.56-1.37,1.32-.19.35.62-.42.1.2a34.35,34.35,0,0,0-2.73,2.77c.18,0,0,.27-.25.56l-.13,0c-.72,1.21-.53.23-1.27,1.42V54c-.53,1.16-.61.39-1.14,1.72.3-.46.36-.06-.06.47V56a4.25,4.25,0,0,1-.37.65c.07-.22-.08-.2-.37.27l.08-.39c-.13.34-.27.66-.39,1-.53.62-1.07,1.79-1.37,2a7.25,7.25,0,0,0-.92,1.93c0-.37-.42.47-.42.16a7.94,7.94,0,0,1-.9,2.15l0-.1c-.94,1.76-1.08,3.21-1.74,4.87.16,0-.16.85.08.67-.3,1.81-1.07,3.23-.58,4a11.48,11.48,0,0,1-.31,1.4l0-.21c0,.79,0,1.3-.06,1.75s0,.86,0,1.45.35.66.38,1.7c-.14-.33-.08.1,0,.48,0-.24-.09-.32-.11.21a2.38,2.38,0,0,1,.12.27s0,0,0,0c.16.64.17.52.13.22,0,0,0,0,0-.11,0,.68.34,1.85.22,2a14.77,14.77,0,0,0,.92,2.46c.17.36.33.71.5,1.06l.57,1c0,.2-.24-.1-.48-.51l.54,1c-.13,0-.36-.56-.54-.87a6.61,6.61,0,0,0,1,1.9c.43.61.86,1.24,1.27,1.94l.28.21,0,.09s.31.21.46.39-.22.16.3.76a5.34,5.34,0,0,0,.81,1l1.07.89c-.3-.33-.15-.27,0-.17.29.27.36.54.64.69l-.08.14c0-.21.92.54,1.07.58.11.24-.54-.31-.67-.31A13,13,0,0,0,45.05,96c.78.37,0-.21.37-.1.62.42,1.35.59,2.06,1.09l-.18-.25c.63.29,1.19.4,1.64.6s.87.35,1.32.53a13.36,13.36,0,0,0,3.06.11,13,13,0,0,0,1.59-.35c.65-.22.6-.4.22-.48a8.18,8.18,0,0,0-1.54-.26,3.8,3.8,0,0,1-.71-.11l-.29-.06a23.8,23.8,0,0,1-4.52-1.34A16.17,16.17,0,0,1,43.51,92.56Z"/><path class="cls-1" d="M54.92,87.33l-.07-.2S54.84,87.2,54.92,87.33Z"/><path class="cls-1" d="M69.26,42.74l0-.05S69.26,42.73,69.26,42.74Z"/><polygon class="cls-1" points="53.08 79.54 53.08 79.55 53.11 79.59 53.08 79.54"/><path class="cls-1" d="M57.87,88.06a15.92,15.92,0,0,1-1.71-2.4l-1.52-2.58a26.89,26.89,0,0,1-1.56-3.53,14.79,14.79,0,0,1-.75-2.22,1.67,1.67,0,0,1,.06-.29,1.49,1.49,0,0,1-.16-.75h0a7.32,7.32,0,0,1-.21-.93h0L52,75l.05.07a6.23,6.23,0,0,1-.15-1.85l-.14,0A17.53,17.53,0,0,1,52,70.43l0,0c-.21-1.46.57-2.15.58-3.63,0,.19.09-.06.12,0,.15-.65.34-1.34.08-1.44.17-.46.22-.35.35-.37-.12,0,0-.46.12-.81l0,.18c.13-.35.25-.69.39-1l-.3.1c.31-.51.32,0,.51-.55l-.18-.07a8.23,8.23,0,0,1,1.4-1.59,30.12,30.12,0,0,1,6.24-7.55h.2c.19.11.39-.82.61-.76l.2-.32c.1-.05.28-.17.18,0a1.23,1.23,0,0,0,.36-.47L63.2,52c1-.84,1.67-1.81,2.7-2.76a15.12,15.12,0,0,0,2.36-2.34,22.43,22.43,0,0,0,2-2.85c.63-1.15,1.5-2.27,2.25-3.5a10.28,10.28,0,0,0,1.62-3.95.47.47,0,0,0,0-.32c.09-.41.2-.81.28-1.23l.2-1.25s0-.19,0-.51a8.48,8.48,0,0,0,0-1.27,9.81,9.81,0,0,0-.62-3.17c-.38-.89-.76-1.43-.92-1.19s0,1.24-.21,3.35l-.05,0c.05.61,0,1.11,0,1.56A6.18,6.18,0,0,0,73,33.77c-.31.1-.16,1-.33,1.28l0,0c.06.79-.55,1.46-.6,2.21A.22.22,0,0,1,72,37c-.15.51-.35,1.22-.52,1.19-.44,1.21-1.39,2.73-1.61,3.57v-.07c-.11.49-.31.53-.53,1l-.07,0a9,9,0,0,1-1.07,1.61l-.11-.05c-.2.28-.42.55-.64.82l.27-.28c.14.3-.63.48-1,1.16-.5.5-.53,1.49-1.15,1.93-.15.35,0-.39-.25.06-.12-.1.11-.24-.08-.23-.31.42-.71.49-1.1,1L64,48.7c-.44.75-1.25,1-1.5,1.53-.56.67-.68.13-1.16.93l-.37.13c-.3.25-.06.34-.43.58,0-.1-.44.32-.33.07-.82.56-1.25,1.56-2.35,2.3,0,.35-.58.75-.61,1-.1,0-.88,1-.54.29,0-.06.1-.14.13-.11l0-.15c-.67.41-.8,1.11-1.29,1.66.17-.14.35-.37.29-.17l-.45.52v-.17c-.23.25-.45.52-.67.78l.19,0c-.36.36-.64.38-.82,1-.06.27.42-.3.15.16a12.86,12.86,0,0,0-1.56,2.06c.16,0,0,.2,0,.42l-.13,0c-.26.91-.39.18-.67,1.08l-.05-.11.13.32c-.08.86-.41.32-.44,1.3.11-.35.31-.06.11.33l-.07-.15a1.74,1.74,0,0,1-.12.48c0-.15-.14-.13-.24.22l-.06-.28c0,.25,0,.48,0,.73-.29.46-.36,1.31-.56,1.49,0,0-.09.27-.17.58a1.75,1.75,0,0,0,0,.81c-.07-.25-.24.36-.34.16a3.21,3.21,0,0,1-.13,1.53v-.07a30.63,30.63,0,0,0-.15,3.38c.14-.06.07.56.25.4.22,1.18-.21,2.22.4,2.58.12.52,0,.65,0,.93L50.29,77c.22,1,.3,1.28.47,2,.16.35.42.34.55,1-.17-.18-.06.08,0,.32-.06-.15-.11-.19-.08.15a.49.49,0,0,1,.13.15s0,0,0,0c.17.39.17.31.12.12,0,0,0,0,.05-.09,0,.47.44,1.13.28,1.25a17.71,17.71,0,0,0,1.67,2.74c0,.15-.22,0-.4-.27l.41.63c-.12.06-.29-.33-.43-.52.26.89,1.12,1.47,1.56,2.41l.21.12,0,.06s.24.1.34.21-.23.17.1.56a4.68,4.68,0,0,0,1.19,1.21c-.18-.23-.07-.2,0-.14s.19.38.36.49l-.1.12c0-.17.59.37.7.39,0,.19-.35-.21-.46-.2.75.72.36.38,1.13,1.06.49.28,0-.18.31-.1a7.38,7.38,0,0,1,1.18.93l0-.22a6.87,6.87,0,0,1,1.61,1.24,8.59,8.59,0,0,0,3,.87c.47,0,.52-.15.35-.36a3.67,3.67,0,0,0-.78-.71l-.54-.4c-1-.75-1.74-1.27-2.56-1.82A17.16,17.16,0,0,1,57.87,88.06Z"/><path class="cls-1" d="M76.51,125.45l-.16-.11S76.38,125.4,76.51,125.45Z"/><path class="cls-1" d="M40.93,137.84l0,0Z"/><path class="cls-1" d="M69.71,121.63h0Z"/><path class="cls-1" d="M79.33,124.51a34.43,34.43,0,0,0-5.71-2,35.69,35.69,0,0,0-3.9-.84c-.63.08-1.65-.31-2.39-.23l-.26-.17a1.62,1.62,0,0,1-.79-.06l0,0c-.38,0-.79-.07-1,0l0,0-.45,0,.09,0a11.86,11.86,0,0,1-1.91-.08l0,.15c-1.25-.23-1.71.07-2.85-.11l0,0c-1.42.41-2.29-.17-3.74.36.18-.07-.08-.07-.07-.11-.68.13-1.39.27-1.36.55-.49.07-.41,0-.49-.12,0,.12-.39.25-.77.34l.17-.09c-.36.09-.72.16-1.08.27l.27.18c-.58.07-.21-.24-.74-.06l.05.19c-.79.14-1.32,0-2.13.1a21.25,21.25,0,0,0-4.61,2c-1.47.82-2.81,1.77-4.13,2.58l-.2,0c-.18-.12-.46.78-.68.71l-.21.32c-.1,0-.28.16-.18,0a1.27,1.27,0,0,0-.37.48l-.35.17a9.14,9.14,0,0,0-2.12,3.44,4.79,4.79,0,0,0-.22,3.66,5.88,5.88,0,0,0,2.31,2.9,35.71,35.71,0,0,0,3.59,2A12.06,12.06,0,0,0,47,142c.07,0,.29,0,.29,0l2.2.58s10.69,2.76,3-1l.06,0a7.94,7.94,0,0,0-2.82-.61c-.06-.31-1-.27-1.25-.43l0,0c-.79,0-1.47-.56-2.23-.54a.22.22,0,0,1,.23-.06c-.53-.09-1.22-.21-1.21-.39-1.22-.27-2.73-1-3.5-1.11h.07c-.47,0-.5-.25-.95-.44,0,0,0-.06,0-.07-.5-.12-1-.83-1.3-1.07l.07-.09a4.16,4.16,0,0,1-.47-.71l.13.29c-.16,0-.2-.14-.25-.37a2.16,2.16,0,0,0-.21-.8,4.33,4.33,0,0,0-.38-.88,1.24,1.24,0,0,1-.08-1c0-.35.15.33.17-.16.16,0,0,.24.2.15,0-.46.37-.64.52-1.18l.12,0c.15-.77.87-1.08,1-1.59.45-.65.61-.14,1-.87l.35-.09c.28-.21,0-.33.4-.51.05.1.44-.24.33,0,.78-.43,1.28-1.3,2.43-1.69.11-.3.67-.52.76-.73.08.06,1-.56.56-.07,0,0-.13.09-.14,0v.15c.68-.12,1-.68,1.62-.92-.19,0-.42.16-.3,0l.56-.24-.07.14c.28-.11.58-.2.87-.3l-.17-.07c.44-.1.66,0,1.07-.31.18-.17-.46,0,0-.22.6-.12,1.49-.28,2.24-.45-.11-.12.09-.17.29-.26l0,.12c.75-.36.36.19,1.11-.13l0,.1.15-.31c.66-.39.44.18,1.17-.31-.32.08-.2-.24.2-.26l-.08.13c.21-.07.28-.13.42-.12-.11.08,0,.18.28.11l-.19.18.57-.31c.48,0,1.21-.19,1.42,0a3.41,3.41,0,0,0,1.23-.21c-.2.13.36.14.21.28a2.1,2.1,0,0,1,1.34-.16l-.06,0a24.69,24.69,0,0,1,3,0c0-.15.5,0,.37-.23,1.09-.12,1.91.53,2.36,0,.49,0,.56.2.81.26l-.12,0a16.31,16.31,0,0,1,1.85.24c.34,0,.44-.24,1-.06-.22.06,0,.09.26.13-.15,0-.2,0,.08.15a.34.34,0,0,1,.18,0,0,0,0,0,1,0,0c.38,0,.32,0,.15,0,0,0,0,0,0-.08.36.22,1.08.23,1.09.42,1.13.22,2,.25,2.92.44.08.12-.16.14-.44.1l.66.15c0,.13-.39,0-.6-.06.71.43,1.66.25,2.51.74l.22,0,0,0c0-.06.24-.06.38,0s-.09.25.36.4a5,5,0,0,0,1.5.39c-.24-.1-.14-.14,0-.14s.31.24.5.25l0,.16c0-.17.64,0,.74,0,.08.15-.38,0-.47,0l1.34.48c.52.07,0-.17.24-.22a5.11,5.11,0,0,1,1.32.47l-.1-.19a4.67,4.67,0,0,1,1.76.77c3.11.7,3.57.5,3.25.09a6.53,6.53,0,0,0-1.42-1C83.51,125.56,82.16,125.43,79.33,124.51Z"/><path class="cls-1" d="M86.13,127.28l0,0A.05.05,0,0,0,86.13,127.28Z"/><path class="cls-1" d="M87.64,129h0Z"/><path class="cls-1" d="M84.87,128.82Z"/><path class="cls-1" d="M84.69,128.37c0,.13-.16.34,0,.36,0,.06.11.07.17.09s.06.06.21,0l-.08.08s.09,0,0,0l0,0c.08-.05,0,0,.09,0l0,0h0l0,0c.09,0,.12,0,.1,0l.11-.09c-.08.15.16,0,0,.13l0,0c.33-.19-.13.25.19.07a.29.29,0,0,0-.08.07s.08,0,.3-.18c0,0,0,.08-.14.15.1-.08.15-.1.17-.09l0,0h.06l.17-.16c0,.07-.21.19-.15.18l.15-.13s-.22.26-.3.38.51,0,.34.3l-.11.1c-.16.14.27-.18.12-.05l.09-.05a.45.45,0,0,1-.1.09s0,0,.09,0l-.09.1c0,.11.19,0,.19.06-.16.24.12.18.28.15.32-.13-.24.53.11.38,0,0,0,0,.06,0l0,.1s.28.44,1.37-1l0,0c0-.11,0-.16-.16,0,.21-.19,0-.05,0-.12l0,0c-.19.12.09-.17-.08-.07l.09-.06s-.12,0,0-.09c-.07,0-.07-.13-.3,0l0,0c-.15.1,0,0-.12,0l0,0c-.15.1-.07,0-.14,0l.08-.07,0,0v0c-.24.19.12-.15,0-.05,0,0-.53.37-.44.24-.12.08.19-.14.09-.08.12-.11.08-.06.18-.15-.08,0,.1-.13,0-.08l.09-.09c-.2.12.08-.16-.1,0s.26-.26,0-.14l.12-.12s-.17.13-.12.06.05-.07.13-.13-.23.09-.06-.14c-.16.12-.09,0-.21.12.07-.06,0-.06.14-.16s0,0,0,0l.1-.07c.15-.18-.14,0-.13,0s0,0-.08.08v0l.09-.07V128l-.09.09c0-.06.2-.21,0-.11s-.11.13-.16.14a.79.79,0,0,0,.12-.25c-.1.09-.11.08-.14.09l.1-.08c-.16.08.2-.19.07-.13l.07-.05-.21.16c-.21.13.19-.18-.1,0,0,0-.2.18-.17.13l.09-.07s-.06,0,0,0,.14-.11.11-.11l.12-.08-.19.12c.09-.1-.06,0,.06-.14s0-.09-.11,0c.09-.07.11-.12.21-.2-.1.07-.21.12-.11,0h0c.07-.14-.21.05-.11-.1-.11.1-.06,0-.2.15s.22-.31-.22,0c0,0,.08-.11.1-.13l0,0c-.06,0-.07,0-.08,0s-.26.19-.23.13.06-.06.06-.07l.09-.08-.06,0,0,0a.1.1,0,0,0-.07,0l0,0c.1-.1,0,0,.1-.15-.07,0-.24.08-.32.09a.78.78,0,0,1,.17-.12h0c.1-.08.07,0,.1,0,.14-.17-.22.08-.1-.08l-.08.06v0l-.13.09c.09-.08.21-.18.19-.19s-.08,0-.14,0a.26.26,0,0,1-.09.09s.07-.09,0-.06l.11-.11a1,1,0,0,1-.19.13.93.93,0,0,1,.16-.11l-.06,0c-.11.06-.11.1-.22.18s-.14.06-.08,0l-.1.1c-.11,0-.11,0,0-.1-1.06.52-1.23,1-1.23,1C84.17,128.55,84.52,128.33,84.69,128.37Z"/><path class="cls-1" d="M53.6,130.6h-.09S53.55,130.62,53.6,130.6Z"/><path class="cls-1" d="M65.13,131.44h0Z"/><path class="cls-1" d="M51.32,133.55h0l0,0Z"/><path class="cls-1" d="M53.78,128.53a5.57,5.57,0,0,0-1.61.67A2.68,2.68,0,0,0,51,130.91a3.28,3.28,0,0,0,.34,2.63c.34.27.63.88,1.06,1l0,.19a.59.59,0,0,1,.37.23l0,0c.22,0,.38.2.48.2l0,0,.21.09-.05,0a3.52,3.52,0,0,1,.9.34l0-.14c.53.37.83.13,1.3.45v0c.72-.23,1.05.46,1.75.18-.08,0,0,.07,0,.11.3,0,.62,0,.65-.28.22,0,.17.1.18.22,0-.13.21-.16.38-.15l-.09,0H59l-.07-.24c.25.09,0,.29.29.26V136c.35.08.53.4.86.58a25.61,25.61,0,0,0,4.62,0l.11.12c.11.2.35-.45.47-.29l.15-.18c.06,0,.19,0,.12.08.17-.08.16-.11.24-.24h.25a3.14,3.14,0,0,0,1.23-1.91,2.45,2.45,0,0,0,.13-1.83,4.05,4.05,0,0,0-.88-1.55c-.49-.44-.85-1-1.42-1.53a2.75,2.75,0,0,0-1.84-.84s-.15,0-.15,0a8.76,8.76,0,0,0-1.11-.23,5.63,5.63,0,0,0-.76,0,5.35,5.35,0,0,0-1.34.12c-.79.21-1,.61.78,1.53l0,0a1.62,1.62,0,0,0,1.23,0c0,.29.42.09.52.21l0,0c.36-.16.56.32.88.22,0,0,0,.09-.11.07.21,0,.49.08.43.24a4.27,4.27,0,0,1,.68.33,1.62,1.62,0,0,0,.58.25l0,0c.26,0,.16.14.36.23,0,0,0,0,0,0,.26.06.32.45.44.56l-.1.06a3.36,3.36,0,0,1,.16.33l0-.14c.31,0-.09.32.15.52,0,.22.67.49.48.8.12.16-.2-.16-.14.06-.15,0-.07-.11-.21-.08,0,.19-.22.22-.2.44l-.11,0c.08.35-.38.28-.34.54-.16.25-.35-.19-.45.16l-.17-.11c-.1,0,0,.22-.14.2s-.19,0-.15-.14c-.3-.08-.58.38-1.08.12-.09.21-.34.09-.42.24,0-.08-.5,0-.21-.21a0,0,0,0,1,.06,0l0-.12c-.27-.24-.52.1-.81,0,.08.05.2,0,.11.12l-.27,0,.07-.1-.41-.1,0,.13c-.2-.09-.25-.31-.5-.15s.18.19,0,.2a6.06,6.06,0,0,0-1-.36c0,.14-.08.13-.18.15v-.13c-.39.13-.11-.28-.5-.19l0-.08-.13.25c-.36.21-.15-.28-.56,0,.15,0,0,.28-.14.2l.06-.11c-.1,0-.14.06-.21,0s0-.17-.1-.17l.12-.14-.31.19c-.2-.15-.56,0-.63-.2,0,0-.41-.13-.53,0,.1-.1-.12-.18,0-.3-.12.11-.46.15-.56,0h0c-.42-.24-.84,0-1.17-.32,0,.14-.21,0-.22.18-.49,0-.51-.65-.92-.25-.18-.07-.12-.23-.16-.31h0a1.15,1.15,0,0,1-.49-.4c-.1,0-.35.1-.39-.12.12,0,.07-.06,0-.12s.08,0,.1-.08l-.08,0h0c-.07-.1-.1-.07-.09,0s0,0-.06,0c.08-.16-.1-.34.08-.38a2.36,2.36,0,0,1-.14-1c.1,0,.15.11.15.2a.66.66,0,0,1,.06-.2c.11.06,0,.13,0,.2s.15-.17.17-.32.1-.29.29-.31v-.12h0a.19.19,0,0,1,0-.19c.11.07.15.22.28.13s.31-.22.48-.34c-.11,0-.1-.06-.07-.11s.17,0,.23,0l0,.14c-.08-.13.2-.21.22-.29.08.1-.12.14-.12.23a4.94,4.94,0,0,1,.55-.15c.18-.16-.06-.14,0-.29s.36-.2.59-.12l-.08-.14a.88.88,0,0,1,.84,0c1.39-.55,1.64-.84,1.45-1.13a1.65,1.65,0,0,0-.81-.42,2.9,2.9,0,0,0-1.6,0A12.59,12.59,0,0,0,53.78,128.53Z"/></g></svg>