<svg xmlns="http://www.w3.org/2000/svg" viewBox="0 0 200 200"><defs><style>.cls-1{fill:#212121;}</style></defs><g id="BACKGROUND_2" data-name="BACKGROUND 2"><path d="M59.65,26.86c-6.83-3.25-13.55-6.81-20.53-9.73-.44-.19-.74.54-.33.76,6.66,3.53,13.64,6.45,20.46,9.66.46.21.86-.47.4-.69Z"/><path d="M71.11,33.21A201.16,201.16,0,0,1,93.89,48c.31.23.73-.3.42-.56A121.31,121.31,0,0,0,71.49,32.57c-.43-.22-.8.4-.38.64Z"/><path d="M101.49,51.5c5.44,4.65,10.37,9.73,15.43,14.77.3.29.71-.15.45-.46A117,117,0,0,0,102,51c-.36-.3-.89.21-.53.52Z"/><path d="M23.78,10.44A51.05,51.05,0,0,0,3.09,4.19c-.39,0-.49.62-.1.69A68.83,68.83,0,0,1,23.4,11.09c.43.22.81-.42.38-.65Z"/><path d="M198.22,196.42a84.79,84.79,0,0,0-19-14.17.39.39,0,0,0-.39.67,108.28,108.28,0,0,1,18.77,14.15.46.46,0,0,0,.65-.65Z"/><path d="M166.14,175.68a20.42,20.42,0,0,0-6.8-2.61.33.33,0,0,0-.18.63,27.32,27.32,0,0,1,6.51,2.77.46.46,0,0,0,.47-.79Z"/><path d="M143.84,170.94a58.53,58.53,0,0,0-16.59-1.07.36.36,0,0,0,0,.72,116.16,116.16,0,0,1,16.34,1.24c.59.1.84-.78.25-.89Z"/></g><g id="BACKGROUND_1" data-name="BACKGROUND 1"><path class="cls-1" d="M8.66,130.11l.54-.1S9.05,130,8.66,130.11Z"/><path class="cls-1" d="M123.1,78.47h.13A.45.45,0,0,0,123.1,78.47Z"/><path class="cls-1" d="M29.15,125.12h0l-.12.06Z"/><path class="cls-1" d="M5.75,135.35a4.34,4.34,0,0,1,.63-1.87,3.06,3.06,0,0,1,1.2-.94,30.62,30.62,0,0,1,3.27-1c2.24-.65,4.51-1.36,8-2.66s7-2.54,10.23-3.71c1.49-.75,4.32-1.49,6.13-2.25l.76-.11a11.19,11.19,0,0,1,2-.66l0,0c.94-.36,2-.63,2.51-.81l0,0,1.17-.34-.19.11a42.74,42.74,0,0,1,5-1.32l-.17-.11,1-.18,1.37-.31.74-1.85c.17-.43.32-.84.49-1.25a29.13,29.13,0,0,1,1.23-2.78l0,0c1.18-3.74,2.68-5.55,4-9.35-.17.47.16-.17.17-.11.73-1.7,1.56-3.49,1.32-3.64.58-1.22.55-1,.72-1.06a7,7,0,0,1,.81-2.07l-.17.46,1.32-2.71-.48.42c.79-1.39.44-.23,1.1-1.61l-.18-.07A36.07,36.07,0,0,1,63,89.08a14.31,14.31,0,0,1,1.93-2.45,2.12,2.12,0,0,1,.43-.32l.08,0,.19-.05.37-.09c.48-.13,1-.23,1.6-.33,2.2-.42,4.48-.76,6.72-1.09,4.49-.66,8.92-1.21,13.06-1.51l.38.11c.19.19,2.24-.57,2.58-.4l.95-.21c.27,0,.84,0,.37.09a9.7,9.7,0,0,0,1.54-.26l1,0c3.51-.27,6.46-.83,10.15-1.15,2.23-.08,5.42-.39,8.65-.73l4.77-.5a29.57,29.57,0,0,1,4-.26,73.66,73.66,0,0,1,10.58,1.43c3.63.67,7.27,1.37,10.73,1.74a2.55,2.55,0,0,0,.8.07l6.27,1.07s7.59,1.29,12.33,1.92,6.65.51-4.74-2.36l.16,0a58.45,58.45,0,0,0-8-1.25c-.33-.35-2.82-.49-3.61-.72h.08c-2.13-.12-4.29-.89-6.34-1a1.15,1.15,0,0,1,.6,0,17.74,17.74,0,0,1-3.59-.63c-3.52-.51-8.45-1.3-10.76-1.32l.16,0c-1.32,0-1.67-.2-3.15-.24-.08,0-.18,0-.16-.06-.71,0-1.8-.07-2.83,0s-2,.1-2.56.18l-.08-.11-2.82.26,1.06-.07c-.34.34-2.15,0-4.17.38-1.92.13-3.81,1-5.81,1-.92.24.81-.31-.59-.06-.06-.15.65-.16.28-.26-1.38.22-2.29.07-4,.35l-.08-.12c-2.21.46-4.23.27-5.69.64-2.28.35-1.58-.2-3.94.3l-.95-.07c-1,.09-.71.29-1.86.33.06-.11-1.44.07-.79-.1-2.58.13-5.18.82-8.6,1-.71.29-2.42.38-3,.6-.1-.08-3.41.41-1.53,0,.16,0,.45-.07.44,0l.21-.15a44.22,44.22,0,0,0-5.4.81c.57,0,1.32-.15.83,0l-1.78.24.36-.16c-.89.11-1.77.22-2.67.37l.39.06c-.66.08-1.1.08-1.59.14a7.06,7.06,0,0,0-.8.16l-.46.13a6.05,6.05,0,0,0-.71.41c-.28.31,0,.09.34,0,.16-.06.29-.1.25-.07s-.27.12-.61.39a19.57,19.57,0,0,0-4.33,5.42c.23-.12-.08.41-.35,1h-.15c-1,2.17-.67.63-1.65,2.78l0-.22-.06.67c-.74,2-.75.91-1.49,3.17.39-.85.44-.27-.11.73l0-.31c-.26.58-.31.79-.51,1.16.11-.37-.07-.25-.45.6l.13-.63-.55,1.68c-.7,1.18-1.44,3.21-1.83,3.64a24.71,24.71,0,0,0-1.37,3.32c.13-.58-.56.88-.49.4a19.38,19.38,0,0,1-1.46,3.61l.05-.17c-.56,1.17-1,2.23-1.38,3.25-.32.84-.63,1.65-.94,2.48l-1.29.24c.17.11-1.39.39-1,.48-3,.9-5.54,1.07-6.45,1.93a22.1,22.1,0,0,1-2.33.53l.31-.13-5.07,1.67a15.29,15.29,0,0,1-2.62,1.17c.49-.28-.17,0-.78.18.38-.15.49-.23-.34,0a2.83,2.83,0,0,1-.43.22s0,0,0,0c-1,.39-.82.36-.34.21,0,0,0,0,.18,0-1.1.25-2.95,1.06-3.14.94-3,1.14-5.17,2.09-7.71,3-.32,0,.26-.27,1-.57l-1.8.66c0-.13,1-.43,1.57-.65-2.23.54-4.39,1.74-7,2.35l-.5.27-.15,0a3.59,3.59,0,0,1-.91.45c-.41,0,0-.32-1.38.26A4.24,4.24,0,0,0,5,132.16a5.36,5.36,0,0,0-.88,2.49c.18-.79.19-.52.16-.17a8.71,8.71,0,0,0-.28,1.6l-.16,0c.16-.25,0,1.76.09,2-.14.38,0-1-.12-1.22-.08,1.35-.09,1.69-.1,2s0,.68,0,2,.14-.26.29.42c0,1.27.19,2.49.22,3.94l.1-.46c.29,2.35.48,3.75.6,5.34,1.05,4.31,2.16,6.48,2.44,7.7s.46,1.06.53.42a11,11,0,0,0-.32-3c-.21-1-.38-1.83-.38-1.83-.64-3.32-1-5.84-1.3-8.55A47.21,47.21,0,0,1,5.75,135.35Z"/><path class="cls-1" d="M53.34,162.1l0-.2S53.34,162,53.34,162.1Z"/><path class="cls-1" d="M85.67,135.35l0,0Z"/><path class="cls-1" d="M54.49,154.45h0l0,0Z"/><path class="cls-1" d="M55.36,164.22c-.18-2.57,0-3.27-.35-5.91-.08-1.24-.33-2.66-.52-3.85a13.58,13.58,0,0,1-.37-2.18l.12-.25a1,1,0,0,1,0-.67l0,0a3.71,3.71,0,0,1,0-.8l0,0,.06-.35,0,.07A2.59,2.59,0,0,1,55,149l-.14,0c.35-.38.56-.67.78-.94a3.61,3.61,0,0,1,.94-.84l0,0c.77-1.17,1.77-1.13,2.7-2.17-.11.13.11,0,.11.06.51-.38,1.08-.72,1-1,.41-.21.38-.1.48,0-.06-.11.27-.34.59-.5l-.13.12c.31-.16.61-.31.92-.45l-.27-.14c.53-.15.23.21.69,0l-.07-.19a13.93,13.93,0,0,1,2-.18c3-.88,6.14-2.25,9.07-2.65l.17.11c.1.19.7-.51.86-.34l.31-.18c.1,0,.31,0,.15.09a1.25,1.25,0,0,0,.52-.22l.36,0c1.23-.2,2.2-.7,3.49-1A31.46,31.46,0,0,0,85.6,137c2.26-.88,5.2-.74,7.5-1.75a.39.39,0,0,0,.26-.14l2.19-.58A34.36,34.36,0,0,0,99.77,133c1.56-.75,2-1.32-2.18-.89l0-.06a8,8,0,0,0-2.7.91c-.21-.24-1,.25-1.29.23l0,0c-.66.42-1.53.23-2.18.61a.21.21,0,0,1,.17-.15c-.49.17-1.18.41-1.26.26a20.16,20.16,0,0,0-3.65,1.17l0-.06c-.4.29-.57.17-1,.38,0,0-.07,0-.06,0a13.93,13.93,0,0,1-1.8.55l-.05-.11-1,.26.37-.06c0,.33-.78,0-1.44.36-.67.12-1.19.94-1.91,1-.29.22.24-.29-.23-.07,0-.15.21-.15,0-.24-.46.19-.82,0-1.39.28l-.06-.12c-.71.42-1.49.2-1.95.54-.78.3-.63-.22-1.4.22l-.36-.08c-.36.06-.21.26-.62.28,0-.11-.52,0-.31-.11-.93.08-1.75.69-3,.74-.2.27-.83.31-1,.51-.06-.07-1.19.31-.58-.06,0,0,.15,0,.16,0l0-.13c-.73-.05-1.17.46-1.84.62.2,0,.46-.11.31,0l-.62.16.1-.13-.93.21.16.08c-.46.08-.68-.08-1.13.24-.2.17.47,0,0,.22A20.81,20.81,0,0,0,63,141c.11.11-.09.18-.29.27l-.07-.11c-.75.44-.37-.17-1.17.27l0-.11-.12.33c-.64.54-.51-.07-1.16.62.3-.17.26.18-.14.32l0-.16a2.13,2.13,0,0,1-.39.27c.1-.13,0-.19-.31,0l.13-.24c-.16.16-.31.34-.46.51-.5.15-1.08.71-1.34.69,0,0-.94.55-1,.85.11-.22-.4.1-.34-.11a2.89,2.89,0,0,1-1.06,1l0-.05a12.34,12.34,0,0,0-2.29,2.48c.14,0-.26.54,0,.49-.44,1.14-1.15,2.08-.64,2.6a3.64,3.64,0,0,1-.24.9l0-.13c0,1,.06,1.29.11,2,.09.35.36.38.37,1-.13-.18-.08.07,0,.3,0-.15-.08-.19-.11.12a.46.46,0,0,1,.09.17h0c.08.37.11.3.1.12,0,0,0,0,0-.07-.08.42.16,1.1,0,1.17.19,1.12.44,1.94.6,2.89-.08.11-.18-.1-.25-.38l.11.68c-.14,0-.12-.38-.17-.59-.13.83.38,1.65.28,2.62l.12.18v.06c.06,0,.15.2.18.33s-.26,0-.21.49a4.71,4.71,0,0,0,.27,1.53c0-.26.07-.18.12-.08s-.08.39,0,.56l-.15,0c.13-.11.22.6.29.68-.11.14-.14-.36-.23-.4.11.94,0,.47.16,1.41.17.48.14-.11.3.11a5,5,0,0,1,.18,1.38l.12-.18a4.64,4.64,0,0,1,.14,1.9c1.74,6.07,1.67,1.12,1.67,1.12C56.28,168.32,55.75,167.11,55.36,164.22Z"/><path class="cls-1" d="M6.26,140.07l0-.08S6.27,140,6.26,140.07Z"/><path class="cls-1" d="M8.71,146.43h0Z"/><polygon class="cls-1" points="8.33 137.89 8.33 137.89 8.34 137.9 8.33 137.89"/><path class="cls-1" d="M8.14,140.77c0-.91.22-1.14.16-2,0-.22,0-.44,0-.66s0-.13,0-.14,0,0,0,0-.06-.1,0-.11,0,0,0,0a.35.35,0,0,0,.07-.11l.09.09c0-.08.08-.13.14-.08v0c0-.12.16-.06.19-.12v0l.1,0v.05a.43.43,0,0,1,.46,0v-.15c.28.23.51,0,.71.31l0,0a.33.33,0,0,1,.44.22.43.43,0,0,0,.37.33c-.07,0,0,.07-.07.08.15.13.28.3.52.16.08.14,0,.15-.1.22.11-.06.22,0,.28.15l-.07,0,.18.31.19-.15c0,.21-.25.15-.13.3l.18-.06c.05.27-.19.51-.28.78.12,1,.64,2.37.1,3.28h-.15c-.21,0,.24.33,0,.32l.06.13s-.1.07-.13,0c0,.09,0,.11,0,.19l-.16.05c-.23.28-.17.65-.44.82a2.46,2.46,0,0,0-.59.16,1.4,1.4,0,0,1-.74.06c-.37,0-.63-.4-.73-.77a2.64,2.64,0,0,0-.36-1s0-.08-.08-.08a5.74,5.74,0,0,1,0-.73s0-.23,0-.55a6.32,6.32,0,0,0-.07-1c-.11-.65-.51-1-1.58.54l0,0a1.25,1.25,0,0,0,.06,1.21c-.29.07,0,.44-.08.58h0c.25.29-.07.74.23,1,0,0-.11,0-.13-.07.1.23.3.53.16.63.28.57.84,1.31,1.34,1.35H8.2c.29,0,.24.17.51.22,0,0,0,.05,0,.05.29,0,.67.29.9.26v.11a3.05,3.05,0,0,0,.52,0l-.19,0c.08-.3.39.23.78,0,.41,0,.44-.8.74-.81,0-.2,0,.27.14.05.1.12,0,.14.09.21.15-.19.43-.12.56-.42l.1.08c.08-.43.57-.51.49-.85.07-.37.45-.09.36-.54l.21-.09c.08-.16-.17-.18,0-.33.1,0,.14-.21.21-.08.26-.38-.07-.85.24-1.35-.2-.13-.06-.39-.22-.47.09,0,0-.5.21-.22,0,0,0,.07,0,.07l.12,0c.24-.29-.13-.52-.1-.81,0,.09,0,.2-.11.13v-.27l.11,0,0-.41-.12.07c0-.2.25-.3,0-.51s-.14.21-.21,0a3.3,3.3,0,0,0,.05-1.06c-.13.07-.15,0-.21-.11l.12-.05c-.28-.31.22-.22,0-.54h-.19c-.36-.22.17-.28-.31-.49.09.13-.21.18-.24,0l.12,0c-.06-.08-.13-.08-.14-.15s.17-.06.07-.19l.18,0-.34-.14c0-.27-.37-.45-.3-.64,0,0-.32-.46-.54-.38.15,0,0-.25.1-.3-.19,0-.58-.13-.65-.32h0c-.48-.43-1-.25-1.48-.52,0,.14-.27,0-.22.21-.52.1-1.05-.39-1.17.2-.23.08-.31-.06-.45-.06l.05,0a4.6,4.6,0,0,0-1,.51c-.14.18,0,.37-.26.57,0-.14-.1,0-.19.06.06-.06,0-.13-.12,0a.74.74,0,0,1,0,.14h0c0,.24,0,.21.06.12a.06.06,0,0,0,.07,0c-.18.16-.12.63-.29.59a5.59,5.59,0,0,0,.18,1.23c-.09,0-.17-.05-.2-.17l0,.28c-.13,0-.07-.16-.09-.25-.24.34.19.7,0,1.09l.11.08,0,0c.06,0,.14.07.16.13s-.27,0-.25.21.1.44.2.63c0-.12.07-.09.12-.05s-.09.17,0,.23l-.16,0c.14-.06.21.22.28.25-.11.07-.13-.13-.22-.14.09.38,0,.19.14.57.16.18.13-.07.29,0s.22.31.18.54l.12-.1a.8.8,0,0,1,.18.73c1,.95,1.41.81,1.55.57a1.22,1.22,0,0,0,.08-.68C8.93,142,8.43,141.77,8.14,140.77Z"/><path class="cls-1" d="M41.85,150.15l0-.09S41.85,150.09,41.85,150.15Z"/><path class="cls-1" d="M44.3,156.51h0Z"/><polygon class="cls-1" points="43.91 147.96 43.91 147.96 43.92 147.97 43.91 147.96"/><path class="cls-1" d="M43.73,150.84c0-.9.22-1.14.15-2,0-.21,0-.43.06-.65s0-.13,0-.15l0,0c-.08-.07,0-.09,0-.11s0,0,0,0a.26.26,0,0,0,.07-.11l.1.09c0-.08.08-.13.14-.08v0c0-.11.17-.05.2-.11v0a.18.18,0,0,1,.1,0l0,0a.43.43,0,0,1,.46,0l0-.15c.28.23.5,0,.71.3l0,0a.33.33,0,0,1,.43.23.45.45,0,0,0,.38.33c-.07,0,0,.06-.08.08.16.13.28.3.53.16.08.14,0,.15-.1.22.11-.06.22,0,.28.15L47,149l.18.31.19-.16c0,.22-.25.15-.13.31l.18-.07c0,.28-.19.52-.28.79.12,1,.64,2.37.1,3.28h-.15c-.21,0,.24.33,0,.31l.06.14s-.1.06-.13,0c0,.09,0,.1,0,.19l-.16,0c-.23.29-.17.66-.44.83a2.13,2.13,0,0,0-.6.16,1.58,1.58,0,0,1-.73.06c-.37,0-.63-.41-.73-.78a2.93,2.93,0,0,0-.36-1s-.06-.08-.08-.07a4.47,4.47,0,0,1,0-.74v-.54A7.61,7.61,0,0,0,43.9,151c-.11-.65-.52-1-1.58.54l0,0a1.25,1.25,0,0,0,.06,1.21c-.29.07,0,.44-.08.57h0c.26.29-.06.73.24,1,0,0-.11,0-.14-.06.11.23.3.53.16.62.29.58.85,1.32,1.34,1.35l0,0c.29,0,.25.16.52.22,0,0,0,0,0,0,.29,0,.66.29.9.25v.12a3,3,0,0,0,.52,0l-.19,0c.08-.29.39.24.78,0,.4,0,.44-.79.73-.81,0-.2,0,.27.15.05.1.13,0,.15.09.22.15-.19.43-.12.55-.42l.1.07c.08-.43.58-.51.5-.84s.45-.09.36-.54l.21-.1c.07-.15-.17-.17,0-.32.1,0,.14-.21.21-.08.26-.39-.07-.85.24-1.35-.2-.13-.06-.39-.22-.47.09,0,0-.5.21-.22,0,0,0,.07,0,.07l.12,0c.23-.29-.13-.53-.11-.81,0,.09,0,.2-.1.12v-.26l.1.05,0-.41-.12.07c.05-.21.26-.3.05-.51s-.15.21-.21,0a3.64,3.64,0,0,0,0-1.06c-.13.07-.14,0-.2-.11l.11,0c-.27-.31.23-.22,0-.55h-.18c-.37-.22.17-.28-.31-.49.09.12-.21.18-.25,0h.13c-.07-.08-.13-.08-.14-.16s.17-.05.07-.18l.18,0-.34-.14c0-.27-.37-.46-.31-.64,0,0-.32-.46-.54-.38.16,0,0-.25.11-.3a.82.82,0,0,1-.66-.32h0c-.48-.43-1-.26-1.48-.53,0,.15-.27,0-.23.22-.51.1-1-.4-1.16.2-.23.08-.32-.06-.46-.06l.05,0a5.06,5.06,0,0,0-1,.52c-.14.18,0,.37-.26.56,0-.14-.1,0-.19.07.06-.06,0-.13-.13,0a.22.22,0,0,1,0,.13h0c0,.24,0,.21.06.11h.07c-.18.16-.12.63-.29.58a5.07,5.07,0,0,0,.18,1.24c-.1,0-.18,0-.2-.17l0,.28c-.14,0-.08-.16-.1-.25-.23.33.2.7,0,1.09l.11.08,0,0a.22.22,0,0,1,.16.14c-.11.06-.27,0-.25.21s.1.43.19.62c0-.11.08-.08.12,0s-.09.17,0,.23l-.16,0c.14-.06.2.22.27.24-.1.08-.12-.13-.21-.14.09.39,0,.2.13.58.17.17.14-.07.3,0s.22.31.18.53l.12-.1a.86.86,0,0,1,.18.74c1,1,1.41.8,1.55.56a1.19,1.19,0,0,0,.08-.67C44.52,152.11,44,151.84,43.73,150.84Z"/><path class="cls-1" d="M7.81,131.7a.58.58,0,0,1,.19,0S7.93,131.64,7.81,131.7Z"/><path class="cls-1" d="M46.85,138.77h0S46.85,138.77,46.85,138.77Z"/><path class="cls-1" d="M14,133Z"/><path class="cls-1" d="M7.45,134.19A3,3,0,0,1,9,133.33c.53-.12,1.07-.23,2-.37a20,20,0,0,1,2.9,0c.47-.17,1.25.18,1.84.09l.2.16a1.05,1.05,0,0,1,.61.06l0,0a6.4,6.4,0,0,1,.77,0l0,0,.35.05-.06,0a5,5,0,0,1,1.47.2v-.15c.94.33,1.35.11,2.19.46l0,0c1.17-.16,1.69.6,2.89.47-.15,0,.05.09,0,.12.53.07,1.09.17,1.16-.11.38.08.29.15.32.27,0-.12.36-.11.66,0l-.14,0,.85.15-.11-.27c.43.17.05.31.49.35l0-.2a8.7,8.7,0,0,1,1.49.83c2.47.66,5.27.85,7.49,1.81l.06.17c0,.22.72-.13.76.08l.29,0c.06.06.21.15.07.16a.89.89,0,0,0,.45,0l.23.2c.95.37,1.84.37,2.85.72A23.65,23.65,0,0,0,46,140.13a10.81,10.81,0,0,1,2.91,1.07,17.52,17.52,0,0,0,2.79,1.17.27.27,0,0,0,.22,0,10.89,10.89,0,0,1,1.44.89,8,8,0,0,1,.87.72,5.39,5.39,0,0,1,1.16,1.53c.27.5.4.93.66.81.1-.06.24-.26.33-.71a3.84,3.84,0,0,0-.33-2.08l.07,0a3.43,3.43,0,0,0-1.93-1.71c.07-.32-.72-.52-.9-.71h0c-.67-.12-1.11-.78-1.77-.84a.19.19,0,0,1,.21,0c-.43-.15-1-.31-1-.48a12.19,12.19,0,0,0-3.06-.8l.06,0c-.42.06-.48-.12-.91-.17,0,0,0,0,0,0-.44,0-1.15-.35-1.49-.37l0-.12-.79-.22.28.12c-.19.26-.53-.37-1.16-.36-.52-.2-1.26.28-1.77,0-.3.06.3-.15-.12-.16,0-.16.21,0,.15-.2-.41,0-.59-.34-1.1-.38l0-.12c-.69,0-1.14-.51-1.61-.42-.67-.08-.33-.47-1.07-.43l-.22-.23c-.28-.11-.26.14-.56,0,0-.09-.38-.19-.16-.24-.69-.35-1.53-.16-2.42-.68-.26.14-.71-.1-.9,0,0-.09-1-.26-.37-.31.05,0,.13,0,.11.05l.1-.1c-.49-.37-1-.13-1.56-.3.15.08.37.12.21.17l-.5-.14.13-.07-.74-.24.07.14c-.35-.15-.43-.39-.88-.31-.21,0,.3.25-.09.19s-1.18-.49-1.8-.68c0,.16-.14.11-.32.1v-.12c-.71,0-.19-.33-.88-.34l.07-.07-.23.22c-.65.1-.26-.33-1-.15.27,0,.07.3-.25.18l.11-.1c-.18,0-.25,0-.37,0,.12,0,.09-.16-.17-.19l.2-.11-.54.11c-.36-.21-1-.18-1.12-.38,0,0-.82-.24-1-.1.18-.08-.26-.21-.11-.32a1.62,1.62,0,0,1-1.12-.12h.05c-.92-.31-1.65-.11-2.46-.43,0,.15-.42,0-.35.19-.9,0-1.53-.65-1.94-.14-.4,0-.45-.21-.65-.27l.1,0a14.43,14.43,0,0,1-1.54-.21c-.29,0-.37.27-.87.14.18-.08,0-.09-.23-.11.13,0,.17,0-.08-.13a.33.33,0,0,1-.15,0s0,0,0,0c-.33,0-.27,0-.13.07s0,0,.05.07c-.32-.17-.93,0-1-.24a10.7,10.7,0,0,0-2.49.41c-.11-.08.07-.19.31-.26l-.58.12c0-.13.32-.12.5-.18-.75-.12-1.41.45-2.26.59l-.13.16H8s-.12.19-.22.27-.12-.24-.5,0a1.55,1.55,0,0,0-.58.39c-.17.21-.34.43-.47.63.18-.17.17-.06.13,0s-.31.2-.38.36l-.14-.08c.16,0-.18.58-.16.68-.17.05.09-.34,0-.44a4.87,4.87,0,0,0-.57,1.2c0,.46.16,0,.23.22a4.91,4.91,0,0,1-.26,1.14l.17-.1a2.87,2.87,0,0,1-.4,1.49,5.66,5.66,0,0,1-.54,2.4c-.16.4,0,.48.19.48a2.16,2.16,0,0,0,1-.65,3.1,3.1,0,0,0,.33-.41l.12-.19a6.21,6.21,0,0,0,.84-2.72A4.22,4.22,0,0,1,7.45,134.19Z"/><path class="cls-1" d="M14.31,153.74l0-.16S14.31,153.63,14.31,153.74Z"/><path class="cls-1" d="M39.28,156.4v0A0,0,0,0,0,39.28,156.4Z"/><path class="cls-1" d="M16.23,147.78h0v0Z"/><path class="cls-1" d="M16.28,155.43c-.14-2,.09-2.56-.06-4.64,0-1,0-2.06,0-3-.18-.45.14-1.12.13-1.56l.17-.1c0-.15,0-.31.15-.37l0,0c0-.2.18-.27.2-.34v0l.12-.09v.06c.13-.19.39-.23.73-.13v-.15a20.12,20.12,0,0,1,2,.56l0,0c1.18-.08,1.64.71,2.84.65-.15,0,0,.09,0,.12.53.1,1.08.22,1.16-.05.37.1.28.17.3.29,0-.13.37-.09.66,0h-.14l.84.18-.1-.27c.42.18,0,.31.48.37l0-.19a8.54,8.54,0,0,1,1.44.88c2.44.73,5.22,1,7.43,1.9l.06.17c0,.22.71-.14.75.07l.29,0c.07.06.21.14.07.15a.89.89,0,0,0,.45,0l.23.19c.49.18.92.26,1.09.32s.28.1.25.41a20.46,20.46,0,0,0-.17,5c.2,2-.79,4.16-.54,6.17,0,.06,0,.23.05.23l-.14,1.81s-.62,8.8,1.56,2.22l0,0a4.92,4.92,0,0,0,.05-2.31c.29-.09.08-.82.18-1l0,0c-.18-.62.26-1.24.1-1.83a.18.18,0,0,1,.1.17c0-.43,0-1,.13-1a13,13,0,0,0-.05-3.1l0,0c-.16-.38,0-.48-.06-.9,0,0,0-.05,0,0a8.61,8.61,0,0,1,0-1.52h.11l0-.81,0,.3c-.3-.12.23-.59.07-1.19.07-.54-.57-1.15-.39-1.71-.12-.28.22.26.14-.16.16,0,.09.2.22.1a2,2,0,0,1,.05-.59,1.19,1.19,0,0,0-.17-.84l.1-.08a4.38,4.38,0,0,0-1-.91,1.25,1.25,0,0,0-.82-.27c-.68-.08-.34-.48-1.07-.42l-.21-.23c-.28-.1-.26.15-.56,0,.05-.09-.37-.18-.16-.23-.67-.35-1.51-.16-2.38-.68-.26.14-.7-.1-.89,0,0-.1-.94-.27-.36-.32,0,0,.13,0,.11.06l.1-.1c-.48-.37-1-.14-1.53-.32.15.09.36.13.2.17l-.49-.14.13-.07-.72-.26.07.15c-.34-.16-.42-.4-.87-.33-.21.05.3.25-.09.19a17.86,17.86,0,0,0-1.75-.73c0,.16-.14.11-.32.09v-.13c-.69,0-.16-.32-.84-.36L26,145l-.24.2c-.65.09-.25-.33-1-.18.26,0,.05.3-.26.17l.12-.1c-.19,0-.26,0-.37,0,.12,0,.1-.16-.16-.21l.21-.1-.54.09c-.34-.22-1-.23-1.08-.43,0,0-.79-.3-1-.17.19-.06-.24-.22-.08-.32a1.59,1.59,0,0,1-1.1-.19h0a4.56,4.56,0,0,0-1.22-.31,7.44,7.44,0,0,1-1.3-.29c0,.14-.55,0-.41.21a5.14,5.14,0,0,0-1.63.31c-.46.2-.75.51-.65.85-.29.41-.46.41-.61.63l0-.12a7.63,7.63,0,0,0-.52,1.71c0,.31.25.4.14.91-.1-.18-.09,0-.11.24,0-.13,0-.17-.13.08a.35.35,0,0,1,.06.14h0c0,.31,0,.26.08.12s0,0,.06-.05c-.15.32,0,.91-.21.94a19.66,19.66,0,0,0,.29,2.41c-.09.09-.18-.09-.22-.32l0,.56c-.13,0-.09-.32-.12-.49-.2.67.26,1.36.11,2.15l.12.15v.05c.05,0,.14.16.17.28s-.27,0-.23.4a3,3,0,0,0,.25,1.24c0-.21.06-.15.12-.06s-.08.31,0,.45l-.16,0c.14-.09.23.48.3.54-.1.13-.14-.28-.23-.32.13.77.06.39.19,1.15.18.38.14-.09.3.07a2.37,2.37,0,0,1,.17,1.07l.13-.13a2.67,2.67,0,0,1,0,1.52c.67,2.5,1.17,2.68,1.35,2.31a4.27,4.27,0,0,0,.24-1.34,9.9,9.9,0,0,0,0-2.55C16.77,157.3,16.47,156.56,16.28,155.43Z"/><path class="cls-1" d="M12.67,160.68l.1.11S12.76,160.73,12.67,160.68Z"/><path class="cls-1" d="M45.79,171.36h0Z"/><path class="cls-1" d="M16.86,164.59Z"/><path class="cls-1" d="M10.4,161.63a29.27,29.27,0,0,0,3.83,2c.85.37,1.78.69,2.63,1,.47,0,1.1.43,1.63.45l.14.18a.88.88,0,0,1,.53.17l0,0a6,6,0,0,1,.66.17l0,0,.3.1-.07,0a4.85,4.85,0,0,1,1.27.41l0-.14c.77.45,1.18.28,1.86.74l0,0c1.07,0,1.41.77,2.51.77-.14,0,0,.08,0,.11.46.12.95.27,1.05,0,.33.12.24.17.25.29,0-.12.34-.07.6,0h-.14l.76.2-.08-.27c.38.19,0,.3.41.37l0-.19c.53.21.76.6,1.24.91,2.17.76,4.68,1,6.65,1.86l0,.17c0,.22.65-.16.68,0l.26,0c.06.05.19.13.06.14a.65.65,0,0,0,.41,0l.21.19c.85.32,1.66.28,2.58.54a15,15,0,0,0,4.45.88c1.77.07,3.6,1.28,5.43,1.24a.23.23,0,0,0,.22,0l1.6.31s.49.1,1.14.17a16.14,16.14,0,0,0,2.07.15c1.24,0,1.76-.36-1.06-1.69l0,0a4.12,4.12,0,0,0-2-.23c0-.3-.71-.16-.9-.28l0,0c-.57.12-1.06-.37-1.61-.27a.17.17,0,0,1,.17-.08c-.38,0-.91-.07-.9-.24a10.69,10.69,0,0,0-2.75-.3l.05,0c-.36.11-.43-.06-.81-.05l0,0c-.39.1-1-.19-1.34-.18v-.11l-.71-.13L44,171c-.16.28-.49-.3-1-.23-.47-.15-1.11.4-1.57.13-.27.09.26-.17-.12-.15,0-.16.19-.06.13-.2-.36,0-.53-.3-1-.29v-.13c-.61.09-1-.42-1.42-.31-.6,0-.29-.45-1-.37l-.18-.22c-.25-.09-.24.15-.5,0,0-.1-.33-.17-.14-.23-.59-.33-1.35-.13-2.11-.63-.23.15-.62-.09-.8,0,0-.09-.84-.25-.31-.3,0,0,.12,0,.1,0l.09-.1c-.41-.35-.89-.13-1.35-.31.13.08.31.13.17.17l-.43-.14.12-.08-.63-.25,0,.15c-.3-.16-.35-.4-.76-.33-.19,0,.25.25-.09.19a16.71,16.71,0,0,0-1.52-.74c0,.15-.14.1-.29.08l0-.13c-.62,0-.13-.32-.73-.38l.07-.06-.23.2c-.58.07-.19-.34-.86-.2.23.05,0,.29-.24.15l.1-.09c-.16,0-.22,0-.32,0,.11,0,.11-.15-.12-.21l.19-.09-.49.06c-.28-.23-.85-.25-.93-.46,0,0-.67-.32-.89-.2.17-.06-.2-.24,0-.33a1.22,1.22,0,0,1-1-.23h0c-.74-.42-1.41-.31-2.06-.74,0,.15-.36-.06-.33.15-.8-.1-1.2-.86-1.66-.43-.35-.1-.35-.28-.51-.37h.09a11.84,11.84,0,0,1-1.27-.45c-.25,0-.39.19-.77,0,.17,0,0-.09-.16-.16.11,0,.15,0,0-.14a.32.32,0,0,1-.14,0s0,0,0,0c-.27-.07-.23,0-.12,0s0,0,0,.08c-.21-.24-.74-.3-.7-.48-.78-.28-1.41-.33-2.07-.54,0-.12.15-.13.35-.08l-.47-.17c.06-.12.29,0,.44.08-.45-.43-1.19-.28-1.73-.74l-.18,0,0,0c0,.05-.19.06-.29,0s.12-.24-.2-.37-.71-.26-1.06-.35c.17.1.08.13,0,.14S11,160,10.88,160l0-.15c0,.16-.47,0-.55,0,0-.14.28,0,.35,0l-.93-.41c-.38,0,0,.17-.22.22a2.73,2.73,0,0,1-.93-.38l0,.17a2.36,2.36,0,0,1-1.21-.64c-4.55-1-1.54,1-1.54,1C7.42,160.82,8.43,160.85,10.4,161.63Z"/><path class="cls-1" d="M2.87,167.56v.3S2.91,167.77,2.87,167.56Z"/><path class="cls-1" d="M66.54,185.44v0A.08.08,0,0,1,66.54,185.44Z"/><path class="cls-1" d="M7.8,176.59h0Z"/><path class="cls-1" d="M.37,164.49c.33,1.91.55,3.14.76,4.39.12.61.23,1.22.37,1.91.06.35.14.71.22,1.11,0,.2.07.4.12.62l0,.32,0,.18.06.37.08.7c0,.23,0,.53.28.55l1.32.49,1.39.5,2.74,1c.91.11,2.31.85,3.36,1l.34.25a3.84,3.84,0,0,1,1.1.36l0,0c.54.1,1.1.36,1.37.41l0,0,.63.21h-.13a18.85,18.85,0,0,1,2.63.89v-.16c1.67.77,2.4.72,3.9,1.45l0,0c2.1.34,3,1.35,5.19,1.72-.27-.05.09.11.05.13,1,.29,2,.62,2.07.35.69.24.53.28.59.41,0-.12.65,0,1.18.21l-.26,0,1.55.48-.23-.32c.79.34.12.34.91.55l.06-.19a29.29,29.29,0,0,1,2.73,1.41c2.26.79,4.66,1.44,7,2.07s4.65,1.25,7,1.76l.2.18c0,.06.11.07.24.08a2.48,2.48,0,0,0,.66-.06l.39-.19.18-.1c.11,0,.21-.08.26,0l.45-.24c.14,0,.44,0,.21.08a2.51,2.51,0,0,0,.76-.29l.51,0a51.73,51.73,0,0,1,5.28-.81,37.1,37.1,0,0,0,4.64-.22c.88-.09,1.78-.22,2.62-.39.42-.1.83-.18,1.21-.3l.36-.1.4-.14.75-.28.24-.09s0-.05,0-.1v-.14l0-.54,0-1c0-.47,0-.94,0-1.43,0-1,0-1.95.06-2.95a22.3,22.3,0,0,0-.4-5.9.88.88,0,0,0-.13-.44l-.16-.88-.12-.45,0-.23-.12-.31a10.07,10.07,0,0,0-.55-1.28s0-.11-.08-.14h-.52l-.72,0-2.52.11c-1.34.08-3,.19-4.26.34-2.53.3-3.55.77,2.77,1.4l-.08,0c.94,0,1.7,0,2.39,0q.51,0,1-.09l.47-.07.21-.09a1.38,1.38,0,0,1,.41.86l0,0c.48,1,.22,2.21.52,3.25,0,0-.11-.05-.14-.3.12.77.26,1.84.09,1.91.17,1.87.15,4.53.45,5.74l0-.08a2.63,2.63,0,0,1,.11.81c0,.12,0,.24,0,.38a.8.8,0,0,0,0,.24l0,0a.49.49,0,0,1,.06.17s0,.07,0,.09l-.08,0a1.88,1.88,0,0,1-.38.13c-.39.1-1,.18-1.22.26l-.05-.11c-.48.09-1,.16-1.45.21l.55,0c-.16.33-1.13-.07-2.2.2-1,0-2,.77-3.1.7-.49.18.43-.26-.32-.1,0-.16.35-.13.15-.24-.74.13-1.24-.08-2.16.13l-.05-.12c-1.18.33-2.3.11-3.07.46-1.22.35-.92-.23-2.16.33l-.54,0c-.55.14-.37.33-.93.42,0-.06-.06,0-.11-.08s-.15-.06-.05-.09a20,20,0,0,1-4.26-.94c-.43.1-1.27-.26-1.59-.19,0-.09-1.75-.53-.71-.42.09,0,.23.06.21.09l.15-.09a15.11,15.11,0,0,0-2.79-.74c.27.13.66.23.38.24l-.9-.29.22,0-1.34-.49.15.18c-.64-.27-.81-.55-1.61-.61-.36,0,.58.36-.13.17-.86-.35-2.14-.92-3.25-1.33.06.17-.24.07-.56,0v-.13c-1.25-.23-.35-.4-1.57-.67l.13,0-.4.14c-1.14-.12-.49-.44-1.78-.52.47.14.13.33-.43.09l.19-.07a3,3,0,0,1-.66-.17c.21,0,.16-.13-.32-.27l.37,0-1-.1c-.64-.36-1.78-.58-2-.84a7.14,7.14,0,0,0-1.84-.53c.34,0-.46-.34-.18-.38a5.36,5.36,0,0,1-2-.6l.09,0c-1.61-.72-2.9-.83-4.33-1.53,0,.16-.75-.2-.61.05-1.61-.39-2.68-1.37-3.43-1a4.52,4.52,0,0,1-1.14-.59l.18,0c-1.33-.44-1.71-.57-2.68-.94-.51-.13-.67.09-1.52-.29.31,0,0-.11-.37-.23.21.06.29.05-.11-.17a1.31,1.31,0,0,1-.27,0s0,0,0,0c-.56-.16-.47-.1-.23,0,0,0,0,0,.07.09C7.09,174.21,6,174,6,173.77c-.41-.14-.8-.26-1.17-.37l-.53-.16-.28-.06-.15,0a.56.56,0,0,1,0-.12l-.08-.28c-.08-.35-.16-.7-.25-1.05.07-.18.21.14.32.56l-.22-1c.13,0,.18.58.27.9,0-1.29-.72-2.48-.85-3.92l-.17-.27v-.08c-.06,0-.2-.28-.27-.49s.26,0,.1-.73a11.23,11.23,0,0,0-.6-2.24c.06.39,0,.28-.1.12a5.69,5.69,0,0,0-.09-.82l.15-.06c-.13.16-.31-.88-.4-1,.09-.21.19.52.29.6-.23-1.39-.13-.7-.32-2.08-.2-.73-.13.15-.31-.19a3.55,3.55,0,0,1,0-1.94l-.19.18a1.86,1.86,0,0,1,.65-1.28,2.21,2.21,0,0,1,1.11-.45c.8-.37,1.55-.6,2.1-.87a3.37,3.37,0,0,0,1.15-.82l-.05.45c-1.4-1.06-1.13-.34-.61.51l.2-1.61a5.08,5.08,0,0,1-.81.24l-.48.1a10,10,0,0,0-2.68.68,3.84,3.84,0,0,0-1.35,1,3.58,3.58,0,0,0-.73,1.57,7.69,7.69,0,0,0,.14,2.8C-.06,162.44.13,163.39.37,164.49Z"/><path class="cls-1" d="M63.15,149.82l.08-.09S63.17,149.75,63.15,149.82Z"/><path class="cls-1" d="M69.78,155.27h0Z"/><polygon class="cls-1" points="66.16 149.7 66.16 149.7 66.14 149.72 66.16 149.7"/><path class="cls-1" d="M64.87,150.85a.85.85,0,0,1,.24-.67.73.73,0,0,0,.22-.21,2.55,2.55,0,0,1,.83-.27c.17-.22.52,0,.77-.17l.09.12a.24.24,0,0,1,.28,0v0c.15-.08.3,0,.38-.05v0h.17l0,.05a1.29,1.29,0,0,1,.73,0v-.14c.46.2.66-.08,1.07.15v0c.58-.33.83.34,1.42,0-.07,0,0,.07,0,.11.26,0,.54,0,.56-.3.19,0,.15.1.16.21,0-.12.18-.16.33-.15l-.07,0h.42l-.06-.25c.19.09,0,.29.15.25l0-.19c.19.05.15.35.11.49s.12,0,.11,0a.93.93,0,0,0,0,.19.84.84,0,0,1,0,.14c0,.15,0,.29,0,.43a2.55,2.55,0,0,1-.15,1.39h-.15c-.21,0,.27.28.07.26l.06.11s-.09,0-.13,0,0,.07,0,.14h-.15c-.19.1-.12.4-.52.49a5.46,5.46,0,0,0-2.23.53c-.88.46-2.11-.21-3,.29,0,0-.1.05-.09.07a3.79,3.79,0,0,1-.73,0,3.32,3.32,0,0,1-.39,0c-.22,0-.58-.16-.9-.23s-.6,0-.68.19,0,.69.64,1.48l0,0a1.3,1.3,0,0,0,1.4.21c.07.3.48,0,.6.09v0c.3-.26.67.1.93-.14,0,0,0,.1-.07.12.2-.07.47-.18.51,0,.49-.12,1.18-.14,1.45-.46v0c.15-.2.23-.06.41-.18,0,0,0,0,0,0,.17-.21.57-.12.71-.22l0,.11.38-.09h-.15c0-.31.33.15.58-.09.28,0,.44-.72.74-.64.1-.18,0,.25.12.09,0,.15-.07.13,0,.23.18-.13.41.05.64-.18l.07.11c.24-.37.78-.35.82-.72s.51-.06.5-.6l.22-.11c.08-.18-.15-.2,0-.37.11,0,.14-.24.22-.1.25-.46-.13-.92.15-1.4-.2-.11-.08-.35-.24-.42.09,0,0-.46.21-.2,0,0,0,.06,0,.06l.12,0a.28.28,0,0,0,0-.35,1.46,1.46,0,0,1,0-.69c-.06.16-.08.34-.15.23a2.1,2.1,0,0,1,.11-.45l.09.06.27-.76L75,149c.16-.35.44-.66.39-.88l-.11,0c-.16,0-.11.11-.14.16s0,0,0,0H75a5,5,0,0,0-1.35-.4c0,.15-.16.13-.32.14l0-.12c-.63.12-.15-.29-.78-.21l0-.08a1,1,0,0,0-.12.25c-.32.22-.14-.27-.49,0,.13,0,0,.28-.12.21l0-.12c-.09,0-.12.07-.18,0s0-.17-.09-.17l.1-.14-.26.2c-.17-.14-.49,0-.55-.19,0,0-.39-.12-.5.06.09-.11-.13-.17,0-.3-.12.12-.44.2-.55,0h0c-.45-.19-.8.12-1.2-.09,0,.15-.2.05-.16.24-.45.14-.74-.44-1,.11-.19,0-.21-.15-.32-.19l0,0a5.3,5.3,0,0,1-.8,0c-.15.05-.17.32-.44.27.08-.12,0-.09-.13-.08.07,0,.08-.06-.06-.13a.14.14,0,0,1-.07.08s0,0,0,0c-.18.05-.14.08-.06.09s0,0,0,.06c-.2-.12-.5.08-.56-.09a2.51,2.51,0,0,0-1.19.91c-.1,0-.07-.17,0-.3a1.73,1.73,0,0,0-.26.28c-.1-.1.1-.21.18-.31a.77.77,0,0,0-.49.53,2.55,2.55,0,0,1-.32.69l.07.13,0,0c.05,0,.1.14.11.21s-.26-.06-.3.18,0,.51.09.72c0-.12.08-.08.13,0s-.11.16-.06.24H63c.15,0,.18.25.25.28-.11.06-.12-.14-.2-.16,0,.38,0,.19.07.57.13.18.14-.05.29,0s.17.33.08.52l.14-.06a.6.6,0,0,1-.07.69,2.64,2.64,0,0,1,.07,1.34c0,.29.09.39.23.44a1.14,1.14,0,0,0,.67-.33,1.78,1.78,0,0,0,.32-.38,2.24,2.24,0,0,0,.33-1.81C65.13,151.74,64.94,151.33,64.87,150.85Z"/><path class="cls-1" d="M101,160.78q.38.28.72.6S101.52,161.18,101,160.78Z"/><path class="cls-1" d="M146.79,90.05l-.2,0Z"/><path class="cls-1" d="M127.92,168.24h0l-.21.08Z"/><path class="cls-1" d="M90.39,160.68a13.56,13.56,0,0,1,6.61.26,10.85,10.85,0,0,1,4.33,2.67,16,16,0,0,1,3,4.24,25,25,0,0,1,1.2,2.81c.09.26.18.52.27.8s.25.77.37,1.17A2.12,2.12,0,0,0,107,174a2.41,2.41,0,0,0,.72.12c.13,0,.23.05.38,0l.48-.25c.13.1.26,0,.39,0l.39-.12.43-.13.94-.29,17.16-5.06c2.57-.95,7.26-2.08,10.31-3.14l1.24-.23a32.28,32.28,0,0,1,3.39-1l-.06,0c1.57-.54,3.39-1,4.17-1.28l-.06.06,1.94-.57-.32.14c1.26-.4,2.54-.8,3.8-1.17l4.61-1.31c-.08-.45-.16-.88-.24-1.3l-.08.35c0-.3-.1-.6-.13-.88s0-.38-.05-.56,0-.61-.06-.9c0-.57,0-1.11,0-1.62a25.71,25.71,0,0,1,.22-2.78,13,13,0,0,1,2-5.39v.07a11.67,11.67,0,0,1,5.63-5.12l1.71-.66a14.58,14.58,0,0,1,1.84-.52,17.59,17.59,0,0,1,4.16-.74c-.76,0,.33.08.27.11a10.33,10.33,0,0,1,3.78.81c1,.42,1.63.85,1.74.74a6.8,6.8,0,0,1,1.21,1.14c.11.17.05.18.1.32a7.7,7.7,0,0,1,2.12,2.71c-.14-.21-.27-.43-.42-.64a19.21,19.21,0,0,1,1.92,4.37c0-.33,0-.65-.06-1a4.08,4.08,0,0,1,.31,1.58.89.89,0,0,0,0,.35c0,.26.14.66.29,1.4l.17-.16c.08.46.14.91.18,1.34.93-.16,2.15-.49,2.68-.59l1.95-.4c1.28-.27,2.58-.54,4.15-1,.89-.27,1.77-.56,2.67-.9.45-.17.9-.35,1.37-.58.12-.06.21-.1.38-.2a2.9,2.9,0,0,0,.49-.35,1.73,1.73,0,0,0,.56-1c.05-.22.07-.34.09-.45l.06-.36.11-.7.2-1.4c.11-.94.22-1.87.34-2.81.41-3.75.71-7.53.83-11.3.07-1.89.08-3.77,0-5.65,0-.94-.11-1.87-.23-2.82a13.44,13.44,0,0,0-.63-2.84c-.08-.24-.22-.48-.32-.72a3.63,3.63,0,0,0-.49-.7,8.13,8.13,0,0,0-1.11-1l-.59-.43-.6-.37a13.44,13.44,0,0,0-1.23-.67,37.92,37.92,0,0,0-5-2l-.55-.32c-.2-.31-3.77-.66-4.25-.94l-1.59-.22c-.66-.17-.73-.22-.52-.23l-.18,0-.61-1.22-.48-1.5c-1.06-2.69-2.13-5.15-3.21-7.64s-2.18-5.06-3.39-7.88A24.53,24.53,0,0,0,170.72,88c-.4-.48-.83-1-1.28-1.43l-.69-.71-.61-.58a1.35,1.35,0,0,0-.32-.27l-.42.06-4.24.67-14.55,2.44c-5.49,1-11.47,1.77-17.49,2.56l-9,1.22-4.41.67-1.08.18-.73.12-.47.08a1.42,1.42,0,0,0-.22,0l-.13.2-.46.81-.26.49-.5,1a6.94,6.94,0,0,0-.37.73,2.09,2.09,0,0,0-.19.49c-1.61,3.13-3.08,6.31-4.41,9.57,0,0-1.2,3-2.66,6.84s-3.18,8.73-4.43,12.46-2,6.35-1.57,5.81,2.11-4.26,5.87-13.13l0,.26c2.11-5.32,3.41-8.67,4.67-12.39.49-.46,1.88-4.28,2.55-5.44l0,.13a36.51,36.51,0,0,1,2.35-4.73l.67-1.13.13-.2.23,0c.85-.12,1.71-.27,2.53-.44a2.78,2.78,0,0,1-1,.25,49.25,49.25,0,0,1,5.93-.84c5.78-.92,13.87-2.08,17.54-2.91l-.24.09c2.08-.5,2.73-.45,5.08-.9h.27c2.28-.52,6.72-1,8.57-1.41l.13.09,4.59-.72-1.72.24c.55-.4,3.5-.34,6.79-1,.39-.06.78-.12,1.17-.2l.58-.12.33-.08a8,8,0,0,1,1.57,1.25A17,17,0,0,1,172,91.7c1,1.21-.93-1,.42.86-.1.15-.67-.84-.46-.28a11.67,11.67,0,0,1,1.4,2.64c.36.92.74,1.94,1.33,3.21l-.07.16c1.63,3.31,2.52,6.47,3.66,8.65a17.71,17.71,0,0,1,1.12,3,9.15,9.15,0,0,0,.38,1.1c.09.23.2.5.35.82l.68,1.5.06.16,1.13.27.68.21a28.24,28.24,0,0,1,3,.53c-.13.07,2.24.66,1.17.49a63.9,63.9,0,0,1,6.09,2,13.42,13.42,0,0,1,2.89,1.67l.56.57a1.92,1.92,0,0,1,.34.6,6.54,6.54,0,0,1,.41,1.74c.46,1.06.48,3.84.62,4.73,0,.14-.09,5.57-.21,2.44a2.89,2.89,0,0,1,0-.71l-.12-.37c-.26,3.13-.06,5.73-.37,8.85.13-.92.21-2.15.23-1.32l-.27,2.9-.05-.62c-.15,1.44-.33,2.88-.52,4.31l.2-.58a51.18,51.18,0,0,0-.8,5.19c-.07,1.08.48-1.93.17.26,0,.17-.07.34-.1.52a.69.69,0,0,1-.07.19.39.39,0,0,1-.16.1l-.47.21c-.73.31-1.6.58-2.48.86-1.77.53-3.67,1-5.42,1.51.36,0-.58.31-1.54.6l-.15-.09-.53.17-.14,0c-.06,0-.12,0-.13,0a.6.6,0,0,1,.09-.25.14.14,0,0,0,0-.06s0,0,0,0l0-.26a12.2,12.2,0,0,0-.43-1.54l.18.32c-.18-.32-.36-.64-.56-1-.7-1.67-.9-2.12-1.08-2.64a8.35,8.35,0,0,0-1.7-2.7c.48.66.52.85.32.68s-.63-.74-1.28-1.5l.43.31a16.66,16.66,0,0,0-1.6-1.55c.54.4.43.05-.94-.92.33.18.68.35,1,.56a11.56,11.56,0,0,0-2.8-1.48,10.14,10.14,0,0,0-4-1c-1.37-.05-2.55.1-3,.1,0,0-.32,0-.8.13l-1.79.46-1,.28a9.17,9.17,0,0,0-.94.39,12.12,12.12,0,0,0-1.31.65c.45-.25,0-.12-.43,0s-.89.42-.58.15c-.27.2-.68.48-1.16.81a8,8,0,0,0-.75.53l-.75.67a26.63,26.63,0,0,0-2.47,2.52c.05-.09.12-.16.17-.24a15.13,15.13,0,0,0-3,7.13,26.28,26.28,0,0,0-.3,3.54c0,.59,0,1.19.05,1.8s.11,1.47.08,1.33.08.06.11.14-.13.07-.18.11-.2.11,0,.12c-4.75,1.55-8.92,2.16-10.5,3.21-2.2.66-2.65.61-3.8.91l.52-.18c-4.11,1.23-5.31,1.58-8.38,2.45a38.67,38.67,0,0,1-4.44,1.54c.86-.36-.26,0-1.28.28.65-.21.84-.3-.53,0-.18.08-.46.19-.73.28,0,0-.07,0,0,0-1.7.53-1.39.47-.59.26,0,0,0,0,.29,0-1.82.38-5,1.44-5.22,1.33-2.18.65-4.09,1.24-5.89,1.82L108.54,172a4,4,0,0,1-.56.18,4.79,4.79,0,0,1-.21-.57c0-.18.06-.1.15,0s.09.19.15.3.27-.1.42-.12l-.37.13a1.23,1.23,0,0,1-.15-.35l-.41-1.23a2.82,2.82,0,0,1,.41.95c0,.12.08.25.12.38s0,.14.08.15l.17-.06c-.24.15-.22-.23-.27-.37l0-.14-.1-.33-.24-.71a23.56,23.56,0,0,0-1.21-2.81,22.5,22.5,0,0,0-3.8-5.36c-.26-.2-.52-.39-.79-.56l-.21-.19c0,.05-.89-.53-1.49-.85-.25-.21-.21-.26-.36-.4a4.76,4.76,0,0,0-1.57-.8,10.26,10.26,0,0,0-3.5-.77,15.83,15.83,0,0,0-3.93.31c1.24-.17.85,0,.32.07a17.26,17.26,0,0,0-2.6.44l-.14-.12c.23,0-.47.26-1.27.55L86,160.3l-.67.38c-.32.09.06-.13.56-.39a13.71,13.71,0,0,0,1.24-.6A14.28,14.28,0,0,0,84,161.21a8.12,8.12,0,0,0-.88.61,7.25,7.25,0,0,0-.74.6,11.44,11.44,0,0,0-1,1c-1.5,1.94.38-.26-.26.73A17.89,17.89,0,0,0,78.18,170c.11-.23.22-.46.35-.68a26.53,26.53,0,0,0-.92,4.82c-.15,1.39-.24,2.63-.31,3.94q0,.78.06,1.5c0,.47.08.89-.11,1.17a3.8,3.8,0,0,1-1.7,1.14,11.86,11.86,0,0,1-1.83.52c-1.17.25-2.2.38-3.07.5-1.76.24-2.93.41-3.63.57-1.43.32-1.06.43,0,.44s3,0,4.61-.09a23.85,23.85,0,0,0,3.06-.34,9.65,9.65,0,0,0,1.88-.53,5.37,5.37,0,0,0,.95-.49l.47-.37.52-.57a4.23,4.23,0,0,0,.29-.8,1.93,1.93,0,0,0,.06-.41l0-.27c0-.3,0-.6,0-.9,0-.55,0-1.09,0-1.63,0-1.05.06-2.06.16-3a21.73,21.73,0,0,1,1.2-5.63,12.48,12.48,0,0,1,3.34-5,12.18,12.18,0,0,1,2.9-1.92A17.12,17.12,0,0,1,90.39,160.68Z"/><path class="cls-1" d="M49.83,186.09l.05,0S49.83,186.07,49.83,186.09Z"/><path class="cls-1" d="M49.43,178.91h0Z"/><polygon class="cls-1" points="51.8 184.99 51.8 184.99 51.82 185 51.8 184.99"/><path class="cls-1" d="M51.62,186.5c.08-.39.35-.49.25-.91a2.09,2.09,0,0,0-.07-.6c-.21-.09,0-.25-.18-.36l.12,0c-.06,0-.1-.08,0-.12h0c-.09-.06,0-.12-.08-.15h0l0-.06h0a.26.26,0,0,1-.06-.29h-.14c.15-.19-.15-.25,0-.42h0c-.39-.2.25-.35-.13-.55.05,0,.08,0,.11,0s-.07-.2-.35-.19c0-.08.09-.07.19-.08-.12,0-.18-.06-.19-.11l.05,0-.05-.16-.23,0c.06-.09.28,0,.22-.11H51c0-.13.32-.21.46-.34,0-.49-.48-1-.18-1.45l.15,0c.21,0-.33-.09-.14-.13l-.1,0s.08-.05.13,0,0-.05-.1-.08l.12-.06c.09-.2-.18-.34-.15-.55.24-.27-.06-.7-.24-.94-.37-.32.42-.87,0-1.19,0,0,0,0-.06,0l0-.35a1.19,1.19,0,0,0-.29-.64c-.25-.22-.68-.23-1.45.53h0c-.08.2-.09.32.16.4-.28.07,0,.16-.09.21h0c.24.08-.15.26.07.33,0,0-.11,0-.11,0s.12.17,0,.2c.07.18,0,.44.31.53h-.05c.19,0,0,.08.14.14l0,0c.19.05.06.21.14.26l-.11,0,0,.14,0-.06c.31,0-.18.14,0,.22,0,.11.66.13.52.25.15,0-.24,0-.12,0-.16,0-.1,0-.22,0,.08.06-.15.14,0,.21l-.12,0c.24.1-.14.24.08.3s-.36.11-.1.21l-.16.07c0,.06.21,0,.13.09s-.08.08-.18.05c-.15.15.26.26,0,.46.21,0,.1.12.25.14-.09,0,0,.18-.2.09,0,0,0,0,0,0h-.12c-.22.12.14.18.11.28s0-.07.11-.05v.09h-.1l0,.14.12,0c-.06.07-.27.11-.09.17s.17-.07.21,0a1.16,1.16,0,0,0-.23.36c.14,0,.14,0,.17,0h-.13c.18.11-.27.06-.12.17h-.09l.26,0c.25.1-.25.07.09.18,0-.05.27,0,.22,0h-.12s.08,0,0,.06-.17,0-.15,0l-.15,0,.22.08c-.12.08,0,.18-.12.22a.12.12,0,0,0,.1.18c-.11,0-.15.06-.29,0,.13,0,.24.15.11.2h0c-.14.18.2.29,0,.45.15,0,.07.07.25.05.19.16-.37.3.2.35,0,.07-.13.09-.16.13l0,0a.5.5,0,0,1,0,.28c.06,0,.32.06.26.15s-.09,0-.09,0-.05,0-.12,0a.08.08,0,0,1,.06,0h0c0,.06.07.05.08,0s0,0,.07,0c-.14.06,0,.17-.17.18,0,.17.22.29.29.44a.23.23,0,0,1-.21-.07l0,.11c-.13,0-.07-.06-.1-.09-.22.11.21.25,0,.39l.1,0h0a.24.24,0,0,1,.15.05c-.11,0-.27,0-.26.06s0,.16.11.24.09,0,.13,0-.12.05-.07.08h-.16c.15,0,.16.1.22.11-.11,0-.09-.06-.18-.07v.21c.12.08.15,0,.29,0s.13.13,0,.21l.14,0c.1.13.08.2-.07.28,1.09,1,1.55.29,1.55.29C52.11,187.17,51.71,187,51.62,186.5Z"/><path class="cls-1" d="M73.86,123l.39.14S74.15,123.05,73.86,123Z"/><path class="cls-1" d="M65.75,88.69v0A.13.13,0,0,0,65.75,88.69Z"/><path class="cls-1" d="M89.18,128.23h0Z"/><path class="cls-1" d="M68.57,123.72c5.41,1.21,6.8,1.76,12.44,2.83l8.15,1.68c1.28.07,3.42.77,4.92.94l.53.26a8,8,0,0,1,.81.13l.21,0,.34.09c.24.06.48.13.71.21l-.05,0,1,.21.13,0s0-.08,0-.11l.09-.25c.06-.17.12-.33.17-.49l.31-.85c0-.12.09-.24.13-.35l0-.17,0,0,.31-.89v.17a38,38,0,0,1,1.33-3.74l-.17,0c1.06-2.4,1.12-3.41,2.12-5.56l0,0c.69-2.94,1.89-4.34,2.63-7.36-.09.38.12-.13.15-.09.45-1.34,1-2.77.7-2.89.36-1,.38-.76.53-.85-.12,0,.14-.89.42-1.65l-.09.36.77-2.18-.38.34c.49-1.13.38-.19.73-1.31l-.18-.06c.62-1.57,1.25-2.4,2-3.89l1.27-3.39-3.43-.64L105,94.06l-4.56-.77c-3-.52-6-1.08-8.68-1.75l-.25-.2c-.08-.23-1.78,0-2-.26l-.74,0c-.2-.08-.62-.2-.25-.18a5.84,5.84,0,0,0-1.19-.13l-.7-.27c-2.62-.61-4.92-.79-7.7-1.37-1.65-.46-4.06-.92-6.52-1.34L65,86.55h0L64,89c-.27.61-.56,1.23-.86,1.85-.59,1.25-1.23,2.5-1.88,3.76a77.92,77.92,0,0,0-3.5,7.54,1.58,1.58,0,0,0-.19.59l-2,4.42s-9.84,21.46-.8,5.87v.13a34.13,34.13,0,0,0,2.47-5.67c.38-.15.93-2,1.28-2.51V105c.47-1.57,1.56-3,2-4.48,0,.07.06.13-.09.46a10.46,10.46,0,0,1,1.22-2.51c1.08-2.5,2.73-5.93,3.21-7.63V91a20.26,20.26,0,0,1,.89-2.23s0,0,.06,0a1.83,1.83,0,0,1,.13-.48l.43.07.73.15c.54.11,1,.2,1.36.24l0,.12,2.12.38L69.78,89c.33-.24,1.56.5,3.14.6,1.43.31,3-.07,4.51.37.74,0-.67.11.41.2,0,.16-.51,0-.26.18,1.06.13,1.68.49,3,.63l0,.13c1.73.1,3.15.77,4.31.77,1.76.24,1.1.59,3,.7l.67.3c.77.17.59-.1,1.44.14-.08.1,1.06.29.54.3,1.91.53,4,.52,6.49,1.29.6-.1,1.86.27,2.31.19,0,.1,2.57.51,1.09.43-.13,0-.34-.06-.32-.09l-.2.09a30.66,30.66,0,0,0,4.11.69c-.42-.12-1-.22-.59-.23l1.34.28-.3,0,2,.44-.25-.17c.48.12.8.26,1.14.36l.25.07h0s.07,0,.16,0-.13-.19.23-.17l.12.06-.19.31-.08.13-.23.53c-.31.72-.63,1.47-.91,2.18.19-.1,0,.32-.11.78h-.14c-.46,1.75-.48.53-1,2.25l0-.18.07.54c-.33,1.6-.54.72-.85,2.52.23-.67.37-.22,0,.58l0-.25a5.81,5.81,0,0,1-.29.93c0-.29-.11-.21-.33.47l0-.5-.26,1.33c-.48.93-.9,2.53-1.21,2.87a15.34,15.34,0,0,0-.86,2.6c0-.46-.42.68-.43.3a10.4,10.4,0,0,1-.94,2.82l0-.13c-1,2.32-1.32,4.12-2.27,6.18.17,0-.32,1.05,0,.84a24,24,0,0,1-1.14,2.91c-.43,1.05-.35.83-.26,1.4-.49,0-.47-.24-1.06-.4l.25,0c-2-.43-2.53-.55-4-.9a8.68,8.68,0,0,1-2.2-.23c.45,0-.09-.11-.57-.22.31,0,.41,0-.21-.17a2.38,2.38,0,0,1-.37,0s0,0,0,0c-.82-.14-.69-.08-.32,0,0,0,0,0,.12.09a21.23,21.23,0,0,1-2.41-.7c-2.45-.49-4.24-.67-6.28-1-.21-.13.28-.12.88,0l-1.45-.27c0-.12.84.1,1.29.17-1.67-.57-3.58-.53-5.55-1.14l-.44,0-.12,0c0,.06-.47,0-.77,0s.07-.26-.92-.46a22.49,22.49,0,0,0-3.3-.57c.56.14.36.17.12.16-.5-.1-.77-.28-1.16-.31l0-.16c.17.18-1.33-.12-1.53-.1-.26-.17.8.07.94,0l-3-.61c-1.09-.11.16.18-.37.21a21.85,21.85,0,0,1-2.94-.59l.31.21a20.69,20.69,0,0,1-4-.93c-6.67-.94-7.45-.82-6.57-.32a28.14,28.14,0,0,0,3.46,1.2C59.61,122.36,62.38,122.53,68.57,123.72Z"/><path class="cls-1" d="M111.8,124.2l.12.06S111.89,124.21,111.8,124.2Z"/><path class="cls-1" d="M114.59,135h0Z"/><path class="cls-1" d="M116.64,126.46h0l0,0Z"/><path class="cls-1" d="M110.38,126a6,6,0,0,1,1.69.17,10.09,10.09,0,0,0,2,.17c.85.08,1.75.07,2.58.09.4-.18,1.08.07,1.56-.08l.17.13a.69.69,0,0,1,.51,0v0c.24-.08.51,0,.63,0v0h.29l-.06,0a3.6,3.6,0,0,1,1.23,0l0-.15c.8.22,1.11-.07,1.83.17v0a1.78,1.78,0,0,1,1.15,0c.2.11.12.13.38.12-.06,0-.06.06-.09.08a.74.74,0,0,0,.39.25c0,.32-.08.26-.19.3.13,0,.18.27.19.51l0-.11,0,.7.23-.13c-.07.37-.28.09-.23.45h.2c0,.51-.36.81-.52,1.3-.09,1-.07,2.1-.12,3.15,0,.27,0,.53-.06.72a.69.69,0,0,1-.13.35.4.4,0,0,1-.28.14,3,3,0,0,1-.6,0l-.09-.14c0-.2-.47.37-.56.17l-.2.1c-.07,0-.19-.07-.09-.12a.53.53,0,0,0-.34.09l-.21-.13c-.76-.12-1.45.08-2.27-.1a22.77,22.77,0,0,0-4-.83,6.39,6.39,0,0,1-2.35-.84,19.49,19.49,0,0,0-2-1.07s-.16-.06-.17,0a3.87,3.87,0,0,1-.84-.88,4,4,0,0,1-.41-.72,3.9,3.9,0,0,1-.35-1.39c0-.42,0-.77-.25-.82a.8.8,0,0,0-.6.34,2.84,2.84,0,0,0-.6,1.71l-.06,0a2.5,2.5,0,0,0,1,2c-.18.27.49.63.59.83h0c.56.21.83.88,1.41,1a.14.14,0,0,1-.18,0c.36.17.86.32.82.49a6.65,6.65,0,0,0,2.59.67l0,0c.34-.08.39.09.74.1,0,0,0,.05,0,.06.37-.08,1,.25,1.24.24v.12l.66.15-.24-.09c.16-.27.45.32,1,.24.45.14,1-.42,1.48-.19.25-.1-.23.2.12.15,0,.15-.17.07-.11.21.34,0,.52.25,1,.2v.13c.56-.16,1,.27,1.4.06.58-.08.38.39,1,.14l.24.16c.26,0,.17-.21.47-.14,0,.11.37,0,.21.16a2.27,2.27,0,0,0,1.11-.18,3.49,3.49,0,0,0,1.53-1.05,3.11,3.11,0,0,1,.12-.64.68.68,0,0,0,0-.45c.11,0,.13-.86.27-.36,0,0,0,.11,0,.1l.11.08c.29-.46,0-.87.06-1.33,0,.13-.06.31-.13.18l.06-.43.09.1.12-.63-.13.08c.09-.31.31-.41.15-.78-.09-.16-.19.29-.2,0a11.8,11.8,0,0,0,.33-1.58c-.15.05-.14-.1-.17-.25h.13c-.16-.57.28-.2.15-.78l.08.06-.26-.16c-.24-.51.26-.27-.08-.84,0,.23-.27.11-.22-.16l.12.06c0-.15-.08-.2-.06-.3.07.09.18,0,.15-.18l.15.15c-.07-.1-.15-.38-.25-.59a1.44,1.44,0,0,0-.26-.88c-.17-.26-.38-.42-.41-.56a1.84,1.84,0,0,0-.55-.31c-.31-.12-.75-.15-.82-.06.18-.1-.28-.19-.13-.31a1.19,1.19,0,0,1-1,0h0c-.77-.19-1.35.11-2-.11,0,.15-.34.05-.26.24-.73.13-1.29-.46-1.59.09-.33,0-.38-.16-.55-.2l.08,0a9.32,9.32,0,0,1-1.25,0c-.24,0-.29.3-.69.21.14-.09,0-.08-.19-.09.1,0,.14-.05-.06-.13a.45.45,0,0,1-.12.06s0,0,0,0c-.26,0-.22.06-.1.08s0,0,0,.07c-.26-.15-.74,0-.76-.22-.78,0-1.34.14-2,.17-.07-.09.09-.17.28-.19h-.46c0-.13.27-.06.41-.07-.53-.25-1.13.14-1.75-.1l-.14.1,0,0c0,.06-.14.12-.24.14s0-.27-.32-.28a2,2,0,0,0-1.14.18c.2,0,.14.07.06.12s-.29-.07-.42,0l0-.15c.1.12-.44.28-.48.38-.15-.07.24-.2.27-.29a3.76,3.76,0,0,0-.56.22,2.83,2.83,0,0,0-.54.37c-.26.41.16.06.1.3a3.76,3.76,0,0,0-.49,1l.16-.1a3.74,3.74,0,0,1-.07,1.32,1.83,1.83,0,0,1,.07,1.23,1.51,1.51,0,0,1-.46.68c-.26.25-.12.41,0,.48a1.36,1.36,0,0,0,1.16-.36,2.11,2.11,0,0,0,.53-.68,2.52,2.52,0,0,0,.31-1,4.12,4.12,0,0,0,0-.68,4.77,4.77,0,0,0-.07-.62c0-.06-.07-.1,0-.2A1,1,0,0,1,110.38,126Z"/><path class="cls-1" d="M112.62,112.09l.14-.23S112.69,111.91,112.62,112.09Z"/><path class="cls-1" d="M144.48,120.51v.06A.15.15,0,0,0,144.48,120.51Z"/><path class="cls-1" d="M118.25,103.37h0v.07Z"/><path class="cls-1" d="M113.4,115.67c1.07-3.31,1.62-4.09,2.81-7.48.67-1.58,1.33-3.29,2-4.81.15-.81,1-2,1.25-2.89l.28-.27a3,3,0,0,1,.45-.93l0,0a3.41,3.41,0,0,1,.3-.67l.07-.13,0,0s0,0,0,0l0,0,0,0,0,0v0c-.12,0,.54-.17.9-.25s.83-.14,1.22-.19l-.09-.13c1.67-.13,2.22-.53,3.73-.61v0c1.8-.71,3-.27,4.87-1-.23.09.11.05.1.09.88-.2,1.83-.39,1.79-.67.65-.11.54,0,.65.09,0-.12.53-.28,1-.37l-.22.09,1.44-.3-.33-.18c.78-.07.25.24,1,.06l0-.19a23.8,23.8,0,0,1,2.8,0l1.62-.28.27,0,.11,0,.24-.06c.07,0,0,.12.06.19l0,.27c0,.55.09,1.1.14,1.65a54,54,0,0,1,.25,6.4l-.14.18c-.21.09.37,1.1.17,1.26l.12.47c0,.13-.06.41-.12.18a2.15,2.15,0,0,0,.13.75l-.12.47c0,1.72.29,3.16.3,5a77.79,77.79,0,0,0,.3,8.56,12.91,12.91,0,0,1,0,1.64,1.67,1.67,0,0,1-.06.39.36.36,0,0,1,0,.09.41.41,0,0,1-.11,0h-.47l-.45,0-.9.09c-.6.06-1.19.12-1.78.2a20.5,20.5,0,0,0-3.42.69.74.74,0,0,0-.38.13l-3,.56s-3.69.69-5.93,1.35-3.05,1.23,2.72,1l-.07.06a14.21,14.21,0,0,0,3.84-.84c.23.24,1.37-.24,1.78-.22l0,0c1-.41,2.13-.22,3.07-.6a.36.36,0,0,1-.27.16c.71-.17,1.67-.41,1.76-.26l4-.76a1.46,1.46,0,0,0,1-.42,1.65,1.65,0,0,0,.2-.87l0,.13c0-1.09.07-1.15,0-1.89,0,0,0-.09,0-.08-.16-.71,0-2-.1-2.6l.11,0-.05-1.38V117c-.31-.17.17-1-.05-2,0-.93-.69-1.87-.57-2.84-.16-.46.24.4.11-.29.16,0,.11.32.23.14-.1-.68.13-1.12,0-2l.12,0c-.26-1.08.09-2.07-.16-2.78-.15-1.12.34-.77,0-1.93l.15-.47c0-.5-.22-.35-.16-.9.1,0,.05-.71.17-.39.1-1.26-.36-2.54-.16-4.21-.22-.35-.14-1.19-.31-1.45.09,0-.07-1.67.17-.74,0,.08,0,.22,0,.21l.13.11a3.47,3.47,0,0,0,0-1.33l-.12-.64c0-.12,0-.23-.05-.33s0-.18,0-.42c0,.18,0,.35,0,.47s0,.13-.07,0L143.75,94l.12.28,0-1.18,0-.6c0-.17.08-.52-.19-.39l.1,0s0,.14,0,.2c.06-.21-.14-.1-.23-.12l-.3,0-.57,0a6,6,0,0,0-1.47.31c-.52.19,1,0-.07.22-.85.06-2.12.16-3.19.31.12.12-.16.17-.45.25l-.06-.12c-1.1.37-.46-.19-1.56.14l.09-.1-.25.31c-1,.42-.59-.16-1.66.37.44-.1.26.23-.3.28l.12-.14a3.46,3.46,0,0,1-.6.15c.17-.09.07-.19-.37-.09l.27-.2-.8.37a18.28,18.28,0,0,1-2,.21,6.07,6.07,0,0,0-1.7.41c.26-.17-.52-.07-.32-.25a4.33,4.33,0,0,1-1.84.43l.08,0c-1.61.14-2.67.67-4.12.76.09.13-.67.18-.46.33a16.66,16.66,0,0,1-2.61.4,7.17,7.17,0,0,0-.49.94.76.76,0,0,0,0,.53,5,5,0,0,1-.7.94l.05-.16c-.56,1.16-.74,1.49-1.17,2.34-.16.45,0,.63-.39,1.37,0-.29-.11,0-.24.32.07-.19.06-.27-.18.08a1.09,1.09,0,0,1,0,.24s0,0,0,0c-.19.5-.12.43,0,.21,0,0,0,0,.09,0-.36.44-.62,1.41-.81,1.4-.61,1.48-.87,2.61-1.28,3.87-.14.11-.11-.21,0-.59l-.31.9c-.13-.06.12-.54.2-.82-.61,1-.62,2.24-1.23,3.42v.3l0,.07c.06,0,0,.31,0,.5s-.25-.09-.44.53a8.32,8.32,0,0,0-.52,2.08c.12-.34.15-.21.15,0-.09.32-.26.47-.28.72h-.16c.17-.09-.07.86,0,1-.16.14,0-.52,0-.62l-.48,1.9c0,.71.18-.09.23.27a11.75,11.75,0,0,1-.4,1.88l.19-.19a10.24,10.24,0,0,1-.59,2.55c0,.54,0,1-.06,1.45,0,.21,0,.41,0,.61s0,.44-.15.49a2.75,2.75,0,0,1-1.5.45c-.41,0-.5,0-.57.1s0,.16.14.27a2.16,2.16,0,0,0,1,.34,3,3,0,0,0,1.34-.16,5.31,5.31,0,0,0,.58-.25l.2-.45a1.6,1.6,0,0,0,.16-.46l.22-.93c0-.19.09-.38.13-.56.09-.36.17-.7.24-1,.13-.68.25-1.31.36-2A47.19,47.19,0,0,1,113.4,115.67Z"/><path class="cls-1" d="M147.61,106.71l0-.27S147.61,106.52,147.61,106.71Z"/><path class="cls-1" d="M169.51,116.63l-.06,0Z"/><path class="cls-1" d="M149.81,96.35v0Z"/><path class="cls-1" d="M149.42,110c.05-3.58.32-4.53.27-8.23,0-1.76.08-3.64.12-5.36-.17-.83.14-2.25.06-3.22a1.26,1.26,0,0,1,.07-.16.07.07,0,0,1,.06,0s-.1-.23,0-.16l0,0s.05-.07.09-.07l.21,0,.23,0v0l.6-.1-.1.07a16.13,16.13,0,0,1,2.54-.41l-.08-.13c1.7-.07,2.28-.45,3.83-.46l0,0c1.87-.63,3.07-.15,5-.77-.25.07.11.06.1.09.9-.16,1.87-.31,1.85-.6.67-.08.55,0,.65.11,0-.12.56-.25,1.07-.33l-.23.08.74-.12.52-.09a1,1,0,0,0-.15-.22c.49,0,.07.28.46.18l.13-.22h0a3.17,3.17,0,0,1,.1.48,1.41,1.41,0,0,1,0,.2c0,.1,0,.21,0,.32.06.44.1.88.22,1.4,1.44,4.19,3.54,8.49,4.63,12.48l-.08.22c-.17.15.69,1,.56,1.18l.25.41c0,.14.07.43-.05.22a2.21,2.21,0,0,0,.35.69l0,.49c.51,1.68,1.26,3,1.84,4.74,0,.14,0,.17,0,.2V113l0,.19-.21,0-.44.12-1.83.56L169.7,115c-3.16,1.19-7.17,1.4-10.4,2.66a.67.67,0,0,0-.37.17l-3.06.8s-14.79,3.94-3.1,2.6l-.06.06a14.68,14.68,0,0,0,3.84-1.14c.26.23,1.38-.35,1.79-.36l0,0c1-.49,2.14-.39,3.07-.85,0,0,0,.11-.25.18.7-.23,1.66-.56,1.76-.41a38.47,38.47,0,0,0,5.12-1.64l-.07.07a8.28,8.28,0,0,1,1.48-.53l.09,0a24.4,24.4,0,0,1,2.5-.79l.06.1,1.35-.39-.51.11c.09-.34,1.07-.09,2-.55a2.3,2.3,0,0,0,.5-.18l.63-.31c.43-.22.75-.44,1.08-.59a3.46,3.46,0,0,1-.33-.84c-.35-.54.43.51,0-.32.16,0,.26.41.31.19a5.54,5.54,0,0,1-.36-1.12,3.82,3.82,0,0,0-.35-1l.11-.08c-.6-1-.57-2-1-2.65-.49-1,.09-.85-.55-1.88v-.5c-.15-.49-.32-.27-.44-.83.11,0-.17-.7,0-.43-.28-1.26-1.11-2.36-1.43-4-.32-.28-.49-1.12-.73-1.32.07-.07-.57-1.61-.06-.78,0,.08.09.21.05.21l.16.07a12.71,12.71,0,0,0-1-2.51c.06.28.2.63,0,.42l-.29-.83.16.13-.4-1.26,0,.22c-.16-.63,0-.92-.46-1.54-.21-.27.05.63-.22,0-.22-.84-.54-2.1-.88-3.15-.05.07-.1,0-.15,0a4.79,4.79,0,0,1-.22-.47l.09-.12a3.48,3.48,0,0,1-.48-1.66,5.1,5.1,0,0,0-1.29.15l.21-.11c-.22.11-.42.23-.6.34l-.48.13-.22,0a1.06,1.06,0,0,1-.27,0c-.16,0-.34-.05-.89.19.45-.08.25.24-.32.27l.13-.14a2.75,2.75,0,0,1-.62.13c.18-.09.08-.18-.38-.1l.29-.19-.83.33a18.38,18.38,0,0,1-2,.14,6.25,6.25,0,0,0-1.75.34c.28-.16-.52-.09-.31-.26a4.77,4.77,0,0,1-1.9.36l.08,0c-1.64.08-2.75.57-4.23.59.09.14-.69.16-.48.32a9.68,9.68,0,0,1-2,.22,3.79,3.79,0,0,0-.75.1c-.08,0-.27.08-.41.14a.93.93,0,0,0-.31.21l-.64.08h-.26s-.09,0-.11,0l0,.09a3.49,3.49,0,0,0-.18.66v-.28c-.13,1.54-.16,2-.26,3.11,0,.49.28.58.17,1.45-.09-.29-.09.06-.11.39,0-.21,0-.28-.13.15a.78.78,0,0,1,0,.24s0,0,0,0c0,.54,0,.45.07.2,0,0,0,0,.07-.08-.16.55-.06,1.56-.24,1.62,0,1.62.15,2.79.2,4.14-.1.15-.18-.17-.2-.56v1c-.13,0-.06-.55-.09-.85-.23,1.14.19,2.35,0,3.69l.1.27,0,.08c.06,0,.14.3.15.5s-.26,0-.26.65a9.18,9.18,0,0,0,.13,2.16c0-.36.09-.25.13-.09a4.57,4.57,0,0,0-.06.78l-.16,0c.15-.13.17.86.24,1-.12.19-.11-.51-.2-.59,0,1.33,0,.66.05,2,.13.7.14-.13.29.2a10.32,10.32,0,0,1,.07,2l.14-.23a9.32,9.32,0,0,1,0,2.66,39.84,39.84,0,0,0,.72,4,.77.77,0,0,1,0,.35s0,0-.14.21a.6.6,0,0,1-.39.15l0,0-.06,0c-.08,0-.12.08-.13.12s.06.15.21.22a.92.92,0,0,0,.73-.28,1.17,1.17,0,0,0,.2-.28c0-.06,0-.13.08-.2l.05-.15.06-.21.09-.4c0-.26.09-.54.12-.8.05-.52.08-1,.08-1C150,115.8,149.56,114,149.42,110Z"/><path class="cls-1" d="M79.69,178.74l0,.22S79.71,178.89,79.69,178.74Z"/><path class="cls-1" d="M92,162.31l-.06,0Z"/><path class="cls-1" d="M83.34,187.26h0l-.06,0Z"/><path class="cls-1" d="M78.17,175.74a13.58,13.58,0,0,0-.42,2.23,7.32,7.32,0,0,0,.16,1.92,9,9,0,0,0,1.87,3.73,19.73,19.73,0,0,0,3.55,3.63,9.33,9.33,0,0,1,1.21.84c.24.17.48.35.72.5a4.61,4.61,0,0,0,.73.33,3.7,3.7,0,0,0,.28.28,3.5,3.5,0,0,1,1,.38l0,0c.5.06,1,.3,1.26.29l0,0,.58.11-.11,0c.86.09,1.73.14,2.5.19l-.06-.14a6,6,0,0,0,1.9-.12c.53-.09,1-.24,1.75-.33v0a19.91,19.91,0,0,1,2.24-.89,5.06,5.06,0,0,0,1-.47,4,4,0,0,0,1-.81c-.17.18.12,0,.13,0,.7-.55,1.37-1.23,1.16-1.45.45-.43.43-.29.57-.28-.09-.08.23-.53.54-.9l-.11.2a13.16,13.16,0,0,0,.82-1.14l-.35.09c.47-.56.34,0,.68-.62l-.17-.09c.57-.84,1.1-1.23,1.64-2.1a16.47,16.47,0,0,0,1.31-6.16,28.71,28.71,0,0,0-.08-3.09c-.06-.51-.07-1-.18-1.55s-.24-1-.38-1.49l.07-.22c.17-.16-.73-.85-.62-1.05l-.3-.35c0-.13-.11-.38,0-.21a1.9,1.9,0,0,0-.43-.58l-.11-.44a17.74,17.74,0,0,0-3-3.74,4.37,4.37,0,0,0-1.7-1.25,6.42,6.42,0,0,0-2.39-.38c-.74,0-1.42,0-2.06,0s-1.36,0-1.91,0a18.92,18.92,0,0,0-5,.8,8.92,8.92,0,0,0-4.25,2.86.65.65,0,0,0-.22.32A17.48,17.48,0,0,0,81.22,167l-.32.5c-.21.3-.46.75-.74,1.26a18.72,18.72,0,0,0-1.38,3.39c-.29,1.05-.36,1.81-.07,1.71s.88-1.08,2.34-3.17l0,.08a21.83,21.83,0,0,0,1.63-3c.33,0,.73-1,1-1.16v0c.4-.85,1.36-1.21,1.87-1.89a.28.28,0,0,1-.12.23c.22-.21.49-.45.72-.63s.44-.25.51-.2a9.73,9.73,0,0,1,2.08-1.08c.74-.27,1.44-.45,1.89-.65l-.06,0c.51-.24.68-.1,1.29-.21l.07,0a8.79,8.79,0,0,1,2.24,0l0,.11,1.28.06-.47-.05c.17-.29,1,.23,1.83.07a6.18,6.18,0,0,0,1.2-.09,1.44,1.44,0,0,1,1.16.34c.4.12-.41,0,.12.25-.09.13-.27-.08-.23.11.48.28.57.7,1.11,1.17l-.07.11c.78.59,1,1.52,1.47,1.93.62.79,0,.75.77,1.51l0,.43c.17.4.33.18.46.65-.1,0,.17.58,0,.37.14.51.38,1,.56,1.48a4.08,4.08,0,0,1,.15,1.84c.24.3.13,1,.28,1.26-.07,0-.08,1.44-.23.62,0-.07,0-.19,0-.18l-.12-.1c-.26.79.05,1.47-.11,2.26.08-.23.12-.54.17-.32l-.13.74-.08-.18c-.07.37-.19.72-.27,1.07l.15-.12c-.17.52-.45.64-.43,1.27,0,.29.32-.44.18.12-.3.67-.81,1.62-1.26,2.41.17,0,0,.2-.05.44l-.13,0c-.32.93-.41.16-.79,1l0-.12a2.41,2.41,0,0,1,.07.35c-.33.84-.45.23-.82,1.16.23-.3.32,0,0,.37v-.17a1.71,1.71,0,0,1-.32.41c.06-.16-.07-.18-.32.1l.07-.29a5.75,5.75,0,0,1-.36.65c-.49.28-1.11.9-1.39.89a6,6,0,0,0-1.22.78c.17-.2-.44,0-.32-.17a2.42,2.42,0,0,1-1.42.64l.06,0c-1.29.24-2.19.7-3.39.54.06.15-.57.05-.42.24-1.29.11-2.14-.67-2.72-.28-.56-.14-.58-.37-.84-.5l.14,0a6.28,6.28,0,0,1-1.86-1c-.35-.18-.58,0-1.1-.56.25.07,0-.11-.21-.29.15.1.21.11,0-.18a.55.55,0,0,1-.19-.09s0,0,0,0c-.37-.28-.34-.2-.19,0,0,0,0,0,0,.1-.28-.42-1-.92-.9-1.09a20.51,20.51,0,0,1-2.45-2.54c0-.16.22,0,.44.27a7,7,0,0,1-.46-.65c.11-.06.29.35.46.54-.33-.89-1.21-1.59-1.29-2.69a1.33,1.33,0,0,1-.14-.19V179s-.17-.21-.22-.37c.11-.16.27,0,.24-.52a3.26,3.26,0,0,0,.07-.77c0-.33,0-.69.06-1-.09.3-.13.19-.14.05s.2-.41.21-.64l.16,0c-.17.07,0-.76,0-.88.16-.12,0,.45,0,.55a15.22,15.22,0,0,1,.51-1.62c.11-.61-.18,0-.21-.28a6.06,6.06,0,0,1,.63-1.58l-.21.12A6.34,6.34,0,0,1,81.9,170c1.28-3.71.94-4.26.53-3.83a10.56,10.56,0,0,0-1.18,1.68,18.65,18.65,0,0,0-1.81,3.51A27.24,27.24,0,0,0,78.17,175.74Z"/><path class="cls-1" d="M85.76,177.71l0,.11S85.76,177.78,85.76,177.71Z"/><path class="cls-1" d="M92,169.19l0,0Z"/><path class="cls-1" d="M86.93,182.8h0Z"/><path class="cls-1" d="M84.14,176a9.25,9.25,0,0,0-.28,1.29,4.65,4.65,0,0,0,0,1.19,4.83,4.83,0,0,0,1,2.24,9.81,9.81,0,0,0,2,2.06,2.44,2.44,0,0,1,.69.45,2.15,2.15,0,0,0,.87.48l.13.21a1.12,1.12,0,0,1,.59.22l0,0c.31,0,.6.16.75.15l0,0,.35.06-.07,0c.51,0,1,.05,1.46.1l0-.15c1,.14,1.25-.22,2.1-.24v0a3.83,3.83,0,0,1,1.27-.55,2,2,0,0,0,1.17-.76c-.08.12.09,0,.11.06.38-.34.75-.74.55-.95.25-.25.27-.14.38-.1-.09-.09.07-.35.24-.57l0,.13a7.57,7.57,0,0,0,.44-.66h-.28c.28-.29.29.08.46-.28l-.17-.1c.32-.46.74-.62,1.09-1.09a8.4,8.4,0,0,0,.67-3.46c0-.59,0-1.16-.06-1.72a9.69,9.69,0,0,0-.25-1.76l.1-.15c.18-.14-.53-.44-.39-.59l-.2-.18c0-.07,0-.22.07-.14-.1-.2-.14-.19-.27-.3v-.28a9.5,9.5,0,0,0-1.66-2.1,2.52,2.52,0,0,0-1-.84,3.4,3.4,0,0,0-1.47-.25l-1.09,0c-.36,0-.75,0-1.06,0a18.94,18.94,0,0,0-2.87.44A4.18,4.18,0,0,0,87,169.73c-.06,0-.12.18-.1.2a10.4,10.4,0,0,0-1,1.28,7.66,7.66,0,0,0-.57,1,7.55,7.55,0,0,0-.68,1.91c-.11.6-.08,1,.17,1s.74-.51,1.69-1.53l0,0a4,4,0,0,0,.8-1.61c.29.09.39-.5.58-.57v0c.12-.51.76-.57.94-1,0,0,0,.09,0,.16.21-.23.52-.53.63-.39a4.69,4.69,0,0,1,1-.56,4.21,4.21,0,0,0,.9-.43l0,0c.25-.21.35-.07.65-.17l0,0c.3-.19.9,0,1.17,0v.11c.24,0,.48,0,.72,0l-.27,0c.1-.3.55.21,1,0,.2,0,.38-.1.61-.18a.51.51,0,0,1,.62.1c.24,0-.29.08,0,.17-.1.13-.17,0-.19.14.26.12.21.41.53.63l-.09.09c.49.25.42.85.78,1,.36.39-.14.48.33.83l0,.26c.08.21.26,0,.29.31-.1,0,0,.31-.11.22.08.57.54.81.31,1.64.22.15.1.52.25.64-.08,0,0,.75-.22.33,0,0,0-.1,0-.1l-.12-.05c-.25.4.08.75,0,1.16.06-.11.08-.28.14-.16l-.07.38-.09-.09a5.6,5.6,0,0,1-.17.54l.14-.05c-.12.26-.36.29-.27.63.06.17.25-.2.2.09s-.52.8-.75,1.19c.15,0,.08.14.05.26l-.12,0c-.08.51-.32,0-.45.48l0-.08.15.25c-.07.49-.33,0-.38.61.11-.16.27.11.07.26l0-.13c-.07.12-.07.18-.15.23s-.09-.15-.21,0l0-.2c0,.13-.06.28-.1.41-.28.09-.53.47-.72.39,0,0-.53.23-.58.44.06-.15-.25,0-.22-.21-.07.18-.46.45-.67.36l0,0c-.64,0-1,.44-1.65.28,0,.14-.28,0-.21.24-.67.15-1-.52-1.37,0-.29-.06-.27-.26-.39-.33h.08a2.5,2.5,0,0,1-.91-.5c-.19-.08-.4.09-.66-.21.17,0,0-.09-.08-.19.09.05.13,0,0-.14a.3.3,0,0,1-.13,0s0,0,0,0c-.21-.14-.2-.09-.13,0s0,0,0,.07c-.1-.27-.52-.49-.41-.64a13.09,13.09,0,0,1-1.36-1.25c0-.11.18,0,.31.09a3.43,3.43,0,0,1-.24-.33c.12-.06.17.16.27.25-.07-.5-.69-.77-.62-1.34l-.12-.08v0s-.16-.1-.18-.17.27,0,.25-.26,0-.18,0-.36a5,5,0,0,1,0-.52c-.06.15-.11.09-.13,0s.16-.21.14-.33l.16,0c-.16,0-.06-.42-.1-.49.14,0,0,.25.11.31.15-.57.07-.28.25-.85,0-.34-.16,0-.24-.19a2,2,0,0,1,.31-.85l-.17,0a2,2,0,0,1,.59-1.12c.44-2.13.09-2.47-.23-2.29a3.08,3.08,0,0,0-.77.81C84.77,172.89,84.57,173.9,84.14,176Z"/><path class="cls-1" d="M158.4,157.45l0,.19S158.41,157.58,158.4,157.45Z"/><path class="cls-1" d="M169.28,142.89l0,0S169.28,142.9,169.28,142.89Z"/><path class="cls-1" d="M161.48,165.16h0l-.06,0Z"/><path class="cls-1" d="M156.85,154.76a12.6,12.6,0,0,0-.39,2,7,7,0,0,0,.14,1.75,8,8,0,0,0,1.68,3.37,17.31,17.31,0,0,0,3.2,3.25,7.71,7.71,0,0,1,1.09.75,6.87,6.87,0,0,0,.65.45,3.7,3.7,0,0,0,.66.29,3.2,3.2,0,0,0,.25.27,2.66,2.66,0,0,1,.9.34l0,0c.45,0,.91.28,1.14.26l0,0,.53.1-.1,0,2.25.17-.06-.15c1.49.13,2-.27,3.29-.39v0a12.79,12.79,0,0,1,2-.81,4.59,4.59,0,0,0,.94-.42,3.59,3.59,0,0,0,.93-.73c-.15.16.12,0,.13,0,.62-.5,1.22-1.11,1-1.33.4-.39.39-.26.52-.24-.09-.08.19-.48.48-.82l-.1.18c.26-.32.5-.68.73-1l-.33.06c.42-.5.33,0,.63-.53l-.17-.1c.51-.75,1-1.09,1.51-1.86a14.8,14.8,0,0,0,1.16-5.53,25.33,25.33,0,0,0-.08-2.77c-.05-.46-.06-.87-.15-1.39s-.21-.92-.34-1.35l.08-.2c.17-.16-.69-.75-.57-.95l-.27-.3c0-.12-.1-.35,0-.2a1.46,1.46,0,0,0-.4-.51l-.08-.41a15.86,15.86,0,0,0-2.66-3.34,3.92,3.92,0,0,0-1.55-1.15,5.68,5.68,0,0,0-2.17-.34c-.66,0-1.27,0-1.83,0s-1.22,0-1.71,0a18.43,18.43,0,0,0-4.5.71,7.84,7.84,0,0,0-3.83,2.57.53.53,0,0,0-.19.29,15.65,15.65,0,0,0-1.68,2.05l-.28.44c-.19.28-.41.68-.66,1.13a15.41,15.41,0,0,0-1.22,3.05c-.25.94-.29,1.62,0,1.54s.85-1,2.2-2.78v.07a14.2,14.2,0,0,0,1.44-2.69c.32.05.65-.85.94-1v0c.33-.77,1.22-1.06,1.65-1.68,0,0,0,.1-.1.22.2-.19.44-.4.64-.56s.39-.22.45-.17a8.62,8.62,0,0,1,1.84-1c.65-.25,1.26-.41,1.65-.6l0,.05c.45-.23.61-.09,1.14-.2,0,0,.07,0,.06,0a8.36,8.36,0,0,1,2,0l0,.12,1.15.05L172,143c.16-.29.87.23,1.63.07a4.92,4.92,0,0,0,1.06-.12,1.19,1.19,0,0,1,1,.28c.36.1-.38,0,.1.23-.09.13-.25-.06-.23.12.44.24.49.63,1,1l-.08.1c.72.51.84,1.37,1.32,1.72.56.69,0,.68.67,1.35l0,.39c.15.35.31.15.42.56-.1,0,.14.52-.05.34a13.45,13.45,0,0,0,.5,1.3,3.45,3.45,0,0,1,.13,1.63c.23.26.11.9.26,1.1-.07,0-.06,1.28-.22.56,0-.06,0-.17,0-.16l-.12-.09c-.26.7.06,1.3-.09,2,.07-.2.11-.48.16-.28l-.12.65-.08-.15c-.06.32-.16.63-.24.94l.15-.1c-.16.46-.43.55-.4,1.12,0,.26.3-.39.19.11-.27.59-.75,1.43-1.14,2.12.16,0,.05.19,0,.4l-.12,0c-.27.83-.4.13-.72.91l0-.12.09.33c-.27.76-.43.19-.72,1,.2-.26.31.06,0,.34l0-.16a1.21,1.21,0,0,1-.28.37c0-.14-.08-.17-.3.08l.05-.27a4.68,4.68,0,0,1-.3.59c-.44.23-1,.8-1.23.77a4.31,4.31,0,0,0-1.07.71c.14-.2-.39,0-.3-.19a1.87,1.87,0,0,1-1.24.57l.05,0c-1.14.19-1.93.64-3,.48,0,.14-.51,0-.38.23-1.14.13-1.88-.63-2.4-.22-.5-.12-.51-.34-.74-.46l.12,0a5.34,5.34,0,0,1-1.63-.89c-.31-.16-.54,0-1-.48.23.06,0-.11-.18-.27.13.09.19.1,0-.17l-.18-.07s0,0,0,0c-.33-.25-.3-.17-.16,0t0,.09c-.23-.39-.88-.82-.78-1a19.24,19.24,0,0,1-2.21-2.23c0-.14.22,0,.41.23-.14-.19-.28-.38-.41-.58.12-.06.27.31.43.47-.28-.79-1.09-1.39-1.15-2.37l-.14-.16v-.06c-.05,0-.16-.18-.21-.32.11-.14.27,0,.24-.45a2.63,2.63,0,0,0,.06-.68c0-.29,0-.61,0-.87-.08.27-.13.17-.14,0s.2-.36.2-.56h.16c-.17.06,0-.67,0-.78.16-.1,0,.41.06.49a12.6,12.6,0,0,1,.45-1.44c.08-.55-.18,0-.21-.25a4.48,4.48,0,0,1,.55-1.42l-.2.11a5,5,0,0,1,1-1.86c1.09-3.35.75-3.84.36-3.48a8.4,8.4,0,0,0-1.09,1.48A15.67,15.67,0,0,0,158,150.8,24.81,24.81,0,0,0,156.85,154.76Z"/><path class="cls-1" d="M163.81,156.53l0,.1S163.81,156.6,163.81,156.53Z"/><path class="cls-1" d="M169.29,149h0Z"/><path class="cls-1" d="M164.69,161.18h0Z"/><path class="cls-1" d="M162.17,155a8.34,8.34,0,0,0-.26,1.17,4.35,4.35,0,0,0,0,1.09,4.3,4.3,0,0,0,.94,2,9.16,9.16,0,0,0,1.81,1.86,1.87,1.87,0,0,1,.64.39,1.72,1.72,0,0,0,.79.43l.12.2a1,1,0,0,1,.54.2l0,0c.29,0,.55.15.69.13l0,0,.32,0-.07,0c.47,0,.92,0,1.33.08l0-.14c.86.14,1.13-.22,1.9-.22v0a2.92,2.92,0,0,1,1.15-.5,1.7,1.7,0,0,0,1.06-.69c-.08.1.08,0,.1.06.35-.32.68-.68.48-.89.22-.22.24-.12.35-.08-.09-.08.05-.32.21-.52l0,.12c.14-.19.27-.39.39-.59l-.27,0c.26-.27.29.08.43-.25l-.17-.1c.3-.41.69-.54,1-1a7.44,7.44,0,0,0,.59-3.12c0-.53,0-1-.06-1.55a10.07,10.07,0,0,0-.22-1.6l.1-.14c.19-.13-.51-.38-.36-.52l-.19-.16c0-.07,0-.21.08-.13-.09-.19-.13-.17-.25-.27v-.26a8.2,8.2,0,0,0-1.51-1.88,2.08,2.08,0,0,0-.93-.78,3,3,0,0,0-1.34-.24l-1,0c-.33,0-.68,0-1,.06a22.37,22.37,0,0,0-2.6.38,3.71,3.71,0,0,0-2.2,1.49c-.06,0-.11.17-.09.19a10.26,10.26,0,0,0-.94,1.15,8.74,8.74,0,0,0-.51.89,7.11,7.11,0,0,0-.6,1.73c-.09.53,0,.93.21.91s.71-.44,1.6-1.32l0,0a3,3,0,0,0,.7-1.43c.28.1.34-.44.52-.5v0c.09-.47.68-.49.83-.87,0,0,0,.09,0,.15.18-.21.44-.48.56-.34.49-.42,1.28-.59,1.65-.89l0,.05c.21-.21.29-.06.56-.16,0,0,0,0,0,0,.27-.19.8,0,1-.05v.11c.22,0,.44,0,.64,0l-.23,0c.09-.29.49.21.87,0,.18,0,.33-.1.53-.19a.42.42,0,0,1,.55.06c.23,0-.26.09,0,.17-.09.12-.15,0-.18.14.23.1.17.37.46.56l-.09.08c.45.21.35.77.69.89.33.35-.15.45.29.74l-.07.24c.07.19.25,0,.27.27-.1,0,0,.28-.11.21,0,.51.49.67.25,1.42.22.13.1.46.26.57-.08,0,0,.65-.22.28,0,0,0-.09,0-.08l-.12-.05c-.24.34.09.66,0,1,.06-.1.07-.24.14-.14l-.07.34-.09-.09c0,.16-.11.32-.15.47l.13,0c-.11.22-.35.24-.24.55.05.15.23-.17.19.09l-.69,1c.15,0,.09.12.06.24l-.11,0c-.06.46-.31,0-.41.42l0-.08.15.23c0,.45-.31,0-.32.54.09-.14.26.12.08.25l-.05-.12c-.06.1,0,.16-.12.2s-.11-.15-.21,0l0-.19c0,.12,0,.26-.06.38-.26.06-.47.41-.64.33,0,0-.47.19-.5.39,0-.14-.23-.06-.21-.22-.06.17-.39.42-.58.33l0,0c-.56,0-.91.42-1.43.25,0,.15-.24.06-.19.25-.58.14-.86-.51-1.2,0-.26,0-.23-.23-.33-.3h.07a1.94,1.94,0,0,1-.79-.42c-.18-.07-.38.11-.6-.17.15,0,0-.09-.07-.17.08,0,.12,0,0-.14a.25.25,0,0,1-.12,0l0,0c-.19-.12-.18-.08-.12,0s0,0,0,.08c-.07-.25-.45-.44-.34-.58a12.76,12.76,0,0,1-1.23-1.09c0-.1.18,0,.29.06-.08-.09-.15-.19-.22-.28.12-.07.17.13.26.21,0-.45-.63-.66-.55-1.17l-.12-.06,0,0c-.06,0-.16-.08-.18-.15s.27,0,.25-.22,0-.15,0-.31,0-.33,0-.46c-.05.13-.1.07-.13,0s.16-.17.14-.28l.15,0c-.16,0-.07-.37-.11-.43.14,0,0,.22.12.28a6.61,6.61,0,0,1,.22-.76c0-.3-.16,0-.24-.18a1.52,1.52,0,0,1,.27-.76l-.17,0a1.61,1.61,0,0,1,.54-1c.33-1.93,0-2.24-.34-2.1a2.52,2.52,0,0,0-.71.71C162.7,152.17,162.55,153.1,162.17,155Z"/><path class="cls-1" d="M87.11,189.47l0-.06A0,0,0,0,0,87.11,189.47Z"/><path class="cls-1" d="M76.4,185.72h0Z"/><polygon class="cls-1" points="85.94 187.16 85.95 187.16 85.96 187.14 85.94 187.16"/><path class="cls-1" d="M88.07,187.86c-.55-.21-.63-.52-1.25-.56a4.27,4.27,0,0,0-.87-.14c-.18.17-.36-.09-.56,0l0-.13c-.07,0-.14.07-.18,0v0c-.1.07-.18,0-.23,0l0,0h-.1l0,0a.44.44,0,0,1-.42-.05l0,.15c-.23-.23-.4,0-.6-.21v0c-.4.29-.42-.38-.82-.11,0,0,0-.08,0-.11-.16,0-.32,0-.39.26-.1,0-.06-.11,0-.22a.19.19,0,0,1-.22.14l0,0-.25,0V187c-.11-.1,0-.28-.1-.26l0,.19c-.17-.08-.19-.39-.32-.58-.66-.25-1.53,0-2-.53l0-.15c.07-.2-.28.23-.22,0l-.11.06s0-.09,0-.12-.07,0-.14,0v-.15c-.19-.19-.5-.06-.71-.23-.14-.39-.72-.48-1.07-.62s-.38-.34-.43-.61-.08-.52-.34-.62c0,0-.06,0-.08,0a2.92,2.92,0,0,1-.14-.38,2.55,2.55,0,0,0-.35-.72.53.53,0,0,0-.51-.23c-.23,0-.59.21-.92.85h-.05c0,.36,0,.59.31.72-.26.14.08.26,0,.37h0c.28.08,0,.46.31.53,0,0-.1,0-.12,0s.26.23.13.33c.23.26.49.68.83.65l0,0c.21,0,.12.09.29.12l0,0c.21,0,.3.23.43.24l-.07.09.22.13-.06-.07c.21-.23,0,.27.31.21.13.14.63-.34.69-.13.14-.09-.18.16,0,.13-.08.14-.1.06-.14.18.14,0,.09.25.28.22l-.05.11c.27-.11.26.32.47.18s0,.39.26.25v.19c.08.06.14-.17.2,0s.09.12,0,.19c.16.24.51-.05.7.3.12-.17.22,0,.32-.15,0,.09.27.1.06.24,0,0,0,0,0,0l-.06.11c.1.27.33,0,.48.05,0-.06-.1-.06,0-.13l.14.05-.06.1.2.11v-.13c.08.09.06.31.23.17s-.06-.19.07-.2a1.73,1.73,0,0,0,.46.38c0-.14.06-.12.12-.14l0,.12c.23-.12,0,.29.22.2l0,.08.12-.24c.22-.2,0,.27.29,0-.08,0,0-.27.11-.2l0,.12s.08-.06.11,0-.06.17,0,.17l-.09.13.19-.18c.08.15.29,0,.29.21,0,0,.21.14.3,0-.07.1,0,.18,0,.3.09-.11.29-.17.32,0v0c.22.2.49-.08.68.15,0-.15.13,0,.14-.23.29-.11.35.48.58,0,.11,0,.09.16.14.2l0,0a1,1,0,0,1,.42.06c.09,0,.17-.29.29-.19-.07.09,0,.09,0,.1s0,0,0,.13a.1.1,0,0,1,0-.06v0c.09,0,.08,0,.05-.08a.11.11,0,0,0,0-.06c.06.15.25,0,.22.23a4,4,0,0,0,.72-.13.2.2,0,0,1-.14.19h.16c0,.13-.11.05-.16.07.13.25.43-.12.59.13l.07-.09v0a.18.18,0,0,1,.11-.13c0,.12-.07.26,0,.28s.25,0,.37,0c0,0,0-.09,0-.12s.05.13.1.09l0,.15c0-.15.18-.12.21-.18,0,.12-.1.08-.14.16l.32.06c.14-.09,0-.15.1-.27s.23-.09.32,0v-.14a.49.49,0,0,1,.49.1.53.53,0,0,0,.19-.35.73.73,0,0,0-.08-.33c-.08-.16-.16-.23-.17-.27s.07-.26,0-.35,0-.24,0-.26.06-.11-.06,0A4.13,4.13,0,0,1,88.07,187.86Z"/><path class="cls-1" d="M164.71,167.39l0-.06A.05.05,0,0,0,164.71,167.39Z"/><path class="cls-1" d="M154.12,164.53h0Z"/><polygon class="cls-1" points="163.16 165.37 163.17 165.37 163.18 165.36 163.16 165.37"/><path class="cls-1" d="M165.26,165.6c-.56-.08-.7-.35-1.27-.26a4.47,4.47,0,0,0-.82,0c-.14.21-.35,0-.51.15l0-.13c-.05.06-.12.1-.16,0v0c-.09.08-.17,0-.21.06v0h-.1l0,0a.42.42,0,0,1-.39,0v.14c-.24-.19-.37.1-.57-.12v0c-.34.34-.41-.32-.76,0,0,0,0-.08,0-.12-.14,0-.29,0-.34.29-.1,0-.07-.1-.06-.21a.17.17,0,0,1-.2.15l0,0h-.23v.24c-.1-.09,0-.29-.09-.26l-.05.2c-.15-.08-.18-.39-.29-.57-.6-.24-1.44,0-1.87-.56l0-.14c.07-.2-.28.22-.22,0l-.1.06s0-.1,0-.13-.08,0-.15,0v-.15c-.18-.21-.49-.07-.7-.25-.15-.38-.77-.49-1.14-.58-.61,0-.47-1.06-1-1.14,0,0-.07,0-.09,0l-.27-.35a2.46,2.46,0,0,0-.67-.6c-.33-.15-.84-.13-1,1.19h0c.08.31.18.49.5.49-.2.21.13.21.11.32h0c.28,0,.12.4.39.38,0,0-.08.07-.12.05.12.06.29.13.19.26.24.18.53.52.85.43l0,0c.2-.08.13.06.28.06a.1.1,0,0,0,0,0c.19-.06.29.19.41.18l-.05.09.21.11-.06-.06c.19-.24,0,.26.29.18.12.12.6-.37.66-.17.14-.09-.17.17,0,.13-.07.14-.1.06-.13.18.13,0,.08.24.26.21l-.06.11c.27-.11.24.31.45.17s0,.39.24.26v.18c.07.06.14-.16.2,0s.07.13,0,.2c.14.24.5-.05.66.31.13-.17.23,0,.32-.13,0,.08.27.11.05.24,0,0,0,0,0,0l-.06.11c.08.28.33,0,.47.06,0-.05-.1-.06,0-.13l.14.06-.06.09.19.12v-.13c.08.1.06.32.23.17s0-.19.07-.2a1.59,1.59,0,0,0,.46.39c0-.14.07-.13.12-.14l0,.12c.23-.12,0,.29.23.19l0,.08.1-.24c.22-.2,0,.27.3,0-.08,0,0-.27.1-.2l-.05.11c.06,0,.09-.06.12,0s-.06.17,0,.17l-.08.13.19-.19c.08.15.29,0,.3.2,0,0,.23.12.31-.06-.07.11.06.18,0,.3.08-.12.28-.19.33-.05v0c.25.17.48-.13.7.06,0-.14.12-.05.11-.24.27-.15.42.42.56-.14.11,0,.12.15.17.18l0,0a1.21,1.21,0,0,1,.42,0c.09-.05.12-.31.25-.24,0,.1,0,.09.06.09s0,.05,0,.13l0-.07v0c.09,0,.07-.07,0-.09s0,0,0-.06c.09.14.25,0,.25.18a3.21,3.21,0,0,0,.68-.27.19.19,0,0,1-.1.21l.15,0c0,.14-.09.08-.13.1.17.22.38-.2.58,0l0-.1h0a.2.2,0,0,1,.08-.14c0,.11,0,.27.1.26s.24,0,.35-.11c-.06,0,0-.09,0-.13s.08.12.12.07v.15c0-.15.14-.15.16-.22,0,.12-.08.1-.1.19l.32,0c.11-.12,0-.15,0-.29s.19-.14.3,0l0-.14a.28.28,0,0,1,.42.05c1.37-1.14.29-1.56.29-1.56C166.17,165.09,165.9,165.5,165.26,165.6Z"/><path class="cls-1" d="M195.85,133.79l-.06,0S195.8,133.8,195.85,133.79Z"/><path class="cls-1" d="M193.19,122.14h0A0,0,0,0,0,193.19,122.14Z"/><polygon class="cls-1" points="196.12 131.65 196.12 131.65 196.14 131.64 196.12 131.65"/><path class="cls-1" d="M196.39,131.84c-.33,0-.08-.34-.19-.2h0s0,0-.08,0c-.2.08,0-.05-.18,0l.12,0c-.07,0-.12-.11-.06-.18h0c-.1-.08-.06-.18-.11-.22h0l0-.11H196a.54.54,0,0,1-.1-.45l-.15,0c.14-.32-.17-.4,0-.7h0c-.42-.31.2-.57-.2-.89.05,0,.08,0,.11,0-.06-.16-.1-.33-.38-.31,0-.12.08-.1.19-.13a.2.2,0,0,1-.21-.18l.06,0-.07-.26-.23.07c.05-.15.28-.06.21-.19l-.19,0c0-.2.3-.35.42-.55,0-.8-.57-1.6-.3-2.37l.14-.05c.21,0-.34-.17-.14-.22l-.11-.08s.07-.08.13,0,0-.08-.11-.13l.13-.1c.07-.32-.21-.56-.2-.89.24-.42-.09-1.14-.27-1.56a.69.69,0,0,1-.11-.46.27.27,0,0,1,.14-.23c.13-.1.23,0,.16-.23,0,0,0,0,0-.06l.19,0a3,3,0,0,0,.94-.42c.36-.3.42-.75-.8-1.36v0a.75.75,0,0,0-.78.29c-.17-.25-.4.07-.54,0v0c-.11.27-.65.13-.66.51,0,0-.08-.07,0-.13-.11.19-.14.48-.29.42a2.47,2.47,0,0,0,0,.87,2.24,2.24,0,0,0,.1.41.36.36,0,0,0,.16.21h0c.19.1,0,.14.14.27h0c.19.11.06.37.15.46l-.11,0,.05.25,0-.1c.3,0-.18.21,0,.37,0,.18.67.29.53.48.16.07-.23-.05-.11.06-.16,0-.11-.05-.23,0,.09.11-.14.22,0,.36l-.12,0c.24.17-.13.39.1.5s-.35.17-.09.36l-.16.1c0,.1.21,0,.14.16s-.07.13-.18.08c-.14.25.28.45,0,.78.22,0,.11.21.27.24-.09,0,0,.31-.2.15,0,0,0,0,0,0h-.12c-.22.19.15.3.14.47,0,0,0-.12.1-.08v.16l-.11,0,0,.25.12,0c0,.12-.26.18-.07.3s.16-.13.21,0a2.3,2.3,0,0,0-.2.61c.15,0,.15,0,.18.07l-.12,0c.19.19-.27.1-.11.3h-.09l.27,0c.26.16-.25.12.1.3,0-.08.27-.07.23,0l-.12,0c0,.06.08.07.06.11s-.18,0-.15.08l-.15,0,.23.13c-.11.14.07.31-.1.38,0,0-.05.27.14.31-.12,0-.15.1-.29.08.13.05.26.24.13.33h0c-.11.31.25.48.1.76.14,0,.08.12.26.07.21.25-.33.53.25.57.05.12-.12.16-.14.23l0,0a3.6,3.6,0,0,1,.11.71c.07.12.32,0,.28.27-.1,0-.08.07-.07.15s-.06,0-.11.12a.09.09,0,0,1,.07,0l0,0c.05.12.07.07.08,0a.14.14,0,0,0,.06-.07c-.11.25.05.4-.11.58.07.27.14.46.28.51a3.24,3.24,0,0,1,.4-.22.73.73,0,0,1-.3.31l.28-.12c-.1.17-.21.14-.31.2.08.09.3,0,.5-.15s.39-.23.54-.17l.1-.14,0,0a.42.42,0,0,1,.16-.19c0,.11,0,.28.13.23s.45-.15.56-.23c-.07,0-.06-.08,0-.12s.11.09.14,0l0,.15c0-.14.12-.18.13-.25,0,.11-.07.12-.07.21l.33-.07c.11-.13,0-.15,0-.29s.2-.16.33-.08l-.05-.14a.34.34,0,0,1,.47,0c.75-.6.88-1,.75-1.22a.79.79,0,0,0-.46-.35C197.5,131.18,197.16,131.61,196.39,131.84Z"/></g></svg>