<svg xmlns="http://www.w3.org/2000/svg" viewBox="0 0 47.48 53.11"><g id="BACKGROUND_1" data-name="BACKGROUND 1"><path d="M25.32,29.51A13.13,13.13,0,0,1,25.9,35,4,4,0,0,1,25,37.39c-2.72,2-3.17-1.64-3.25-2.82a18.47,18.47,0,0,1-.07-3.86c.15-.85,1.59-4.08,3.39-2.32.35.33.38,1.91.46,2.35.27,1.36,2.35.79,2.09-.57s-.28-3.36-1.71-4.17a3.71,3.71,0,0,0-3.8.37c-3.22,2.05-3,6.36-2.37,9.69.52,2.88,3.32,5.33,6.15,3.37,3.2-2.22,2.49-7.33,1.57-10.5a1.09,1.09,0,0,0-2.09.58Z"/><path d="M17.51,41.19C16.11,35.25,16.07,19,26,22.59c4.84,1.75,4.54,6.88,4.51,11.2,0,4.64-2.4,8.76-7,10.16-1.33.4-.77,2.49.57,2.08,4.51-1.36,8.2-5.23,8.56-9.94.39-5.2.53-13-5.08-15.7-4.21-2.05-8.88.39-11.21,4C15,26.57,15,28.59,15,31.1c0,3.54-.35,7.2.46,10.66.32,1.35,2.41.78,2.09-.57Z"/><path d="M14.33,44.52c-1.15-2.66-.6-6.32-.6-9.18,0-2.51,0-5,0-7.54,0-3.11.24-4.48,2.55-6.5s3.94-3.43,7.26-3.59c7.29-.37,10.16,4.84,10.3,11.41.09,4.21,1.42,11.62-.73,15.38A1.08,1.08,0,0,0,35,45.59c1.55-2.7,1.12-5.8,1.09-8.82,0-3.77.26-7.73-.3-11.46-.94-6.21-5.41-9.71-11.59-9.77-4.53,0-10.39,3-12.15,7.41-1.31,3.32-.46,8-.46,11.55,0,3.69-.6,7.66.89,11.11.55,1.27,2.42.17,1.87-1.09Z"/><path d="M10.4,44.63C8.61,41.25,9.16,37,9.14,33.24c0-3.38-.8-7.91.17-11.15.91-3,5.33-7.26,8-8.84,3.13-1.85,8.31-1.32,11.77-.92,8.11.95,9.2,9.71,9.24,16.32,0,3.16,0,6.33,0,9.49,0,2.78-1.37,4.22-2,6.64-.32,1.35,1.77,1.93,2.09.57.27-1.14,1.49-2.23,1.86-3.4.72-2.21.16-5.44.15-7.76,0-4.22.27-8.59-.44-12.76a14.27,14.27,0,0,0-5.16-8.9c-2.71-2.31-4.85-2.35-8.41-2.47-3.9-.14-7.52-.64-10.81,1.72-2.86,2.05-6.34,5.09-7.91,8.33C6,23.89,7,29.17,7,33.24c0,4.23-.48,8.63,1.56,12.48.65,1.24,2.51.14,1.86-1.09Z"/><path d="M5.18,45.08C5.1,36.93,4.47,28.53,5,20.39,5.54,11.58,16,7.28,23.57,6.88c4.41-.22,9.73.46,13.16,3.39A16.54,16.54,0,0,1,41.94,20c1.58,8,.82,16.86.36,24.94-.08,1.39,2.09,1.38,2.16,0,.53-9.29,1.91-20.58-1.56-29.48C39.66,7.12,32.06,4.29,23.57,4.72,16.06,5.1,8.42,8.14,4.33,14.85c-2.28,3.74-1.5,8.56-1.47,12.71q.08,8.76.16,17.52a1.08,1.08,0,0,0,2.16,0Z"/></g></svg>