<svg width="1057" height="1057" viewBox="0 0 1057 1057" fill="none" xmlns="http://www.w3.org/2000/svg">
<path d="M825.781 1040.48H231.219C112.306 1040.48 16.5156 944.694 16.5156 825.781V231.219C16.5156 112.306 112.306 16.5156 231.219 16.5156H825.781C944.694 16.5156 1040.48 112.306 1040.48 231.219V825.781C1040.48 944.694 944.694 1040.48 825.781 1040.48ZM231.219 49.5469C130.473 49.5469 49.5469 130.473 49.5469 231.219V825.781C49.5469 926.527 130.473 1007.45 231.219 1007.45H825.781C926.527 1007.45 1007.45 926.527 1007.45 825.781V231.219C1007.45 130.473 926.527 49.5469 825.781 49.5469H231.219Z" fill="#231F20"/>
<path d="M528.5 792.75C383.162 792.75 264.25 673.838 264.25 528.5C264.25 383.162 383.162 264.25 528.5 264.25C673.838 264.25 792.75 383.162 792.75 528.5C792.75 673.838 673.838 792.75 528.5 792.75ZM528.5 297.281C401.33 297.281 297.281 401.33 297.281 528.5C297.281 655.67 401.33 759.719 528.5 759.719C655.67 759.719 759.719 655.67 759.719 528.5C759.719 401.33 655.67 297.281 528.5 297.281Z" fill="#231F20"/>
<path d="M825.781 280.766C797.705 280.766 776.234 259.295 776.234 231.219C776.234 203.142 797.705 181.672 825.781 181.672C853.858 181.672 875.328 203.142 875.328 231.219C875.328 259.295 853.858 280.766 825.781 280.766ZM825.781 214.703C815.872 214.703 809.266 221.309 809.266 231.219C809.266 241.128 815.872 247.734 825.781 247.734C835.691 247.734 842.297 241.128 842.297 231.219C842.297 221.309 835.691 214.703 825.781 214.703Z" fill="#231F20"/>
</svg>
