<svg xmlns="http://www.w3.org/2000/svg" viewBox="0 0 59.02 66.04"><defs><style>.cls-1{fill:#0a78b5;}.cls-2{fill:#202020;}.cls-3{fill:#fff;}.cls-4{fill:none;}</style></defs><g id="BACKGROUND_1" data-name="BACKGROUND 1"><circle class="cls-1" cx="31.13" cy="36.43" r="26.91" transform="translate(-10.35 60.42) rotate(-79.53)"/><path class="cls-2" d="M4.72,36.43c-.07-.09-.22,0-.17.2l.25.17Z"/><path class="cls-2" d="M4.34,38.07c.14.28.36.59.58.39-.25-.26-.15-.33-.45-.62,0-.24,0-.43.15-.39-.07-.09,0-.38-.13-.51a1.27,1.27,0,0,0,0,1.14C4.46,38.17,4.39,38.09,4.34,38.07Z"/><path class="cls-2" d="M15.34,58.62l-.11-.12A.6.6,0,0,0,15.34,58.62Z"/><path class="cls-2" d="M29.31,63.73c-.11,0-.16,0-.17,0S29.34,63.75,29.31,63.73Z"/><path class="cls-2" d="M31.9,64.06h-.15A.2.2,0,0,0,31.9,64.06Z"/><path class="cls-2" d="M15.34,58.62l.28.3C15.69,58.87,15.49,58.75,15.34,58.62Z"/><path class="cls-2" d="M5.32,41.24a.93.93,0,0,0-.1-.2l.06.19Z"/><path class="cls-2" d="M10.3,54.29l-.08-.09h-.15Z"/><path class="cls-2" d="M7.31,50.13c.06.11.26,0,.36,0A.38.38,0,0,1,7.42,50,.33.33,0,0,0,7.31,50.13Z"/><path class="cls-2" d="M4.71,42.5l-.06-.13Z"/><path class="cls-2" d="M12.85,56.94a.12.12,0,0,0,0,.08A.11.11,0,0,0,12.85,56.94Z"/><path class="cls-2" d="M5.82,30.86h0S5.81,30.9,5.82,30.86Z"/><path class="cls-2" d="M4.16,36.43v-.08l-.12,0Z"/><path class="cls-2" d="M36.69,63.81h0C36.55,63.85,36.62,63.83,36.69,63.81Z"/><path class="cls-2" d="M58.28,30.55c-.07.52-.44-.73-.46,0C57.88,30.5,58.31,31.18,58.28,30.55Z"/><path class="cls-2" d="M5.31,41.37l0,.2A1.46,1.46,0,0,0,5.31,41.37Z"/><path class="cls-2" d="M57.82,30.59h0v0Z"/><path class="cls-2" d="M46.78,59.41a.32.32,0,0,0-.14,0S46.69,59.42,46.78,59.41Z"/><path class="cls-2" d="M39.31,62.7l.2,0Z"/><path class="cls-2" d="M49.9,56.51a.64.64,0,0,0,.23-.19h-.05A.34.34,0,0,1,49.9,56.51Z"/><path class="cls-2" d="M52.86,53.26l-.08,0-.08.12Z"/><path class="cls-2" d="M11.28,19.62a.64.64,0,0,1-.27,0C11.17,19.69,10.8,20.17,11.28,19.62Z"/><path class="cls-2" d="M5.2,41.26a.15.15,0,0,1,.11.11l0-.14S5.21,41.23,5.2,41.26Z"/><path class="cls-2" d="M48.89,55.18l.5-.42A5.58,5.58,0,0,0,48.89,55.18Z"/><path class="cls-2" d="M38.33,11.41l-.16,0A.31.31,0,0,0,38.33,11.41Z"/><path class="cls-2" d="M50.69,53.3a1.22,1.22,0,0,0,.36-.18s0-.06,0-.09Z"/><path class="cls-2" d="M11,19.64Z"/><path class="cls-2" d="M8.94,23.49c.32-.53-.08-.39-.15-.59.32-.69.35-.19.6-.33.18-.44.16-.89.39-1.16.06,0,.11,0,.11.06.12-.52.87-1.19,1-1.82a.15.15,0,0,1,.11,0,.56.56,0,0,1-.36-.18c.19-.22.23-.51.44-.47-.12.13-.08.18-.09.28l.14-.27c.38,0-.2.36-.06.48a7.49,7.49,0,0,1,1-1.42c.25.11-.64.84-.08.55l-.53.45c.65-.13-.3.29.34.21.67-.6.56-.85,1.26-1.41,0-.24-.19-.11-.14-.35.79-1.06,1.17-.2,1.64-1.09.08-.28,0-.58.61-.86v.37c.72-.5.15-.63,1-1-.06.19-.49.49-.37.44.61-.17.25-.38.61-.66l.22.16c.79-.49,1.53-1.25,2.45-1.74,0,.09-.14.24.11.2A12.93,12.93,0,0,1,21,12.41c.66-.2,1.32-.36,1.93-.5l.38-.37c.11,0,.23,0,.12.11.5,0,0-.14.19-.29s.39,0,.24.14a15.88,15.88,0,0,1,1.55-.65,4.21,4.21,0,0,1,1.69-.22l-.16.09c.71,0,.73-.57,1.41-.47l-.12.06c1.54,0,3.26-.31,4.42.14.25-.31,1.5.22,1.64-.17a8.32,8.32,0,0,0,1.78.72c.32.06.53-.17.94-.12l0,.23.59-.1.22.34.38,0c-.14-.05-.28-.18-.24-.24a2.85,2.85,0,0,1,.91.29c.26.16.43.33.42.39l1.39.3c-.07.08-.3,0-.5,0,.79,0,0,.27.77.3-.07-.08.1-.11.13-.15a5.53,5.53,0,0,0,1.51.8l-.17.09c.94.45,2,1,3,1.58-.31-.28-.08-.46.23-.3l0,.27c.28,0-.26-.26.24-.18.34.29.08.41-.16.32l.47.25c0,.08-.14,0-.22.09.27,0,.59.75,1,.73l0,.07c1,.67,1.33,1,2.07,1.65.15-.15.4.14.73.21a20.44,20.44,0,0,0,1.41,1.88c.47.39.25,0,.52.15-.12.15.4.82,0,.55.32.4.52.66.76.93l.4.44.49.64c0-.16-.06-.32,0-.28s.21.5.11.52l-.05,0a4.94,4.94,0,0,1,1.05,2.11,6,6,0,0,0,.85,1.95l-.05-.05.61,1.05c.16.52-.25-.26-.22.16a4.29,4.29,0,0,1,.42.78,4.09,4.09,0,0,1,.18.73,5.6,5.6,0,0,0,.41,1.41,4.07,4.07,0,0,0,.09,1.9c.07.38.16.76.2,1.12a3.06,3.06,0,0,1-.07,1l.13-.07c.14.27-.06.34-.08.55.1,0,.1-.31.19-.14A14.47,14.47,0,0,1,57,38.86c-.09.62-.27,1.23-.4,1.84l-.21.91-.28.88c-.26.85.54.67-.06,1.69l-.15-.38a12.59,12.59,0,0,1-.79,2.65A24.16,24.16,0,0,0,54,49c0-.12,0-.15,0-.31-.33.25-.72,1.19-.6,1.28-.16.23-.14,0-.3.09s-.28.95-.56,1c-.05,0,0-.11,0-.18-.07.25-.7.91-.39.84-.49.47-.68,1.1-1.13,1.43-.06.41-.86.77-.69,1.08-.23-.27-1,.7-1.21,1.07,0-.17-.34.17-.32,0-.35.33-.64.67-.46.75-.9.31-1.2,1.39-1.91,1.29l-.78.73-.82.63a15.6,15.6,0,0,1-1.65,1.13c-.1-.29,1.24-.73,1-1-.24.19-.45.37-.65.55l-.61.44a6.67,6.67,0,0,1-1.39.77c-.31.1.1-.21.18-.31a7.87,7.87,0,0,1-1.64.72c-.55.18-1.06.43-1.57.63,0,0,.1-.09.2-.15-.21.07-.5.08-.44.22l.2-.09c.4.13-.72.66-.73.79.25-.52-1.09.17-.65-.52-.13.06-.29.18-.23.27-.22,0-.29,0-.11-.19-.73.28-.44.34-1.14.46,0-.07.13-.12.18-.22a2.37,2.37,0,0,1-1.26.43s0-.1.13-.13a9.06,9.06,0,0,1-2.85.48c.32-.34-.39-.08-.45-.36-.2,0-.4.06-.6.08l.24.15a10.4,10.4,0,0,1-1.46,0l.4-.1H29l.56.13c-.55.12,0,.36-.68.24.15,0-.54,0-.79-.24h0a1.69,1.69,0,0,1-.94,0c-.09-.1.13-.29.07-.36-.29.18-1.25-.11-1.62.05.12,0,.16-.17.13-.21l-.25.13c-.23-.12-.26-.16-.19-.26-.72-.22.14.4-.68,0,.07,0,.05,0,.2,0a15.8,15.8,0,0,1-2.44-.7c-.13-.35.69.18.51-.14-.56-.17-1.15-.3-1.74-.44a8,8,0,0,1-1.65-.66l.18.12c-.32.28-.68-.54-1.27-.64.13,0,.26-.1.21-.08a21.22,21.22,0,0,0-2.48-1.27h.18c-.32-.35-.94-.77-1.31-1.1-.18,0-.39-.19-.35,0A5.37,5.37,0,0,0,13,55.75a3.34,3.34,0,0,1-1.42-1.51c.11.12.33.23.24.13L11,53.58c-.07.18,0,.18.09.45a1.55,1.55,0,0,1-.66-.45c.45.31.2-.17.15-.42,0,.07-.11,0-.14.09-.12-.68-.33.14-.67-.66l.1,0a4.29,4.29,0,0,1-.68-.67c.08-.22.28.22.43.14-.29-.37-.89-.52-.93-1a5.68,5.68,0,0,0,.47.51,2,2,0,0,0-.29-.84l0,0L8.58,50l.05.2c-.74-.24-.75-.94-1.37-1.51.62.55.22,0,.45,0,0-.22-.1-.52,0-.47-.33-.25-.14-.62-.61-1,.06-.05-.17-.36,0-.36-.26-.41-.07.15-.17.15-.56-.58-.33-1.73-1-2.62-.39-.84-.65-.95-1-1.76,0-.31.32.17.32.17A3.64,3.64,0,0,0,5,41.58c.08.08.12,0,.18-.17-.07-.35-.3-.19-.26-.67a1.28,1.28,0,0,1,.34.3c-.13-.4-.32-.78-.46-1.2.11-.13.24.23.34.37a4.05,4.05,0,0,0-.5-1.36l0,.32c0-.18.16-.11.21,0,.22.39,0,.6,0,.63l-.1-.3c-.37.37.26,1.23.33,1.84l-.35-.2.35.59c0,.14-.21.27-.31,0-.06.47.2.36.13.78,0,0,0,0-.06,0l.2.41c-.08-.07-.19.12-.22-.15,0,.82.55,1.18.39,1.54l0-.06c.42,1,.24,0,.77.73l-.35.71.26,0c0,.11.09.33,0,.32.29.34.07-.1.29.08a2.53,2.53,0,0,0,.27.93c.15.29.25.54.11.67.25.11-.1-.52.26-.05-.28.32.35.58.41,1.11-.25,0-.36-.53-.3,0,.43.12.36.92.66,1.24.24-.12.57.74,1,1.29-.13,0,.64,1.18,1,1.77H9.36c.31-.07.64.54,1,.86-.14.09-.25.07-.49-.09.1.12.21.23.32.35a1.06,1.06,0,0,1,.5.31l-.23.05A12.28,12.28,0,0,1,12,56c.16-.11-.09-.81.61-.34-.05.1-.15.25-.34.13a.91.91,0,0,1,.33.24l-.37-.1c.21.3.24,0,.44.23-.1.1.09.22,0,.28s-.15-.22-.27-.25a2,2,0,0,1,.49.75c0-.09.13-.15.32,0,.47.42,0,.28.26.59.17,0,.43.35.58.18.14.11.11.21.12.3.33.12,1.24.89,1.08.48l-.06-.06,0,0h0c.94.49,1.77,1.29,2.71,1.78l0,.07a8.8,8.8,0,0,0,1.73.63c.17.08.34.31.23.36a4.19,4.19,0,0,1,1.13.47c-.5,0,.12.16-.5-.08a2.67,2.67,0,0,0,1.36.47c-.28.1.36.39.66.44l-.37-.28a8.79,8.79,0,0,1,.87.32l-.23.19a3.81,3.81,0,0,0,1.73.37A2.81,2.81,0,0,1,26,63.6c.36-.12-.67-.23-.33-.38a8.94,8.94,0,0,1,1.31.59c.79.25.79-.22,1.62-.05-.1-.09-.17-.33.45-.39s.7.41.32.47c-.14,0-.21,0-.2-.07-.19,0-.44,0-.22.16l.09-.08c.28.1,1.1.13.9.27.45-.06.2-.14-.13-.2a9.84,9.84,0,0,0,2,.13c-.13,0-.25-.14-.12-.15,1.14.05.5-.19,1.26-.27.45.11-.13.33.64.18.48.06.12.23-.07.31a6.47,6.47,0,0,1,1.76-.07l-.36.13a2.34,2.34,0,0,1,.59-.13l-.24-.15c.22,0,.41,0,.42.05.2-.15-.22-.27.2-.5.3,0,.86-.21,1,0-.92.09.15.22-.62.38a2.08,2.08,0,0,1,.56-.08s0,.06-.08.08c.92,0,.34-.36,1.24-.58-.08.16.27.19.41.12-.37.09-.23-.17.07-.35.6,0,.6-.23.9-.3l-.36,0c.08-.15.37-.2.73-.4.07.09-.32.2-.17.19.35-.37,1-.12,1.58-.49.31,0,.12.23.39.19.61-.39.79-.13,1.41-.58-.27-.07-.28,0,.12-.4L42,61.9l.61-.58c-.34.15-.65.46-.88.5.3-.27.27-.23,0-.29.57,0,.84-.57,1.43-.66l.18.41a2.87,2.87,0,0,0,1.12-.59,5.34,5.34,0,0,1,1.2-.83l-.35.12c0-.23.59-.38.86-.64.06.14.28.07.47.06-.08-.08.68-.49.59-.8l.53-.14c.79-.5.59-1,1.26-1.51-.09.3.28.11-.09.6.23-.2.44-.36.38-.44.19,0,.47-.7.77-.78,0-.13,0-.27.22-.48a0,0,0,0,1,.05,0s.29-.43,0-.34a3.69,3.69,0,0,0,1.29-1.12c.2-.23.4-.46.6-.66a1.89,1.89,0,0,1,.56-.48c.34-.55.78-1.19,1.1-1.67,0,0,.06,0,0,.12.53-.61-.1-.65.5-1.34.45-.28-.14.48.09.28.47.13.54-1,1.06-1.39l0,.15c.35-.35.34-1.13.7-1.8,0,0,0,.05.07,0a13.85,13.85,0,0,1,.46-2.25c.1.28,0,.35.21.28.09-.32-.33,0-.15-.65.16-.16.43-.58.63-.58,0,.2-.13.39-.2.59.38-.21.25-.77.37-1.08l.1.07c.21-1-.07-1,.2-2l-.11.09c-.16-.6.24-.43.12-1L58.2,41c0-.38-.07-1.33-.06-2a6.75,6.75,0,0,1,.23,1.68,4,4,0,0,0,.05-1.45,1,1,0,0,1,0,.48,5.25,5.25,0,0,1-.2-1.8c.57.16.26-1.89.62-2.44a9.29,9.29,0,0,1-.15-2c-.06-.67-.1-1.38-.23-2.14-.36.62-.08-.44-.52-.26-.08-.34-.13-.46-.1-.5v-1.1c.06-.28.18.3.27.25-.16-.77.11-.37.1-.91-.14.15-.3-.2-.35-.65l-.05.67c-.49-1,.09-1-.5-2l.26.28c-.27-.51-.72-2-1.33-2.31,0-.12.06-.29.19-.08a9.74,9.74,0,0,0-1.09-1.85,6.73,6.73,0,0,1-1-1.62l.15,0c-.16-.2-.39-.27-.49-.58.05,0,.15,0,.09-.08a2.6,2.6,0,0,1-.71-.73l.27.16a4.39,4.39,0,0,0-1.07-1.25,11.92,11.92,0,0,1-1.19-.92c.23-.21-.36-1.08-.71-1.46l0,0a11.14,11.14,0,0,0-1.62-1.29c-.53-.36-1.12-.61-1.72-1a4.35,4.35,0,0,0-1.52-1.31c-.69-.43-1.43-.93-2-1.29.17.14-.15.21-.39.13s-.92-.19-.75-.44l.11,0c-.11-.37-.75-.63-1.26-.79l-.23.33a4.9,4.9,0,0,0-2.24-1,3.75,3.75,0,0,1-1.88-.62,8.08,8.08,0,0,0-1.1,0L36.1,9a13.26,13.26,0,0,0-2.53-.38l.25-.13c-.66,0-.87.56-1.46.55l-.17-.33a9,9,0,0,0-3.4.08c0-.05.05-.14.23-.16-.54,0-2.09,0-1.84.42-.05-.27-1.16.14-1.73.38l.05-.23a2.48,2.48,0,0,1-1.12.72c-.17,0-.18-.13.05-.13-.58,0-.38.3-1.07.36l.21-.19c-.56.13-.5.17-.75.43s-1.05.33-1.2.18a.82.82,0,0,1-.61.46c-.07-.05,0-.14.08-.18-1,.18-1.22.81-1.91.89A.18.18,0,0,0,19,11.7c.7-.33,1.27-.59,1.22-.55-.08-.17-.66.07-.31-.39A5.67,5.67,0,0,1,18.29,12a.18.18,0,0,1-.1,0l0,0a1,1,0,0,0-.34.2,4.9,4.9,0,0,0-.46.21c-.14-.1-.66.31-.93.46.13.17-.24.35.18.3-.05,0,0-.05.21-.17l.1-.08v0l.66-.41a1.1,1.1,0,0,1-.68.51c-.07.2-.15.41-.19.51-.52,0-1.31.27-1.49.21-.69.68-1.8,1.38-1.95,2.12-.17.21-.3.12-.42.14.09-.14.23-.26.26-.36-.34.44-1.16,1.11-1.07,1.4-.58.37.09-.46-.54.23l0-.15A5.27,5.27,0,0,0,10,18.9,5.22,5.22,0,0,1,8.51,21c.11-.1.17-.14.22-.14C7.22,22.63,6.45,25,5.36,27a1.66,1.66,0,0,0-.17,1.12l-.26.07c0,.24.05.49.07.73a2.72,2.72,0,0,1-.49,1.25,2.12,2.12,0,0,0-.33,1.5l.17-.13c-.1.43-.12,1.38-.28,1.28a.28.28,0,0,1,0,.32H4a6.57,6.57,0,0,0,.1,1.08c-.13.82-.46-.17-.55,1.06,0,.46.28,1.29.37,1.12s.1-.46.22-.47l0,.41c.34.07.69.37,1-.59L5,35.08l.18-.21,0,.57a.75.75,0,0,0,0-.76.44.44,0,0,0,.2-.27L5,33.72c.15-.06.24.32.37-.11-.11-.32-.35.26-.37-.26.2-.3.32-.19.24-.58.1,0,.14,0,.16.2-.06-.35.09-.88-.07-1.09a1.6,1.6,0,0,0,.19-.67c.06-.23.13-.41.29-.36a2.24,2.24,0,0,1,0-.93c.24.64.31-1.12.68-.86-.26-.51.35-1.45.4-2.22,0,.05,0,.14,0,.2a3.29,3.29,0,0,1,.46-.68c-.25-.16,0-.77,0-1.17.48-.34.18.43.5.4-.23-.08.17-.9-.09-.83.33-.27.23-.27.53-.33-.29-.24.09-.37.07-.75.45-.39.37.05.6-.53C9.11,23,8.94,23.49,8.94,23.49ZM19,13h0l-.27.14Zm1.13-.54-.5.23c-.07-.05-.06-.14.06-.19C19.69,12.6,20,12.51,20.17,12.49Zm-3.09,0c.16-.13.24-.13.29-.11l-.3.21v0A.34.34,0,0,1,17.08,12.45Z"/><path class="cls-2" d="M16.9,12.88a.34.34,0,0,1-.06.06l.13,0,0-.1Z"/><path class="cls-2" d="M15.21,58.48l0,0,0-.06A.08.08,0,0,1,15.21,58.48Z"/><polygon class="cls-2" points="36.97 11.16 36.98 11.11 36.86 11.13 36.97 11.16"/><path class="cls-2" d="M10.59,53.16a.12.12,0,0,0,0-.1S10.58,53.11,10.59,53.16Z"/><path class="cls-2" d="M8.88,50.7l-.15-.4C8.79,50.48,8.84,50.61,8.88,50.7Z"/><path class="cls-2" d="M7.81,48.67a.16.16,0,0,0-.1,0h.1Z"/><path class="cls-2" d="M38.74,61.39l.08,0C39,61.27,38.88,61.32,38.74,61.39Z"/><path class="cls-2" d="M28.06,62.83l.36,0C28.23,62.74,28.08,62.71,28.06,62.83Z"/><polygon class="cls-2" points="48.83 55.23 48.83 55.23 48.89 55.18 48.83 55.23"/><path class="cls-2" d="M28.92,62.81a1.25,1.25,0,0,0-.5,0A1.39,1.39,0,0,0,28.92,62.81Z"/><path class="cls-2" d="M5,39.22v-.11s0,0,0,0Z"/><path class="cls-2" d="M5,39.1,5,39C5,39,5,39.09,5,39.1Z"/><path class="cls-2" d="M4.89,38.73,5,39C5,38.89,5,38.78,4.89,38.73Z"/><path class="cls-2" d="M5.44,42.22l.08,0A.11.11,0,0,0,5.44,42.22Z"/><path class="cls-2" d="M5.69,43.11a3.5,3.5,0,0,0-.1-.86H5.52C5.67,42.35,5.51,42.94,5.69,43.11Z"/><path class="cls-2" d="M6,47.12c-.09-.25-.15-.51-.23-.77,0,.16-.07.37-.21,0C5.73,47.43,5.69,46.13,6,47.12Z"/><path class="cls-2" d="M7,49.41c-.22-.37-.1.06-.15.06C7.05,49.68,7.1,49.72,7,49.41Z"/><path class="cls-2" d="M20,61.42l-.11.16C20.16,61.7,19.88,61.51,20,61.42Z"/><path class="cls-2" d="M23.47,61.69l-.27-.2L23,61.6A3.4,3.4,0,0,0,23.47,61.69Z"/><polygon class="cls-2" points="25.07 63.51 24.92 63.5 25.48 63.57 25.07 63.51"/><path class="cls-2" d="M52.53,54l-.24-.08C52.17,54.13,52.34,54.34,52.53,54Z"/><path class="cls-2" d="M58,42.18a.73.73,0,0,0,.21-.71C58.12,41.76,58,42,58,42.18Z"/><polygon class="cls-2" points="40.76 10.33 41.04 10.35 40.54 10.23 40.76 10.33"/><path class="cls-2" d="M2.3,34.81c-.07-.09-.22,0-.18.21l.26.16Z"/><path class="cls-2" d="M1.92,36.46c.13.28.36.59.58.39-.25-.26-.16-.34-.46-.63,0-.24.06-.43.16-.39-.07-.08,0-.37-.13-.5a1.27,1.27,0,0,0,0,1.14C2,36.56,2,36.48,1.92,36.46Z"/><path class="cls-2" d="M12.92,57l-.11-.11A.38.38,0,0,0,12.92,57Z"/><path class="cls-2" d="M26.89,62.12c-.11,0-.16,0-.17,0S26.92,62.14,26.89,62.12Z"/><path class="cls-2" d="M29.48,62.44h-.16A.23.23,0,0,0,29.48,62.44Z"/><path class="cls-2" d="M12.92,57l.27.31C13.26,57.26,13.06,57.14,12.92,57Z"/><path class="cls-2" d="M2.9,39.62a.67.67,0,0,0-.1-.19l.06.19Z"/><path class="cls-2" d="M7.88,52.68l-.08-.09a.38.38,0,0,0-.15,0Z"/><path class="cls-2" d="M4.89,48.52c.05.1.26,0,.36,0A.38.38,0,0,1,5,48.4.25.25,0,0,0,4.89,48.52Z"/><path class="cls-2" d="M2.29,40.89l-.07-.13Z"/><path class="cls-2" d="M10.42,55.32a.14.14,0,0,0,0,.09S10.43,55.36,10.42,55.32Z"/><path class="cls-2" d="M3.4,29.25h0S3.39,29.28,3.4,29.25Z"/><path class="cls-2" d="M1.74,34.81v-.08l-.12,0Z"/><path class="cls-2" d="M34.27,62.19h0C34.13,62.24,34.2,62.22,34.27,62.19Z"/><path class="cls-2" d="M55.85,28.94c-.06.51-.43-.73-.45,0C55.46,28.89,55.89,29.56,55.85,28.94Z"/><path class="cls-2" d="M2.89,39.75l0,.2C2.91,39.86,2.9,39.8,2.89,39.75Z"/><path class="cls-2" d="M55.4,29h0v0Z"/><path class="cls-2" d="M44.36,57.8a.22.22,0,0,0-.14,0S44.27,57.81,44.36,57.8Z"/><path class="cls-2" d="M36.89,61.09l.19,0A.49.49,0,0,0,36.89,61.09Z"/><path class="cls-2" d="M47.47,54.89a.63.63,0,0,0,.24-.18h-.06C47.63,54.78,47.59,54.83,47.47,54.89Z"/><path class="cls-2" d="M50.44,51.65l-.09,0-.07.11Z"/><path class="cls-2" d="M8.86,18a.64.64,0,0,1-.27,0C8.75,18.07,8.37,18.56,8.86,18Z"/><path class="cls-2" d="M2.78,39.65a.13.13,0,0,1,.11.1l0-.13S2.79,39.61,2.78,39.65Z"/><path class="cls-2" d="M46.46,53.57l.51-.42A5.32,5.32,0,0,0,46.46,53.57Z"/><path class="cls-2" d="M35.9,9.79h-.15A.27.27,0,0,0,35.9,9.79Z"/><path class="cls-2" d="M48.27,51.68a1.22,1.22,0,0,0,.36-.18s0-.06,0-.09Z"/><path class="cls-2" d="M8.58,18h0Z"/><path class="cls-2" d="M6.51,21.87c.33-.53-.08-.39-.14-.58.32-.69.35-.19.6-.34.17-.44.16-.88.39-1.15,0,0,.11,0,.11.06.12-.53.86-1.19,1-1.82a.24.24,0,0,1,.1,0,.58.58,0,0,1-.35-.17c.19-.22.23-.51.44-.48-.12.13-.08.19-.09.29l.14-.28c.38,0-.21.37-.06.49a7.18,7.18,0,0,1,1-1.42c.24.11-.64.83-.08.55L9,17.44c.65-.12-.31.29.34.22.67-.6.56-.86,1.26-1.42,0-.24-.2-.1-.14-.34.78-1.06,1.17-.2,1.64-1.09.08-.29,0-.59.61-.86v.36c.71-.49.15-.63,1-1-.06.19-.49.49-.37.44.61-.17.24-.39.61-.66l.22.15c.78-.49,1.53-1.24,2.45-1.74,0,.09-.14.24.11.21a12.28,12.28,0,0,1,1.82-.89c.67-.2,1.33-.36,1.94-.5l.38-.38c.1,0,.23,0,.12.11.5,0,0-.14.19-.28s.39,0,.24.14A12.11,12.11,0,0,1,23,9.24,4.23,4.23,0,0,1,24.69,9l-.16.09c.71,0,.73-.56,1.41-.46l-.12.06c1.54,0,3.26-.31,4.42.14.24-.32,1.5.21,1.64-.17a8.32,8.32,0,0,0,1.78.72c.32.06.53-.17.94-.12l0,.23.59-.1.22.34.38,0c-.14,0-.29-.18-.25-.24a2.48,2.48,0,0,1,.92.29c.25.15.42.33.41.38l1.39.3c-.06.08-.29,0-.49,0,.79,0,0,.27.76.31-.06-.08.1-.11.14-.15a5.54,5.54,0,0,0,1.51.79l-.17.1a30.83,30.83,0,0,1,3,1.58c-.32-.28-.09-.46.23-.31l0,.28c.27,0-.26-.26.24-.18.34.28.08.4-.17.32l.48.25c0,.08-.14,0-.22.09.27,0,.59.74,1,.72l0,.08a23.54,23.54,0,0,1,2.06,1.64c.16-.14.41.14.74.22a19.1,19.1,0,0,0,1.41,1.87c.47.39.25,0,.52.15-.13.16.39.83,0,.56.32.4.52.65.76.92l.39.45.5.64c0-.17-.06-.32,0-.29.15.19.21.51.11.53l0-.05a5.16,5.16,0,0,1,1,2.12,6.09,6.09,0,0,0,.84,1.95l0-.06.61,1.05c.16.53-.25-.26-.22.16a5.07,5.07,0,0,1,.42.78,5.66,5.66,0,0,1,.18.74,5.53,5.53,0,0,0,.41,1.4,4.12,4.12,0,0,0,.09,1.91c.07.37.16.75.2,1.11a3.38,3.38,0,0,1-.07,1l.13-.07c.14.28-.06.35-.08.56.1,0,.1-.32.18-.14a13.55,13.55,0,0,1-.11,3.7c-.09.62-.27,1.23-.4,1.84l-.2.91-.29.88c-.25.86.54.68,0,1.7l-.15-.39a12,12,0,0,1-.8,2.66,25.31,25.31,0,0,0-1.1,2.52c0-.12,0-.15,0-.31-.33.25-.72,1.18-.6,1.27-.16.23-.15,0-.3.1s-.29.94-.56,1c0,0,0-.12,0-.18-.07.24-.7.9-.39.83-.49.48-.69,1.11-1.13,1.43-.06.41-.86.78-.69,1.08-.23-.27-1,.7-1.21,1.08,0-.17-.35.17-.32,0-.35.33-.64.68-.46.75-.9.32-1.2,1.39-1.91,1.29l-.78.74-.82.62a14.23,14.23,0,0,1-1.65,1.13c-.1-.29,1.24-.73,1-1-.24.18-.46.37-.65.54l-.61.44a6.25,6.25,0,0,1-1.39.77c-.31.1.1-.21.17-.31a7.11,7.11,0,0,1-1.63.72c-.55.18-1.06.43-1.57.63,0,0,.09-.09.2-.14-.21.06-.51.08-.44.22l.19-.09c.41.12-.71.66-.72.78.25-.52-1.1.17-.65-.52-.13.07-.29.18-.24.27-.21,0-.29,0-.1-.18-.73.28-.44.34-1.14.46,0-.08.13-.12.18-.22a2.46,2.46,0,0,1-1.26.42c0-.05,0-.1.13-.12a9.67,9.67,0,0,1-2.85.48c.32-.34-.39-.09-.45-.37a3.09,3.09,0,0,1-.6.08l.24.15a9.14,9.14,0,0,1-1.46,0l.4-.1h-1l.56.14c-.55.11,0,.35-.68.24.15,0-.54,0-.8-.25h0a1.78,1.78,0,0,1-.94,0c-.09-.11.12-.3.07-.37-.3.19-1.25-.1-1.62,0a.17.17,0,0,0,.13-.21L23,60.8c-.22-.13-.25-.16-.19-.27-.71-.22.15.41-.67,0,.07,0,.05,0,.19,0a16,16,0,0,1-2.43-.69c-.13-.35.69.18.51-.14-.56-.18-1.15-.31-1.75-.45A6.78,6.78,0,0,1,17,58.6l.18.12c-.32.28-.68-.53-1.27-.64.13.05.26-.1.21-.08a20.65,20.65,0,0,0-2.48-1.26h.18c-.32-.35-.94-.76-1.31-1.1-.18,0-.4-.19-.35,0a5.37,5.37,0,0,0-1.59-1.53A3.42,3.42,0,0,1,9.2,52.63c.11.12.32.22.24.13L8.59,52c-.07.18,0,.18.09.45A1.76,1.76,0,0,1,8,52c.45.31.2-.18.15-.42,0,.06-.11,0-.14.09-.12-.68-.34.13-.67-.66l.1,0a3.59,3.59,0,0,1-.68-.67c.08-.23.28.21.42.13-.28-.37-.88-.52-.92-1,.15.14.3.38.47.51a2,2,0,0,0-.29-.84v0l-.31-.73,0,.21c-.73-.25-.74-1-1.36-1.52.62.55.22,0,.45,0,0-.21-.1-.51,0-.47-.32-.25-.13-.61-.6-1,.05,0-.17-.36,0-.36-.26-.4-.07.16-.17.16-.56-.58-.33-1.74-1-2.62-.39-.84-.65-.95-1-1.77.05-.31.32.17.32.17A3.36,3.36,0,0,0,2.54,40c.08.08.12,0,.18-.17-.07-.35-.3-.19-.26-.67a1.1,1.1,0,0,1,.34.3c-.13-.4-.33-.79-.46-1.21.11-.13.23.24.34.37a4.12,4.12,0,0,0-.5-1.35l-.05.32c0-.18.16-.11.21,0,.22.4,0,.6,0,.64l-.09-.3c-.38.37.26,1.22.33,1.84l-.35-.21.35.59c0,.15-.21.28-.31,0-.06.48.2.37.13.78,0,0,0,0-.06,0l.2.41c-.09-.07-.2.12-.22-.16,0,.83.55,1.19.39,1.54l0-.06c.42,1,.24,0,.76.74l-.34.7.25,0c0,.11.1.32,0,.32.29.34.07-.11.29.07a2.63,2.63,0,0,0,.27.94c.15.29.25.54.11.67.24.1-.1-.53.26-.05-.28.31.35.58.41,1.1-.25,0-.36-.52-.3,0,.42.12.35.92.65,1.25.25-.12.58.73,1,1.29-.14,0,.64,1.18,1,1.77h0c.31-.07.64.53,1,.85-.14.1-.26.08-.49-.09.1.13.21.24.32.36a1,1,0,0,1,.5.3l-.23,0a12.29,12.29,0,0,1,1.48,1.44c.17-.11-.09-.8.62-.33-.05.09-.15.24-.34.12a.91.91,0,0,1,.33.24l-.37-.1c.21.3.24,0,.44.23-.1.11.09.22,0,.28s-.15-.21-.27-.25a2,2,0,0,1,.48.75c0-.08.14-.15.33,0,.47.41,0,.28.26.58.17,0,.43.36.57.19.15.11.11.21.13.3.32.12,1.23.89,1.08.48l-.06-.07,0,0h0c.94.49,1.77,1.29,2.7,1.78l0,.06a8.09,8.09,0,0,0,1.73.64c.17.08.34.31.23.35a4.27,4.27,0,0,1,1.13.48c-.5,0,.11.16-.5-.09a2.59,2.59,0,0,0,1.36.48c-.29.1.36.39.66.44l-.37-.28a5.59,5.59,0,0,1,.87.32l-.23.18a3.67,3.67,0,0,0,1.73.38,2.68,2.68,0,0,1,1.48.41c.37-.12-.66-.22-.32-.38a8.71,8.71,0,0,1,1.31.6c.79.25.79-.22,1.62-.05-.1-.1-.18-.34.45-.39s.7.41.32.46c-.14,0-.21,0-.2-.06-.19,0-.45.05-.22.16l.08-.09c.29.11,1.11.14.91.27.45-.06.19-.13-.13-.19a9.79,9.79,0,0,0,2,.12c-.12,0-.24-.14-.11-.14,1.14.05.49-.2,1.26-.28.45.12-.14.34.63.18.49.07.13.23-.06.31a6.88,6.88,0,0,1,1.76-.07l-.37.13a3.84,3.84,0,0,1,.6-.13l-.24-.14c.22,0,.41,0,.41,0,.21-.15-.21-.27.2-.49.31,0,.87-.22,1,0-.92.09.15.23-.62.39a1.75,1.75,0,0,1,.56-.08s0,.05-.08.07c.91,0,.34-.36,1.23-.58-.08.16.27.19.41.13-.36.09-.22-.17.08-.35.6,0,.6-.24.9-.3l-.36,0c.08-.16.37-.21.73-.4.07.09-.32.19-.17.19.35-.38,1-.12,1.58-.49.31,0,.12.22.39.19.61-.39.78-.14,1.41-.58-.27-.07-.28,0,.12-.4l-1.06.65.6-.58a7.85,7.85,0,0,1-.87.49c.29-.27.27-.23.05-.28.56,0,.83-.58,1.43-.66l.18.4A2.85,2.85,0,0,0,42,59.08a5.35,5.35,0,0,1,1.2-.84l-.35.13c0-.23.58-.39.86-.64,0,.14.28.07.47.06-.08-.08.68-.5.59-.8l.52-.15c.79-.5.6-.94,1.27-1.5-.09.3.28.11-.09.6.22-.2.44-.36.37-.44.2,0,.48-.7.77-.78.05-.13,0-.27.23-.49,0,0,0,.06,0,.06s.29-.44,0-.35a3.56,3.56,0,0,0,1.29-1.11c.2-.23.4-.47.59-.66a1.87,1.87,0,0,1,.56-.48c.35-.55.78-1.19,1.11-1.68,0,.06.06,0,0,.13.53-.61-.1-.65.5-1.35.45-.27-.14.48.09.28.47.14.54-1,1.06-1.38l0,.15c.35-.36.34-1.13.7-1.81a.06.06,0,0,0,.07,0,12.68,12.68,0,0,1,.46-2.25c.1.28,0,.35.21.28.08-.32-.33,0-.16-.65.17-.17.44-.58.63-.59a6,6,0,0,1-.19.6c.38-.22.25-.78.37-1.08l.1.07c.21-1-.08-1,.2-2l-.11.08c-.16-.6.24-.43.12-1l.32-.12c0-.38-.07-1.32-.06-2A6.68,6.68,0,0,1,56,39.07a4.08,4.08,0,0,0,0-1.46,1,1,0,0,1,0,.49,5.08,5.08,0,0,1-.2-1.8c.57.16.26-1.9.62-2.44a9.29,9.29,0,0,1-.15-2c-.06-.68-.1-1.39-.23-2.14-.36.61-.08-.44-.52-.26-.08-.34-.13-.47-.1-.51v-1.1c.06-.28.18.31.27.25-.16-.77.11-.37.09-.9-.13.14-.29-.21-.34-.66l-.05.67c-.49-1,.09-1-.5-2l.26.28c-.27-.5-.72-2-1.34-2.31,0-.11.06-.28.2-.07a9.44,9.44,0,0,0-1.09-1.85,6.47,6.47,0,0,1-1-1.63l.15,0c-.16-.19-.39-.27-.49-.58,0,0,.15,0,.09-.08a2.42,2.42,0,0,1-.71-.72l.27.15a4.87,4.87,0,0,0-1.07-1.25,10.55,10.55,0,0,1-1.2-.91c.24-.21-.35-1.08-.71-1.47l.05,0a13.42,13.42,0,0,0-1.62-1.29c-.53-.35-1.13-.61-1.72-1a4.56,4.56,0,0,0-1.52-1.31c-.7-.43-1.43-.92-2-1.29.17.15-.15.21-.39.13s-.92-.18-.75-.44l.11.06c-.11-.37-.75-.63-1.26-.8l-.23.34a4.91,4.91,0,0,0-2.24-1,3.67,3.67,0,0,1-1.88-.62,8.08,8.08,0,0,0-1.1,0l0-.2A12.63,12.63,0,0,0,31.15,7l.25-.14c-.66-.05-.88.57-1.46.55l-.17-.32a9,9,0,0,0-3.4.07s0-.14.23-.16c-.54,0-2.09,0-1.84.43-.05-.27-1.17.14-1.73.38l0-.23A2.52,2.52,0,0,1,22,8.33c-.17,0-.18-.12.05-.13-.58,0-.38.3-1.07.37l.21-.2c-.56.14-.51.18-.76.44s-1,.32-1.19.18a.83.83,0,0,1-.61.45c-.07,0,0-.13.08-.17-1,.17-1.22.8-1.92.88a.15.15,0,0,0-.15-.06c.7-.33,1.26-.59,1.22-.55-.08-.18-.66.06-.32-.4a5.35,5.35,0,0,1-1.63,1.2l-.1,0,.05-.05a.77.77,0,0,0-.34.2,2.4,2.4,0,0,0-.46.21c-.14-.1-.66.3-.94.46.14.16-.23.35.19.3,0,0,0-.06.21-.17a.45.45,0,0,0,.1-.09v0l.66-.42a1,1,0,0,1-.69.51,4.69,4.69,0,0,1-.19.52c-.51,0-1.3.26-1.49.2-.68.69-1.79,1.38-1.94,2.12-.17.22-.31.12-.42.14.09-.13.23-.25.25-.35-.33.44-1.16,1.11-1.06,1.39-.58.37.09-.45-.54.24l0-.16a5.3,5.3,0,0,0-1.56,1.89,5.2,5.2,0,0,1-1.53,2.07c.11-.09.16-.14.22-.14C4.8,21,4,23.39,2.93,25.4c-.3.58-.15.71-.16,1.12l-.26.06c0,.25.05.49.07.73a2.87,2.87,0,0,1-.49,1.26,2.11,2.11,0,0,0-.34,1.5l.18-.13c-.1.42-.12,1.37-.28,1.28a.27.27,0,0,1,0,.32H1.56a6.7,6.7,0,0,0,.1,1.09c-.13.82-.47-.17-.55,1.05,0,.46.28,1.3.37,1.13s.09-.46.21-.48l.05.41c.34.08.68.37,1-.59l-.18-.68.18-.2,0,.56c.17-.31,0-.52,0-.76a.39.39,0,0,0,.2-.26l-.3-.69c.15-.07.24.32.37-.11-.11-.33-.35.26-.37-.26.2-.3.32-.19.24-.59.1,0,.14.05.16.2-.06-.34.09-.88-.07-1.08a1.65,1.65,0,0,0,.19-.67c0-.23.13-.41.29-.36a2.25,2.25,0,0,1-.05-.94c.25.65.32-1.11.68-.85-.25-.51.35-1.46.41-2.23,0,.05,0,.15,0,.2a2.93,2.93,0,0,1,.46-.67c-.25-.16,0-.78,0-1.17.48-.34.18.43.5.39-.23-.07.16-.89-.09-.82.33-.28.22-.27.53-.34-.29-.23.09-.36.07-.74.45-.39.37.05.6-.54C6.69,21.34,6.51,21.87,6.51,21.87ZM16.62,11.42h0l-.27.15Zm1.12-.55-.49.23c-.07,0-.06-.13.06-.19C17.26,11,17.55,10.9,17.74,10.87Zm-3.08,0c.16-.14.24-.14.29-.11l-.3.21v0A.3.3,0,0,1,14.66,10.84Z"/><path class="cls-2" d="M14.48,11.27l-.07.06.13,0,0-.09Z"/><path class="cls-2" d="M12.79,56.87l0,0s0,0,0-.06A.06.06,0,0,1,12.79,56.87Z"/><polygon class="cls-2" points="34.55 9.55 34.56 9.5 34.44 9.52 34.55 9.55"/><path class="cls-2" d="M8.17,51.55a.54.54,0,0,0,0-.11S8.16,51.5,8.17,51.55Z"/><path class="cls-2" d="M6.46,49.09l-.15-.4A3.19,3.19,0,0,0,6.46,49.09Z"/><path class="cls-2" d="M5.39,47.06a.33.33,0,0,0-.1,0h.1Z"/><path class="cls-2" d="M36.32,59.78l.08,0C36.58,59.65,36.45,59.71,36.32,59.78Z"/><path class="cls-2" d="M25.64,61.21a2.09,2.09,0,0,1,.35,0C25.8,61.12,25.66,61.1,25.64,61.21Z"/><polygon class="cls-2" points="46.41 53.61 46.41 53.61 46.46 53.56 46.41 53.61"/><path class="cls-2" d="M26.5,61.2a1.29,1.29,0,0,0-.51,0A2.19,2.19,0,0,0,26.5,61.2Z"/><path class="cls-2" d="M2.61,37.61V37.5h0Z"/><path class="cls-2" d="M2.56,37.49l0-.12C2.54,37.42,2.54,37.47,2.56,37.49Z"/><path class="cls-2" d="M2.47,37.12l.06.25C2.53,37.28,2.53,37.17,2.47,37.12Z"/><path class="cls-2" d="M3,40.61H3.1A.11.11,0,0,0,3,40.61Z"/><path class="cls-2" d="M3.27,41.49a3.37,3.37,0,0,0-.1-.85l-.07,0C3.25,40.73,3.09,41.32,3.27,41.49Z"/><path class="cls-2" d="M3.61,45.5c-.08-.25-.15-.51-.22-.77,0,.17-.07.38-.21,0C3.31,45.81,3.27,44.51,3.61,45.5Z"/><path class="cls-2" d="M4.59,47.79c-.22-.37-.11.06-.16.07C4.63,48.06,4.68,48.11,4.59,47.79Z"/><path class="cls-2" d="M17.54,59.81l-.12.16C17.74,60.09,17.46,59.9,17.54,59.81Z"/><path class="cls-2" d="M21.05,60.07a2.34,2.34,0,0,1-.27-.2l-.19.12A2.33,2.33,0,0,0,21.05,60.07Z"/><polygon class="cls-2" points="22.64 61.9 22.5 61.89 23.05 61.96 22.64 61.9"/><path class="cls-2" d="M50.11,52.39l-.25-.07C49.74,52.51,49.92,52.72,50.11,52.39Z"/><path class="cls-2" d="M55.55,40.57a.73.73,0,0,0,.21-.71C55.7,40.15,55.57,40.42,55.55,40.57Z"/><polygon class="cls-2" points="38.34 8.71 38.61 8.73 38.12 8.62 38.34 8.71"/><rect class="cls-3" x="13.28" y="29.02" width="6.32" height="22.16"/><path class="cls-2" d="M19.11,51.18c.06,0,.21,0,.18-.07L19,51.05Z"/><path class="cls-2" d="M19.57,50.62a.62.62,0,0,0-.56-.14c.23.09.13.12.42.22,0,.08-.08.14-.17.13s-.06.13.1.17.2-.24,0-.38A.25.25,0,0,1,19.57,50.62Z"/><path class="cls-2" d="M20,42.54l0,.06A.09.09,0,0,0,20,42.54Z"/><path class="cls-2" d="M20.09,37.54s0,.05.05.06S20.11,37.53,20.09,37.54Z"/><path class="cls-2" d="M20.36,36.68v.06S20.38,36.7,20.36,36.68Z"/><path class="cls-2" d="M20,42.54l.08-.13C20,42.4,20,42.48,20,42.54Z"/><path class="cls-2" d="M19,49.51a.13.13,0,0,0,.06.07.14.14,0,0,1,0-.07Z"/><path class="cls-2" d="M20.15,44.75v0l.1,0Z"/><path class="cls-2" d="M20.19,46.44s-.2,0-.29-.06c.08,0,.13,0,.14.08A.44.44,0,0,0,20.19,46.44Z"/><path class="cls-2" d="M19.82,49.13l0,0Z"/><path class="cls-2" d="M20.2,43.54l.07,0Z"/><path class="cls-2" d="M17.64,50.19v0S17.65,50.19,17.64,50.19Z"/><polygon class="cls-2" points="19.61 51.23 19.58 51.24 19.57 51.36 19.61 51.23"/><path class="cls-2" d="M20.63,35.12h0S20.65,35.15,20.63,35.12Z"/><path class="cls-2" d="M12.41,31c.19-.16.24.27.45,0C12.78,31,12.53,30.75,12.41,31Z"/><path class="cls-2" d="M19,49.46v0Z"/><path class="cls-2" d="M12.86,31h0v0Z"/><path class="cls-2" d="M20.51,31.52a.29.29,0,0,0-.1,0Z"/><path class="cls-2" d="M20.21,34.2l0-.06A.07.07,0,0,0,20.21,34.2Z"/><path class="cls-2" d="M20.21,30.07c0-.05,0-.08,0-.15l0,0S20.24,30,20.21,30.07Z"/><path class="cls-2" d="M19.69,28.42s0,0,0,0h.08Z"/><path class="cls-2" d="M14.17,50.28l-.14.15,0,0c.13-.14.23-.19.18-.19Z"/><path class="cls-2" d="M19.09,49.51c-.06,0-.08,0-.1,0l0,0A.11.11,0,0,0,19.09,49.51Z"/><path class="cls-2" d="M18.54,30.21l0,0S18.54,30.2,18.54,30.21Z"/><path class="cls-2" d="M14.14,40.72l0,.05S14.17,40.73,14.14,40.72Z"/><path class="cls-2" d="M18.54,30.09a1,1,0,0,0,.15-.16l-.06.06h0Z"/><path class="cls-2" d="M14,50.48Z"/><path class="cls-2" d="M14.82,50c-.22,0-.1.27-.15.43-.25.08-.15-.2-.18-.34,0,.07-.1.32-.15.31s0-.06.05-.12c-.16.22-.13,0-.46.29l.06-.07-.35.38-.05,0s-.13,0,0-.15c0,.05.06,0,.12,0h-.08c.26-.27.09,0,.28-.17-.08,0-.3,0-.22-.17.25-.13.08.15.31-.09l-.1.18c.41-.38,0,.06.41-.33.07-.08-.13,0-.06-.08-.14,0-.21.06-.35.06s-.06-.09,0-.12a.55.55,0,0,1,.19-.14c.15-.07.29-.13.12-.29s-.49-.12-.32-.35l.29.08c0-.31-.42-.18-.22-.49.11,0,.09.23.13.19.22-.21-.17-.15-.17-.31l.26,0c0-.32-.23-.68-.27-1,.07,0,.15.08.23,0a2.43,2.43,0,0,1,.18-1.4L14.11,46s.1-.07.14,0c.09-.17-.14,0-.22-.09s.12-.12.19-.06c-.19-.3-.4-.86-.17-1.17l.07.06c.09-.25-.45-.28-.25-.51l0,0c.1-.54-.1-1.13.23-1.53-.32-.08.14-.53-.3-.57.22-.3.3-.21.44-.64,0-.12-.27-.17-.32-.32h.23L14,41l.28-.1-.06-.14a.2.2,0,0,1-.17.11c-.11-.21.16-.51.28-.51l-.2-.5c.09,0,.13.1.19.16-.24-.26.24-.05,0-.29,0,0-.14,0-.18,0a.6.6,0,0,0,.08-.59l.16,0c0-.37-.08-.77-.07-1.18-.08.15-.35.11-.38,0l.24,0c-.15-.07-.09.13-.27,0,0-.15.27-.1.35,0l-.08-.18c.07,0,.11,0,.2,0-.15-.07.25-.32,0-.43h.07c0-.41-.08-.59-.1-.93-.21,0-.16-.13-.33-.23a2.42,2.42,0,0,0,.21-.81c-.1-.21-.17-.06-.3-.16.19,0,.17-.31.31-.15a2.79,2.79,0,0,0-.19-.9c-.08.05-.11.1-.18.07S13.9,34,14,34l0,0c-.29-.5.56-1.16.16-1.56l0,0L14,32.09c0-.19.15.11.27,0-.32-.45,0-.71-.17-1.07.28-.15.27-.4.24-.67l0-.09v0a0,0,0,0,1,0,0s0,0,.12,0l-.13-.07c-.13-.09.07,0,.1,0a2.2,2.2,0,0,1-.19-.12.32.32,0,0,1,0-.16.55.55,0,0,1,.33.14l0,0,.13,0,.27.06c.19,0,.37.08.54.1.32,0,.18-.69.58-.37l-.11.25c.64-.3,1.3,0,1.93-.24,0,.05,0,.13-.1.13.13.18.49,0,.49-.14.1,0,0,.13.08.21s.09,0,.11-.06,0-.09,0,0l0,.08c0-.09,0,0,.13-.19,0,.1.2-.09.14,0,.23-.17-.11.19.22,0-.34.23-.28.23-.12.26-.1,0-.1.05-.25.05,0,0,.07.24.25.18-.41.31.32.62-.2.8A7.58,7.58,0,0,1,19,32.61c-.34,0,0-.5-.39-.48.14.43.43.67.35,1.1-.05.11-.15-.06-.21-.1.14.43,0,.83.16,1.21,0,0-.07,0-.1-.08s0,.17.11.16l0-.07c.22-.12.46.3.58.31-.44-.13-.11.38-.67.18a.25.25,0,0,0,.21.1c0,.07-.09.09-.21,0,.09.27.25.17.25.41-.08,0-.11,0-.2-.07.15.12.29.25.23.45,0,0-.1,0-.1,0,0,.36.39.61.25,1-.33-.11-.11.14-.39.16l.08.21L19,37c0,.18.2.35.11.5L19,37.34l.05.34.11-.19c.14.18.35,0,.28.22,0-.05,0,.18-.17.28h0c.09.09.18.18.11.32s-.31,0-.37,0c.24.09.07.43.32.54a.43.43,0,0,0-.24,0l.19.08c-.06.08-.09.1-.21.08,0,.26.36-.08.21.22,0,0-.05,0-.08-.06-.08.31.12.59,0,.87-.28.08-.07-.25-.31-.15,0,.4.34.83.27,1.22l0-.07c.39,0-.2.29,0,.49,0-.05-.22-.07-.18-.05-.06.26.1.54.22.94l-.1-.05c-.09.16-.05.42-.1.59.1,0,.09.15.24.09-.59.52.31,1-.18,1.46,0-.06-.09-.13-.09-.09l.1.4c.17,0,.1-.06.24-.14a.32.32,0,0,1,.18.26c-.12-.18-.28,0-.38.08a.91.91,0,0,1,.17,0c-.31.2.35,0,.14.31h-.09c.05.1.17.2.14.31-.2,0-.09-.11-.26-.11,0,.16.38.31.18.46,0-.07,0-.17-.11-.24-.24.16-.18.18-.21.29h0l-.1.27.06-.06c.52.2.1.4.44.67-.33-.26-.19,0-.42-.06-.06.07-.13.17-.19.14.18.13-.15.22.12.4-.07,0,0,.13-.19.1.06.17.13,0,.22,0,.25.25-.31.6,0,1,.14.32.38.38.51.67-.12.1-.27-.08-.27-.08a.35.35,0,0,0,0,.43c-.07,0-.12,0-.2.05s.26.08.16.24a1.11,1.11,0,0,1-.3-.12c.07.14.21.28.27.43-.13,0-.19-.09-.27-.14,0,.17.11.43.31.48l.07-.1c0,.06-.17,0-.21,0s.07-.2.15-.21l0,.1c.43-.1-.06-.42,0-.63l.31.09-.26-.22c.08,0,.26-.08.31,0,.15-.15-.12-.14.06-.27a0,0,0,0,1,.05,0L19.73,49c.06,0,.22,0,.17.07.18-.27-.23-.43,0-.53v0c-.1-.37-.22,0-.49-.31L20,48l-.23,0s0-.11.12-.1c-.16-.14-.1,0-.25,0,.21-.19-.1-.51.27-.55-.17-.07-.13.18-.26,0,.4-.06-.06-.23.12-.39.2,0,.09.21.27,0-.34-.1.08-.33,0-.47-.27,0-.11-.31-.2-.54.09,0,.15-.45.25-.67h0c-.27,0-.22-.27-.28-.44a.36.36,0,0,1,.31.13v-.16A.26.26,0,0,1,20,44.6l.2,0c0-.2-.24-.41-.1-.68-.19,0-.54.21-.66-.07.1,0,.28,0,.32,0s-.09-.08,0-.13l.17.11c.08-.12-.14-.06-.13-.16s.11-.07.23-.06-.07.09,0,.12a.43.43,0,0,1,.23-.28c-.08,0-.2,0-.22-.08s.18-.07.25-.19c-.1-.05,0-.19-.21-.19,0-.06.1-.07.16-.09-.1-.11,0-.51-.26-.38l0,0h0c-.22-.36.13-.74,0-1.08H20c-.09-.21-.05-.47-.21-.62,0-.06.13-.14.22-.11-.05-.16-.14-.18,0-.41.12.16.11-.06.09.16.06-.2.18-.25,0-.47.19.07.24-.16.18-.26l-.13.15a.81.81,0,0,1,0-.31l.25.06c.3-.43-.52-.77,0-1.09-.17-.11-.12.23-.32.13,0-.19.39-.4.39-.46.14-.27-.37-.25-.27-.53a.3.3,0,0,1-.41-.14c0-.19.37-.24.44-.11a.05.05,0,0,1-.05.07c0,.06.07.14.17.06l-.09,0c.09-.1.08-.37.23-.3-.09-.15-.15-.07-.2,0,.13-.25,0-.39.1-.64-.05,0-.16.07-.16,0,.11-.37-.17-.16-.21-.42.14-.14.33,0,.22-.2.09-.16.23,0,.3,0-.17-.24.12-.44.15-.58l.07.13a.4.4,0,0,1,0-.2l-.18.07c0-.07,0-.13.11-.13-.12-.08-.3.06-.46-.09.09-.1-.1-.3.14-.33-.08.3.24,0,.28.22a.19.19,0,0,1,0-.18,0,0,0,0,1,.06,0c.21-.29-.26-.13-.26-.43.13,0,.25-.07.22-.12,0,.12-.22,0-.32-.06.1-.19-.08-.21-.06-.31l-.05.12c-.14,0-.12-.14-.16-.27s.07.12.12.07c-.24-.15.24-.34.08-.55.09-.09.25,0,.31-.09-.17-.23.18-.25,0-.5-.18.07-.13.08-.31-.09l.13.41L20.11,33c0,.12.11.25.08.33-.15-.13-.1-.11-.25-.06.27-.16-.16-.33,0-.52h.44c.2-.29-.23-.52-.12-.9l-.07.13c-.18-.05,0-.24-.1-.36.15,0,.2-.06.29-.12-.11,0,0-.27-.28-.31l.19-.16c.08-.31-.42-.35-.37-.64.16.09.27-.05.38.15,0-.1,0-.19-.07-.19s0-.09-.05-.17-.08-.21,0-.28-.22,0-.21-.19a.14.14,0,0,1,.07,0c-.07,0-.09-.19-.26,0,.32-.37.19-.77.2-1.1-.16,0-.27-.05-.3-.17-.35.05-.72.1-1,.11,0-.05,0-.08.06-.06-.36-.14-.28.42-.58.27s.16-.13.07-.22c0-.49-.37.07-.57-.22l0,0c-.16-.16-.38.19-.64.15a.15.15,0,0,0,0-.07,1.26,1.26,0,0,1-.75.4c.08-.19.11-.1.07-.3-.11,0,0,.31-.19.37-.07-.11-.23-.2-.25-.4h.21c-.11-.27-.27,0-.38,0v-.12c-.31,0-.32.33-.66.31l0,.09c-.19.29-.16-.16-.35,0l0-.29-.29.17a2.72,2.72,0,0,1-.43.17c.07-.22.49-.33.61-.46-.07,0-.54,0-.6.17.06,0,.14-.11.22-.06a.79.79,0,0,1-.67.34c-.17-.37-.55-.32-1-.36,0,.17-.07.31-.22.3a3,3,0,0,1,0,1.1c0,.15-.05.42-.07.5a1.46,1.46,0,0,0,0,.36c.45-.17,0,.15.47.12,0,.12,0,.16,0,.17l-.28.35c-.13.09-.1-.11-.2-.1,0,.26-.2.11-.32.28.16,0,.24.09.17.23l.21-.2c.25.36-.38.31-.14.67l-.14-.12c.08.19,0,.68.36.86,0,0-.18.08-.21,0-.05.44.39,1,.17,1.32l-.12,0c0,.08.21.14.1.25s-.11,0-.12,0,.2.22.13.33l-.12-.09c-.15.43.31.66.38,1-.33,0-.43.33-.49.5h0c-.05.5.27.85.4,1.31-.36.29-.15,1-.35,1.44.06-.07.25,0,.29.09s.23.31-.08.29v0c-.3.08-.22.3-.23.48l.4,0c-.58.45.21,1.19-.3,1.44.09.11.09.25.19.36h-.21a2.26,2.26,0,0,0,0,.83l-.15-.07c0,.21.61.27.62.46l-.31.06c0,.37-.28.75,0,1.11-.05,0-.14,0-.15-.07,0,.17-.22.67.22.61-.28,0,0,.38.1.58l-.21,0c.26.17.34.17.41.41,0,.06-.17,0-.11,0-.11.19.2.15.08.38l-.13-.09c0,.19.06.18.21.28s-.05.37-.24.4c.12,0,.27.13.22.24a.15.15,0,0,1-.14-.05c-.14.32.24.48,0,.7a.18.18,0,0,0-.13,0,2.64,2.64,0,0,1,0-.44c-.19,0-.22.2-.49,0,.15.16.46.45.37.65l-.07,0,0,0a.13.13,0,0,0,0,.13.49.49,0,0,0-.06.17c-.15,0-.08.23-.09.33.21,0,.18.13.35,0,0,0,0,0,0-.08s0,0,0,0h0v-.26c.11.09.2.17.08.28a3.2,3.2,0,0,1,.34.15c-.29.14-.45.41-.63.45.12.31.08.73.47.93,0,.09-.11.1-.17.14s0-.12-.1-.14a1,1,0,0,1,.1.36c0,.17.08.3.22.29-.12.34-.25-.11-.21.31l-.08,0a1,1,0,0,0,.09,1.08c.58-.17.91-.34,1.29,0,0,0-.08-.05-.08-.1a3.6,3.6,0,0,0,1.3,0,1.89,1.89,0,0,1,1.17.13c.21.08.24-.1.37-.23l.05.23.22-.26c.32-.2.55.55.95.19L18,51.51c.15,0,.46-.09.44.08,0,0,0-.16.1-.08v.12l.35-.2c.28.08,0,.47.36.49.15,0,.43-.34.37-.42a.22.22,0,0,1-.16-.19l.14-.07c0-.35.13-.7-.21-1l-.23.22-.08-.17h.2c-.11-.16-.18,0-.26.07a.26.26,0,0,0-.1-.18l-.23.33c0-.13.1-.27-.05-.34-.11.15.1.3-.08.4-.11-.16-.08-.28-.21-.15a.18.18,0,0,1,.06-.19c-.11.11-.3,0-.36.24-.12-.2-.4.05-.39-.28,0,.07-.2.26-.31.27.19-.4-.4,0-.35-.45-.15.36-.53.16-.78.36,0,0,0-.09.06-.07-.14,0-.18-.14-.28-.2,0,.29-.24.36-.36.54-.18-.29.1-.35.05-.62,0,.24-.31.24-.25.44-.13-.18-.12-.09-.19-.33,0,.37-.12.06-.23.29-.2-.19-.05-.35-.27-.24C14.63,50.11,14.82,50,14.82,50Zm-1-2.4h0v0Zm0-.43a1.09,1.09,0,0,0,0,.19c-.07,0-.14,0-.14-.05S13.78,47.22,13.84,47.15Zm-1.46.91c0-.06,0-.09.06-.1a.6.6,0,0,0,0,.12h0A.35.35,0,0,1,12.38,48.06Z"/><path class="cls-2" d="M12.66,48.19s0,0,0,0l.05,0-.07,0Z"/><path class="cls-2" d="M19.92,42.61h0l0,0Z"/><polygon class="cls-2" points="14.25 41.2 14.19 41.2 14.24 41.24 14.25 41.2"/><path class="cls-2" d="M19.19,45l-.05,0Z"/><path class="cls-2" d="M19.15,46l-.08.15A.56.56,0,0,0,19.15,46Z"/><path class="cls-2" d="M19,46.79l.09,0h0Z"/><path class="cls-2" d="M18.79,34.26v0C18.74,34.15,18.76,34.2,18.79,34.26Z"/><path class="cls-2" d="M19.29,38a.53.53,0,0,1-.1-.12C19.17,37.93,19.17,38,19.29,38Z"/><polygon class="cls-2" points="18.54 30.21 18.55 30.21 18.55 30.21 18.54 30.21"/><path class="cls-2" d="M19.19,37.69a.17.17,0,0,0,0,.18A.28.28,0,0,0,19.19,37.69Z"/><path class="cls-2" d="M19,50.21v0h0Z"/><path class="cls-2" d="M19,50.25l0,0S19,50.26,19,50.25Z"/><path class="cls-2" d="M19.05,50.38,19,50.3S19,50.36,19.05,50.38Z"/><path class="cls-2" d="M19,49.17h0Z"/><path class="cls-2" d="M19,48.85c0,.08-.16.19-.11.3H19C18.85,49.11,19.15,48.92,19,48.85Z"/><path class="cls-2" d="M20,47.53l-.06.26c.08,0,.19-.11.21,0C20.36,47.47,19.93,47.87,20,47.53Z"/><path class="cls-2" d="M20.09,46.7c0,.14.11,0,.16,0S20.16,46.6,20.09,46.7Z"/><path class="cls-2" d="M20.09,40.75h.19C20.25,40.65,20.2,40.76,20.09,40.75Z"/><polygon class="cls-2" points="19.09 39.61 18.98 39.71 19.15 39.77 19.09 39.61"/><polygon class="cls-2" points="20.46 38.93 20.49 38.98 20.42 38.8 20.46 38.93"/><path class="cls-2" d="M20.25,28.23l-.17.24a.73.73,0,0,0,.18-.11l.09-.08C20.38,28.23,20.36,28.2,20.25,28.23Z"/><path class="cls-2" d="M15.2,28.47c0-.12-.17-.19-.24-.08C15.05,28.41,15.15,28.5,15.2,28.47Z"/><polygon class="cls-2" points="12.35 40.05 12.27 39.97 12.34 40.13 12.35 40.05"/><circle class="cls-3" cx="16.47" cy="21.97" r="3.53" transform="translate(-8.69 32.97) rotate(-76.77)"/><path class="cls-2" d="M13.44,22c-.06,0-.21,0-.18,0h.25Z"/><path class="cls-2" d="M13,22.19a1.45,1.45,0,0,0,.56,0c-.24,0-.14,0-.42-.05,0,0,.07-.06.16-.06s.06,0-.1-.05-.19.1,0,.14Z"/><path class="cls-2" d="M14.22,25.13v0Z"/><path class="cls-2" d="M16.2,26s0,0,0,.05S16.2,26,16.2,26Z"/><path class="cls-2" d="M16.59,26.25l0,0S16.58,26.27,16.59,26.25Z"/><path class="cls-2" d="M14.22,25.13v.09C14.27,25.16,14.23,25.16,14.22,25.13Z"/><path class="cls-2" d="M13.63,22.5h-.07l0,0Z"/><path class="cls-2" d="M13.38,24.62h0l-.08.05Z"/><path class="cls-2" d="M12.9,24s.19-.08.27-.12c-.08,0-.12.05-.14,0Z"/><path class="cls-2" d="M12.82,22.81h0Z"/><path class="cls-2" d="M13.73,25l-.05.07Z"/><path class="cls-2" d="M14,21.43h0Z"/><polygon class="cls-2" points="12.89 21.97 12.88 21.96 12.76 21.96 12.89 21.97"/><path class="cls-2" d="M17.37,26.43Z"/><path class="cls-2" d="M20.76,21c-.16.11-.26-.06-.44.09C20.4,21.1,20.67,21.16,20.76,21Z"/><path class="cls-2" d="M13.6,22.52v0S13.61,22.52,13.6,22.52Z"/><polygon class="cls-2" points="20.32 21.13 20.32 21.13 20.3 21.14 20.32 21.13"/><path class="cls-2" d="M19,25.63l-.07-.07A.22.22,0,0,0,19,25.63Z"/><path class="cls-2" d="M17.69,25.91l0,0Z"/><path class="cls-2" d="M19.28,25s0,0,0,0l0,0S19.32,25,19.28,25Z"/><path class="cls-2" d="M19.73,24.5l0,0v0Z"/><path class="cls-2" d="M14.46,20.27l-.16-.11C14.42,20.25,14.41,20.33,14.46,20.27Z"/><path class="cls-2" d="M13.51,22.52h0Z"/><path class="cls-2" d="M18.16,23.76l.07,0Z"/><path class="cls-2" d="M17.2,19.41l0,0S17.19,19.43,17.2,19.41Z"/><path class="cls-2" d="M18.33,23.58l.14.07,0,0Z"/><path class="cls-2" d="M14.29,20.16h0Z"/><path class="cls-2" d="M14.46,20.8s-.22-.16-.35-.25.19.07.32.13c0-.08-.23-.25-.19-.28l.09.07c-.14-.17.08-.12-.09-.35l0,0L14,19.93s-.09-.17.05-.06c0,0,0,.06.07.11l0-.08c.22.15,0,.09.18.22,0-.1-.12-.31,0-.3.2.17,0,.15.2.25h-.12c.33.23-.05,0,.3.27.11,0,0-.17.09-.18-.09-.11-.15-.14-.24-.26-.06-.28.51.41.36.09-.1-.15-.29-.41-.12-.32l.16.24c.08,0-.21-.36,0-.26s0,.12,0,.14c.18.15-.06-.16,0-.19l.15.21c.06-.08.06-.3.14-.4a.61.61,0,0,0,.11.21c.06-.18.27-.09.43,0l0-.22a.27.27,0,0,1,.05.13c.07.07,0-.13,0-.22s.07.11.07.18c0-.2.17-.46.3-.24v.07c.09.08,0-.46.13-.27v0c.17.09.36-.12.47.22.05-.31.15.15.2-.28a2,2,0,0,0,.13.46s.1-.26.16-.29l-.05.23.11-.23,0,.28.05-.05a.38.38,0,0,1,0-.17c.09-.09.1.19.06.31l.2-.14a.55.55,0,0,1-.11.16c.16-.19-.07.23.07.05a1.22,1.22,0,0,1,.07-.17c0,.14.05.18.13.15l-.08.14c.07.07.22,0,.32.1a.59.59,0,0,1,.2-.32l-.12.21c.11-.11,0-.09.17-.22,0,0-.14.25-.2.3l.09,0a1.53,1.53,0,0,1-.13.16c.11-.11-.07.25.11.06l0,0c.09.07.17.05.25.1.15-.15.14-.1.28-.2,0,.11-.06.28,0,.33s.15-.1.26-.16c-.14.13-.08.19-.21.24a.59.59,0,0,0,.31.11.5.5,0,0,1,.14-.12s0,.09-.12.14h0c.35,0-.33.56.07.49h0l.24,0c0,.07-.15,0-.25.1.36,0,0,.2.25.25-.54.19.1.29-.26.44H19c.13,0-.08,0-.11.05s.12,0,.2,0c.17.26-.21.51-.38.68s.65.22.32.25l-.23-.1c.23.26-.13.32,0,.59,0,0-.11-.07-.1-.09-.17-.05-.08.11.05.19,0,0-.12-.06-.19-.09s.15.21,0,.13l-.05-.06c.06.07-.08.08.1.18-.12,0,0,.16-.13.13.15.18-.16,0,.07.24-.25-.23-.27-.1-.2,0-.06-.08-.1-.05-.19-.17,0,0,0,.11.1.24-.32-.25.06.37-.3,0a1,1,0,0,1-.15.56c-.15-.3.12-.11-.07-.42,0,.19,0,.47-.13.46s0-.14-.05-.2c-.07.18-.24.06-.29.27a.14.14,0,0,1,0-.09s-.07,0,0,.11v0a1.6,1.6,0,0,1,.05.59c-.07-.44-.15-.08-.21-.64a.52.52,0,0,0,0,.21s-.05-.08-.05-.2c-.06.1,0,.25-.08.26s0-.1,0-.19c0,.15,0,.3-.11.25s0-.11,0-.11-.17.4-.31.27c0-.32-.05-.1-.06-.38l-.06.08,0,.14c-.06,0-.12.19-.17.1l.05-.11-.12,0,.06.11c-.08.14,0,.36-.1.27s-.07,0-.08-.17h0c-.05.08-.09.17-.13.09s0-.3,0-.36c-.06.22-.15,0-.24.28a.87.87,0,0,0,.06-.23l-.06.18a.27.27,0,0,1,0-.21c-.08-.06-.06.35-.13.18,0,0,0-.05,0-.07s-.23.07-.29-.06.1,0,.14-.27c-.13,0-.38.22-.47.09v0c-.2.35,0-.22-.15-.08a.72.72,0,0,0,.1-.15c0-.1-.2,0-.39,0l.07-.07c0-.11-.08-.13-.1-.2s-.09,0-.17.17c.24-.55-.49,0-.25-.47,0,0,.09,0,.08,0l-.16,0c-.12.12-.06.08-.15.19s-.17.08-.2.05c.13,0,.21-.18.27-.26l-.13.1c.2-.25-.28.21-.18,0l.08-.06c-.06,0-.18,0-.19,0,.16-.13.1,0,.24-.11,0,0-.39.12-.25,0s.08,0,.14,0c.16-.18.12-.15.13-.2h0l0-.13,0,.05c-.48.21-.16-.06-.5,0,.33-.07.18-.08.38-.17s.1-.12.16-.14c-.19.05.1-.12-.17-.06.07,0,0,0,.16-.1-.08,0-.11.06-.2.09-.27,0,.22-.29-.15-.29-.16-.06-.4,0-.55-.1a.44.44,0,0,1,.26,0c.1-.08.06-.11,0-.15a.56.56,0,0,0,.2-.06s-.27,0-.17-.05h.29c-.07,0-.21-.06-.29-.1a.68.68,0,0,1,.29,0,.47.47,0,0,0-.34-.13l-.07,0s.17,0,.21,0-.06.08-.13.09l-.05,0c-.42.09.09.15.07.22l-.31,0,.27,0c-.08,0-.25.09-.3.05s.12,0,0,.12h-.06l.11,0c-.07,0-.21.06-.18,0-.15.16.27.11.05.22h0c.15.11.23,0,.52,0l-.51.26.22-.07s0,.06-.1.08c.17,0,.09,0,.24-.06-.17.15.17.14-.16.31.17,0,.09-.12.24-.1-.35.18.1.05,0,.19s-.13,0-.26.11c.32-.12,0,.16.09.18.24-.13.17.06.29.09-.08,0,0,.24,0,.38l0,0c.23-.15.24,0,.34,0a.61.61,0,0,1-.27.16l0,.05a.24.24,0,0,1,.18-.05l-.16.12c.07.07.3,0,.28.16.14-.14.32-.44.49-.46-.07.08-.19.21-.24.22s.08,0,.06,0l-.15.1c0,.09.12-.09.14-.05s-.05.1-.14.18,0-.07,0,0a.38.38,0,0,1-.06.25c0-.06.13-.14.17-.14s-.1.16-.1.25.06.06.2-.11c0,0,0,.1-.07.15s.2.11.29-.11v0h0c.24-.09.19.27.37.27l0,.07c.12,0,.21,0,.33-.08a.33.33,0,0,1-.05.23c.09,0,.12-.09.17.05-.12.1,0,.12-.11.07.06.09,0,.21.21,0-.1.17,0,.25.05.21l0-.15a.17.17,0,0,1,.13,0l-.1.23c.12.35.46-.4.5.12.08-.16-.08-.14,0-.33.08,0,.11.41.14.42s.16-.34.28-.24a.58.58,0,0,1,.09-.4c.08,0,.08.37,0,.44s0,0,0-.05a.13.13,0,0,0,0,.16l0-.08c0,.09.16.09.12.23.08-.08,0-.14,0-.19.11.13.18,0,.3.09s0-.15,0-.15c.18.1.07-.17.18-.21.07.13,0,.32.1.2.08.09,0,.23,0,.31.09-.18.22.08.29.11l-.05.08c0-.05.06-.05.1-.06l-.07-.17s.07,0,.08.1c0-.12-.07-.29,0-.46.06.08.11-.11.18.11-.16-.05.06.23-.06.29s0,0,.09,0a.06.06,0,0,1,0,.06c.19.18,0-.27.15-.3,0,.13.1.23.11.2s-.08-.21-.06-.32c.12.08.08-.1.12-.1l-.06,0c0-.13,0-.13.06-.19,0,.1,0,.09,0,.13,0-.25.22.17.26,0,.07.07.09.23.16.27,0-.19.18.12.24-.06-.11-.14-.1-.1-.1-.3l-.12.2v-.29s-.06.16-.11.14,0-.12-.07-.24c.17.21.06-.2.21-.07l.19.39c.22.12.12-.31.32-.3l-.09,0c-.07-.16.07-.07.08-.16a.83.83,0,0,0,.21.21c-.06-.08.11-.07-.05-.32l.18.12c.17,0-.13-.43,0-.47.07.15.19.18.2.33,0,0,.08,0,0-.11.08.05,0-.23.08-.16,0-.06-.13-.17-.09-.19a.11.11,0,0,1,.05,0s0-.12-.16-.21c.42.22.22-.27.59-.12a.88.88,0,0,1,.08-.3s.06,0,0,.05c.18,0-.32-.29-.12-.32s.07.13.17.14c.43.23,0-.17.32-.12l0,0c.18,0-.09-.25,0-.33l.07,0a.79.79,0,0,1-.26-.45c.17.09.08.08.27.12,0-.05-.29-.09-.31-.19a1.21,1.21,0,0,1,.41,0l0,.09c.28,0,0-.12.09-.15l.11,0c0-.16-.28-.23-.23-.37h-.09c-.27-.14.17,0,0-.15l.29,0a3.06,3.06,0,0,1-.3-.32,1.24,1.24,0,0,1,.43.29.22.22,0,0,0-.14-.24s.1.07.05.08c-.22-.09-.33-.18-.32-.28.57,0,.16-.27.59-.36-.22-.19.06-.41,0-.65-.43.16,0-.07-.47,0,0,0,0-.06,0-.07l.23-.22c.11-.07.11,0,.21,0s.17-.1.27-.22c-.16.06-.24,0-.2-.07l-.18.16c-.27-.09.33-.26,0-.35h.15c-.11-.06-.12-.33-.5-.25.05,0,.15-.11.2-.09-.05-.23-.56-.23-.46-.48l.11-.05c-.05,0-.21.06-.15,0s.1-.05.1-.07-.23,0-.21-.05l.13,0c0-.27-.43-.07-.6-.13a.47.47,0,0,0,.19-.52l0,0c-.16-.2-.49-.08-.74-.1.1-.38-.3-.39-.41-.66a.43.43,0,0,1-.17.24c0-.09-.22.14-.09-.13v0c.09-.29,0-.27-.12-.31l-.16.37c0-.63-.59,0-.57-.49-.07.08-.14.07-.21.16l0-.21a.49.49,0,0,0-.4-.09l.05-.15c-.11,0-.18.61-.26.61l0-.31c-.17,0-.37-.27-.53,0,0,0,0-.14,0-.15s-.37-.18-.27.25c0-.28-.19,0-.25.14l0-.21c0,.28,0,.35-.09.45s-.07-.16,0-.11c-.11-.09,0,.2-.14.12V18c-.09,0-.06.08-.06.24s-.16,0-.24-.17c0,.11,0,.27,0,.24a.22.22,0,0,1,0-.13c-.19-.09-.09.3-.27.16a.29.29,0,0,0-.07-.11.46.46,0,0,1,.2-.06c-.08-.17-.18-.16-.22-.44,0,.17,0,.51-.12.47l0-.05v0s0,0,0,.06-.07,0-.1,0-.14,0-.19,0c.11.18,0,.18.18.3,0,0,0,0,0,0s0,0,0,0v0l.1-.07c0,.11,0,.21-.07.13l.12.33c-.2-.23-.4-.29-.51-.42-.05.18-.25.27-.05.63,0,.07-.11-.05-.16-.09s0-.06,0-.11c0,.13-.16.19,0,.4-.16,0-.14-.22-.2-.09l-.05-.07c-.53-.08.25.77-.37.66a.13.13,0,0,1,.1,0c-.4.15-.14.67-.61.83-.11.07,0,.14.16.23l-.22-.05.22.17c.16.17-.61.1-.28.36h.16c0,.06.06.21-.12.17,0,0,.16,0,.08.06h-.12l.19.17c-.1.11-.47-.06-.51.13a.68.68,0,0,0,.42.17s.08-.06.2-.06l.06.05a2.42,2.42,0,0,0,.95-.06l-.21-.08h.17v.06c.16,0,0-.05-.08-.08l.19,0-.33-.1c.14,0,.27.06.35,0-.15,0-.31,0-.4-.06.16,0,.29,0,.16-.05a.53.53,0,0,1,.18,0c-.1-.05,0-.09-.21-.14.2,0,0-.13.29-.06a.83.83,0,0,1-.24-.15c.37.15.06-.12.46,0-.34-.15-.1-.19-.26-.33L14,21a.56.56,0,0,1,.22,0,1.63,1.63,0,0,1-.45-.32c.28.07.3.17.55.27-.21-.1-.17-.18-.36-.25a.87.87,0,0,1,.32.1c-.32-.18,0-.06-.22-.2.19,0,.31.16.24.05A.47.47,0,0,1,14.46,20.8Zm.65-1.46h0l0,0Zm.12-.06-.06,0c0-.07-.06-.14-.05-.14S15.19,19.23,15.23,19.28Zm-1-1.12c0-.05,0,0,.07,0a.11.11,0,0,0,0,.05v0A.63.63,0,0,1,14.23,18.16Z"/><path class="cls-2" d="M14.32,18.42v0l0,0,0-.06Z"/><path class="cls-2" d="M14.22,25.08h0s0,0,0,0Z"/><polygon class="cls-2" points="17.04 19.48 17.05 19.43 17.03 19.47 17.04 19.48"/><path class="cls-2" d="M14.05,23.94l0,0Z"/><path class="cls-2" d="M13.89,23.63l0-.08A.2.2,0,0,0,13.89,23.63Z"/><path class="cls-2" d="M13.84,23.35l-.08,0h0Z"/><path class="cls-2" d="M17.26,24.57h0S17.26,24.53,17.26,24.57Z"/><path class="cls-2" d="M16.1,25.16a.31.31,0,0,1,0-.1S16.11,25,16.1,25.16Z"/><polygon class="cls-2" points="18.15 23.76 18.15 23.77 18.16 23.76 18.15 23.76"/><path class="cls-2" d="M16.21,25.07s0,0-.06,0S16.19,25.1,16.21,25.07Z"/><path class="cls-2" d="M13.62,22.28h0Z"/><path class="cls-2" d="M13.59,22.27h0Z"/><path class="cls-2" d="M13.51,22.23l.05,0S13.57,22.23,13.51,22.23Z"/><path class="cls-2" d="M13.58,22.62h0Z"/><path class="cls-2" d="M13.62,22.72s.15-.1.09-.12h-.06C13.77,22.6,13.49,22.73,13.62,22.72Z"/><path class="cls-2" d="M12.89,23.5l0-.13c-.07.05-.17.11-.2.07C12.53,23.67,12.87,23.34,12.89,23.5Z"/><path class="cls-2" d="M12.94,23.87c-.06,0-.11.06-.15.08S12.9,24,12.94,23.87Z"/><path class="cls-2" d="M14.83,25.63l-.08.17C14.81,25.8,14.78,25.73,14.83,25.63Z"/><polygon class="cls-2" points="15.59 24.86 15.59 24.73 15.52 24.89 15.59 24.86"/><polygon class="cls-2" points="15.51 26.25 15.48 26.27 15.58 26.22 15.51 26.25"/><path class="cls-2" d="M19.8,24.71l-.19-.14C19.62,24.62,19.82,24.8,19.8,24.71Z"/><path class="cls-2" d="M20.45,22.83c.12,0,.2,0,.09-.1S20.43,22.8,20.45,22.83Z"/><polygon class="cls-2" points="18.01 17.79 18.08 17.73 17.98 17.77 18.01 17.79"/><path class="cls-3" d="M42.33,30.2q2.14,1.77,2.14,5.88V50.79H38.62V37.5a6,6,0,0,0-.46-2.64A3.2,3.2,0,0,0,35,33.18a4,4,0,0,0-4,2.46A8.56,8.56,0,0,0,30.46,39V50.79H24.75V29h5.53v3.18a9.82,9.82,0,0,1,2.08-2.42,7.19,7.19,0,0,1,4.45-1.32A8.39,8.39,0,0,1,42.33,30.2Z"/><path class="cls-4" d="M42.33,30.2q2.14,1.77,2.14,5.88V50.79H38.62V37.5a6,6,0,0,0-.46-2.64A3.2,3.2,0,0,0,35,33.18a4,4,0,0,0-4,2.46A8.56,8.56,0,0,0,30.46,39V50.79H24.75V29h5.53v3.18a9.82,9.82,0,0,1,2.08-2.42,7.19,7.19,0,0,1,4.45-1.32A8.39,8.39,0,0,1,42.33,30.2Z"/><path class="cls-2" d="M42,30.58c.09,0,.15-.14,0-.22l-.24.13Z"/><path class="cls-2" d="M41.37,29.58c-.23,0-.52.09-.52.35.27-.12.26,0,.58-.15.16.06.2.22.13.28s.17.19.34.11a.59.59,0,0,0-.62-.45C41.25,29.64,41.34,29.61,41.37,29.58Z"/><path class="cls-2" d="M29.71,28.64l.12,0A.21.21,0,0,0,29.71,28.64Z"/><path class="cls-2" d="M24.27,34.46c0-.07,0-.11-.05-.11S24.25,34.48,24.27,34.46Z"/><path class="cls-2" d="M24,36.22v-.1S24,36.2,24,36.22Z"/><path class="cls-2" d="M29.71,28.64l-.34-.08C29.33,28.64,29.54,28.62,29.71,28.64Z"/><path class="cls-2" d="M39.12,29.32a.33.33,0,0,0,.15,0h-.13Z"/><path class="cls-2" d="M30.19,31.33l0-.07s0-.07,0-.12Z"/><path class="cls-2" d="M32.85,28.74c-.09,0,0,.23,0,.33a.25.25,0,0,1,.09-.21A.35.35,0,0,0,32.85,28.74Z"/><path class="cls-2" d="M38.54,28.34h0Z"/><path class="cls-2" d="M30.88,30.32s.06,0,.07,0A.13.13,0,0,0,30.88,30.32Z"/><path class="cls-2" d="M43.28,33.86h0S43.27,33.84,43.28,33.86Z"/><path class="cls-2" d="M42.36,30.16l0,0,.09-.09Z"/><path class="cls-2" d="M23.73,39.44v0C23.71,39.34,23.71,39.39,23.73,39.44Z"/><path class="cls-2" d="M31.35,38.38c-.2.31-.21-.53-.45-.06C31,38.28,31.21,38.77,31.35,38.38Z"/><path class="cls-2" d="M39.05,29.27l-.13,0A.32.32,0,0,0,39.05,29.27Z"/><path class="cls-2" d="M30.9,38.32h0l0,0Z"/><path class="cls-2" d="M23.85,46.85a.24.24,0,0,0,.09-.08S23.9,46.79,23.85,46.85Z"/><path class="cls-2" d="M24.15,41.33l0,.13A.39.39,0,0,0,24.15,41.33Z"/><path class="cls-2" d="M24.15,49.78a.59.59,0,0,0,0,.3l0,0A.33.33,0,0,1,24.15,49.78Z"/><path class="cls-2" d="M26.65,51.39l0,0h-.09Z"/><path class="cls-2" d="M43.59,42.71a.79.79,0,0,1,.18-.14C43.62,42.62,43.57,42.18,43.59,42.71Z"/><path class="cls-2" d="M39.15,29.21a.12.12,0,0,1-.1.06l.09,0A.12.12,0,0,0,39.15,29.21Z"/><path class="cls-2" d="M25.81,49.61l0,.08A.16.16,0,0,0,25.81,49.61Z"/><path class="cls-2" d="M39.48,43.32l0,.11A.14.14,0,0,0,39.48,43.32Z"/><path class="cls-2" d="M25.93,49.73a.2.2,0,0,0,0,.15s0,0,0-.06S26,49.76,25.93,49.73Z"/><path class="cls-2" d="M43.78,42.57h0Z"/><path class="cls-2" d="M43.28,39.45c0,.45.27.21.43.31.07.54-.21.25-.35.43.07.34.33.6.32.85,0,0-.06.07-.12,0,.22.35,0,1.05.29,1.47,0,0-.05,0-.07,0a.79.79,0,0,1,.38-.06c0,.2.17.37,0,.45,0-.12-.07-.13-.12-.19l.08.21c-.27.19-.09-.29-.29-.29a3.65,3.65,0,0,1,.23,1.21c-.26.07-.09-.74-.31-.31l.09-.49c-.4.37,0-.3-.4,0-.07.65.13.72.06,1.37.14.14.21,0,.35.09.25.92-.64.72-.3,1.4.17.17.49.24.32.72l-.29-.17c0,.63.42.36.22,1-.11-.12-.09-.5-.13-.4-.23.42.17.3.17.62l-.26.07c0,.34.08.68.13,1s.1.59.14.88c-.07-.05-.15-.11-.23-.08a.66.66,0,0,1,0,.27,1,1,0,0,1-.35-.07l0,0-.12,0-.26,0-.5-.08L42,50c-.08,0-.15-.1-.06-.14-.35-.08,0,.14-.19.23s-.26-.13-.13-.19a7.54,7.54,0,0,1-1.19.24,4.75,4.75,0,0,1-.64,0,.25.25,0,0,1-.21-.1l.07-.06c-.06-.07-.31.22-.52.28a.24.24,0,0,1,0-.18h0a3,3,0,0,0,0-.41c0-.25,0-.49,0-.73a4.24,4.24,0,0,1,.21-1.48c-.32-.16.14-1.09-.3-1.16A4.57,4.57,0,0,0,39.62,45c0-.23-.27-.35-.32-.64h.23l-.24-.39.27-.21-.06-.28c0,.11-.1.23-.17.22a1.26,1.26,0,0,1,.28-1l-.19-1c.09,0,.12.19.18.32-.23-.54.25-.1,0-.59-.05.07-.14,0-.18,0a2.37,2.37,0,0,0,.08-1.22l.16.08c0-.75-.08-1.58-.08-2.42-.07.3-.35.23-.37,0l.24-.1c-.15-.16-.09.25-.28-.07,0-.33.28-.23.36,0l-.09-.41c.07,0,.11.07.21.09-.16-.16.21-.75-.09-1l.07,0a4.84,4.84,0,0,0-.85-2.22c-.18.1-.35-.21-.66-.28a3.09,3.09,0,0,0-1.7-1.21c-.53,0-.19.14-.43.22,0-.21-.71-.26-.33-.36a4.4,4.4,0,0,0-2.09.3c.13,0,.26.06.2.14s-.43,0-.43-.08l.05,0c-.54.29-1.23.45-1.85.82a2.16,2.16,0,0,0-1.17,1.43v-.06a5.11,5.11,0,0,0-.2,1c-.17.41-.06-.3-.27,0,0,1.08-.4,1.59-.25,2.43-.6.65,0,2.11-.34,2.91l.13,0c.13.2-.08.24-.11.4.11,0,.12-.23.2-.1a34.8,34.8,0,0,1-.32,5.36c0,.65.69.37.37,1.18l-.24-.23a8,8,0,0,1,.14,1.54v.42a1.15,1.15,0,0,0,0,.18.4.4,0,0,0-.17.09s0-.13,0-.13l-.06-.07h0l-.08,0c-.22,0-.4.12-.41.19-.2,0,0-.13-.17-.21s-.68.23-.82.06.07-.06.12-.08c-.17.09-.82,0-.65.19-.48-.1-.94.09-1.29,0a.1.1,0,0,1-.16.07c-.05,0-.08,0-.23.14.1-.13.12-.2.11-.23s0-.12-.12-.17c.11,0,.11-.09.25-.09s0,0,0-.07,0-.15,0-.21-.1-.18-.19-.15c.41-.64-.33-1.28.19-1.65-.18-1-.3-2-.38-2.91.34,0,0,1,.39,1a8.11,8.11,0,0,1-.35-2.26c0-.23.15.13.2.2-.14-.88,0-1.7-.15-2.48,0,0,.07.08.09.16,0-.15.05-.36-.1-.34l0,.15c-.22.25-.47-.61-.58-.64.44.26.11-.77.66-.36,0-.1-.1-.23-.2-.2,0-.15.09-.2.21,0-.09-.55-.25-.35-.25-.86.08,0,.11.11.19.16a1.29,1.29,0,0,1-.22-.93s.1,0,.1.1c0-.73-.39-1.24-.25-2,.32.24.11-.27.39-.31l-.09-.43-.13.17c0-.38-.2-.71-.11-1l.12.28-.06-.71-.1.4c-.15-.38-.36,0-.28-.46,0,.1,0-.37.17-.57h0a.87.87,0,0,1-.11-.65c.09-.08.31.06.37,0-.24-.19-.07-.88-.32-1.11a.23.23,0,0,0,.24.05l-.19-.15c.06-.18.09-.2.2-.17,0-.53-.35.16-.2-.46,0,.05.05,0,.07.13a4.59,4.59,0,0,0,0-.91,1.73,1.73,0,0,1,0-.64c.28.08.07.35.3.34a3.3,3.3,0,0,0-.08-.42,2.24,2.24,0,0,1,1.21-.18l-.15,0c.11-.4.6.19,1,0-.1,0-.13.22-.1.17a7.38,7.38,0,0,0,1.9-.22l-.08.1a2.61,2.61,0,0,0,.66.09v0c.1,0,.09.12.24-.09a1.78,1.78,0,0,0-.21.63,3.13,3.13,0,0,0,.08.66,2.33,2.33,0,0,1,0,1.43l-.44,1,1.24-.73.05,0,0,0-.55,1.34-.31-1.6c0-.1-.09-.2-.09-.12l0,.12L30,34l.78-1.5.31-.6c-.17-.05-.14,0-.35.09a.77.77,0,0,1,.16-.54c-.12.36.22.16.39.1,0,0-.07-.09-.12-.11.5-.14-.24-.28.29-.59l.05.08a1.64,1.64,0,0,1,.33-.57c.21.07-.09.23,0,.35.2-.23.18-.72.54-.76a4.56,4.56,0,0,0-.27.39.87.87,0,0,0,.56-.2h0l.48-.2-.14,0c0-.66.62-.49,1-1-.37.5,0,.21,0,.43.14,0,.35,0,.32.1.17-.25.41,0,.68-.32,0,.06.25,0,.23.15.3-.12-.09-.12-.08-.21.45-.35,1.16.13,1.87-.19.63-.12.76-.37,1.38-.41.18.14-.2.24-.2.24a1.51,1.51,0,0,0,.85.15c-.07.05,0,.12,0,.21.23,0,.22-.22.5,0a1.07,1.07,0,0,1-.31.22,6.46,6.46,0,0,1,.88,0c0,.14-.23.12-.35.17.32,0,.81.19,1,.06l-.16-.16c.11.05,0,.19-.11.18-.32,0-.35-.21-.34-.29l.22,0c0-.49-.83-.23-1.22-.34l.25-.26-.49.15c-.08-.1-.11-.28.11-.28-.28-.22-.29.05-.53-.16,0,0,0,0,0-.05l-.32.05c.07-.06,0-.23.16-.16-.54-.25-.92.15-1.11-.1h0c-.77.09-.08.22-.65.49-.13-.19-.26-.38-.4-.56l-.07.24c-.08,0-.24,0-.21-.11-.29.19.05.1-.1.26-.41-.18-1,.25-1.18-.08-.09.2.39.05,0,.26-.21-.36-.44.18-.82.13,0-.23.4-.24,0-.3-.08.39-.68.19-.94.41.11.24-.53.41-.88.82,0-.11-.82.53-1.18.84l0,0c.15.25-.19.59-.35.91-.12-.11-.14-.2-.08-.4l-.2.27a.6.6,0,0,1-.09.42L30,31.5a2.25,2.25,0,0,0-.19.38l1,.29a2,2,0,0,1,0-1c-.19,0-.54.44-.66-.14.1,0,.28,0,.32.11,0,0-.09-.18,0-.28l.17.23c.08-.25-.14-.13-.13-.33.15,0,.11-.15.23-.12s-.07.18,0,.25a1.07,1.07,0,0,1,.23-.58c-.09,0-.2,0-.22-.19,0-.56.18-.21.25-.61-.1-.11,0-.57-.21-.43a.89.89,0,0,1,.16-.4,1,1,0,0,1,0-.24c-.49,0-1.14,0-1,.22l.07,0h-.05a3.44,3.44,0,0,1-1.27,0,4.17,4.17,0,0,0-1.11-.06v-.08a6,6,0,0,0-1.26.21c-.13,0-.3-.13-.25-.22a2.12,2.12,0,0,1-1.09,0c.36-.13-.23-.12.4-.1a4,4,0,0,0-1.1-.07c0,.11.05.26.09.42-.19-.4-.24.31-.18.66l.13-.38a6.59,6.59,0,0,1,0,.89,1.57,1.57,0,0,1-.25-.2,2.05,2.05,0,0,0-.06.77,4.75,4.75,0,0,0,.14.57,1.07,1.07,0,0,1-.08,1c.18.23.13-.47.33-.27,0,.4-.39.82-.39,1-.14.54.36.51.27,1.08.09-.07.33-.14.41.29s-.37.49-.45.24,0-.15.06-.14-.07-.3-.17-.14l.09,0c-.09.2-.08.75-.23.62.09.3.15.13.19-.09-.13.51,0,.8-.09,1.33,0-.09.16-.16.15-.08-.11.77.17.34.21.87-.13.29-.32-.11-.21.42-.09.32-.23.07-.31-.06.18.48-.11.9-.14,1.17l-.07-.25a1.46,1.46,0,0,1,0,.4l.18-.14c0,.15,0,.27-.11.27.12.15.3-.12.46.19-.09.2.09.6-.14.67.08-.62-.24.07-.28-.46a.81.81,0,0,1,0,.38s-.05,0-.06-.06c-.22.59.26.27.26.89-.14-.08-.26.14-.23.25,0-.25.22-.12.33.11-.11.39.07.43.06.64l.05-.24c.13.08.12.28.16.55-.11,0-.07-.25-.12-.15.24.31-.24.7-.08,1.13-.09.19-.25,0-.31.19.17.48-.19.52,0,1,.17-.15.13-.18.31.18L24,43.19l.26.53c0-.25-.11-.53-.08-.68.14.26.1.23.25.11-.27.34.15.68,0,1.08H24c-.2.59.23,1.06.12,1.83l.07-.25c.18.1,0,.48.1.73-.15,0-.2.13-.3.24.11,0,0,.57.29.64l-.2.34c-.08.63.43.72.38,1.32-.16-.18-.27.09-.38-.31,0,.2,0,.38.07.38-.05.06,0,.2,0,.35a.9.9,0,0,1,0,.54c.06.11.22.09.21.39a.08.08,0,0,1-.08,0c.08,0,.1.4.27,0a2.38,2.38,0,0,0-.18.66,7.72,7.72,0,0,0,1.29,0,2.28,2.28,0,0,1,.55,0,.83.83,0,0,1,.38.14c.44-.05,1-.1,1.36-.11,0,0,0,.08-.07.06.54.14.33-.42,1-.27.32.24-.33.13-.14.22s.24.23.47.19a2,2,0,0,1,1.06,0l-.14,0a2.08,2.08,0,0,0,1-.06,5.16,5.16,0,0,1-.1-1s0,.06.07,0a7.65,7.65,0,0,1-.26-1c-.06-.28-.1-.57-.14-.83.19.16.1.23.3.14,0-.23-.31.06-.37-.39.11-.14.2-.47.41-.51v.42c.26-.22,0-.55,0-.77l.12,0c0-.66-.33-.67-.31-1.37l-.09.08c-.29-.39.17-.33-.05-.71l.29-.11a11.19,11.19,0,0,1-.34-1.34,4.25,4.25,0,0,1,.46,1.11,2,2,0,0,0-.16-1c0,.1.1.23.05.33a1.91,1.91,0,0,1-.34-1.21c.57.09.14-1.3.59-1.67a14.46,14.46,0,0,1,.06-2.77c-.45.34,0-.29-.47-.24,0-.23,0-.32,0-.34a6.77,6.77,0,0,1,.33-.66c.15-.15.08.22.18.21.09-.47.22-.18.38-.46-.17,0-.21-.2-.1-.44l-.27.32c-.11-.7.47-.47.43-1.11l.08.23c0-.34.43-1,.36-1.41.08,0,.21,0,.15.14.24-.23.46-.54.76-.78a1.28,1.28,0,0,1,1-.32l0,.12c.13-.06.22-.25.41-.15,0,0,0,.11,0,.11s.38-.22.58-.14L35,34.1c.72.17,1.16-.22,1.76,0-.13.29.18.63.26.84l0,0c.18.26.36.48.53.78a3.9,3.9,0,0,1,.44,1.11c-.33.52-.14,2-.34,2.91.06-.14.26,0,.29.19s.23.62-.07.59v-.08c-.3.16-.22.62-.23,1l.4.06c-.58.94.21,2.46-.31,3,.1.23.1.51.2.73h-.21a8.64,8.64,0,0,0,0,1.71l-.16-.16c0,.44.62.56.63,1l-.32.12a9.08,9.08,0,0,1-.1,1.15,5.42,5.42,0,0,0,0,.57,4.74,4.74,0,0,0,.13.93c-.05,0-.14,0-.15-.22,0,.33-.06,1-.06,1.55.52,0,.94-.06,1-.27-.22.28,1.52,0,1.68-.1l-.06.21a1.33,1.33,0,0,1,.84-.42c.12,0,.1.17-.05.12.39.11.3-.2.77-.09l-.18.14c.4,0,.37-.06.58-.22s.75.06.81.25a.5.5,0,0,1,.57-.22c0,.07-.06.12-.12.14a5.27,5.27,0,0,0,1.53-.1,1,1,0,0,1,.06-.39c.07,0,.11,0,.13,0v.59a7.87,7.87,0,0,1-.8,0c.08.2.87.23.45.5l.63-.19a5.56,5.56,0,0,1-.18-1.64s0,0,.06-.07l0,.08a1.25,1.25,0,0,0,0-.44,1.41,1.41,0,0,0,.06-.37c.16,0,.09-.48.1-.69-.21,0-.18-.26-.35,0,0,0,0,0,0,.18s0,.07,0,.09l0,0c0,.14,0,.32,0,.53a.52.52,0,0,1-.08-.58,2.25,2.25,0,0,1-.34-.29c.29-.29.45-.85.63-.92-.12-.65-.08-1.52-.47-1.93,0-.18.11-.21.17-.27,0,.1,0,.23.09.28-.1-.36,0-1.08-.31-1.17.12-.46.25.26.21-.37l.08.08c.44-1.25-.71-2-.14-3.41,0,.1-.05.14-.1.16.26-1.57-.23-3.25.17-4.8.07-.46-.1-.51-.25-.78l.22-.11-.3-.45c-.25-.63.41-1.27-.19-2l-.11.15c-.06-.31-.42-.89-.24-.91,0,0-.19,0-.17-.18l.1-.06a5,5,0,0,0-.56-.57c-.28-.54.48-.2-.09-1-.27-.25-.95-.43-.9-.28s.2.28.13.37l-.26-.14c-.28.22-.6.39-.36,1a2.23,2.23,0,0,1,.43.16l0,.2c-.07-.09-.15-.16-.22-.25,0,.25.18.24.34.3a.32.32,0,0,0,0,.25A4.75,4.75,0,0,1,43,32c-.1.11-.32,0-.26.24.23.1.18-.3.42-.06,0,.26-.19.25,0,.42-.07.06-.14,0-.21,0,.18.14.24.49.45.55-.12.26.23.71-.1.76a1,1,0,0,1,.37.53c-.43-.32.07.77-.37.71.38.25.2,1,.39,1.52,0,0-.08-.09-.06-.14a1.68,1.68,0,0,1-.21.58c.29,0,.36.5.54.75-.28.36-.34-.22-.61-.11.23,0,.23.64.43.51-.17.28-.08.24-.33.39.37,0,.07.26.29.49-.18.4-.34.1-.23.54C43.41,39.85,43.28,39.45,43.28,39.45Zm.63,10.35h0v0Zm0,.43h.06v-.16c.08,0,.15.11.15.17s-.08,0-.12,0ZM45.38,49c0,.14,0,.19-.06.21s0-.15,0-.25l0,0A.39.39,0,0,1,45.38,49Z"/><path class="cls-2" d="M45.1,48.76l0-.06,0,.08.06,0Z"/><path class="cls-2" d="M29.85,28.67h0l0,0Z"/><polygon class="cls-2" points="39.58 44.31 39.53 44.31 39.58 44.39 39.58 44.31"/><path class="cls-2" d="M31.24,31.52a.13.13,0,0,0,.08,0S31.28,31.5,31.24,31.52Z"/><path class="cls-2" d="M32.64,30.11l.27-.1A1.3,1.3,0,0,0,32.64,30.11Z"/><path class="cls-2" d="M34,29.48a.33.33,0,0,0,0-.1h0Z"/><path class="cls-2" d="M25.56,41.21s0,0,0,.07S25.6,41.32,25.56,41.21Z"/><path class="cls-2" d="M25.07,33.54a1.09,1.09,0,0,1,.1.25C25.19,33.65,25.19,33.55,25.07,33.54Z"/><polygon class="cls-2" points="25.82 49.6 25.81 49.6 25.81 49.61 25.82 49.6"/><path class="cls-2" d="M25.17,34.15a.63.63,0,0,0,0-.36A.87.87,0,0,0,25.17,34.15Z"/><path class="cls-2" d="M40.37,29.76l.07,0s0,0,0,0Z"/><path class="cls-2" d="M40.46,29.77h.08A.12.12,0,0,0,40.46,29.77Z"/><path class="cls-2" d="M40.71,29.81l-.17,0C40.59,29.81,40.65,29.85,40.71,29.81Z"/><path class="cls-2" d="M38.5,29.12l0,.07S38.49,29.15,38.5,29.12Z"/><path class="cls-2" d="M37.88,29.06c.15,0,.35.2.55.19l0-.06C38.35,29.28,38,28.94,37.88,29.06Z"/><path class="cls-2" d="M35.16,28.2l.57,0c-.1-.07-.25-.16,0-.21C35,27.82,35.91,28.12,35.16,28.2Z"/><path class="cls-2" d="M33.41,28.59c.28-.16,0-.11,0-.16C33.2,28.58,33.17,28.62,33.41,28.59Z"/><path class="cls-2" d="M25.83,28.51l0-.2C25.52,28.34,25.87,28.39,25.83,28.51Z"/><path class="cls-2" d="M25.26,30.21a.6.6,0,0,1,.12-.11,1,1,0,0,1-.17-.1Z"/><polygon class="cls-2" points="23.9 31.59 23.87 31.5 23.94 31.87 23.9 31.59"/><path class="cls-2" d="M26.12,51.58l-.06-.24a.22.22,0,0,0-.14.17C25.94,51.57,26,51.62,26.12,51.58Z"/><path class="cls-2" d="M31,46.25a.39.39,0,0,0,.08-.5C31.07,46,31,46.15,31,46.25Z"/><polygon class="cls-2" points="37.69 41.96 37.61 41.78 37.67 42.12 37.69 41.96"/></g></svg>