<svg width="1302" height="1302" viewBox="0 0 1302 1302" fill="none" xmlns="http://www.w3.org/2000/svg">
<path d="M168.849 7C79.601 7 7 79.6875 7 169.05C7 258.45 79.601 331.175 168.849 331.175C258.041 331.175 330.587 258.45 330.587 169.05C330.587 79.6875 258.041 7 168.849 7ZM168.849 312.566C89.8454 312.566 25.5585 248.17 25.5585 169.032C25.5585 89.9306 89.8268 25.5716 168.849 25.5716C247.797 25.5716 312.028 89.9306 312.028 169.032C312.028 248.17 247.797 312.566 168.849 312.566Z" fill="black" stroke="black" stroke-width="13"/>
<path d="M300.336 428.495H37.2319C32.1098 428.495 27.9526 432.659 27.9526 437.79V1285.71C27.9526 1290.84 32.1098 1295 37.2319 1295H300.336C305.459 1295 309.616 1290.84 309.616 1285.71V437.79C309.616 432.64 305.459 428.495 300.336 428.495ZM291.057 1276.41H46.5112V447.085H291.057V1276.41Z" fill="black" stroke="black" stroke-width="13"/>
<path d="M970.133 407.413C850.95 407.413 768.271 467.329 726.942 526.483V437.789C726.942 432.658 722.784 428.494 717.662 428.494H465.359C460.237 428.494 456.08 432.658 456.08 437.789V1285.7C456.08 1290.84 460.237 1295 465.359 1295H728.222C733.344 1295 737.501 1290.84 737.501 1285.7V866.236C737.501 763.191 755.169 657.841 886.118 657.841C1003.96 657.841 1013.54 755.439 1013.54 873.338V1285.7C1013.54 1290.84 1017.7 1295 1022.82 1295H1285.72C1290.84 1295 1295 1290.84 1295 1285.7V820.598C1295 605.993 1255.64 407.413 970.133 407.413ZM1276.44 1276.41H1032.1V873.338C1032.1 780.108 1032.1 639.251 886.118 639.251C737.947 639.251 718.943 760.552 718.943 866.236V1276.39H474.638V447.084H708.402V553.643C708.402 558.774 712.559 562.938 717.681 562.938H721.207C724.659 562.938 727.795 561.023 729.41 557.975C761.498 497.092 843.786 425.985 970.133 425.985C1224.35 425.985 1276.44 583.722 1276.44 820.598V1276.41V1276.41Z" fill="black" stroke="black" stroke-width="13"/>
</svg>
