<svg xmlns="http://www.w3.org/2000/svg" viewBox="0 0 200 200"><defs><style>.cls-1{fill:#212121;}</style></defs><g id="BACKGROUND_1" data-name="BACKGROUND 1"><path class="cls-1" d="M3.86,169.48c0,.28-.07.56-.09.84A4,4,0,0,0,3.86,169.48Z"/><path class="cls-1" d="M20.24,189.37l-.21-.05Z"/><path class="cls-1" d="M20.24,196l0,0-.23,0Z"/><path class="cls-1" d="M3.94,159c-.23.7-.5,1.36-.68,2s-.32,1.28-.48,1.88c-.07.31-.15.6-.22.89s-.09.58-.14.87c-.08.57-.17,1.12-.25,1.65A10.58,10.58,0,0,0,2,167.81c0,.51,0,1-.08,1.49a21.26,21.26,0,0,0,0,2.88c0,.48,0,1,.09,1.44s.13,1,.2,1.46.13,1,.25,1.51.26,1,.39,1.58A25.58,25.58,0,0,0,6,185.37,23.72,23.72,0,0,0,20.2,196a40.3,40.3,0,0,0,5.19.68,19,19,0,0,0,2.92,0,14.64,14.64,0,0,0,2.64-.36l1.25-.07,3.41-.94,0,.06c.76-.33,1.6-.62,2.32-.92s1.31-.62,1.67-.81l0,.06a16.71,16.71,0,0,0,1.76-1l-.27.22a37.19,37.19,0,0,0,6.72-5.13l-.26.05c.51-.48,1-.9,1.4-1.34l1.1-1.27a23.33,23.33,0,0,0,1.73-2.34,51,51,0,0,0,3-5.32v.08a49.55,49.55,0,0,0,2.16-8,22.09,22.09,0,0,0-.33-8.4c.22.8,0-.36,0-.3-.19-.73-.39-1.48-.58-2.19s-.5-1.34-.73-1.89c-.41-1.12-.92-1.79-1-1.76-.93-2-.71-1.64-.75-1.95,0,0-.33-.35-.71-.92l-.63-1c-.23-.34-.51-.68-.76-1l.51.61-1.47-2-1.64-1.82.46.87a6.65,6.65,0,0,1-1-1.3c-.07-.14-.14-.26-1.06-1.09l-.11.17c-.33-.31-.62-.62-.93-.88l-.89-.75a20.77,20.77,0,0,0-1.68-1.38l-1.75-1.27c-.65-.38-1.34-.77-2.11-1.19a23.17,23.17,0,0,0-10.88-2.09,7.3,7.3,0,0,0-1.4.14l-1.4.21-.71.11a3.61,3.61,0,0,0-.89.36,3.24,3.24,0,0,0-1.27,1.4,3.07,3.07,0,0,0,.6,3.55,3,3,0,0,0,1.76.73l1.33.12a28.05,28.05,0,0,1,9.91,2.74,21.72,21.72,0,0,1,7.65,6l.22.53c0,.26,2.26,2.62,2.2,3.22.23.43.5.84.7,1.28s.35,1.22.06.56c.22.63.35,1,.46,1.23s.17.52.31,1a11.77,11.77,0,0,1,.17,1.44,20.89,20.89,0,0,1-3.17,14.74,31,31,0,0,1-3.93,4.55,26.51,26.51,0,0,1-5.81,4.17L34,187l-1.72.66-1.75.47a9,9,0,0,1-1.72.37l-1.69.23c-.55,0-1.09,0-1.62,0a14.88,14.88,0,0,1-2.93-.31,14,14,0,0,1-6.9-3.66,18.27,18.27,0,0,1-4.41-6.94,23.82,23.82,0,0,1-1.4-8.21,31.58,31.58,0,0,1,1-8.07,8.65,8.65,0,0,0,.34-1.18A26.37,26.37,0,0,1,16,152.05a4.36,4.36,0,0,1,.39-.45l1.12-1.18c.48-.51,1.12-1,1.79-1.66s1.5-1.23,2.41-1.81a31.71,31.71,0,0,1,6-3.21l1.57-.63,1.55-.49a15.05,15.05,0,0,1,1.47-.43l1.43-.37a3.54,3.54,0,0,0,.6-.22,2,2,0,0,0,.47-.39,1.85,1.85,0,0,0,.37-1,2.34,2.34,0,0,0-.6-1.66,1.72,1.72,0,0,0-1.06-.59,1,1,0,0,0-.56.06c-.05,0,0,.08.11.12a1.59,1.59,0,0,1,.73.32,1.84,1.84,0,0,1,.66,1.19,1.39,1.39,0,0,1-.13.86,1,1,0,0,1-.85.46,32.65,32.65,0,0,0-9.34,2.65l.2-.16a25.41,25.41,0,0,0-10.06,8.2,3.26,3.26,0,0,0-.73.7c-.3.38-.63.89-1,1.41a14.68,14.68,0,0,0-.93,1.6c-.27.5-.53.93-.69,1.22l0-.12c-1.36,3.16-2.73,6.63-2.84,10a2.09,2.09,0,0,1,0-1c-.09.6-.09,1.27-.14,1.92a15.14,15.14,0,0,0,0,1.88,10.18,10.18,0,0,1,0,2.14,25,25,0,0,0,2.62,9.27,17.6,17.6,0,0,0,5.22,6.19l-.24-.12c.93.56,1.5,1,2.1,1.36A20,20,0,0,0,20,189.25a1.92,1.92,0,0,1,.25.12c.57.13,1.25.39,2,.54s1.59.29,2.4.37l2.35.06c.71-.06,1.33-.15,1.79-.22l.14.09a12.29,12.29,0,0,0,2.25-.45,18.68,18.68,0,0,0,2.21-.65,11.92,11.92,0,0,1-1.65.47c.48-.38,3.44-.76,6.23-2.65,2.73-1.56,4.68-4.2,6.76-6.53.84-1.26-.65,1.19.68-.65.18,0-.59.89-.12.51s.63-.87.92-1.27.59-.77.84-1.2l.82-1.34c.25-.5.51-1.06.78-1.7l.16-.05c1.21-3.42,2-6.64,1.75-9.1,0-.94-.1-1.56-.13-2s0-.8,0-1.13a5.22,5.22,0,0,0-.17-1.15c0-.24-.12-.52-.21-.86a5.92,5.92,0,0,0-.42-1.19l-.36-1.52a7.77,7.77,0,0,0-.72-1.3c-.19-.27-.34-.59-.82-1.39.16,0-1.22-2.05-.53-1.19A20.23,20.23,0,0,0,42.62,149a38.51,38.51,0,0,0-6.5-3.89,34.72,34.72,0,0,0-4.72-1.3c-.1-.23-5.49-1-2.37-.7a2.52,2.52,0,0,1,.7.14l.4-.05a21.83,21.83,0,0,0-2.25-.45c-.72-.08-1.5-.12-2.14-.17-.38,0-.59-.09-.73-.37a1.14,1.14,0,0,1,.08-1.11,1.47,1.47,0,0,0-.24.68c0,.17,0,.23-.07,0a1.33,1.33,0,0,1,.88-1.25c-.11,0-.17.16-.24.22a1.75,1.75,0,0,1,.24-.11,1.87,1.87,0,0,1,.35-.07l1-.12,1-.13.5-.06H29l-.55-.12c1,0,1.64.09,2.32.11s1.39.2,2.5.21-1.82-.38.25-.18A25.48,25.48,0,0,1,38,141.73a27.08,27.08,0,0,1,4.59,2.51c-.2-.27.6.16,1.34.75v.16c.73.52,1.16.83,1.42,1.06a3.17,3.17,0,0,1,.43.53,10.9,10.9,0,0,0,1.67,1.74l-.26-.18.81.53a12.23,12.23,0,0,1,1.16,1.22,7.9,7.9,0,0,1,.44.71,6.35,6.35,0,0,0,.5.76c.12.16.28.36.48.59s.39.54.65.91c-.74-1.2-.11-.72.75.82l-.33-.32a9.44,9.44,0,0,1,1,1.67c-.31-.49-.29-.19.34,1.07l-.55-.79.68,1.16c.22.39.38.8.57,1.21a21.54,21.54,0,0,1,1.29,6s0,.27.07.7,0,1,0,1.63A13.48,13.48,0,0,1,55,168a10.6,10.6,0,0,0,0,1.28c0-.45-.08-.06-.18.34s-.24.82-.24.47a16.42,16.42,0,0,1-1.44,5.66l.08-.25a37.7,37.7,0,0,1-3.07,6A23.85,23.85,0,0,1,48.26,184l-1,1.21c-.38.38-.79.75-1.2,1.13.12,0-.26.38-.59.74s-.7.65-.41.53c-.44.39-.87.77-1.3,1.13s-.9.64-1.33.94a21.4,21.4,0,0,1-2.5,1.48c-.76.45-1.5.72-2.09,1a13.16,13.16,0,0,0-1.43.87,14.55,14.55,0,0,1-3.53.93l.49-.16-1.33.35-1.15.19c-.71.1-1.31.22-1.89.28l-1.71.07-.92,0c-.33,0-.67-.05-1-.08a16,16,0,0,0-1.76.05,20,20,0,0,1-2.6-.42c.43,0,.38,0,.1-.07s-.77-.24-1.25-.38c.62.18.81.2-.41-.27-.18,0-.46-.09-.72-.15,0,0-.05,0,0,0-1.53-.61-1.28-.49-.58-.15,0,0,0,0,.21.17-.38-.21-.84-.44-1.32-.67l-.73-.34c-.24-.12-.46-.27-.68-.4a7.06,7.06,0,0,1-1.58-1.1,26.14,26.14,0,0,1-2.71-2.21c-.39-.38-.8-.73-1.16-1.12l-1-1.18-.5-.57c-.15-.2-.29-.42-.43-.62l-.85-1.25c-.54-.84-1-1.77-1.46-2.69-.1-.47.37.39,1,1.45l-.68-1.31c-.22-.45-.36-.92-.55-1.38.07,0,.23.38.42.88s.51,1.06.71,1.47c-1.35-3.2-2.77-6.76-2.78-10.94l-.16-.86v-.24a6.2,6.2,0,0,1-.09-1.54c.15-.59.23,0,.37-2,.19-.79.26-1.94.49-3.13a28.41,28.41,0,0,1,.81-3.46c-.39,1.08-.34.71-.21.23.34-1,.61-1.51.87-2.26l.19,0c-.29.33.93-2.52,1.12-2.86s0,.13-.21.59A9.51,9.51,0,0,0,6.67,157c.21-.47.38-.85.53-1.16l.41-.74c.23-.39.36-.61.48-.83l.48-.84c.24-.38.63-.89,1.22-1.74,1.18-1.86-.35.24.15-.7.59-.79,1.22-1.52,1.86-2.3s1.45-1.44,2.29-2.19l-.61.39.47-.48.5-.42.93-.76.86-.7.86-.57,1.61-1,1.67-.79A33.45,33.45,0,0,1,27.93,139c2-.61,3.41-.8,4.33-1,1.84-.4,1.69-.5.68-.57-.52,0-1.26,0-2.08.09-.41,0-.84,0-1.27.1l-1.27.22a20.44,20.44,0,0,0-3,.68c-.68.21-1.35.37-2,.6l-1.82.72-.88.36-.83.43-1.59.83c-1,.6-2,1.27-2.91,1.9s-1.79,1.4-2.62,2.19A33.42,33.42,0,0,0,3.94,159Z"/><path class="cls-1" d="M55.61,133.25l.12-.53A1.61,1.61,0,0,0,55.61,133.25Z"/><path class="cls-1" d="M51.48,123.2v.13A.73.73,0,0,0,51.48,123.2Z"/><path class="cls-1" d="M59.71,112.44v0Z"/><path class="cls-1" d="M56.56,140c1-7.22,1.52-9.11,2.2-16.63.4-3.58.68-7.42,1-10.93-.09-1.68.36-4.61.31-6.6l.17-.76a12,12,0,0,1,.1-2.16l0,0c0-1,.11-2.17.09-2.68l0,.05.05-1.24,0,.22c0-1.78.08-3.61.21-5.22l-.15.13c.28-3.44.06-4.71.32-7.81l0,0c-.28-3.94.39-6.21.06-10.27,0,.5.07-.22.11-.18,0-1.87-.08-3.86-.36-3.89,0-1.36.08-1.1.19-1.28a7.46,7.46,0,0,1-.21-2.24l.06.49-.1-3-.23.6c0-1.61.28-.41.19-2l-.19,0c0-.56,0-1.06,0-1.53l0-.35c0-.14,0-.3,0-.45a2.23,2.23,0,0,0-.28-.86,2.86,2.86,0,0,0-1.31-1.24,3.23,3.23,0,0,0-2-.29,2.76,2.76,0,0,0-2,1.6,3.85,3.85,0,0,0-.24,1.1l-.09.85c-.12,1.13-.23,2.27-.35,3.42l-.6,6.86c-.39,4.56-.76,9-1.3,13.18l-.18.35c-.23.14.12,2.32-.1,2.62l0,1c-.06.27-.15.84-.16.35a9.71,9.71,0,0,0,0,1.57l-.21,1c-.38,3.52-.36,6.55-.68,10.26-.59,4.45-.89,12.87-1,17.73-.07,6.82-1.31,14.71-1.23,21.71a3,3,0,0,0,0,.81l-.28,6.39s-.06,1.94-.14,4.47c0,1.27-.05,2.69-.08,4.09,0,.7,0,1.4,0,2.07,0,.34,0,.67,0,1,0,.13,0,.39,0,.61a2.69,2.69,0,0,0,.22.64,2.34,2.34,0,0,0,1.83,1.31,1.72,1.72,0,0,0,1.65-.71,1.44,1.44,0,0,0,.26-.91c0-.17-.07-.19-.14-.1a5.65,5.65,0,0,1-.47.64,1.21,1.21,0,0,1-.6.33,1.33,1.33,0,0,1-.83-.16,1.58,1.58,0,0,1-.69-.73,2.37,2.37,0,0,1,0-1.26c.13-1.07.27-2.33.43-3.78l0,.16a61,61,0,0,0,.18-8.11c.31-.37.15-2.87.27-3.68l0,.08c-.14-2.14.36-4.38.25-6.44a1,1,0,0,1,.08.6,18,18,0,0,1,.23-3.65c.12-3.58.45-8.56.31-10.86l0,.16c-.11-1.32.07-1.69.06-3.15,0-.08,0-.18,0-.17-.1-1.43.2-4.14.2-5.3l.12-.06L52,115l-.09,1c-.28-.38.32-2.13.25-4.19.17-1.91-.37-3.93-.09-5.92-.07-1,.18.86.17-.57.16,0,.05.67.2.31,0-1.4.33-2.27.35-4l.13-.06c-.07-2.26.49-4.22.38-5.73.08-2.32.49-1.52.45-3.94l.24-.93c.12-1-.14-.75,0-1.88.1.07.2-1.44.25-.76.39-2.57.22-5.27.82-8.64-.13-.76.15-2.46.05-3,.1-.09.35-3.43.35-1.49,0,.17,0,.46-.06.44l.1.24A52.7,52.7,0,0,0,56,70.47c-.1.57-.16,1.32-.2.81L56,69.5l.07.38.34-2.64-.17.35a13.72,13.72,0,0,0,.46-3.21c0-.67-.31,1.21-.2-.16.07-.43.15-.92.23-1.44s.18-.51.38-.64a1.37,1.37,0,0,1,.89,0,1.1,1.1,0,0,1,.68.46c.07-.15.25,0,.29.34a.56.56,0,0,0-.13.07c.23,2.35-.25.87-.06,3.2l-.09-.2.27.61c.29,2.11-.22,1.15.14,3.49,0-.93.27-.44.22.7l-.12-.29c0,.64.08.85.06,1.27-.07-.38-.18-.2-.15.73l-.15-.62.23,1.75c-.11,1.36,0,3.51-.15,4.07a25.27,25.27,0,0,0,.07,3.59c-.11-.59-.17,1-.3.56a18.62,18.62,0,0,1,0,3.88v-.17c-.2,3.3,0,5.66-.27,8.62.16-.13,0,1.43.2,1.06,0,3.07-.65,5.57-.17,6.71a16.67,16.67,0,0,1-.31,2.36V104c-.12,2.62-.17,3.37-.33,5.31a14.2,14.2,0,0,1,0,2.88c-.06-.57-.1.14-.15.79,0-.42,0-.55-.15.3a3.33,3.33,0,0,1,0,.48s0,0,0,0c-.06,1.09,0,.9,0,.4,0,0,0,0,.08-.16-.24,1.11-.27,3.13-.46,3.25-.21,3.23-.36,5.61-.52,8.31-.13.3-.15-.35-.1-1.13l-.17,1.92c-.13,0,0-1.11.08-1.71-.45,2.26-.32,4.73-.82,7.39l0,.56,0,.16a3.07,3.07,0,0,1,0,1c-.17.36-.27-.06-.42,1.26a41.31,41.31,0,0,0-.44,4.36c.12-.74.15-.49.15-.17-.09.67-.26,1-.28,1.55l-.16,0c.18-.24-.08,1.75,0,2-.17.36,0-1,0-1.22-.35,2.65-.17,1.33-.53,4-.09,1.43.19-.24.22.46a38,38,0,0,1-.53,3.9l.21-.43a34.15,34.15,0,0,1-.89,5.31c-.86,8.79-.68,9.78-.21,8.56A47.05,47.05,0,0,0,54,158.69C55.38,151.87,55.55,148.25,56.56,140Z"/><path class="cls-1" d="M166.48,101.05l.09-.69S166.51,100.54,166.48,101.05Z"/><path class="cls-1" d="M162.31,87.16l0,.16C162.32,87.21,162.31,87.17,162.31,87.16Z"/><path class="cls-1" d="M168.64,73.89v0l0,.18Z"/><path class="cls-1" d="M167.76,109.63c.38-4.67.6-7.63.8-10.64s.36-6.06.34-10.93c.07-4.64-.06-9.6-.26-14.13-.29-2.14-.27-5.94-.58-8.47l.07-1a19.77,19.77,0,0,1-.18-2.78l0,.06c-.16-1.3-.18-2.77-.25-3.42l0,.05-.09-1.58.06.27c-.2-2.27-.3-4.61-.33-6.67l-.13.18c0-4.41-.29-6,0-10l0,0c-.23-5,.67-7.88.9-13,0,.65.11-.26.14-.21.24-2.37.59-4.9.31-5,.25-1.72.29-1.39.43-1.59a12,12,0,0,1,.25-2.87l0,.63.56-3.86-.36.72c.39-2,.37-.48.62-2.45h-.2c.12-.71.25-1.34.37-1.93.07-.29.13-.58.19-.86s.07-.27.1-.44a2.83,2.83,0,0,0,0-.58,3,3,0,0,0-1-2,2.85,2.85,0,0,0-1.11-.67,2.35,2.35,0,0,0-1.61,0,2.69,2.69,0,0,0-1.25,1.17l-.52,1c-.32.67-.67,1.33-1,2-.61,1.37-1.12,2.78-1.6,4.21a56.66,56.66,0,0,0-2,8.75,142.28,142.28,0,0,0-1.34,17.09l-.15.48c-.21.21.33,3,.15,3.38l.11,1.25c0,.35-.06,1.09-.12.47a14.52,14.52,0,0,0,.14,2l-.11,1.24c0,4.57.38,8.43.5,13.22-.06,5.77.66,16.58,1,22.8.65,8.76.05,19,.33,27.91a4.49,4.49,0,0,0,.06,1c0,2.74-.12,5.47-.21,8.2,0,0-.11,2.48-.24,5.73-.08,1.62-.18,3.44-.27,5.23s-.21,3.56-.3,5.11v.3c0,.14,0,.28,0,.42a2.44,2.44,0,0,0,.26.76,2.28,2.28,0,0,0,1,.95,2,2,0,0,0,2.17-.22,1.48,1.48,0,0,0,.48-1.15c0-.22-.07-.23-.14-.12a2.21,2.21,0,0,1-.59.83,1.44,1.44,0,0,1-1.83-.28,1.33,1.33,0,0,1-.34-1.2c.09-.57.18-1.19.29-1.86.2-1.36.47-3,.69-4.86l0,.21a76.26,76.26,0,0,0,.42-10.45c.32-.48.12-3.7.24-4.76l0,.11c-.16-2.76.25-5.67.06-8.32a1.9,1.9,0,0,1,.11.77,29.12,29.12,0,0,1,0-4.72c-.09-4.61-.17-11-.54-14l.06.2c-.24-1.68-.1-2.18-.26-4.06,0-.1,0-.23,0-.21-.25-1.83-.23-5.34-.36-6.82l.11-.1-.18-3.64,0,1.36c-.32-.46.08-2.76-.22-5.4-.07-2.47-.84-5-.79-7.56-.19-1.22.27,1.07.09-.76.16-.06.14.86.24.38-.14-1.8.06-3-.13-5.17l.12-.09c-.33-2.88,0-5.46-.28-7.38-.17-3,.33-2,0-5.1l.14-1.21c0-1.33-.22-1-.15-2.42.1.09.07-1.86.18-1,.16-3.31-.21-6.75.4-11.07a12.77,12.77,0,0,1,0-2,14.29,14.29,0,0,0,.11-1.83c.07-.11.64-4.33.47-1.88a1.79,1.79,0,0,1-.1.55l.07.3c.56-2.4.61-4.44,1.21-6.8-.22.69-.4,1.63-.35,1s.37-1.46.57-2.19l0,.48c.29-1.08.65-2.14,1-3.2l-.26.4a17.71,17.71,0,0,1,.78-1.8,20.71,20.71,0,0,0,.73-2c.24-.81-.77,1.36-.12-.25.25-.49.48-1.07.81-1.64l.49-.9.25-.46a1.9,1.9,0,0,1,.23-.38c.12-.15.18-.18.26-.19a.79.79,0,0,1,.36.11,1.2,1.2,0,0,1,.62.87c.13-.1.21,0,.06,1l-.14.07c-.29,3-.44,1.06-.77,4.07l0-.28.13.83c-.17,2.73-.48,1.41-.6,4.46.16-1.19.35-.52.08.94l-.06-.39c-.1.81-.09,1.09-.19,1.62,0-.49-.14-.28-.29.92l0-.82-.1,2.28c-.37,1.72-.54,4.51-.79,5.21,0,0-.12.94-.22,2a17.34,17.34,0,0,0-.12,2.66c-.06-.77-.26,1.31-.35.71a41.69,41.69,0,0,1-.17,5v-.22c-.27,4.32.15,7.35.08,11.19.14-.17.13,1.85.3,1.35.32,4-.05,7.24.59,8.64a29.19,29.19,0,0,1,0,3.07l0-.43c.23,3.37.29,4.35.39,6.85a22.64,22.64,0,0,1,.42,3.67c-.14-.72-.08.19-.05,1,0-.53-.08-.7-.12.4a4.36,4.36,0,0,1,.09.62s0,.05,0,0c.07,1.39.1,1.15.09.5,0,0,0,0,.06-.22-.08,1.45.12,4-.07,4.21.12,4.2.26,7.2.29,10.7-.1.39-.17-.43-.2-1.44v2.48a11.58,11.58,0,0,1-.06-2.19c-.26,2.94.07,6.09-.27,9.54l.07.72,0,.21a5.2,5.2,0,0,1,.09,1.28c-.14.49-.27,0-.35,1.67-.2,1.34-.16,3.85-.24,5.62.09-1,.13-.64.14-.23-.05.86-.21,1.34-.2,2l-.17.07c.18-.33,0,2.24,0,2.57-.16.47,0-1.34-.07-1.56-.27,3.43-.13,1.71-.4,5.14-.05,1.84.17-.32.23.57-.11,1.62-.15,3.2-.43,5l.2-.57a55.71,55.71,0,0,1-.78,6.88c-.72,11.34-.55,12.57-.08,11s1.09-6.05,1.09-6.05C167,124.92,167.06,120.27,167.76,109.63Z"/><path class="cls-1" d="M90.29,25.85l.61-.12S90.73,25.73,90.29,25.85Z"/><path class="cls-1" d="M100.53,19.28l-.14,0Z"/><path class="cls-1" d="M114,21.17h0l-.15.05Z"/><path class="cls-1" d="M83.58,29.65c8-2.22,10.16-2.57,18.37-5l6-1.75,3-.89,2.94-.79c1.79-.68,5.09-1.25,7.24-1.91l.87-.08a16.26,16.26,0,0,1,2.39-.56l0,.05c1.11-.34,2.4-.56,2.95-.72l0,0,1.37-.3-.22.1c1.95-.51,4-.94,5.79-1.27l-.18-.11c3.88-.63,5.22-1.21,8.73-1.76l0,0c4.29-1.31,7-1.24,11.39-2.7-.55.18.26,0,.23.06,2.06-.55,4.25-1.17,4.21-1.45,1.5-.4,1.24-.25,1.47-.2a9.71,9.71,0,0,1,2.4-.87l-.52.2c1.11-.32,2.21-.7,3.32-1.05l-.73,0c1.78-.48.54.14,2.21-.44l-.08-.18c1.21-.39,2.2-.64,3.19-.87a2.57,2.57,0,0,0,.41-.11,2,2,0,0,0,.52-.26,1.87,1.87,0,0,0,.75-.95,2.35,2.35,0,0,0,.08-1.32,2.78,2.78,0,0,0-.6-1.2,2.54,2.54,0,0,0-1.31-.79,2.7,2.7,0,0,0-.41-.06,1.76,1.76,0,0,0-.33,0l-.49,0-2,.1c-1.3.05-2.61.2-3.92.32-2.63.27-5.25.64-7.83,1.07-5.17.86-10.2,1.94-14.88,2.85l-.44,0c-.23-.18-2.49.92-2.89.81L135.47,8c-.31,0-1,.16-.43,0a10.73,10.73,0,0,0-1.71.53l-1.1.14c-3.94.92-7.19,2.07-11.3,3.15-5,1.11-14.17,3.85-19.43,5.6-7.37,2.49-16.35,4.19-23.83,6.8a4.22,4.22,0,0,0-.87.32c-2.33.66-4.68,1.3-7,2L68.29,27c-.92.31-2.21.74-3.63,1.29a47,47,0,0,0-4.49,2,31.8,31.8,0,0,0-4,2.45,1.93,1.93,0,0,0-.81,1.85A2.28,2.28,0,0,0,56,36a1.69,1.69,0,0,0,1,.46,1,1,0,0,0,.53-.08s0-.09-.09-.13a2.09,2.09,0,0,1-.64-.27,1.63,1.63,0,0,1-.66-1,1.18,1.18,0,0,1,.55-1.39A43.68,43.68,0,0,1,62.4,31l-.14.12c3.64-1.48,6-2.18,8.56-3.22.5.14,3.13-.9,4.06-1.07l-.08,0c2.27-.88,4.88-1.19,7.07-2.09a1.34,1.34,0,0,1-.62.3,23.4,23.4,0,0,1,4-1.11c3.9-1.18,9.38-2.7,11.81-3.68l-.16.09c1.38-.59,1.84-.57,3.41-1.12.1,0,.21,0,.2,0,1.5-.63,4.53-1.35,5.77-1.79l.11.08,3.09-.93-1.16.32c.31-.43,2.4-.48,4.61-1.28,2.13-.55,4.12-1.8,6.36-2.26,1-.43-.86.48.67-.06.09.14-.7.3-.27.31,1.52-.5,2.57-.54,4.43-1.17l.11.1c2.41-.9,4.71-1.11,6.3-1.75,2.53-.78,1.81-.09,4.41-1L136,9.74c1.14-.25.76-.4,2.05-.63-.05.12,1.62-.31.9,0,2.91-.5,5.78-1.59,9.64-2,.79-.37,2.73-.6,3.32-.85.12.07,3.86-.63,1.73-.08-.18,0-.51.1-.5.06l-.23.17A25.43,25.43,0,0,0,156,5.89a27,27,0,0,1,3-.53c-.65,0-1.5.15-.94,0l2-.22-.41.15c1-.1,2-.2,3-.26l-.43-.09A20.23,20.23,0,0,0,166,4.76c.74-.14-1.41-.11.14-.22h3a.33.33,0,0,1,.14,0,.62.62,0,0,1,.26.25.62.62,0,0,1,.11.32.29.29,0,0,1-.07.16l-.07,0-.26.08c.27.06-.37.27-1,.52l-.12-.09c-2.47,1-1,.08-3.48,1l.2-.15-.59.45c-2.22.94-1.31.15-3.78,1.2,1-.31.56.13-.71.43l.28-.2c-.68.22-.9.33-1.37.44.4-.18.18-.23-.84.06l.65-.33-1.88.72c-1.52.29-3.87,1-4.52,1l-1.71.39a14.24,14.24,0,0,0-2.25.64c.63-.26-1.17.1-.69-.14a22.93,22.93,0,0,1-4.3,1l.18-.06c-3.71.65-6.27,1.52-9.63,2,.18.11-1.59.39-1.12.48-3.39.89-6.34.95-7.46,1.77a23,23,0,0,1-2.7.42l.37-.11-5.93,1.4a19.35,19.35,0,0,1-3.13,1c.6-.27-.18-.05-.9.14.45-.13.59-.21-.38,0a3.19,3.19,0,0,1-.51.2s-.05,0,0,0c-1.19.35-1,.32-.41.19,0,0,0,0,.21,0-1.3.17-3.46,1-3.66.83-3.58,1.08-6.09,2-9.06,2.92-.36,0,.32-.27,1.17-.56L98,23.69a8.74,8.74,0,0,1,1.85-.63c-2.59.51-5.14,1.7-8.16,2.36l-.58.28-.18,0a4.1,4.1,0,0,1-1.05.46c-.45,0,0-.27-1.51.16-1.19.23-3.27,1-4.77,1.5.82-.22.58-.08.24.06-.73.21-1.19.22-1.74.43L82,28.21c.34.05-1.86.72-2.11.88-.45,0,1.1-.46,1.26-.59-2.92.93-1.47.46-4.36,1.45-1.51.65.33.05-.37.43-1.35.51-2.63,1.08-4.22,1.53l.54,0a35.52,35.52,0,0,1-5.83,1.87,75.92,75.92,0,0,1-8.81,2.61c-1.33.34-1.21.47-.48.53a20.1,20.1,0,0,0,3.36-.18c1.19-.16,2.19-.37,2.19-.37C71.11,34.76,74.63,32.36,83.58,29.65Z"/><path class="cls-1" d="M53.49,44.18l-.09.17S53.46,44.31,53.49,44.18Z"/><path class="cls-1" d="M57,45.61v0A.06.06,0,0,0,57,45.61Z"/><path class="cls-1" d="M50.47,51h0v0Z"/><path class="cls-1" d="M52.3,41.56c-.37,1.17-.62,2-.86,2.75a15.57,15.57,0,0,0-.6,2.89,33,33,0,0,0-.36,3.8c.14.6-.1,1.61.05,2.31l-.13.26a1.74,1.74,0,0,1,0,.75h0c.09.35,0,.75.09.93l0,0,0,.44-.05-.08a10.51,10.51,0,0,1,.14,1.82l.14-.06c-.1,1.21.3,1.62.2,2.72h0c.59,1.29.08,2.2.77,3.51-.08-.17-.05.09-.09.08.18.63.44,1.29.7,1.22.14.46,0,.4-.06.49.06,0,.13.07.21.2l.26.57-.14-.2A2.63,2.63,0,0,0,53.4,67c0-.12,0-.23,0-.34.47.46,0,.36.54.66l.08-.18a8,8,0,0,0,1.09.55,2,2,0,0,0,1.48,0,2.19,2.19,0,0,0,1.18-1.5,3.88,3.88,0,0,0,.08-.45l0-.29,0-.6c0-.8,0-1.61,0-2.4a35.75,35.75,0,0,1,0-4.53l.14-.13c.22-.06-.33-.77-.13-.89l-.1-.32c0-.1.07-.29.12-.13a1.1,1.1,0,0,0-.09-.52l.13-.33c.1-1.19-.15-2.2,0-3.44a52.56,52.56,0,0,0,.52-5.92c0-2.33,1.36-4.84,1.39-7.26a.41.41,0,0,0,0-.28l.36-2.16s0-.17.06-.44,0-.3.06-.48a2.46,2.46,0,0,0-.09-1A2.77,2.77,0,0,0,57,32.91a1.71,1.71,0,0,0-1.13.89c-.12.32-.07.46.07.45a6.29,6.29,0,0,1,.85-.29,1.58,1.58,0,0,1,1.48.75h-.06a.85.85,0,0,1,.28.64,1,1,0,0,1,0,.23c0,.1,0,.2,0,.31a4.44,4.44,0,0,0,0,.62c-.31.08-.17.95-.31,1.21l0,0c.11.75-.42,1.44-.34,2.16a.22.22,0,0,1-.07-.22c0,.51-.1,1.2-.28,1.21a17.69,17.69,0,0,0-.39,3.69l0-.06c.11.47-.06.58-.05,1.08,0,0,0,.06,0,0a14.17,14.17,0,0,1-.16,1.82h-.11l-.1,1,.06-.36c.3.16-.28.71-.15,1.43-.11.66.5,1.4.31,2.06.12.34-.22-.3-.13.19-.16,0-.09-.23-.23-.11.05.48-.21.78-.12,1.38l-.12,0c.2.78-.2,1.46,0,2,.1.8-.37.54-.12,1.37l-.16.32c0,.35.21.25.13.64-.11,0-.08.5-.18.27-.15.89.27,1.79,0,2.94.21.25.09.83.24,1-.09,0,0,1.15-.21.5,0,0,0-.15,0-.15l-.12-.07c-.24.64.11,1.18,0,1.82,0-.19,0-.44.12-.27L56,64l-.1-.12-.11.87.13-.11c-.09.41-.33.6-.18,1,0,0,.09,0,.13,0s0-.06,0,0a.31.31,0,0,1,0,.11.31.31,0,0,1-.27.22c-.11,0-.14,0-.35,0,0,.15-.08.13-.22.13l0-.12c-.5,0-.07-.29-.48-.39l.08,0a2.8,2.8,0,0,1-.25.14c-.22,0-.2-.14-.17-.2a.27.27,0,0,0,0-.09s0,0-.05,0l-.15-.2c.1.29-.22.23-.28-.15l.14.05c-.08-.19-.15-.24-.17-.38.1.1.19,0,.08-.28l.2.16-.37-.49c0-.46-.31-1.12-.2-1.33a3.45,3.45,0,0,0-.35-1.14c.15.17.1-.36.26-.24A2.11,2.11,0,0,1,53.07,60l0,0c0-1.09-.44-1.83-.31-2.83-.14.06-.09-.47-.27-.33-.25-1,.33-1.87-.25-2.23,0-.47.13-.56.16-.8l0,.11a16.46,16.46,0,0,1,0-1.78c-.05-.32-.3-.39-.19-1,.09.19.09,0,.11-.26,0,.14,0,.18.13-.1a.38.38,0,0,1,0-.16h0c0-.36,0-.3-.07-.14,0,0,0,0-.07.06.17-.37.08-1.06.28-1.08.1-1.09,0-1.9.1-2.81.11-.09.16.14.15.4l.08-.64c.13,0,0,.38,0,.58.34-.72.06-1.61.46-2.45l-.07-.2,0,0c-.06,0-.09-.23-.08-.36s.26.06.36-.37a4.22,4.22,0,0,0,.25-1.45c-.08.23-.12.14-.13,0s.19-.31.19-.49l.16,0c-.17,0,0-.61,0-.71.15-.08,0,.36.06.44.25-.86.13-.43.38-1.29,0-.49-.17,0-.23-.22a4.24,4.24,0,0,1,.4-1.27l-.19.1a3.64,3.64,0,0,1,.7-1.68c.66-3,.55-3.43.11-3.15a5.92,5.92,0,0,0-1,1.35C53.07,37.43,53,38.77,52.3,41.56Z"/><path class="cls-1" d="M88.71,54.69l.58-.16S89.12,54.54,88.71,54.69Z"/><path class="cls-1" d="M98.14,48.21l-.13.06Z"/><path class="cls-1" d="M111.21,48.54h0l-.14.06Z"/><path class="cls-1" d="M82.57,59c7.51-2.81,9.58-3.35,17.3-6.36,3.71-1.36,7.66-2.83,11.31-4.08,1.66-.79,4.81-1.58,6.83-2.38l.84-.14a14.54,14.54,0,0,1,2.26-.73l0,.05c1-.41,2.26-.72,2.78-.92l0,0,1.3-.4-.21.11c1.84-.65,3.77-1.21,5.48-1.66l-.18-.1c3.68-.9,4.93-1.57,8.27-2.35l0,.05c4-1.59,6.64-1.68,10.8-3.37-.52.21.25,0,.22.05,2-.65,4-1.37,4-1.65,1.43-.46,1.19-.3,1.41-.26a8.9,8.9,0,0,1,2.28-1l-.5.22L159.8,33h-.7c1.69-.54.52.13,2.1-.51l-.09-.18c.58-.21,1.11-.38,1.61-.52l.73-.21.35-.1.18-.05.24-.09a2.08,2.08,0,0,0,1.3-1.76,3,3,0,0,0-1.82-3,2.65,2.65,0,0,0-1.48-.17l-1.85.36c-1.24.24-2.48.52-3.71.81-2.48.57-4.95,1.23-7.38,1.91-4.88,1.36-9.61,2.85-14.05,4.11l-.43,0c-.23-.15-2.31,1.1-2.71,1l-1,.43c-.3.06-.91.23-.42,0a11.65,11.65,0,0,0-1.61.64l-1.05.22c-3.73,1.17-6.77,2.52-10.66,3.83C112.64,41.15,104,44.41,99,46.29c-7,2.76-15.55,4.85-22.59,8.06a2.87,2.87,0,0,0-.81.39c-2.19.86-4.37,1.76-6.54,2.68,0,0-2,.85-4.6,2.07-1.29.6-2.72,1.3-4.12,2-.7.35-1.38.71-2,1.07l-1.93,1.06a1.76,1.76,0,0,0-.94,1.81,2.25,2.25,0,0,0,.83,1.46,1.68,1.68,0,0,0,1.12.38,1,1,0,0,0,.55-.19c0-.06,0-.1-.11-.12a1.66,1.66,0,0,1-.7-.16,1.54,1.54,0,0,1-.78-.94,1.26,1.26,0,0,1,0-.77.92.92,0,0,1,.62-.58l5.34-2.16-.13.12c3.5-1.56,5.72-2.51,8.06-3.77.5.1,2.92-1.21,3.79-1.46l-.07.06c2.09-1.1,4.55-1.63,6.59-2.63a1.26,1.26,0,0,1-.58.34,20.26,20.26,0,0,1,3.79-1.37c3.67-1.42,8.87-3.19,11.17-4.26l-.15.1c1.3-.65,1.75-.64,3.24-1.26l.19,0c1.42-.68,4.31-1.52,5.49-2l.11.08,3-1-1.12.36c.29-.42,2.3-.59,4.38-1.52,2-.66,3.85-2,6-2.62.94-.48-.79.53.65-.1.1.14-.66.34-.23.33,1.42-.59,2.43-.69,4.19-1.42l.12.09c2.26-1,4.46-1.4,5.95-2.14,2.38-.93,1.74-.21,4.18-1.3l1-.17c1.09-.34.71-.45,1.93-.77,0,.13,1.54-.42.87-.09,2.76-.73,5.44-2,9.12-2.8.72-.43,2.57-.84,3.11-1.15.12.06,3.65-1,1.66-.24-.17.07-.48.15-.47.11l-.21.18c2.12-.34,3.71-1.13,5.78-1.59-.62.11-1.43.31-.91.1l1.92-.44-.38.19c1-.21,1.91-.42,2.86-.6l-.42,0a19.59,19.59,0,0,0,3.49-.64c.7-.24-1.36.09.11-.24l1.58-.23.43-.07a1.55,1.55,0,0,1,.36,0,.59.59,0,0,1,.34.11,1.25,1.25,0,0,1,.54.81c0,.28,0,.28-.14.35.06,0,.06.09,0,.14s-.5.22-.81.35l-.12-.09c-2.37,1.07-1,.09-3.35,1.09l.18-.15-.55.47c-2.11,1-1.26.19-3.6,1.33,1-.34.54.11-.67.46l.27-.21c-.65.24-.86.37-1.31.49.38-.2.16-.23-.81.1l.61-.35-1.78.81c-1.45.35-3.67,1.2-4.31,1.22a29.74,29.74,0,0,0-3.75,1.26c.59-.3-1.12.17-.68-.11a21.91,21.91,0,0,1-4.08,1.31l.18-.06c-3.55.89-5.95,1.92-9.14,2.67.18.1-1.5.51-1,.57-3.21,1.12-6.05,1.38-7.06,2.28a19.2,19.2,0,0,1-2.57.6l.35-.13-5.61,1.8a20.86,20.86,0,0,1-2.93,1.23c.55-.3-.19,0-.87.19.43-.16.55-.24-.37,0a3,3,0,0,1-.48.24s0,0,0,0c-1.13.42-.92.39-.39.22,0,0,0,0,.21,0-1.23.28-3.28,1.15-3.49,1-3.39,1.26-5.75,2.32-8.53,3.44-.35,0,.28-.29,1.08-.63l-2,.78c0-.13,1.12-.5,1.72-.76-2.45.69-4.81,2.06-7.66,2.94l-.54.32-.17,0a3.94,3.94,0,0,1-1,.54c-.43,0-.07-.26-1.44.27-1.13.32-3.06,1.25-4.46,1.85.77-.28.55-.12.23,0-.69.27-1.12.31-1.63.57l-.13-.13c.33,0-1.73.84-2,1-.43,0,1-.5,1.18-.65L76,59.61c-1.43.66.32,0-.34.43-1.29.52-2.52,1.09-4,1.55l.52,0a40.75,40.75,0,0,1-5.59,2c-4.49,1.88-7,2.91-8.16,3.5s-1,.7-.33.61,2-.42,3.09-.71l2-.59C70.52,64.13,74.09,62.34,82.57,59Z"/><path class="cls-1" d="M119.91,121.25l-.71.44A2.89,2.89,0,0,0,119.91,121.25Z"/><path class="cls-1" d="M115.75,147.31l-.1-.19Z"/><path class="cls-1" d="M111.32,150.91l0,0-.1-.2Z"/><path class="cls-1" d="M128.75,115.51c-.72.12-1.4.37-2.06.54s-1.29.33-1.86.58a26.89,26.89,0,0,0-3.21,1.39,19.78,19.78,0,0,0-2.69,1.56l-1.22.83c-.4.28-.74.62-1.12.93l-1.1,1-1,1.1a14.65,14.65,0,0,0-1,1.18l-1,1.34c-.16.24-.34.46-.49.72s-.28.52-.42.78c-.28.54-.61,1.09-.88,1.69L110,131a21.32,21.32,0,0,0-.62,2.17,25.43,25.43,0,0,0-.52,9.09,32.44,32.44,0,0,0,2.49,8.57c.32.61.76,1.31,1.17,2.09.22.39.42.81.68,1.21l.81,1.2.82,1.21c.3.39.63.75.94,1.11a14.19,14.19,0,0,0,1.85,1.92l.83,1c.82.77,1.94,1.45,2.78,2.2h-.07l.52.36.55.31,1.06.63a9.52,9.52,0,0,0,1.65.88h-.08l1.84.84-.33-.1a32.88,32.88,0,0,0,8.23,2.16l-.2-.17a18.3,18.3,0,0,0,1.94.24l1.7,0a17.9,17.9,0,0,0,2.92-.21c.46-.06.92-.08,1.37-.18l1.41-.31c.48-.11,1-.2,1.53-.33l1.7-.52,0,.06L148,166c.35-.15.68-.34,1-.5l1.89-.92c1.16-.69,2.26-1.31,3.34-2a19.44,19.44,0,0,0,5.63-6.31c-.42.7.27-.25.25-.18,1.61-2.58,2.84-5.57,2.59-5.72.81-2,.73-1.62.94-1.84a26.16,26.16,0,0,1,.89-3.49c-.05.26-.11.51-.17.77a35.37,35.37,0,0,0,1-4.79c-.13.3-.24.61-.38.91.42-2.55.44-.6.61-3.09l-.2,0a37.85,37.85,0,0,0,.14-4.64,16.52,16.52,0,0,0-.72-4.59,14.44,14.44,0,0,0-2.86-4.93,13.47,13.47,0,0,0-4.71-3.36,17.83,17.83,0,0,0-2.74-.88l-.69-.16a3.59,3.59,0,0,0-.45-.07,2.09,2.09,0,0,0-.5,0,2.85,2.85,0,0,0-1.78.87,3.24,3.24,0,0,0-.62,3.54,2.77,2.77,0,0,0,.59.81,5.15,5.15,0,0,0,.7.52l1.05.71a12.9,12.9,0,0,1,3.42,3.68,15.9,15.9,0,0,1,1.17,2.24c.15.39.27.79.41,1.19l.2.59.14.61a20.16,20.16,0,0,1,.53,4.94,22.86,22.86,0,0,1-.68,4.78l-.26.51a8.18,8.18,0,0,0-.48,1.82,7.23,7.23,0,0,1-.69,1.95l-.57,1.36c-.2.36-.73,1-.37.42-.72,1.13-.68,1.19-1.22,2-.32.37-.68.7-1,1a22.61,22.61,0,0,1-5.95,4.68,20.36,20.36,0,0,1-3.5,1.53,18.82,18.82,0,0,1-4,.88c-.42.05-.87.07-1.33.08s-1,0-1.46,0a13.78,13.78,0,0,1-1.55-.11,11.38,11.38,0,0,1-1.62-.2,20.26,20.26,0,0,1-6.66-2.42,23.66,23.66,0,0,1-5.68-4.53,26.49,26.49,0,0,1-3.65-5.22,20.88,20.88,0,0,1-2.32-7.69,18.55,18.55,0,0,1,.95-8.2,15.23,15.23,0,0,1,4.79-6.55,24.47,24.47,0,0,1,7.08-3.87,6.24,6.24,0,0,0,.71-.25,1.77,1.77,0,0,0,.46-.18,38.73,38.73,0,0,1,9.72-1.38l2,0a34.18,34.18,0,0,1,4.86.49,20.22,20.22,0,0,1,5.82,1.93,11.41,11.41,0,0,1,4.31,3.87c.21.38.47.73.63,1.1s.3.73.43,1.07l.25.58a1.61,1.61,0,0,0,.52.63,1.59,1.59,0,0,0,1.34.25,1.22,1.22,0,0,0,.84-.78,1.09,1.09,0,0,0,0-.68c-.09-.27-.16-.25-.18-.09a2.5,2.5,0,0,1-.08.47.82.82,0,0,1-.59.56,1,1,0,0,1-1-.32,1.29,1.29,0,0,1-.26-.58c-.06-.24-.14-.49-.21-.76s-.16-.57-.25-.87-.27-.59-.43-.92a10.58,10.58,0,0,0-1.25-2,14.32,14.32,0,0,0-4.95-3.73l.25,0a23.56,23.56,0,0,0-7-1.86,27.45,27.45,0,0,0-5.87,0,9.09,9.09,0,0,0-2.71,0c-1.23.15-2.54.4-3.2.47l.12,0c-1.67.42-3.4.77-5.09,1.32a26.13,26.13,0,0,0-2.48.9,16.94,16.94,0,0,0-2.26,1.24,2.64,2.64,0,0,1,.8-.57c-.54.28-1.1.67-1.67,1s-1.08.78-1.56,1.12a16.3,16.3,0,0,1-1.69,1.37,18.13,18.13,0,0,0-2.88,3.87,16.93,16.93,0,0,0-1.69,4.76,20,20,0,0,0,.11,8.1c0-.08-.07-.16-.1-.25.31,1,.45,1.7.61,2.4a24.51,24.51,0,0,0,.86,2.51,2,2,0,0,1,.07.27c.28.51.53,1.17.9,1.85s.73,1.42,1.18,2.1.85,1.37,1.31,1.92.83,1,1.14,1.4v.16l1.6,1.66,1.75,1.5-1.28-1.15c.63.14,2.46,2.54,5.63,3.82a14.78,14.78,0,0,0,4.55,1.3c1.58.22,3.16.25,4.75.34,1.52-.16-1.34.25.94.1.08.17-1.07.12-.48.24a21.41,21.41,0,0,0,6.41-1l.14.08c3.41-1.28,6.39-2.75,8.12-4.51.69-.65,1.16-1.07,1.5-1.4s.6-.53.84-.76a8.93,8.93,0,0,0,2-2.66,13.87,13.87,0,0,0,.91-1.26c.8-1.52.38-1.17,1.15-2.88.11.16.79-2.24.57-1.16a20,20,0,0,0,1.09-6.52,26.62,26.62,0,0,0-1-7.61c-.16-.28-.29-.67-.5-1.08l-.65-1.31a12.81,12.81,0,0,0-1.33-2,8.24,8.24,0,0,0-.55-.73,8.75,8.75,0,0,0-1.08-1.21c-.74-.71-1.17-1.14.1-.11.23.18.58.53.52.54l.34.22c-.12-.17-.24-.34-.37-.49l-.43-.43-.86-.82a17.93,17.93,0,0,0-1.89-1.28c-.21-.13-.2-.14-.28-.18s-.12-.08-.15-.14a.71.71,0,0,1-.18-.42,1.17,1.17,0,0,1,.42-1c-.41.23-.54,1-.49.52a1,1,0,0,1,1.12-.79.85.85,0,0,0-.27.1,7.53,7.53,0,0,1,1.57.35,16,16,0,0,1,1.83.68c-.14-.12-.3-.21-.45-.32a6.2,6.2,0,0,1,1.1.58,6,6,0,0,1,.86.55c.26.21.55.39.86.61s.65.5,1.08.82.1,0-.13-.28-.32-.4.41.28a12,12,0,0,1,2.41,3.84,18.44,18.44,0,0,1,1.15,5c.1-.33.23.56.28,1.5l-.12.11a6.73,6.73,0,0,1-.08,2.44,10.23,10.23,0,0,0-.34,2.4l-.05-.32.13,1a7.86,7.86,0,0,1-.51,2.49,21.51,21.51,0,0,0-.69,2.73c.4-1.37.49-.55-.14,1.11l0-.47a14.59,14.59,0,0,1-.63,1.86c.14-.58,0-.34-.58,1,.08-.32.17-.63.24-.94-.28.85-.57,1.71-.91,2.55-.51.92-1.17,2.1-1.79,3.11a12,12,0,0,1-1.58,2.13l-.45.55c-.28.32-.65.78-1.07,1.22-.83.91-1.83,1.79-2.18,2.15.31-.31,0-.11-.36.1s-.76.38-.49.15c-.45.35-1.38,1-2.36,1.63a24.14,24.14,0,0,1-2.76,1.23,1,1,0,0,0,.23-.11c-.59.21-1.17.37-1.72.56a11.6,11.6,0,0,1-1.63.49l-1.58.37-.77.18-.78.09a18.75,18.75,0,0,1-3.09.23l-1.59,0c-.53,0-1.07-.14-1.63-.22.09.08-.45,0-.95,0s-.93-.14-.66,0a21.71,21.71,0,0,1-5.94-1.91c-.78-.41-1.51-.71-2.11-1a6.38,6.38,0,0,0-1.55-.66,8.8,8.8,0,0,1-1.78-1.31c-.38-.34-.65-.6-1.08-1l.42.29a8,8,0,0,1-1-.89l-.86-.79-.74-.69-.59-.69-1.12-1.31c-.39-.44-.7-1-1.13-1.61a14.93,14.93,0,0,1-2.41-3.7c.25.37.25.31.12,0s-.31-.75-.5-1.22c.26.59.36.76-.06-.49-.1-.16-.22-.42-.34-.66,0,0,0-.07,0,0-.59-1.57-.47-1.3-.29-.54,0,0,0,0,0,.27-.19-.85-.53-2-.79-3a8.37,8.37,0,0,1-.25-1.94,14.48,14.48,0,0,1-.22-1.8c0-.58-.13-1.15-.13-1.7s0-1.09,0-1.62c0-.26,0-.52,0-.78s.07-.51.1-.77c.06-.51.12-1,.17-1.51s.23-1,.33-1.47a17.91,17.91,0,0,1,.94-2.91c.26-.4,0,.54-.44,1.67l.53-1.38.26-.69c.1-.22.23-.43.34-.65.07,0-.16.4-.35.9L112,131.6c.4-.78.64-1.64,1.11-2.41a18,18,0,0,1,1.36-2.4l.79-1.19,1-1.11a13.88,13.88,0,0,1,2.2-2,6,6,0,0,1,.6-.63l.21-.12a7,7,0,0,1,1.17-1,4.75,4.75,0,0,0,1.86-.79,39.87,39.87,0,0,1,6.22-2.53c-1.1.31-.77.14-.3,0,1-.29,1.62-.26,2.39-.49l.13.13c-.44-.08,2.64-.62,3-.69s-.09.09-.6.17a10.77,10.77,0,0,0-1.22.28c1-.18,1.67-.26,2.12-.3l1-.11c.51-.07,1-.09,3.11-.2s-.41-.15.65-.28l1.48,0,1.49.06a21.85,21.85,0,0,1,3.16.4l-.69-.24a18.58,18.58,0,0,1,7.93,2.62,16.1,16.1,0,0,1,6.1,5.35c.53.9.95,1.68,1.3,2.34s.48,1.25.65,1.71c.7,1.78.74,1.61.68.6-.09-.53-.25-1.27-.44-2.1-.06-.21-.1-.42-.17-.63l-.25-.62-.53-1.24a5.46,5.46,0,0,0-.59-1.1l-.56-.87c-.16-.25-.3-.45-.39-.6l-.17-.19a16.37,16.37,0,0,0-6.31-4.85,23.52,23.52,0,0,0-6.7-1.92A43.55,43.55,0,0,0,128.75,115.51Z"/></g></svg>