<svg xmlns="http://www.w3.org/2000/svg" viewBox="0 0 200 200"><defs><style>.cls-1{fill:#212121;}</style></defs><g id="BACKGROUND_1" data-name="BACKGROUND 1"><path class="cls-1" d="M147.33,109l.75-.24A2.44,2.44,0,0,0,147.33,109Z"/><path class="cls-1" d="M42.3,108.84l.19,0Z"/><path class="cls-1" d="M163.73,89.76l0,0,.18.12Z"/><path class="cls-1" d="M138.88,113.84c5.11-1.53,8.26-2.75,11.44-3.94,1.59-.61,3.2-1.25,5-2.09a43.42,43.42,0,0,0,6.22-3.47,21.25,21.25,0,0,0,3.27-2.67,9.5,9.5,0,0,0,2.46-3.85,5.05,5.05,0,0,0,.28-2.52,6.22,6.22,0,0,0-.83-2.34,11.91,11.91,0,0,0-3-3.17,58.26,58.26,0,0,0-8.5-4.83l-.92-.61a15.46,15.46,0,0,1-2.68-1.47h.08a35.74,35.74,0,0,0-3.62-1.76h.07c-.56-.25-1.13-.47-1.7-.69l.31.07c-2.47-.89-5-1.71-7.27-2.42l.15.2A57.16,57.16,0,0,0,134,76.72c-1.61-.37-3.17-.69-5.37-1.25l.06,0c-2.85-.4-5.08-.78-7.32-1.2a60.54,60.54,0,0,0-7.46-1c.73,0-.3-.11-.24-.14-2.7-.28-5.59-.54-5.66-.25-2-.18-1.6-.23-1.85-.36a15.82,15.82,0,0,1-3.26,0h.72c-1.48-.08-2.95-.13-4.43-.18l.86.27c-2.34-.15-.58-.31-2.83-.31l0,.19C94,72.35,92.1,72.08,89,72a154.11,154.11,0,0,0-19.86,2.14,129.27,129.27,0,0,0-18.78,4.58l-.56,0c-.31-.15-3,1.48-3.55,1.48-.43.2-.85.43-1.27.65s-1.18.42-.55.09a15.59,15.59,0,0,0-2.05,1.06L41,82.61a42.07,42.07,0,0,0-6.33,4,46.51,46.51,0,0,0-5.76,5.16l-.9,1c-.31.35-.59.76-.9,1.17s-.57.9-.85,1.38A10.16,10.16,0,0,0,25.59,97a6.59,6.59,0,0,0-.05,3.94,7.62,7.62,0,0,0,2.38,3.25,24,24,0,0,0,6.35,3.56c2.11.86,4.11,1.51,5.8,2,4.78,1.34,9.81,3.2,15.06,4.59a93.55,93.55,0,0,0,15.66,3,6.18,6.18,0,0,0,1.18.1c3.09.38,6.18.67,9.29.87,0,0,2.82.18,6.53.21s8.27-.21,11.74-.43c7-.45,9.64-.94-7.44-1.27l.23-.06c-5,0-8.21-.18-11.7-.14a8.69,8.69,0,0,0-2.41-.3c-1.11-.09-2.31-.15-2.89-.25l.11,0c-3.09-.09-6.26-.93-9.22-1.21a2,2,0,0,1,.87,0,28.29,28.29,0,0,1-5.18-1c-5.08-.91-12-2.9-15.21-3.69l.23,0c-1.85-.39-2.36-.72-4.4-1.26-.1-.06-.24-.11-.22-.12a59.93,59.93,0,0,1-7.21-2.47l-.06-.14a32.56,32.56,0,0,1-3.61-1.76c.42.26.86.5,1.3.74a4.67,4.67,0,0,1-1.83-1,20.61,20.61,0,0,1-2.84-2.4,6.43,6.43,0,0,1-1-1.57,5.23,5.23,0,0,1-.32-1.88,6.88,6.88,0,0,1,1.42-3.87c.68-1.19-.51,1.1.59-.61.16,0-.47.82-.06.48a26.4,26.4,0,0,1,3.93-4.1l.16,0c2.29-2.28,4.91-3.56,6.62-4.85a10.12,10.12,0,0,1,2.47-1.26,16.6,16.6,0,0,0,2.6-1.27l1.3-.38a25.78,25.78,0,0,1,2.45-1.15c0,.14,2-.65,1.11-.22,3.54-1.13,7.1-2.66,12-3.53,1-.45,3.44-.85,4.19-1.14.14,0,4.89-.8,2.18-.17a1.81,1.81,0,0,1-.63.08l-.3.18c2.78-.23,5-.92,7.79-1.24-.83.07-1.92.22-1.2,0l2.57-.32-.52.17,3.83-.38-.54-.06a34.09,34.09,0,0,0,4.66-.34c1-.17-1.8,0,.18-.22,2.52-.12,6.29-.17,9.5-.17-.3-.14.56-.14,1.45-.17l.1.13c3.41-.17,1.25.28,4.62.21l-.3.08.91-.23c3.06-.08,1.62.3,5,.21-1.34-.07-.61-.32,1-.15l-.42.09c.91,0,1.22,0,1.82.1-.54,0-.3.15,1,.26l-.91.06,2.55,0c1.94.33,5,.55,5.83.83l2.21.32a23.65,23.65,0,0,0,3,.3c-.85,0,1.45.39.77.42a30.1,30.1,0,0,1,5.54.83l-.24,0c4.63,1.07,8,1.55,12.07,2.91-.14-.2,2,.53,1.52.2,4.31,1.12,7.39,3.08,9,3.32,1.69.93,2,1.36,2.91,1.87l-.45-.21c3.42,1.8,4.42,2.2,6.84,3.6a14.82,14.82,0,0,1,3.54,2c-.7-.39.13.18.81.78-.46-.37-.6-.46.22.38a3.39,3.39,0,0,1,.51.41s0,0,0,0c.51.53.68.76.71.78a1.42,1.42,0,0,0-.3-.44s0,0-.1-.22a6.8,6.8,0,0,1,1.23,2.28,2.09,2.09,0,0,1,0,1.51,9.38,9.38,0,0,1-3.19,4.74,28.35,28.35,0,0,1-4.6,3.25c-.43.13.33-.38,1.28-1-.78.47-1.58.93-2.39,1.36a18.9,18.9,0,0,1,2.08-1.26,75,75,0,0,1-9.64,4.56l-.72.39-.22.07a6.23,6.23,0,0,1-1.29.67c-.56.09-.06-.25-1.86.43-1.45.46-4,1.51-5.93,2.17,1-.31.72-.14.29,0-.91.3-1.49.32-2.18.58l-.14-.12c.41.05-2.37.83-2.71,1-.56,0,1.42-.48,1.63-.63-3.73,1-1.86.52-5.61,1.4-2,.54.39.07-.54.41a44.36,44.36,0,0,1-5.6,1l.68,0a43.93,43.93,0,0,1-7.74.89c-3.17.41-5.65.6-7.55.74l-4.07.29c-1.72.15-1.6.3-.68.46a39.92,39.92,0,0,0,4.19.33c.75,0,1.45,0,2,0h.83a72.74,72.74,0,0,0,13-1.17A113.53,113.53,0,0,0,138.88,113.84Z"/><path class="cls-1" d="M141.57,106.82l.67-.18A2.13,2.13,0,0,0,141.57,106.82Z"/><path class="cls-1" d="M48.74,106.29l.16,0C48.79,106.29,48.75,106.28,48.74,106.29Z"/><path class="cls-1" d="M156,90.94l0,0,.17.09Z"/><path class="cls-1" d="M134,111c4.55-1.17,7.38-2.13,10.22-3,1.42-.48,2.86-1,4.49-1.65a40.69,40.69,0,0,0,5.64-2.78,18.55,18.55,0,0,0,3-2.19,7.84,7.84,0,0,0,2.38-3.42,4.13,4.13,0,0,0,.13-2.42,5.53,5.53,0,0,0-1-2A12,12,0,0,0,156,91a65.62,65.62,0,0,0-7.69-3.84l-.81-.52c-.4-.17-.83-.35-1.23-.55-.21-.1-.39-.21-.59-.32s-.42-.24-.62-.37h.07c-1.26-.57-2.63-1.17-3.27-1.37H142l-1.52-.54.28,0c-2.21-.68-4.48-1.33-6.47-1.9l.13.18c-4.26-1.26-5.9-1.31-9.79-2.26l.06,0c-2.53-.29-4.49-.6-6.47-1a49.57,49.57,0,0,0-6.58-.8c.65,0-.27-.11-.21-.13-2.38-.23-4.93-.44-5-.15-1.74-.16-1.41-.21-1.63-.34a11.73,11.73,0,0,1-2.87,0h.63q-2-.09-3.9-.15l.76.26c-2.07-.14-.52-.3-2.5-.31l0,.2c-2.85-.1-4.53-.39-7.31-.46a144.62,144.62,0,0,0-17.52,1.62,133,133,0,0,0-16.68,3.51h-.5c-.27-.16-2.73,1.22-3.17,1.19l-1.15.52c-.34.09-1.05.33-.48,0a11.8,11.8,0,0,0-1.85.86c-.4.11-.8.26-1.2.39A35.25,35.25,0,0,0,41.29,88,40.09,40.09,0,0,0,36,92.27a10.18,10.18,0,0,0-3.09,4.61,4.83,4.83,0,0,0,.4,3.65,8.53,8.53,0,0,0,2.51,2.5,27.35,27.35,0,0,0,5.78,2.71c1.9.66,3.68,1.17,5.18,1.58,2.13.54,4.29,1.15,6.52,1.84s4.53,1.3,6.84,1.88a85.14,85.14,0,0,0,13.84,2.46,4.72,4.72,0,0,0,1,.06c2.72.32,5.45.55,8.19.72,0,0,2.48.16,5.75.19s7.29-.14,10.35-.32c6.14-.37,8.49-.83-6.55-1.36l.2-.05c-4.44-.06-7.23-.2-10.31-.14-.46-.3-3.64-.28-4.67-.48H78c-2.72,0-5.52-.79-8.13-1a1.7,1.7,0,0,1,.77,0,23.09,23.09,0,0,1-4.57-.82c-2.24-.37-4.9-1-7.36-1.5s-4.69-1.13-6.12-1.42l.2,0c-1.64-.29-2.08-.59-3.9-1a1.81,1.81,0,0,1-.19-.1,58.31,58.31,0,0,1-6.44-2l0-.14A33.75,33.75,0,0,1,39,102.84c.4.2.79.4,1.19.58-.52.07-2.47-1.18-4.4-2.6a4.13,4.13,0,0,1-1.62-2.71,4.82,4.82,0,0,1,1.18-3.36c.63-1-.47,1,.55-.5.16.06-.43.71,0,.43a22.46,22.46,0,0,1,3.63-3.41l.14,0c2.1-1.91,4.5-2.87,6-3.95a8.39,8.39,0,0,1,2.24-1,11.73,11.73,0,0,0,2.34-1l1.17-.27a18.48,18.48,0,0,1,2.2-.92c0,.12,1.76-.5,1-.14,3.15-.84,6.32-2.13,10.62-2.73.88-.4,3-.67,3.71-.92.12,0,4.33-.6,1.93-.08a2.06,2.06,0,0,1-.55.06l-.27.16c2.46-.12,4.44-.73,6.88-1-.73,0-1.69.16-1.06,0l2.27-.23-.46.15L81,79.25l-.48-.08A25.73,25.73,0,0,0,84.65,79c.84-.14-1.58-.08.17-.22,2.22-.06,5.54,0,8.36,0-.26-.14.5-.13,1.28-.16l.09.13c3-.15,1.1.28,4.07.22l-.26.08.79-.24c2.7-.1,1.44.3,4.44.18-1.18-.06-.54-.32.91-.16l-.38.09a15.83,15.83,0,0,1,1.61.08c-.48,0-.26.15.92.24l-.81.08,2.25,0c1.71.3,4.46.45,5.14.72l2,.26a18.92,18.92,0,0,0,2.6.23c-.75,0,1.27.35.68.4a24.48,24.48,0,0,1,4.89.66l-.21,0c4.09.89,7.09,1.22,10.69,2.34-.13-.19,1.77.41,1.34.11,3.83.87,6.59,2.53,8.05,2.59a8.91,8.91,0,0,1,1.57.86,10.35,10.35,0,0,0,1,.67l-.4-.17c3.07,1.5,4,1.81,6.16,3a13.32,13.32,0,0,1,3.24,1.55c-.65-.29.12.16.76.64-.43-.28-.56-.35.22.33a3.77,3.77,0,0,1,.48.31s0,.05,0,0c.95.85.78.7.4.26,0,0,0,0-.11-.19a6.42,6.42,0,0,1,1.29,1.85c.27.64.17,1.18.06,1.23a4.78,4.78,0,0,1-1.1,2.2,10.84,10.84,0,0,1-1.79,1.73,25.4,25.4,0,0,1-4.19,2.64c-.38.08.31-.33,1.17-.83-.71.39-1.44.75-2.17,1.11,0-.14,1.24-.66,1.88-1a71.29,71.29,0,0,1-8.66,3.63l-.64.33-.2,0a4.68,4.68,0,0,1-1.15.56c-.5,0-.06-.26-1.66.29-1.3.33-3.61,1.19-5.29,1.72.92-.24.64-.09.26.06-.82.23-1.32.23-1.94.44l-.12-.13c.36.08-2.12.67-2.41.8-.49,0,1.26-.39,1.45-.53-3.31.78-1.65.4-5,1.08-1.77.45.35.09-.48.38a39.6,39.6,0,0,1-5,.82l.6.06a37.13,37.13,0,0,1-6.83.65c-5.6.65-8.74.73-10.25.9s-1.41.31-.6.46a33,33,0,0,0,3.69.34c1.33.08,2.46.06,2.46.06a66.46,66.46,0,0,0,11.49-.83A111.65,111.65,0,0,0,134,111Z"/><path class="cls-1" d="M34,130.45l.11.63S34.16,130.9,34,130.45Z"/><path class="cls-1" d="M158.39,146.13l.06-.14C158.41,146.08,158.4,146.12,158.39,146.13Z"/><path class="cls-1" d="M41.34,154.23l0,0a1.13,1.13,0,0,1-.1-.13Z"/><path class="cls-1" d="M30.34,123.42c1,4.16,1.63,6.79,2.32,9.46a86.36,86.36,0,0,0,3.07,9.54,69.5,69.5,0,0,0,5.59,11.78c1.19,1.61,3,4.67,4.67,6.38.15.27.32.52.5.78a22.84,22.84,0,0,1,1.79,1.89h-.06c1,.77,1.89,1.81,2.42,2.13h-.06l1.17.93-.23-.12a49.66,49.66,0,0,0,5.3,3.41l-.07-.21c3.54,2,5,2.4,8.24,4.11h-.06c2.2.78,3.88,1.53,5.62,2.22a24.08,24.08,0,0,0,6,1.65c-.61-.07.24.12.18.15,2.22.42,4.63.54,4.66.25,1.6.12,1.29.19,1.49.31a10.41,10.41,0,0,1,2.63,0h-.57l3.57.15-.69-.27c1.89.16.47.32,2.28.34l0-.2c2.62.14,4.15.47,6.69.65a128.88,128.88,0,0,0,16.13-.8c2.68-.31,5.34-.65,7.94-1.21a63.25,63.25,0,0,0,7.41-2.11l.46,0c.28.15,2.41-1.35,2.83-1.34l1-.58c.31-.11,1-.37.45-.07a11.23,11.23,0,0,0,1.62-.93l1.07-.42a67,67,0,0,0,10-6.93,45.6,45.6,0,0,0,7.56-7.14,46.27,46.27,0,0,0,5.83-9,90.63,90.63,0,0,0,4.84-11.88,55.78,55.78,0,0,0,2.55-12.7,3.74,3.74,0,0,0,0-1q.4-3.77.49-7.55s.07-2.3,0-5.29-.33-6.67-.57-9.47c-.46-5.62-1-7.78-1.23,6l-.05-.18c.05,4.09.06,6.65.23,9.46-.29.43-.16,3.33-.34,4.28v-.09c0,2.49-.67,5.05-.86,7.43a1.42,1.42,0,0,1,0-.7,19.19,19.19,0,0,1-.82,4.16,98.88,98.88,0,0,1-3.45,12.07l0-.18a26.8,26.8,0,0,1-1.39,3.37c-.06.07-.13.18-.13.16a39,39,0,0,1-2.95,5.37h-.14c-.6.91-1.2,1.82-1.87,2.68.25-.31.51-.63.75-1,0,.54-1.62,1.88-3,3.78-1.51,1.59-2.73,3.67-4.59,5.11-.76.82.6-.81-.6.35-.15-.09.53-.58.12-.4-1.2,1.11-2.15,1.58-3.68,2.87l-.14-.05c-2,1.77-4.15,2.66-5.51,3.76-2.28,1.43-1.73.59-4.09,2.1l-1.05.32c-1.09.48-.68.58-1.93,1,0-.13-1.57.58-.9.18-2.8,1-5.61,2.38-9.53,2.85a9.5,9.5,0,0,1-1.75.43,13,13,0,0,0-1.65.32c-.11-.05-4,.44-1.77,0,.19,0,.53-.07.51,0l.25-.15c-2.27,0-4.08.55-6.32.67.66,0,1.55-.09,1,0s-1.39.09-2.08.12l.43-.13c-1,0-2.07.08-3.11.1l.43.11a21.59,21.59,0,0,0-3.77,0c-.77.12,1.45.14-.16.22-2-.05-5.09-.19-7.69-.3.24.15-.46.13-1.18.14l-.08-.13c-2.76.07-1-.3-3.74-.29l.25-.07-.74.22c-2.48.11-1.32-.32-4.08-.16,1.09,0,.49.31-.84.17l.35-.1c-.74,0-1,0-1.49-.05.45,0,.25-.16-.84-.22l.74-.09c-.69,0-1.38,0-2,0a25.81,25.81,0,0,1-4.54-1l-1.7-.49a22.27,22.27,0,0,0-2.27-.62c.67.12-1.06-.54-.52-.49a19.48,19.48,0,0,1-4.19-1.59l.19.06c-3.44-1.69-6.08-2.63-9-4.38.07.21-1.45-.74-1.16-.36a12.94,12.94,0,0,1-2.12-1.32l-.91-.67-.78-.69c-.5-.44-1-.8-1.35-1.12a3.63,3.63,0,0,0-1.07-.67,11.23,11.23,0,0,1-1.79-2.08l.28.26a28.75,28.75,0,0,1-2.2-2.53A26.44,26.44,0,0,1,45,156.1a12.76,12.76,0,0,1-2-2.65c.44.49,0-.18-.39-.85.24.42.35.53-.07-.37-.09-.11-.22-.29-.33-.46,0,0,0-.05,0,0-.64-1.09-.56-.88-.29-.36,0,0,0,0,0,.21a29.69,29.69,0,0,1-1.59-3.47c-1.64-3.42-2.77-5.91-3.9-8.89,0-.37.28.31.64,1.17-.28-.7-.51-1.41-.77-2.12a9.41,9.41,0,0,1,.74,1.85c-.68-2.6-2-5.18-2.63-8.27l-.28-.6,0-.18A4.41,4.41,0,0,1,33.7,130c0-.46.26,0-.15-1.54-.22-1.22-.95-3.38-1.4-4.94.19.86.06.6-.07.24-.19-.75-.18-1.22-.38-1.79l.14-.11c-.07.33-.63-1.95-.76-2.22,0-.46.37,1.16.51,1.33-.71-3-.36-1.52-1.07-4.57-.47-1.61-.08.33-.39-.43-.34-1.43-.74-2.82-1-4.5l0,.55a43.39,43.39,0,0,1-1.13-6.2c-1.17-5-1.8-7.85-2.19-9.19s-.53-1.22-.55-.46a31.28,31.28,0,0,0,.22,3.37c.12,1.21.26,2.23.26,2.23a101.34,101.34,0,0,0,1.81,10.34C28.27,115.31,29.13,118.7,30.34,123.42Z"/><path class="cls-1" d="M182.05,95.74l.28.12S182.26,95.8,182.05,95.74Z"/><path class="cls-1" d="M178.77,156.38l-.07,0Z"/><path class="cls-1" d="M191.17,102.37h0l-.06,0Z"/><path class="cls-1" d="M178.27,97.05a22.74,22.74,0,0,1,4.25.83,34,34,0,0,1,4.09,1.42,16.83,16.83,0,0,1,4.55,3.06,5.44,5.44,0,0,1,1.15,1.12,15.25,15.25,0,0,0,1.07,1.37l.1.4a2.67,2.67,0,0,1,.57.94h0c.3.43.51,1,.65,1.2h0l.24.58-.08-.08a9.77,9.77,0,0,1,.86,2.54l.13-.1c.12.9.29,1.49.4,2.08a7,7,0,0,1,.22,2h0c.56,2-.06,3.28.25,5.44,0-.27-.07.11-.11.09,0,1,0,2.06.24,2.09-.06.73-.13.59-.25.68.13,0,.13.64.08,1.21l0-.26-.12,1.63.27-.29c-.17.86-.31.19-.35,1h.2a23.52,23.52,0,0,1-.87,3c-.38,2.39-.72,4.86-1.25,7.26a24.7,24.7,0,0,1-2.35,6.62l-.21.12c-.21,0-.24,1.23-.51,1.28l-.15.5c-.1.11-.28.35-.2.11a2.8,2.8,0,0,0-.34.75l-.38.35a22.92,22.92,0,0,1-3.31,4.19c-.47.34-1,.76-1.65,1.23s-1.3,1-2.05,1.34a23.21,23.21,0,0,1-4.24,2,15.47,15.47,0,0,1-5.62.78c-2-.06-3.92-.25-5.78-.32a.93.93,0,0,0-.43,0c-1.12-.19-2.24-.38-3.35-.64l-.67-.15-1.65-.4-2.12-.57c-.72-.21-1.44-.41-2.06-.57-1.24-.36-2.14-.54-2-.23s1.22,1.14,4.19,2.53l-.1,0a18.63,18.63,0,0,0,2.36.74,8.27,8.27,0,0,0,2,.29c.14.33,1.55.36,2,.5l-.05,0c1.2,0,2.4.52,3.56.43,0,0-.07.11-.34.08.84,0,2,0,2,.19a19.92,19.92,0,0,0,6.06-.64l-.08.05c.69-.29.93-.22,1.71-.48.05,0,.11,0,.1,0,.37-.16.92-.35,1.46-.52a6.2,6.2,0,0,0,1.34-.49l.08.09c.49-.22,1-.42,1.46-.66a5.42,5.42,0,0,1-.56.22c.07-.32,1.17-.35,2.1-1.09.94-.57,1.48-1.7,2.38-2.31.31-.45-.2.47.33-.12.13.11-.22.32,0,.28a13.8,13.8,0,0,0,1.67-1.51l.12.06A7.94,7.94,0,0,1,190.3,149a4.15,4.15,0,0,0,.85-1.18c.65-1.12.78-.54,1.3-1.81l.4-.38c.3-.51,0-.47.39-1,.08.09.43-.69.36-.31.76-1.26,1-2.78,1.84-4.51-.05-.45.32-1.33.26-1.67.12,0,.52-1.84.44-.76,0,.1-.06.25-.09.23l.08.16a12.18,12.18,0,0,0,.63-3c-.11.31-.18.72-.21.43l.23-1,.06.22c.13-.47.23-1,.34-1.43l-.16.17c.19-.69.47-.91.41-1.74,0-.38-.27.64-.19-.11.25-.94.58-2.34.78-3.55-.16.09-.12-.23-.1-.57l.13,0c0-1.31.33-.44.34-1.74l.07.12-.22-.36c-.13-1.19.32-.61.11-1.93,0,.51-.29.22-.2-.4l.11.16a4,4,0,0,1,0-.7c.05.22.17.13.19-.39l.12.36-.16-1c.17-.75.06-1.94.22-2.25,0,0,0-.41,0-.86a3.22,3.22,0,0,0-.14-1.14c.12.32.15-.58.29-.33a6.71,6.71,0,0,1-.22-2.17l0,.09a34.61,34.61,0,0,0-.8-4.82c-.1.1-.28-.77-.4-.51-.6-1.62-.71-3.16-1.5-3.49-.35-.71-.3-.9-.48-1.28l.12.15a26.17,26.17,0,0,0-1.74-2.51c-.41-.38-.65-.28-1.28-1,.31.14,0-.12-.27-.37.19.14.27.17,0-.22a1.51,1.51,0,0,1-.25-.13s0,0,0,0c-.48-.39-.42-.29-.22-.09,0,0,0,0,0,.12-.36-.58-1.4-1.1-1.35-1.3a15.63,15.63,0,0,0-4.27-2c-.12-.14.24-.1.67,0l-1-.35c.05-.13.61.15.94.24-1.15-.68-2.58-.72-4-1.22l-.33,0-.09,0c0,.06-.35.06-.57,0s.07-.26-.67-.36a8.48,8.48,0,0,0-2.43-.19c.4.07.27.12.09.14-.37,0-.57-.17-.86-.13l0-.16c.14.15-1,.1-1.11.16-.2-.13.58-.07.67-.15-1.48-.06-.74,0-2.22,0-.78.11.15.15-.23.28a15,15,0,0,1-2.16.08l.26.13a12.67,12.67,0,0,1-2.94.1c-4.76,1-5.19,1.47-4.48,1.61a14.09,14.09,0,0,0,2.59.1c1.88,0,3.28-.12,4.77-.25A38.09,38.09,0,0,1,178.27,97.05Z"/><path class="cls-1" d="M172.61,144.45l.18.05S172.74,144.45,172.61,144.45Z"/><path class="cls-1" d="M180,106.58h0S180,106.59,180,106.58Z"/><path class="cls-1" d="M180.29,143.89h0l0,0Z"/><path class="cls-1" d="M170.32,146.27c1.3.07,2.14.12,3,.12a10.15,10.15,0,0,0,3.16-.5,9.8,9.8,0,0,0,3.79-2,13.54,13.54,0,0,0,1.69-2l.26-.17a2.48,2.48,0,0,1,.44-.71l0,0c.12-.38.4-.72.43-.92l0,0,.19-.42v.09c.22-.64.47-1.27.7-1.82h-.15c.56-1.15.39-1.68.82-2.72l0,0c-.08-1.45.68-2.16.5-3.63,0,.18.08-.07.12,0,0-.66.09-1.36-.19-1.4.05-.47.13-.38.24-.43-.12,0-.13-.42-.1-.79l0,.17.07-1-.26.18c.13-.55.3-.11.3-.65l-.19,0a12.87,12.87,0,0,1,.68-1.92c.21-1.55.27-3.18.37-4.77s.21-3.18.41-4.68l.14-.13c.22-.06-.31-.83-.12-1l-.12-.35c0-.1.07-.31.13-.14a1.22,1.22,0,0,0-.13-.56l.1-.37a11.71,11.71,0,0,0-1-3.72,6.39,6.39,0,0,0-1.76-2.89,8.93,8.93,0,0,0-2.92-1.85c-1.22-.41-2.48-.91-3.8-1.26a10.41,10.41,0,0,0-3.92-.4.39.39,0,0,0-.29.06c-.76,0-1.52,0-2.27,0a11.51,11.51,0,0,0-1.65.13,5.49,5.49,0,0,0-3,1.24c-.79.75-.84,1.54-.57,1.47a5.45,5.45,0,0,1,2.83-.88l0,.06a14.93,14.93,0,0,0,2.62-.38c.14.29,1,0,1.27.11l0,0c.73-.22,1.5.2,2.2,0a.21.21,0,0,1-.21.09c.51,0,1.2,0,1.22.16,1.21,0,2.79.44,3.57.45l-.06,0c.46,0,.53.15,1,.24,0,0,0,.06,0,.06a4.56,4.56,0,0,1,1.55.74l0,.1a7.64,7.64,0,0,1,.73.54l-.25-.24c.3-.16.4.58,1,.92.33.48,1.3.64,1.46,1.35.28.23-.33-.14,0,.23-.14.08-.2-.15-.26,0,.27.39.17.74.44,1.24l-.11.06c.44.65.18,1.38.46,1.83.2.76-.3.55,0,1.33l-.16.32c0,.34.23.24.15.63-.11,0-.09.48-.19.26-.16.86.2,1.78-.18,2.93.18.27,0,.85.14,1-.1,0-.14,1.19-.27.5,0,0,0-.16,0-.15l-.11-.09c-.3.65,0,1.24-.11,1.91.06-.2.08-.46.14-.27l-.08.61-.09-.14-.15.92.14-.11c-.12.45-.35.58-.22,1.11.07.25.21-.41.2.07s-.37,1.5-.49,2.26c.15,0,.12.16.13.37h-.13c.09.84-.3.28-.25,1.11l-.08-.09.24.25c.16.76-.3.37,0,1.22,0-.33.29-.13.19.27l-.11-.12c0,.23.05.3,0,.45-.06-.14-.17-.09-.19.23l-.12-.23.15.63c-.18.45-.11,1.21-.3,1.38a3.15,3.15,0,0,0-.08,1.22c-.08-.21-.21.32-.32.15a2,2,0,0,1-.14,1.3v-.06a16.77,16.77,0,0,1-.73,2.76c.15,0-.1.46.12.41-.21,1-1.08,1.49-.78,2.07-.2.41-.39.4-.55.56l0-.1a6.28,6.28,0,0,1-1,1.33c-.19.24,0,.51-.52.8.08-.19-.09,0-.25.09.09-.09.1-.15-.16,0a.31.31,0,0,1-.08.15h0c-.27.22-.2.21-.06.13s0,0,.09,0c-.37.1-.87.54-1,.39a11.83,11.83,0,0,1-2.47,1.19c-.12-.07.07-.2.31-.29l-.61.17c0-.13.34-.15.53-.22-.77,0-1.51.51-2.44.38l-.18.12h-.06c0,.05-.19.14-.33.16s0-.26-.45-.24a5.33,5.33,0,0,0-1.49.12c.25,0,.17.09.06.13s-.36-.13-.54-.08v-.16c.08.16-.61.13-.7.2-.12-.13.36-.09.42-.17l-1.38-.06c-.5.09.08.16-.17.28a4.49,4.49,0,0,1-1.36-.05l.14.15a3.56,3.56,0,0,1-1.83-.27,15.14,15.14,0,0,1-2.9-.29c-.48-.06-.52.09-.41.32a2.92,2.92,0,0,0,.91.79,5,5,0,0,0,.69.35,7.76,7.76,0,0,0,3.35.65Z"/><path class="cls-1" d="M16.61,170.53a1.3,1.3,0,0,0-.21.38A2.46,2.46,0,0,0,16.61,170.53Z"/><path class="cls-1" d="M154.16,180.7l.13,0Z"/><path class="cls-1" d="M32.14,183.6h0l-.15,0Z"/><path class="cls-1" d="M20.89,165a23.53,23.53,0,0,0-4.39,2.74,6.83,6.83,0,0,0-1.58,1.82l-.28.6a5.47,5.47,0,0,0-.16.7,2.46,2.46,0,0,0-.05.64c0,.2,0,.4,0,.6a7.24,7.24,0,0,0,2.17,4.15,16.29,16.29,0,0,0,4.47,3.12,26.66,26.66,0,0,0,2.77,1.26l2.77,1c1.85.67,3.7,1.32,5.48,1.93,1.75.39,4.66,1.59,6.74,2l.74.36a15.68,15.68,0,0,1,2.23.62l0,0c1.07.21,2.23.6,2.77.69l0,0,1.28.32h-.23c1.85.38,3.76.83,5.44,1.23l-.11-.18c3.57.92,5,.84,8.22,1.51l-.05,0c4.21.16,6.59,1,11,.79-.54,0,.23.08.18.12,2,0,4.1,0,4.14-.28,1.44,0,1.17.11,1.36.22a8.18,8.18,0,0,1,2.37-.15l-.52,0h3.23l-.63-.24c1.71.08.43.29,2.07.24l0-.19c2.37.06,3.76.33,6,.48,9.55.07,19.78-.85,28.65-1.43l.4.11c.2.21,2.41-.61,2.77-.44l1-.23c.29,0,.91,0,.4.08a9.64,9.64,0,0,0,1.65-.29l1,0c3.76-.43,6.89-1.21,10.79-1.93,1.18-.18,2.62-.41,4.18-.74s3.24-.74,4.94-1.15l5-1.36c1.58-.46,3-.92,4.27-1.3,1.73-.54,3.54-1.1,5.39-1.62s3.77-1,5.68-1.65A35.38,35.38,0,0,0,174.92,174a3.34,3.34,0,0,0,.68-.55,41.26,41.26,0,0,0,5.27-4.51s.37-.37,1-1l1-1.13.6-.67c.1-.11.22-.26.35-.43a3.11,3.11,0,0,0,.34-.52,4.51,4.51,0,0,0,.56-2.53,6.56,6.56,0,0,0-.67-2.46,8.56,8.56,0,0,0-1.36-2,2.89,2.89,0,0,0-.5-.48c-.19-.13-.36-.23-.53-.33-.34-.18-.66-.32-1-.45-2.47-.95-4.22-1.24-3.88-.9a12.64,12.64,0,0,0,2.2,1.21,14.16,14.16,0,0,1,2.33,1.41,1.36,1.36,0,0,1,.24.24l.24.34a7.28,7.28,0,0,1,.46.78,6.4,6.4,0,0,1,.65,1.86l-.09-.13a3.51,3.51,0,0,1,0,2,3.78,3.78,0,0,1-1,1.47c-.9,1-1.67,2-2.49,2.91-.47.09-2.18,2.05-2.93,2.49l0-.07c-1.58,1.59-3.76,2.58-5.51,3.79a1.21,1.21,0,0,1,.48-.4,13.1,13.1,0,0,1-3.39,1.71A49.21,49.21,0,0,1,162.3,178c-1.94.69-3.82,1.24-4.94,1.73l.15-.09c-1.28.56-1.71.54-3.17,1.05h-.18c-1.41.57-4.23,1.21-5.39,1.59l-.11-.09-2.9.77,1.09-.26c-.3.38-2.24.4-4.31,1.08-2,.4-3.88,1.57-6,1.82-1,.34.82-.4-.63,0-.08-.14.67-.23.26-.28-1.44.35-2.41.35-4.19.76l-.09-.11c-2.31.63-4.45.63-6,1.05-2.41.45-1.67-.1-4.18.47l-1-.05c-1.09.1-.75.3-2,.36.06-.11-1.53.1-.83-.08-2.75.11-5.52.8-9.15.75-.77.27-2.59.27-3.17.44-.1-.08-3.65.17-1.61-.13.17,0,.48,0,.46,0l.24-.13c-2.07-.13-3.74.31-5.78.33.61,0,1.41,0,.88.09l-1.9,0,.39-.12-2.82,0,.39.12a15,15,0,0,0-3.43-.05c-.71.11,1.31.15-.15.21-1.85,0-4.63-.17-7-.21.22.15-.41.14-1.07.17l-.07-.12c-2.51.16-.92-.28-3.41-.16l.22-.09-.66.26c-2.25.22-1.21-.27-3.71,0,1,0,.46.28-.75.21l.31-.12a13.33,13.33,0,0,1-1.35,0c.4-.06.22-.17-.77-.17l.66-.14-1.87.2c-1.45-.14-3.72-.05-4.3-.25,0,0-.77,0-1.62-.09a12.28,12.28,0,0,0-2.16,0c.63-.06-1.06-.25-.57-.34a17.51,17.51,0,0,1-4.07-.35h.18c-3.42-.58-5.92-.69-9-1.51.11.17-1.49-.25-1.13,0-3.21-.55-5.65-1.77-6.93-1.55a16.89,16.89,0,0,1-2.37-.86l.35.07c-2.67-.75-3.43-1-5.39-1.65a15.79,15.79,0,0,1-3-.74c.6.1-.12-.13-.77-.36.43.13.57.14-.26-.23a4.8,4.8,0,0,1-.51-.11s0,0,0,0c-1.1-.35-.92-.25-.42-.06,0,0,0,0,.15.12-1.08-.52-3.14-1.14-3.21-1.35-3.27-1.19-5.64-1.81-8-3.35-.2-.26.37.06,1.09.44a18.82,18.82,0,0,1-1.66-1.07c.09-.09.95.61,1.49.88A27.6,27.6,0,0,1,18,174.61a4.17,4.17,0,0,1-1.51-3.13l-.07-.24V171l0-.12c-.08,0,0-.51.22-.83s.13.15,1-.76a39.74,39.74,0,0,1,3.65-2.56c-.69.36-.5.18-.23,0,.62-.33,1-.41,1.49-.7l.13.11c-.32,0,1.58-1,1.79-1.13.42-.07-.94.57-1.06.73,2.54-1.27,1.29-.58,3.83-2,1.26-.84-.32,0,.25-.47a25.31,25.31,0,0,1,3.68-1.93l-.5.07a19.1,19.1,0,0,1,5.3-2A43.33,43.33,0,0,1,41.3,158l2.94-.62c1.24-.29,1.14-.44.45-.52a20.31,20.31,0,0,0-3.11,0c-1.12.08-2.07.22-2.07.22A27.9,27.9,0,0,0,30.18,160c-1.37.68-2.72,1.46-4.2,2.34S22.86,163.94,20.89,165Z"/><path class="cls-1" d="M7.16,168.57c-.2.11-.4.22-.59.34C6.6,168.93,6.73,168.83,7.16,168.57Z"/><path class="cls-1" d="M165.13,184.8l.15-.06Z"/><path class="cls-1" d="M16.67,186.78h0l-.18-.05Z"/><path class="cls-1" d="M13.67,162.8c-4.09,2.19-6.92,3.48-9.46,5.5a11.65,11.65,0,0,0-1.85,1.81,5.75,5.75,0,0,0-1.25,3,7.8,7.8,0,0,0,.6,3.37,10.66,10.66,0,0,0,2.15,3.14A21.56,21.56,0,0,0,10,184c1.12.57,2.28,1,3.36,1.48l3.26,1.31c2.09.63,5.61,2.21,8.09,2.92l.9.45a21,21,0,0,1,2.68.89l-.06,0c1.29.34,2.7.85,3.34,1l-.07,0,1.55.46-.28,0c2.24.6,4.54,1.24,6.57,1.82l-.14-.18c4.32,1.29,6,1.32,10,2.29l-.06,0c5.12.52,8,1.57,13.33,1.62-.67,0,.27.09.22.12,2.45.12,5,.19,5.08-.1,1.77.07,1.44.14,1.66.26a11.94,11.94,0,0,1,2.91-.08l-.64,0c1.32,0,2.64.06,4,.07l-.76-.25c2.09.12.52.3,2.53.29l0-.19c2.89.11,4.59.44,7.39.6,5.84.13,11.9-.1,17.85-.4s11.78-.85,17.21-1.35l.49.1c.24.21,2.94-.73,3.38-.59l1.24-.27c.35,0,1.1-.08.48,0a11,11,0,0,0,2-.39l1.26-.09c2.29-.34,4.39-.73,6.5-1.23l3.22-.72,3.4-.8a108.51,108.51,0,0,0,11-2.76c4.1-1.18,8.19-2.59,11.19-3.59,4.14-1.59,8.82-2.74,13.32-4.73a40.11,40.11,0,0,0,12.14-7.79,5.13,5.13,0,0,0,.76-.77,60.5,60.5,0,0,0,5.71-6.18l.28-.35a12,12,0,0,0,.81-1,5.56,5.56,0,0,0,.82-2,7.07,7.07,0,0,0,0-2.63,9.65,9.65,0,0,0-1-2.68,12.25,12.25,0,0,0-.76-1.25,6.7,6.7,0,0,0-.45-.6,3.45,3.45,0,0,0-.6-.61,14.76,14.76,0,0,0-2.44-1.5,22.29,22.29,0,0,0-2.36-1c-3-1.17-5.4-1.06-4.84-.78.25.16,1.2.35,2.87,1.05a25.36,25.36,0,0,1,3,1.53,19.87,19.87,0,0,1,1.86,1.2,8.36,8.36,0,0,1,.92.75,5.32,5.32,0,0,1,.68,1l-.14-.13a8.18,8.18,0,0,1,1.49,4.89,4.29,4.29,0,0,1-.59,1.87,10.26,10.26,0,0,1-.61.89l-.68,1c-.52.21-2.41,2.8-3.22,3.47l.05-.09c-1.73,2.15-4.16,3.77-6.15,5.46a2,2,0,0,1,.54-.55,19.21,19.21,0,0,1-3.88,2.57,55.38,55.38,0,0,1-6.71,3.44c-1.16.5-2.29,1-3.31,1.35s-1.9.74-2.59,1l.18-.11c-1.55.71-2.07.72-3.84,1.4-.11,0-.24,0-.22,0-1.69.78-5.14,1.64-6.53,2.17l-.13-.08c-1.16.39-2.34.74-3.51,1.08l1.32-.36c-.37.43-2.72.58-5.23,1.51-2.41.61-4.72,1.93-7.28,2.4-1.17.42,1-.47-.77.06-.1-.14.82-.3.32-.31-1.75.48-2.93.52-5.08,1.13l-.12-.11c-2.81.79-5.41,1-7.28,1.5-3,.6-2.05,0-5.1.73h-1.22c-1.33.16-.92.34-2.4.47.07-.12-1.87.18-1,0-3.35.24-6.74,1-11.18,1.08-.94.31-3.17.31-3.88.5-.12-.08-4.46.23-2-.1.21,0,.59-.05.57,0l.29-.14c-2.52-.07-4.57.34-7.07.38.74,0,1.73,0,1.07.08l-2.32.06.48-.12c-1.15,0-2.3,0-3.46,0l.48.12a23.15,23.15,0,0,0-4.19-.06c-.87.11,1.6.16-.19.22-2.26-.08-5.65-.25-8.54-.32.27.15-.51.13-1.31.14l-.09-.13c-3.07.1-1.12-.3-4.17-.23l.27-.08-.81.24c-2.75.17-1.47-.31-4.53-.08,1.2,0,.55.3-.93.19l.38-.1c-.82,0-1.1,0-1.65,0,.5-.05.27-.17-.94-.19l.82-.12-2.3.13c-1.74-.21-4.53-.22-5.23-.48l-2-.2a19.37,19.37,0,0,0-2.64-.19c.77,0-1.29-.33-.68-.39a25.43,25.43,0,0,1-5-.68l.22,0c-4.17-.9-7.21-1.22-10.88-2.37.13.19-1.81-.42-1.37-.11-3.9-.87-6.83-2.44-8.38-2.34a23.59,23.59,0,0,1-2.86-1.16l.42.12c-3.22-1.08-4.15-1.43-6.5-2.35a21,21,0,0,1-3.55-1.12c.72.17-.14-.16-.93-.47.51.18.68.21-.32-.27a5.93,5.93,0,0,1-.61-.17s0,0,0,0c-1.32-.51-1.11-.38-.51-.12,0,0,0,0,.18.15-1.31-.69-3.76-1.56-3.81-1.83a26.82,26.82,0,0,1-4.75-2.78A10.7,10.7,0,0,1,3.53,176c-.06-.38.29.3.86,1.06a7.49,7.49,0,0,1-1-2c.12,0,.48,1.2,1,1.76A10.22,10.22,0,0,1,3.48,175a8.33,8.33,0,0,1-.22-1,4.12,4.12,0,0,1,0-1,3.43,3.43,0,0,1,.26-.93,6.89,6.89,0,0,1,.61-.91,8.39,8.39,0,0,1,1.77-1.62c.16-.18.34-.33.5-.5l.18-.11a4.14,4.14,0,0,1,1-.83c.47-.17.11.23,1.56-.66,1.21-.6,3.35-1.9,4.92-2.83-.87.46-.62.25-.27,0a20.51,20.51,0,0,0,1.82-1l.15.09c-.37,0,1.84-1.31,2.09-1.52.48-.15-1.1.77-1.24,1,3-1.77,1.47-.92,4.49-2.58,1.58-.94-.37,0,.35-.5A30.34,30.34,0,0,1,26,157.92l-.6.1A23.78,23.78,0,0,1,32,156a51.23,51.23,0,0,1,10.33-1.61c1.55-.14,1.43-.29.61-.46a25,25,0,0,0-3.8-.3c-.69,0-1.32,0-1.79,0l-.75,0a34.25,34.25,0,0,0-11.58,2.8A81.31,81.31,0,0,0,13.67,162.8Z"/><path class="cls-1" d="M63.36,89.59l-.29-.27S63.13,89.42,63.36,89.59Z"/><path class="cls-1" d="M81.59,25.45l-.08,0Z"/><path class="cls-1" d="M57,77.31h0s0,.06,0,.09S57,77.34,57,77.31Z"/><path class="cls-1" d="M68.23,90.53a36,36,0,0,1-4.65-3.23,32.68,32.68,0,0,1-4.09-3.88c-1.49-1.8-2.64-4-2.52-6.1a6.62,6.62,0,0,1,0-.87,8.86,8.86,0,0,1,.26-1c.26-.7.6-1.38.88-2,.12-.11.22-.24.36-.35A4.35,4.35,0,0,1,59.31,72v0a11.81,11.81,0,0,1,1.14-1.35v0l.58-.59-.07.13A17,17,0,0,1,62.27,69c.46-.38.93-.73,1.38-1.05l-.16-.06A45.74,45.74,0,0,1,68,65v0c2.16-1.71,3.88-1.88,6.23-3.48-.3.2.17,0,.16.05,1.14-.62,2.39-1.25,2.29-1.51.86-.42.73-.27.89-.22-.06-.11.67-.52,1.33-.86l-.28.2,1.9-1-.48,0c1-.44.38.13,1.33-.4l-.1-.17c1.42-.67,2.38-.83,3.8-1.41a49.38,49.38,0,0,0,8.22-5.31,23.16,23.16,0,0,0,3.49-3.51A11.5,11.5,0,0,0,99,43c.06-.08.14-.17.2-.26s.07-.54,0-1a2.76,2.76,0,0,1-.13-1.09l-.23-.73c0-.22-.09-.66.07-.31a4,4,0,0,0-.46-1.13l-.17-.73c-1.13-2.51-2.85-4-4.78-5.87a28.14,28.14,0,0,0-4.88-3.93c-1.94-1.28-4-2.45-5.45-3.3a71.4,71.4,0,0,1-12-9,1.7,1.7,0,0,0-.43-.35,20.15,20.15,0,0,1-2.55-3.44,17.34,17.34,0,0,1-1.27-2.68A14.18,14.18,0,0,1,66,3.9c0-1.59.24-2.72-.09-2.52a3.63,3.63,0,0,0-.74,1.51,11.84,11.84,0,0,0-.45,4.68l-.07-.11A11,11,0,0,0,67,12.94c-.12.41,1.13,1.77,1.45,2.27l0,0c1.14,1.07,2,2.52,3.27,3.35a.62.62,0,0,1-.4-.2c.84.69,2,1.56,2,1.74a41.7,41.7,0,0,0,6.48,4.21l-.12,0a18.57,18.57,0,0,1,1.94,1.09s.09.1.07.1c1,.38,2.48,1.54,3.2,1.91l0,.12,1.67,1.07-.6-.43c.38-.11,1.15,1,2.42,1.65,1.07.79,2.58,1.09,3.56,2.12.6.32-.6-.2.23.35-.08.14-.42-.22-.31,0,.79.58,1.08,1.17,2,1.93l0,.12c1.24,1,1.77,2.27,2.45,3,.83,1.31.21,1,1,2.41a3.14,3.14,0,0,1,0,.61c.09.62.3.42.26,1.13-.07,0-.12.88-.2.47l-.09.58c0,.19-.1.38-.14.58s-.07.4-.13.6l-.23.6a5.16,5.16,0,0,1-.65,1.25,5.63,5.63,0,0,1-1,1.19c-.12.53-1.08,1.23-1.22,1.61-.1,0-1.78,1.51-.91.51.07-.09.22-.21.24-.18l0-.19a10.58,10.58,0,0,0-1.45,1.14,8.48,8.48,0,0,1-1.44,1.18c.35-.18.78-.48.54-.22l-1,.67.16-.23c-.51.34-1.05.64-1.58.94l.28,0a8.27,8.27,0,0,0-2,1c-.35.32.84-.27,0,.24-1.09.53-2.76,1.27-4.16,2,.2.06-.18.25-.55.47l-.1-.09c-1.4.9-.66,0-2.07.89l.09-.15-.27.43c-1.23.88-.83.12-2.17,1.15.58-.31.39.11-.35.42l.13-.2a5,5,0,0,1-.78.43c.21-.17,0-.21-.53.09l.33-.33-1,.75c-.92.3-2.21,1.13-2.64,1.16a12.27,12.27,0,0,0-2.22,1.27c.31-.3-.71.21-.49-.07a10.72,10.72,0,0,1-2.37,1.45l.09-.07c-2.11,1.08-3.35,2.28-5.18,3.41.16.05-.78.69-.45.66-1.62,1.49-3.34,2.41-3.45,3.43-.66.77-.89.85-1.23,1.26l.12-.22a13.77,13.77,0,0,0-1.89,3.55c-.14.74,0,.89-.18,2.19,0-.43-.15.1-.12.61,0-.32,0-.43-.12.24,0,.09,0,.24.09.37s0,0,0,0c.13.83.15.68.12.29,0,0,0,0,0-.14A5.2,5.2,0,0,0,55.36,80a2.29,2.29,0,0,1,.2,1,10.69,10.69,0,0,0,1.69,2.78,20.57,20.57,0,0,0,2,2.1c.09.21-.31,0-.71-.45.31.35.66.66,1,1-.1.08-.63-.51-.93-.82,1,1.4,2.61,2.24,4,3.54l.39.16.08.08s.43.13.67.28-.17.22.63.74a14.64,14.64,0,0,0,2.72,1.54c-.44-.29-.26-.26,0-.18a10,10,0,0,0,.94.6l0,.16c-.09-.21,1.17.46,1.35.48.18.23-.69-.26-.84-.24,1.68.89.84.45,2.53,1.3,1,.35-.09-.21.4-.12a24.14,24.14,0,0,1,2.52,1.17l-.23-.27a21.05,21.05,0,0,1,3.43,1.63c5.91,2,6.67,1.84,5.94,1.27A23.79,23.79,0,0,0,80.11,96c-2.17-1.11-3.85-1.84-5.65-2.6S70.75,91.89,68.23,90.53Z"/><path class="cls-1" d="M85.91,84.59l.26-.2S86.08,84.42,85.91,84.59Z"/><path class="cls-1" d="M52.27,25.77v-.08C52.26,25.75,52.26,25.76,52.27,25.77Z"/><path class="cls-1" d="M94.38,74.88v0l0,.09Z"/><path class="cls-1" d="M84.48,88.69c1.59-1.53,2.61-2.5,3.59-3.55A26.82,26.82,0,0,0,91.3,81a24.89,24.89,0,0,0,3.08-6.14c.14-1.06.82-2.84.73-4.13l.17-.48a7.17,7.17,0,0,1,0-1.39l0,0c-.07-.65-.12-1.39-.18-1.71l0,0a7,7,0,0,0-.13-.78l.07.12c-.15-.55-.26-1.12-.44-1.66s-.3-1.07-.49-1.56l-.1.14c-.68-2.11-1.39-2.65-2.4-4.33h0c-.9-.87-1.54-1.59-2.19-2.33-.34-.35-.68-.71-1.08-1.06a10.44,10.44,0,0,0-1.43-1c.28.16-.06-.14,0-.15-1-.64-2-1.27-2.19-1-.7-.43-.53-.42-.57-.57-.05.11-.7-.22-1.27-.51l.28.1c-.54-.28-1.09-.58-1.64-.83l.21.37c-.83-.5-.09-.37-1-.74l-.07.18c-1.19-.63-1.77-1.23-2.9-1.91-4.86-2.32-10.46-4-14.47-6.84l-.1-.24c0-.24-1.31-.44-1.34-.73l-.51-.25c-.11-.12-.36-.34-.1-.22a5.93,5.93,0,0,0-.77-.48l-.34-.45a18.93,18.93,0,0,1-3.92-4.29,24.68,24.68,0,0,1-1.81-4.56,24,24,0,0,1-.76-5.1c-.31-4,1.7-8.49,1.94-12.76a1,1,0,0,0,0-.49,38.9,38.9,0,0,0,.37-3.91s0-.3,0-.8,0-1.19-.09-2a15.88,15.88,0,0,0-1.27-4.89A7.49,7.49,0,0,0,53.87.17c-.25-.34-.43-.46-.48-.29-.18.34.53,1.78.73,5.2L54.06,5c.24,2,.2,3.25.4,4.66-.28.21-.13,1.68-.28,2.15l0-.05c.09,1.27-.51,2.54-.52,3.77,0,0-.09-.09,0-.37a6.42,6.42,0,0,1-.44,2.14c-.35,2.1-.95,5.09-.79,6.53l0-.1c.11.82-.07,1,0,1.94,0,0,0,.11,0,.1.12.87,0,2.55.18,3.26l-.11.06c0,.58.17,1.16.25,1.74l-.07-.66c.33.17,0,1.36.55,2.55a4.59,4.59,0,0,0,.85,1.62,7,7,0,0,1,.94,1.56c.39.45-.44-.34.06.38-.13.1-.28-.31-.29-.05.52.69.56,1.33,1.31,2.11l-.08.11c1,1,1.6,2.13,2.43,2.61,1.13.88.49.92,1.81,1.68l.37.47c.51.39.49.1,1,.56-.09.07.71.55.31.41,1.26,1,2.89,1.44,4.62,2.63.49,0,1.37.58,1.75.58,0,.1,1.87.89.74.57-.1,0-.26-.1-.24-.13l-.17.05c1,.72,2,.78,3,1.28-.3-.17-.72-.35-.41-.3l1,.45h-.25l1.44.7-.15-.2a5.21,5.21,0,0,0,1.73.87c.41.07-.6-.45.17-.16.91.51,2.28,1.26,3.46,1.87,0-.19.27,0,.61.1l0,.13c1.34.46.34.47,1.64,1l-.15,0,.45-.06c1.21.36.46.54,1.84.91-.49-.25-.08-.38.46,0h-.2a4.34,4.34,0,0,1,.66.34c-.22-.06-.19.09.29.35l-.39-.06c.33.11.66.23,1,.36a10.76,10.76,0,0,0,1.1.8,2.65,2.65,0,0,1,.74.68s.33.26.68.56a3.76,3.76,0,0,0,1,.69c-.33-.14.32.51,0,.43a4.66,4.66,0,0,1,1.54,1.55l-.07-.06c1.06,1.51,2,2.5,2.45,4.11.11-.12.35.72.44.46.74,1.62.26,3.11.88,3.69a4.38,4.38,0,0,1-.17,1.36l0-.19a12.21,12.21,0,0,1-.36,3,4.37,4.37,0,0,1-.21,1.66c0-.34-.11.05-.25.4.07-.23.06-.31-.18.13a1,1,0,0,1,0,.28s0,0,0,0c-.18.6-.12.5,0,.24,0,0,0,0,.1-.07-.37.55-.73,1.68-.94,1.66A37,37,0,0,1,89,81.16c-.18.09,0-.26.22-.66-.21.32-.43.62-.65.94-.1-.09.33-.57.52-.87-1,1-1.5,2.37-2.72,3.44l-.13.32-.08.06s-.13.35-.28.54-.19-.2-.72.39a17.46,17.46,0,0,0-1.72,2c.33-.29.27-.15.17,0-.28.29-.53.36-.71.62l-.14-.09c.22,0-.63.84-.69,1-.25.08.38-.49.38-.63l-1.72,1.66c-.54.67.22,0,0,.38A12.72,12.72,0,0,1,79,91.82l.3-.08a12.65,12.65,0,0,1-2.45,2.09c-7.3,7.73-.68,2.63-.68,2.63C79.57,94,81,92.27,84.48,88.69Z"/><path class="cls-1" d="M124.9,90l.21,0S125,89.92,124.9,90Z"/><path class="cls-1" d="M109.87,52.36l0,0Z"/><path class="cls-1" d="M130.09,83.75h0l0,.06Z"/><path class="cls-1" d="M123,92.57a28.12,28.12,0,0,0,3.32-1.09,7.39,7.39,0,0,0,3.14-2.29,4.84,4.84,0,0,0,1.16-2.65,5.14,5.14,0,0,0-.57-2.78,10.54,10.54,0,0,0-1.9-2.31l-.15-.31a2.93,2.93,0,0,1-.7-.61h0c-.38-.23-.72-.56-.91-.66l0,0c-.14-.11-.28-.2-.41-.31l.1,0a16.6,16.6,0,0,1-1.77-1.22l0,.15c-1.07-.92-1.67-.93-2.63-1.75l0,0c-1.55-.5-2-1.51-3.6-2,.2.06,0-.11,0-.13-.67-.33-1.37-.71-1.52-.46-.47-.27-.34-.3-.35-.43-.06.11-.49-.08-.86-.28l.19,0-1.06-.56.08.32c-.52-.38,0-.33-.55-.59l-.09.17a14,14,0,0,1-1.69-1.56c-1.48-1-3-1.87-4.45-2.93A11.55,11.55,0,0,1,106,66.59a5,5,0,0,1-.67-1,3.86,3.86,0,0,1-.42-1l.09-.17c.18-.1-.49-.64-.33-.79l-.12-.31c0-.1.06-.29.12-.13a2.91,2.91,0,0,0-.09-.52l.16-.3A8.08,8.08,0,0,1,106.06,59c.58-.61,1.34-1.55,2.17-2.52s1.71-1.94,2.35-2.66c1.71-2.1,4.7-3.62,6.26-6.15a.61.61,0,0,0,.16-.31,15.5,15.5,0,0,0,1.51-2.25l.24-.51a11.1,11.1,0,0,0,.48-1.33,6,6,0,0,0-.2-3.63,3.33,3.33,0,0,0-.65-1.11c-.2-.22-.34-.28-.41-.15a2.24,2.24,0,0,0,0,1c0,.28,0,.64,0,1a6.93,6.93,0,0,1-.25,1.36l0-.06c-.22,1.19-.59,1.87-.77,2.78-.33,0-.57.91-.84,1.11v0c-.27.81-1.15,1.22-1.52,1.94,0,0,0-.1.07-.24-.34.46-.86,1.08-1,1a33.34,33.34,0,0,0-2.9,3.17l0-.08c-.26.49-.47.49-.83,1h-.08a17.21,17.21,0,0,1-1.46,1.56l-.1-.06-.78.83.31-.29c.12.32-.74.49-1.16,1.24-.56.57-.56,1.61-1.15,2.16-.11.4,0-.41-.24.12-.14-.08.08-.28-.11-.23-.29.5-.68.69-1,1.36l-.12,0c-.24.94-1,1.59-.89,2.32a2.21,2.21,0,0,1-.27.83,1.15,1.15,0,0,0-.06.92l-.14.44c0,.49.22.32.26.85-.11,0,.09.67-.09.4.23,1.24,1.18,2.13,2,3.38.37.11.8.7,1.08.74,0,.1,1.08,1,.34.58-.07,0-.16-.12-.13-.14l-.15,0c.47.72,1.22.86,1.83,1.36-.16-.17-.42-.36-.2-.3l.58.45H108l.86.68,0-.19c.4.35.44.63,1,.81.28.07-.33-.42.16-.14a26.7,26.7,0,0,0,2.13,1.62c0-.17.21,0,.43.07l0,.12c.9.33.16.41,1,.77l-.11,0,.34-.1c.86.21.27.46,1.25.63-.33-.16,0-.32.36,0l-.16,0a1.67,1.67,0,0,1,.46.21c-.16,0-.15.11.18.27h-.29l.72.16c.41.38,1.23.66,1.34.92a4.16,4.16,0,0,0,1.29.63c-.26,0,.27.34,0,.36a2.9,2.9,0,0,1,1.37.7l-.06,0c1,.8,2,1,2.85,1.81,0-.15.5.26.48,0,1.1.55,1.49,1.6,2.19,1.43.42.34.38.52.56.73l-.11-.06a7.47,7.47,0,0,1,1.35,1.42c.22.26.53.14.75.73-.2-.13,0,.08,0,.29-.06-.13-.11-.15-.08.14a.37.37,0,0,1,.12.13,0,0,0,0,1,0,0c.15.32.14.26.13.09,0,0,0,0,0-.07,0,.39.19,1,0,1.06a3.64,3.64,0,0,1-1.08,2.51c-.14,0,0-.22.15-.43-.17.15-.31.33-.49.48-.07-.1.25-.32.38-.48-.7.38-1.21,1.25-2.24,1.52l-.14.19h-.07s-.15.21-.29.28-.09-.25-.56,0a7.12,7.12,0,0,0-1.55.67c.28-.07.21,0,.1.1s-.42,0-.6.12l-.07-.15c.14.12-.61.34-.69.42s.37-.2.4-.3c-1,.28-.5.15-1.52.41-.52.25.14.12-.09.32a5.84,5.84,0,0,1-1.52.38l.21.1a5.65,5.65,0,0,1-2.11.38c-6.71,2.39-1.17,1.8-1.17,1.8C118.44,94.21,119.8,93.61,123,92.57Z"/></g></svg>