<?xml version="1.0" encoding="utf-8"?>
<!-- Generator: Adobe Illustrator 25.0.1, SVG Export Plug-In . SVG Version: 6.00 Build 0)  -->
<svg version="1.1" id="Layer_1" xmlns="http://www.w3.org/2000/svg" xmlns:xlink="http://www.w3.org/1999/xlink" x="0px" y="0px"
	 viewBox="0 0 159.32 69.25" style="enable-background:new 0 0 159.32 69.25;" xml:space="preserve">
<style type="text/css">
	.st0{fill:none;}
</style>
<g>
	<g>
		<path d="M3.73,0v54.52h-3.89V0H3.73z M9.29,0v54.52H5.4V0H9.29z M11.93,0v54.52h-0.83V0H11.93z M14.57,0v54.52h-0.97V0H14.57z
			 M20.12,0v54.52h-0.83V0H20.12z"/>
		<path d="M23.04,0h3.89v54.52h-3.89V0z M28.6,0h0.97v54.52H28.6V0z M31.24,0h3.89v54.52h-3.89V0z M36.79,0h0.97v54.52h-0.97V0z
			 M42.49,0h0.83v54.52h-0.83V0z"/>
		<path d="M46.24,0h3.89v54.52h-3.89V0z M54.44,0h0.83v54.52h-0.83V0z M57.49,0h0.83v54.52h-0.83V0z M59.99,0h0.97v54.52h-0.97V0z
			 M62.63,0h3.89v54.52h-3.89V0z"/>
		<path d="M70.27,0v54.52h-0.83V0H70.27z M75.97,0v54.52h-3.89V0H75.97z M78.47,0v54.52h-0.83V0H78.47z M84.16,0v54.52h-0.97V0
			H84.16z M89.72,0v54.52h-3.89V0H89.72z"/>
		<path d="M96.53,0v54.52h-3.89V0H96.53z M99.17,0v54.52H98.2V0H99.17z M101.67,0v54.52h-0.83V0H101.67z M107.36,0v54.52h-0.97V0
			H107.36z M112.92,0v54.52h-3.89V0H112.92z"/>
		<path d="M116.67,0v54.52h-0.83V0H116.67z M119.31,0v54.52h-0.83V0H119.31z M125.28,0v54.52h-3.89V0H125.28z M127.92,0v54.52h-0.83
			V0H127.92z M136.12,0v54.52h-3.89V0H136.12z"/>
		<path d="M139.04,0h0.83v54.52h-0.83V0z M141.68,0h3.89v54.52h-3.89V0z M147.23,0h0.83v54.52h-0.83V0z M152.79,0h3.89v54.52h-3.89
			V0z M158.49,0h0.83v54.52h-0.83V0z"/>
	</g>
	<g>
		<path d="M9.95,57.29h1.76v11.96H9.88v-8.96l0.09,0.53l-3.3,6.77H5.37l-3.3-6.61l0.09-0.69v8.96H0.33V57.29h1.76l3.93,7.9
			L9.95,57.29z"/>
		<path d="M30.51,68.83c-0.71-0.36-1.26-0.88-1.65-1.55c-0.39-0.67-0.58-1.44-0.58-2.32v-3.39c0-0.88,0.19-1.65,0.58-2.32
			c0.39-0.67,0.94-1.18,1.65-1.55c0.71-0.36,1.53-0.55,2.47-0.55c0.93,0,1.76,0.18,2.47,0.55c0.71,0.36,1.26,0.88,1.65,1.55
			c0.39,0.67,0.58,1.44,0.58,2.32v3.39c0,0.88-0.19,1.65-0.58,2.32c-0.39,0.67-0.94,1.18-1.65,1.55c-0.71,0.36-1.53,0.55-2.47,0.55
			C32.04,69.38,31.22,69.19,30.51,68.83z M34.43,67.39c0.42-0.22,0.75-0.54,0.98-0.95c0.23-0.41,0.35-0.88,0.35-1.42v-3.5
			c0-0.54-0.11-1.01-0.35-1.42c-0.23-0.41-0.55-0.72-0.98-0.95c-0.42-0.22-0.91-0.33-1.46-0.33c-0.55,0-1.04,0.11-1.46,0.33
			c-0.42,0.22-0.75,0.54-0.98,0.95c-0.23,0.41-0.35,0.88-0.35,1.42v3.5c0,0.54,0.11,1.01,0.35,1.42c0.23,0.41,0.55,0.72,0.98,0.95
			c0.42,0.22,0.91,0.33,1.46,0.33C33.53,67.72,34.01,67.61,34.43,67.39z"/>
		<path d="M55.85,68.85c-0.7-0.35-1.24-0.86-1.61-1.52c-0.37-0.67-0.55-1.47-0.55-2.41v-7.63h1.88v7.69c0,0.87,0.24,1.55,0.74,2.02
			c0.49,0.48,1.18,0.72,2.08,0.72c0.9,0,1.6-0.24,2.09-0.72c0.49-0.48,0.74-1.15,0.74-2.02v-7.69h1.88v7.63
			c0,0.94-0.18,1.74-0.55,2.41c-0.37,0.67-0.91,1.17-1.61,1.52c-0.71,0.35-1.56,0.52-2.55,0.52C57.4,69.38,56.55,69.2,55.85,68.85z"
			/>
		<path d="M79.57,57.29h1.87v11.96h-1.87V57.29z M80.67,67.7h3.63c0.95,0,1.64-0.16,2.08-0.49s0.65-0.78,0.65-1.37v-0.02
			c0-0.41-0.08-0.75-0.23-1.04c-0.16-0.29-0.4-0.51-0.74-0.67c-0.34-0.16-0.77-0.23-1.3-0.23h-4.09v-1.51h4.09
			c0.69,0,1.22-0.15,1.57-0.44c0.35-0.29,0.53-0.72,0.53-1.29c0-0.6-0.2-1.04-0.59-1.34c-0.39-0.3-0.98-0.44-1.77-0.44h-3.83v-1.55
			h4.17c0.87,0,1.59,0.13,2.17,0.4c0.58,0.26,1.02,0.64,1.31,1.12c0.29,0.48,0.43,1.06,0.43,1.73c0,0.41-0.09,0.8-0.27,1.16
			c-0.18,0.36-0.45,0.67-0.81,0.92c-0.37,0.25-0.82,0.43-1.36,0.51c0.54,0.07,1.01,0.24,1.4,0.51c0.39,0.27,0.69,0.61,0.9,1.02
			c0.21,0.41,0.31,0.84,0.31,1.32V66c0,0.65-0.16,1.22-0.48,1.71c-0.32,0.49-0.78,0.87-1.37,1.14c-0.59,0.27-1.29,0.4-2.08,0.4
			h-4.33V67.7z"/>
		<path d="M108.63,57.29h1.6l4.93,11.96h-2.02l-3.71-9.65l-3.71,9.65h-2.03L108.63,57.29z M105.97,65.03h7.04v1.6h-7.04V65.03z"/>
		<path d="M130.71,57.29h1.7l6.55,9.25l-0.22,0.21v-9.46h1.86v11.95h-1.72l-6.53-9.11l0.22-0.21v9.32h-1.86V57.29z"/>
		<path d="M159.32,69.25h-1.88V57.29h1.88V69.25z"/>
	</g>
	<line class="st0" x1="23.04" y1="0" x2="14.57" y2="16.16"/>
</g>
</svg>
