<svg xmlns="http://www.w3.org/2000/svg" viewBox="0 0 252.77 252.77"><defs><style>.cls-1,.cls-2,.cls-3,.cls-5,.cls-6{fill:#fff;}.cls-1,.cls-2,.cls-4,.cls-5,.cls-6,.cls-7{stroke:#000;}.cls-1,.cls-5{stroke-miterlimit:10;}.cls-1{stroke-width:0.6px;}.cls-2,.cls-4,.cls-6,.cls-7{stroke-linecap:round;stroke-linejoin:round;}.cls-2,.cls-4{stroke-width:0.54px;}.cls-4,.cls-7{fill:none;}.cls-5{stroke-width:0.5px;}.cls-6,.cls-7{stroke-width:0.54px;}</style></defs><g id="OBJECTS"><path d="M83.27,130.44c5.73-10.23,6.74-22.92,6.55-35S88.43,71,90.33,59.09C91.78,50,100.9,33,111.73,28.82c4.77-1.83,47.82-18.57,55.9,47,1.9,15.44-.85,31.08-3.07,46.45C155.91,128,129.3,131,119,130.39A77.71,77.71,0,0,1,83.27,130.44Z"/><ellipse cx="128.01" cy="63.89" rx="35.5" ry="40.02" transform="translate(-1.7 3.52) rotate(-1.57)"/><path class="cls-1" d="M126.72,143.73a17.08,17.08,0,0,0,17.05-17.14,3.72,3.72,0,0,0,0-.58l-1.63-25.82-.21-3.32-.36-5.63-.34-5.19-.34-5.23L114,80.58h-.27l-1.36,16.61-.32,3.64-1,12.43-1,12.45A17.13,17.13,0,0,0,126.72,143.73Z"/><path d="M112,104.45c8.55,1.14,18.24-2.9,24.86-11.2a31.23,31.23,0,0,0,4.34-7.2l-.34-5.23L114,80.58l-.64,7.81L113,92Z"/><path d="M192.18,193.24c-11,4.43-21,5.53-22.23,2.44s6.7-9.18,17.74-13.62,21-5.53,22.23-2.44S203.22,188.8,192.18,193.24Z"/><path class="cls-2" d="M177.34,200.25l-9.9-26.59-1.64-4.41L163.1,162l-1.79-4.8-3-8.2-2.62-7c-3.63-9.76.64-20.27,9.28-22.91a13.69,13.69,0,0,1,4.55-.58,14.21,14.21,0,0,1,4,.74,18.64,18.64,0,0,1,11.61,12.49l5.59,18.41,2.78,9.12,12.71,41.84c0,.13.08.25.12.39"/><path d="M209.81,179.27c-1.9-2.61-11.45-1.41-22,2.82-11,4.44-19,10.54-17.73,13.63a1.74,1.74,0,0,0,.1.19l-.11,0L149,139.22c-4.23-11.21,1.36-23.55,12.19-26.84a18.41,18.41,0,0,1,6.17-.79,20.41,20.41,0,0,1,17.43,12.11Z"/><path class="cls-3" d="M193.88,157.9a1.35,1.35,0,1,1-1.29-1.42A1.35,1.35,0,0,1,193.88,157.9Z"/><path class="cls-3" d="M189.33,173.65a1.92,1.92,0,1,1-1.84-2A1.92,1.92,0,0,1,189.33,173.65Z"/><path class="cls-3" d="M182.71,148.21a1.63,1.63,0,1,0,1.69-1.56A1.64,1.64,0,0,0,182.71,148.21Z"/><path d="M56.09,187.56c10.63,5.34,20.46,7.26,22,4.29s-5.91-9.71-16.54-15-20.46-7.26-22-4.29S45.46,182.22,56.09,187.56Z"/><path class="cls-2" d="M70.3,195.79l12.08-25.67,2-4.26,3.29-7,2.19-4.64,3.71-7.92,3.2-6.79c4.42-9.42,1-20.25-7.35-23.59a13.6,13.6,0,0,0-4.48-1,14.77,14.77,0,0,0-4,.41,18.64,18.64,0,0,0-12.61,11.49l-7.1,17.87-3.53,8.86L41.53,194.2c0,.14-.1.25-.15.39"/><path d="M39.69,172.18c2.11-2.45,11.53-.46,21.69,4.64C72,182.16,79.43,188.9,77.93,191.88l-.13.18.12.05,25.74-54.77c5.15-10.82.6-23.59-9.91-27.77a18.36,18.36,0,0,0-6.08-1.3,20.43,20.43,0,0,0-18.39,10.61Z"/><path class="cls-3" d="M74.31,122.42a1.33,1.33,0,1,0,1.38-1.27A1.33,1.33,0,0,0,74.31,122.42Z"/><path class="cls-3" d="M57.34,152.2a1.36,1.36,0,1,0,1.41-1.29A1.35,1.35,0,0,0,57.34,152.2Z"/><path class="cls-3" d="M69,142.9a1.62,1.62,0,1,0,1.69-1.55A1.62,1.62,0,0,0,69,142.9Z"/><path class="cls-3" d="M60.56,168.29a1.92,1.92,0,1,0,2-1.84A1.91,1.91,0,0,0,60.56,168.29Z"/><path class="cls-3" d="M76,173.07a1.33,1.33,0,1,0,1.38-1.27A1.33,1.33,0,0,0,76,173.07Z"/><path d="M77.5,132.33l2.74,16.47a22.35,22.35,0,0,0-1.77,4.64,24.56,24.56,0,0,0-.8,5.26A24.66,24.66,0,0,0,79.94,170a24.81,24.81,0,0,0,4.93,7l6.64,41.06,60.56,7,13.11-45.23a24.51,24.51,0,0,0,4-4.62,24.12,24.12,0,0,0,3.13-6.67,24.73,24.73,0,0,0,.47-11.9,26.17,26.17,0,0,0-1-3.57l4.09-16.65c1.71-6.13,1.69-12.2-.31-16.85a13.17,13.17,0,0,0-9.15-7.91,18.32,18.32,0,0,0-3.73-.53l-71.68-3a18.19,18.19,0,0,0-3.7.22,11.41,11.41,0,0,0-8.8,6.88C76.41,119.77,76.28,126,77.5,132.33Z"/><path class="cls-3" d="M77.39,132.31c.51,2.74,1,5.47,1.53,8.21s1,5.48,1.44,8.22a.19.19,0,0,1,0,.15,24.72,24.72,0,0,0-2.24,14.73A25,25,0,0,0,84.76,177a23.87,23.87,0,0,1-7.13-13.33,24.85,24.85,0,0,1-.08-7.7,24.12,24.12,0,0,1,2.35-7.32l0,.14c-.45-2.74-.87-5.49-1.28-8.24S77.79,135.07,77.39,132.31Z"/><path class="cls-3" d="M165.07,179.84a25.82,25.82,0,0,0,4.5-5.71,24.84,24.84,0,0,0,1.85-21,.23.23,0,0,1,0-.14q1-4.17,2.12-8.31c.7-2.78,1.46-5.53,2.2-8.3-.62,2.8-1.22,5.59-1.88,8.38s-1.29,5.57-2,8.35V153a24.36,24.36,0,0,1,1.52,7.21,24.72,24.72,0,0,1-.7,7.32,24.1,24.1,0,0,1-2.87,6.77A24.55,24.55,0,0,1,165.07,179.84Z"/><path class="cls-2" d="M113.32,108.24,106,109c2.88,8.51,10.9,15.33,19.92,16.09,9.7.83,19.42-5.42,23.22-14.29l-7-2"/><path class="cls-3" d="M158.56,145.16a1.63,1.63,0,1,0,1.69-1.56A1.63,1.63,0,0,0,158.56,145.16Z"/><path class="cls-3" d="M141,184.36a3.1,3.1,0,1,0,3.23-3A3.11,3.11,0,0,0,141,184.36Z"/><path class="cls-3" d="M94.5,156.24a2.07,2.07,0,1,0,2.16-2A2.06,2.06,0,0,0,94.5,156.24Z"/><path class="cls-3" d="M118.67,151.19a4.29,4.29,0,1,0,4.46-4.11A4.29,4.29,0,0,0,118.67,151.19Z"/><path class="cls-3" d="M88.39,118.27a1.63,1.63,0,1,0,1.7-1.55A1.62,1.62,0,0,0,88.39,118.27Z"/><path class="cls-3" d="M159.47,123.31a3.1,3.1,0,1,0,3.23-3A3.11,3.11,0,0,0,159.47,123.31Z"/><path class="cls-3" d="M102.76,185.13a2.51,2.51,0,1,0,2.62-2.4A2.51,2.51,0,0,0,102.76,185.13Z"/><path class="cls-3" d="M156,170.93a2.36,2.36,0,1,0,2.46-2.26A2.35,2.35,0,0,0,156,170.93Z"/><path class="cls-3" d="M100.14,134.59a2.07,2.07,0,1,0,2.15-2A2.07,2.07,0,0,0,100.14,134.59Z"/><path class="cls-3" d="M133.17,136.85a2.37,2.37,0,1,0,2.46-2.26A2.36,2.36,0,0,0,133.17,136.85Z"/><path class="cls-3" d="M119.72,189.83A1.19,1.19,0,1,0,121,188.7,1.19,1.19,0,0,0,119.72,189.83Z"/><path class="cls-2" d="M181.27,196.84l-58-1-6.06-6.15a4.66,4.66,0,0,0-1.81-2l-7.29-10.81a2.83,2.83,0,0,0-3.91-.76L103,177a2.81,2.81,0,0,0-.76,3.9L107,188a13.69,13.69,0,0,0-1.6-.28c-.26,0-.53,0-.8-.05l-10.06-6.7a2.83,2.83,0,0,0-1-.42,3,3,0,0,0-1.41-.24l-15,1.25a3,3,0,0,0-2.72,3.22l0,.33a3,3,0,0,0,3.22,2.73l14.1-1.17,4.81,3.2a13.88,13.88,0,0,0-1.29,1L87.86,188a2.19,2.19,0,0,0-.34-.1,3,3,0,0,0-1.93-.06l-14,4.37a3,3,0,0,0-2,3.74l.07.21a2.8,2.8,0,0,0,.51.95A3,3,0,0,0,68.5,200l0,.15a3,3,0,0,0,3.21,2.73L86,201.74l5,1.93a13.7,13.7,0,0,0,.71,2.28l-4,.34-10.9-.09a3,3,0,0,0-3,3v.42a3,3,0,0,0,3,3l12.12.11a3.26,3.26,0,0,0,1-.17l6.8-.59a13.08,13.08,0,0,0,5.8,2.11l20,1.59h.07l75.6,8.49A13.57,13.57,0,0,0,206,198.55M82.12,196c-.82.08-1.65.13-2.48.18l6.77-2.1,5.15,2a12,12,0,0,0-.39,1.15l-.12,0a24,24,0,0,0-4.22-1.62C85.24,195.24,83.69,195.82,82.12,196Z"/><line class="cls-4" x1="80.31" y1="196.16" x2="69.81" y2="197.26"/><path class="cls-2" d="M41.39,194.44a13.38,13.38,0,0,0-.9,4.17,13.58,13.58,0,0,0,12.83,14.28l75.91,5.17h.06l20,2a13.31,13.31,0,0,0,6.08-1l6.59,1.79a3,3,0,0,0,.94.35l11.94,2.06a3,3,0,0,0,3.45-2.44l.07-.41a3,3,0,0,0-2.43-3.44l-10.75-1.86-3.87-1a12.56,12.56,0,0,0,1.11-2.12l5.25-1,13.79,3.69a3,3,0,0,0,3.65-2.11l0-.15a3,3,0,0,0-1.13-3.17,3.15,3.15,0,0,0,.68-.85l.1-.2a3,3,0,0,0-1.26-4l-13-6.81a3,3,0,0,0-1.9-.29c-.12,0-.24,0-.36,0l-7.77,1.49a13.84,13.84,0,0,0-1.09-1.21l5.31-2.29,13.65,3.67A3,3,0,0,0,182,196.6l.08-.32a3,3,0,0,0-2.1-3.66l-14.56-3.91a3.05,3.05,0,0,0-1.44,0,3,3,0,0,0-1,.24l-11.09,4.79c-.27,0-.53-.08-.8-.1-.54,0-1.08,0-1.62,0l6-6.12a2.81,2.81,0,0,0-.05-4l-1.11-1.08a2.81,2.81,0,0,0-4,0l-9.1,9.34a4.62,4.62,0,0,0-2.14,1.63l-7.06,5-59-9.62m95,15.84a24.09,24.09,0,0,0-4.45.84l-.12,0q-.06-.6-.18-1.2l5.43-1,6.27,3.28c-.8-.2-1.61-.4-2.41-.63C171,205.51,169.55,204.66,167.94,204.66Z"/><line class="cls-4" x1="174.24" y1="206.45" x2="184.37" y2="209.41"/><path class="cls-5" d="M191.25,228.89H74.5l8.64-63.73A9.84,9.84,0,0,1,93,155.33h97.08a9.83,9.83,0,0,1,9.84,9.83Z"/><path class="cls-6" d="M98.76,76.14c1.4,8.29,3.64,15.52,8.75,22.3,2.67,3.54,4.22,6,8.66,7.28,6.13,1.82,11.42.42,18.08-3.81s13-8.68,16.36-20.78c.18-.67,0-1.38.13-2a4,4,0,0,1,.24-.69,10.79,10.79,0,0,1,1.17-1.79c9.5-13,6.67-32.24-6.1-42a31.15,31.15,0,0,0-23.19-6.14l-.54.09A31.05,31.05,0,0,0,98.06,50.92a29.08,29.08,0,0,0-.65,3.19C96.3,61.35,97.52,68.86,98.76,76.14Z"/><path d="M95.94,50.7a16.53,16.53,0,0,1,3.3-2.81,31.12,31.12,0,0,1,23-18.64,5.07,5.07,0,0,1,.54-.09A31.21,31.21,0,0,1,146,35.29c10.34,7.89,14.16,22,10.19,34a28.31,28.31,0,0,1-3.64,7.35l-.46.65a10.33,10.33,0,0,0-1.16,1.79c-.88-1.14-9.43-6.18-11.61-19.54a13.53,13.53,0,0,1-11.65-3h0a13.27,13.27,0,0,1-9.54-.47,9,9,0,0,1-5.22-5.46h0l-.55.09h0a10.32,10.32,0,0,1-2.75,2.72c-2.54,1.69-5.69,2.49-8.78,3.15-2,.43-4.43.68-5.73-.71S94.62,52.2,95.94,50.7Z"/><path class="cls-3" d="M129.86,32.92a17.77,17.77,0,0,0-6.14,2.23,20.88,20.88,0,0,0-5,4.11,24,24,0,0,0-3.73,5.35,26.82,26.82,0,0,0-2.28,6.16,21.8,21.8,0,0,1,1.91-6.34,23.11,23.11,0,0,1,3.7-5.54,20.29,20.29,0,0,1,5.25-4.1A15.46,15.46,0,0,1,129.86,32.92Z"/><path d="M117.34,67.84a31,31,0,0,1,4.37-.77c1.4-.16,2.8-.24,4.21-.3s2.84-.08,4.3-.1,2.93,0,4.54-.17a11.7,11.7,0,0,0-4.25-2.08,15.47,15.47,0,0,0-4.7-.52,13.63,13.63,0,0,0-4.69,1A8.11,8.11,0,0,0,117.34,67.84Z"/><path d="M110.76,67.24a5.8,5.8,0,0,0-2.4-2.5,8.7,8.7,0,0,0-3.26-1.07,9,9,0,0,0-3.39.23,6.58,6.58,0,0,0-3,1.63,28.09,28.09,0,0,0,3.17.63c1,.14,2,.26,2.89.37l2.85.34C108.58,67,109.57,67.12,110.76,67.24Z"/><path class="cls-7" d="M114,73.19c.59,3.75-.64,7.14-3,10.41-.88,1.21-.52,4.24,3.79,4.13"/><path class="cls-7" d="M116.72,86.66a2,2,0,0,0-2.39-.67"/><path class="cls-7" d="M110.51,72.53a5.93,5.93,0,0,0-4.44-3.29A6.1,6.1,0,0,0,100.79,71a7,7,0,0,0,7.29,2.2"/><path d="M107,70.93a1.82,1.82,0,1,0-1.82,1.95A1.9,1.9,0,0,0,107,70.93Z"/><path d="M101.08,71.06c.12.12.23.25.36.37a.55.55,0,0,1-.18.06.74.74,0,0,1-.26,0l-.09,0a1.83,1.83,0,0,1-1.29-1.77.19.19,0,0,1,.2-.19.2.2,0,0,1,.19.13v0a1.14,1.14,0,0,0,1.1.76.58.58,0,0,1,.51.21A4.88,4.88,0,0,0,101.08,71.06Z"/><path class="cls-7" d="M111,71.34a4.35,4.35,0,0,0-2.48-2.53"/><path class="cls-7" d="M124.44,73.28A8,8,0,0,0,132,71.43a4.17,4.17,0,0,0,.36-.37,5.11,5.11,0,0,0-.55-.48,7.09,7.09,0,0,0-5.12-1.33h0l-.52.1a6.35,6.35,0,0,0-4.28,3.21"/><path d="M128.7,71.21a2,2,0,1,0-2,2A2,2,0,0,0,128.7,71.21Z"/><path d="M132.33,71.06a4.17,4.17,0,0,1-.36.37.6.6,0,0,0,.19.06.54.54,0,0,0,.25,0l.09,0a1.85,1.85,0,0,0,1.28-1.79.2.2,0,0,0-.21-.19.21.21,0,0,0-.19.13v0a1.12,1.12,0,0,1-1.09.77.59.59,0,0,0-.51.21A5.11,5.11,0,0,1,132.33,71.06Z"/><path class="cls-7" d="M120.55,72.14a5.46,5.46,0,0,1,2.69-3.07"/><path d="M124.51,93.51A21.19,21.19,0,0,0,120.78,92c-1.18-.44-2.78-1.23-4.08-1.09a2.48,2.48,0,0,0-1.68.78s-.86-.78-1.59-.56a2.23,2.23,0,0,0-1.33,1.73c-.15,1.12.9,1.32,1.8,1.35,1.79,0,3.58,0,5.37-.1A21.35,21.35,0,0,0,124.51,93.51Z"/><path class="cls-7" d="M125.77,92.88a12.72,12.72,0,0,1-5.32.85"/><path class="cls-7" d="M123,96.16a8.88,8.88,0,0,1-7.53.52"/><path d="M100.28,45.64l14.49-10.81,11.28-3.77s7.13.77,7.19,1,11.23,11,11.55,11.24,12.7,12.48,12.7,12.48.27-6.1.3-6.42-8.21-17-8.21-17L138,28.17,124.5,25.51l-10.47,3-8.85,5.94s-4.8,7.53-4.9,7.78-.39,3.63-.39,3.63"/></g></svg>