<svg xmlns="http://www.w3.org/2000/svg" viewBox="0 0 212.43 212.43"><defs><style>.cls-1,.cls-3,.cls-6,.cls-8{fill:#fff;}.cls-2,.cls-4,.cls-5,.cls-7{fill:none;}.cls-2{stroke:#fff;stroke-width:0.44px;}.cls-2,.cls-3,.cls-4,.cls-5,.cls-6,.cls-7{stroke-linecap:round;stroke-linejoin:round;}.cls-3,.cls-4,.cls-5,.cls-6,.cls-7,.cls-8{stroke:#000;}.cls-3,.cls-4,.cls-8{stroke-width:0.5px;}.cls-5{stroke-width:0.58px;}.cls-6,.cls-7{stroke-width:0.54px;}.cls-8{stroke-miterlimit:10;}</style></defs><g id="OBJECTS"><path class="cls-1" d="M141.21,104.38A89,89,0,0,1,104.64,115a89.25,89.25,0,0,1-47.36-10.34,12.54,12.54,0,0,1,5.4-2.54,17.34,17.34,0,0,1,3.49-.35H133a16.59,16.59,0,0,1,3.43.35A10.82,10.82,0,0,1,141.21,104.38Z"/><path d="M144.58,124.74,141.4,140a21.76,21.76,0,0,1,1.46,4.39,22.82,22.82,0,0,1,.54,4.92,22.19,22.19,0,0,1-.77,5.85,21.42,21.42,0,0,1-1.78,4.59,22.85,22.85,0,0,1-4.86,6.35l-3.74,18H64.91l-3.75-18.52a22.86,22.86,0,0,1-3.54-4.46A22.51,22.51,0,0,1,55,154.77a22.79,22.79,0,0,1,0-11.09,22.49,22.49,0,0,1,1.08-3.28l-3.16-15.66c-1.35-5.76-1.09-11.41.95-15.66a12.86,12.86,0,0,1,3.41-4.46A89.25,89.25,0,0,0,104.64,115a89,89,0,0,0,36.57-10.58,11.3,11.3,0,0,1,3.12,4.44C146.08,113.11,146,118.86,144.58,124.74Z"/><path d="M72,128.44s-36.2-11.12-19.47-61.9S85.08,9.15,85.08,9.15,128-19.48,157.79,94.59s-83.65,35.69-83.65,35.69"/><path d="M128.85,58q-.15-4.44-.48-8.88c-.67-9-1.64-17.63-7.61-24.72-11.65-13.84-33.65-13.14-44.77,1C67.81,35.87,69.54,51,67.33,63.57c-2.54,14.52-8,28.35-13.21,42.05-1.81,4.73-3.78,9.55-3.93,14.62a15.73,15.73,0,0,0,2.6,9.38c4.57,6.51,15.35,6.71,22.3,7.86,9.69,1.61,19.54,2.71,29.37,2a23.89,23.89,0,0,0,5.93-1.18,5.26,5.26,0,0,1-1-6.31c1-2.06,1.91-4.19,2.93-6.25,1.24-2.51,4.59-3,6.84-1.8a4.81,4.81,0,0,1,2.32,5.17,33.87,33.87,0,0,0,3.89-11.45,287.5,287.5,0,0,0,3.53-39.82C129.05,71.22,129.08,64.61,128.85,58Z"/><path d="M90.36,19.3A37.63,37.63,0,0,0,87,22.69"/><path class="cls-2" d="M98.82,18.45A19.54,19.54,0,0,0,87,22.69,26.79,26.79,0,0,0,81.8,27.8c-4.24,5.49-6.66,12.47-8,19.54s-1.72,14.33-2.31,21.54c-1.28,15.94-3.68,31.93-8.91,46.85-1.79,5.11-4,10.17-7.49,14-.37.41-.77.82-1.18,1.2"/><path class="cls-2" d="M112.5,22.12c6.28,8.24,7.28,18.24,8.28,27.24,3,24,7,50-1.88,73.44"/><path class="cls-2" d="M60.89,135a52,52,0,0,0,9.49-19.24c2.92-10.86,3-22.24,2.93-33.48S72.89,59.66,75,48.62c1.82-9.45,5.57-18.81,12-25.93"/><path class="cls-2" d="M109.63,24.38c5.89,7.35,7.91,17,9,26.35a173.89,173.89,0,0,1-3.72,60.91c-2.39,9.87-5.72,19.66-11.64,27.91"/><path class="cls-2" d="M82.81,50.73a173.73,173.73,0,0,1-3.72,60.92c-2.11,8.74-5,17.45-9.71,25"/><path class="cls-3" d="M113.11,105.67a14.24,14.24,0,1,1-28.45.49c0-.16,0-.33,0-.49L86.26,84l.2-2.8,1-13.49h22.88l1,14,.22,3.06Z"/><path d="M112.32,95.05c-7.21.89-15.34-2.58-20.85-9.62a26.48,26.48,0,0,1-4.69-9.15l.65-8.76H110.3l1,14,.24,3Z"/><path class="cls-3" d="M118.29,45.89c-2.87,4.61-2.6,10.08.62,12.21s8.15.11,11-4.5,2.59-10.09-.62-12.22S121.16,41.27,118.29,45.89Z"/><path class="cls-4" d="M126.9,43.6A4.28,4.28,0,0,1,128,50.94"/><path class="cls-3" d="M79.49,45.89c2.88,4.61,2.6,10.08-.62,12.21s-8.15.11-11-4.5-2.6-10.09.62-12.22S76.62,41.27,79.49,45.89Z"/><path class="cls-4" d="M70.89,43.6a4.28,4.28,0,0,0-1.12,7.34"/><path class="cls-3" d="M125.89,45c0,.37,0,.73,0,1.08a30.37,30.37,0,0,1-.31,3.17l-.18,1.48-.07.8-.12,1.17c-.08.71-.13,1.4-.19,2.1,0,.45,0,.88-.09,1.33-.11,1.75-.22,3.5-.5,5.23a.64.64,0,0,1,0,.09c0,.33-.11.67-.19,1h0a9.64,9.64,0,0,1-.26,1.06,11.89,11.89,0,0,1-.48,1.58h0a5,5,0,0,1-.21.57c-.14.38-.33.77-.5,1.17a23.61,23.61,0,0,1-1.74,3,36.23,36.23,0,0,1-11.3,10.43s0,0-.06,0c-.53.32-1.05.6-1.56.87a19.49,19.49,0,0,1-16.76.51A22.14,22.14,0,0,1,88.09,80a0,0,0,0,1,0,0A33.83,33.83,0,0,1,77.71,69.79c-.2-.28-.37-.56-.56-.85-.09-.14-.17-.3-.26-.45s-.3-.51-.45-.77c-.42-.69-.79-1.41-1.14-2.11-.09-.2-.19-.39-.26-.59A29,29,0,0,1,73,56c0-.48-.09-1-.13-1.45l-.15-1.62-.15-1.45c0-.16-.06-.32-.09-.47a4.76,4.76,0,0,1-.1-.52c-.13-.66-.23-1.33-.32-2a32.57,32.57,0,0,1-.2-3.48c0-.09,0-.2,0-.3v-.12c0-.51,0-1,.07-1.51l0-.58c.07-.62.15-1.23.26-1.83a26.3,26.3,0,0,1,4-10.08,26,26,0,0,1,1.62-2.17,26.7,26.7,0,0,1,6.89-5.93c.18-.13.38-.24.57-.35l.71-.4a27.48,27.48,0,0,1,2.87-1.31,27,27,0,0,1,9.27-1.84s0,0,0,0v0a4.18,4.18,0,0,1,.5,0h.16c.41,0,.86,0,1.27.05s1.07.05,1.6.11c.29,0,.57.06.85.1l.67.09a27.62,27.62,0,0,1,5.37,1.45,24.44,24.44,0,0,1,3.8,1.79c.07,0,.13.08.19.11a23.17,23.17,0,0,1,2.21,1.43,26.74,26.74,0,0,1,6.77,7v0c.12.15.21.31.32.47,0,0,0,0,0,0a26.19,26.19,0,0,1,3.57,9.39s0,0,0,.07c.11.6.19,1.21.25,1.83,0,.11,0,.22,0,.32,0,.4.07.81.08,1.22,0,.22,0,.44,0,.67S125.89,44.86,125.89,45Z"/><path d="M51.38,138.74c9.64,4.35,18.44,5.69,19.66,3S65.42,133.32,55.78,129s-18.44-5.69-19.66-3S41.73,134.39,51.38,138.74Z"/><path class="cls-3" d="M21,184.07c0-.13.09-.24.12-.36l13.45-38.43,2.94-8.38L43.44,120a17.46,17.46,0,0,1,10.43-10.92,13.76,13.76,0,0,1,4.56-.79,12.71,12.71,0,0,1,4.23.72c7.93,2.78,11.48,12.73,7.74,21.66L62.69,149l-2.79,6.65-2.28,5.42-9.66,23"/><path d="M76.73,128.39,71,141.84c-2.54-3.37-8.83-7.72-16.74-11.29-7-3.13-13.53-4.94-17.89-5.1L44,112.56a19.58,19.58,0,0,1,10.51-9.47,88.41,88.41,0,0,0,22,9.07A19.87,19.87,0,0,1,76.73,128.39Z"/><path d="M142,138.74c-9.64,4.35-18.45,5.69-19.66,3s5.61-8.41,15.25-12.76,18.45-5.69,19.66-3S151.59,134.39,142,138.74Z"/><path class="cls-3" d="M172.31,184.07c0-.13-.08-.24-.12-.36l-13.45-38.43-2.94-8.38L149.89,120a17.51,17.51,0,0,0-10.43-10.92,13.77,13.77,0,0,0-4.57-.79,12.65,12.65,0,0,0-4.22.72c-7.93,2.78-11.49,12.73-7.75,21.66L130.63,149l2.8,6.65,2.27,5.42,9.66,23"/><path d="M116.6,128.39l5.73,13.45c2.53-3.37,8.82-7.72,16.73-11.29,7-3.13,13.54-4.94,17.89-5.1l-7.66-12.89a19.6,19.6,0,0,0-10.5-9.47,88.72,88.72,0,0,1-22,9.07A19.79,19.79,0,0,0,116.6,128.39Z"/><path d="M104.73,45.18a7.31,7.31,0,0,1,2.8-2.3,9.86,9.86,0,0,1,4.85-1,14.43,14.43,0,0,1,4.51,1,9.93,9.93,0,0,1,3.27,2c-1.57-.1-3-.27-4.3-.43s-2.62-.33-3.68-.35a15.18,15.18,0,0,0-3.25.37A37.62,37.62,0,0,1,104.73,45.18Z"/><path d="M93.77,45.18a37.62,37.62,0,0,1-4.2-.71,15.25,15.25,0,0,0-3.25-.37c-1.06,0-2.36.19-3.69.35s-2.73.33-4.29.43a9.82,9.82,0,0,1,3.27-2,14.36,14.36,0,0,1,4.5-1,9.86,9.86,0,0,1,4.85,1A7.27,7.27,0,0,1,93.77,45.18Z"/><path d="M104.76,52.72c.36-.52.73-1,1.1-1.54a7.72,7.72,0,0,1,9-2.44,9.44,9.44,0,0,1,1.76,1c.5.39,1,.76,1.49,1.15l-.29-.09h0s.21,0,.35-.06a5.27,5.27,0,0,0,.49-.22,7.27,7.27,0,0,0,1-.59h0a.22.22,0,0,1,.3,0,.22.22,0,0,1,0,.27,7.17,7.17,0,0,1-.86.88,3.33,3.33,0,0,1-.5.39,1.5,1.5,0,0,1-.75.3h0a.37.37,0,0,1-.23-.05l-.06,0c-.53-.33-1-.68-1.57-1a7.77,7.77,0,0,0-1.54-.8,7.4,7.4,0,0,0-8,1.79L105.1,53a.22.22,0,0,1-.31,0A.21.21,0,0,1,104.76,52.72Z"/><path d="M109.07,50.78a2.19,2.19,0,1,1,2,2.35A2.18,2.18,0,0,1,109.07,50.78Z"/><path class="cls-4" d="M115.7,52.52a5.53,5.53,0,0,0,2.21-1.06"/><path class="cls-4" d="M104.87,50.24a7.81,7.81,0,0,1,5.18-3.12"/><path d="M93.4,53l-1.32-1.35a7,7,0,0,0-1.37-1.13A7.4,7.4,0,0,0,84,49.86a7.51,7.51,0,0,0-1.54.8c-.53.35-1,.7-1.58,1l-.06,0a.37.37,0,0,1-.23.05h0a1.54,1.54,0,0,1-.75-.3,4.78,4.78,0,0,1-.5-.39,6.44,6.44,0,0,1-.85-.88.22.22,0,0,1,0-.31.22.22,0,0,1,.27,0h0a6.57,6.57,0,0,0,1,.59,5.27,5.27,0,0,0,.49.22c.15.06.34.09.35.06h0l-.29.09c.49-.39,1-.76,1.49-1.15a9.21,9.21,0,0,1,1.77-1,8,8,0,0,1,4-.5,7.85,7.85,0,0,1,3.67,1.54,8.06,8.06,0,0,1,1.4,1.4c.36.52.74,1,1.09,1.54a.22.22,0,0,1-.33.28Z"/><path d="M89.43,50.78a2.19,2.19,0,1,0-2,2.35A2.19,2.19,0,0,0,89.43,50.78Z"/><path class="cls-4" d="M82.8,52.52a5.57,5.57,0,0,1-2.22-1.06"/><path class="cls-4" d="M93.62,50.24a7.81,7.81,0,0,0-5.18-3.12"/><path d="M99.2,71.61c1.06,0,2.11-.15,3.17-.26a23,23,0,0,0,3.58-.54l-.1-.6a3.84,3.84,0,0,1-2.16-.76l-.25-.17a6.87,6.87,0,0,0-2.08-1.09,2.76,2.76,0,0,0-2.42.45,2.8,2.8,0,0,0-2.44-.45,6.93,6.93,0,0,0-2.07,1.09l-.25.17a3.89,3.89,0,0,1-2.16.76l-.1.6a24.23,24.23,0,0,0,4.51.72A18.43,18.43,0,0,0,99.2,71.61Z"/><path class="cls-5" d="M102.62,70.83a9.51,9.51,0,0,0,5-1"/><path class="cls-5" d="M109,68.34a1.41,1.41,0,0,1,0,2"/><path d="M98.83,71.61c-1,0-2.1-.15-3.16-.26a23.1,23.1,0,0,1-3.59-.54l.1-.6a3.81,3.81,0,0,0,2.16-.76l.26-.17a6.7,6.7,0,0,1,2.07-1.09,2.79,2.79,0,0,1,2.43.45,2.77,2.77,0,0,1,2.43-.45,6.93,6.93,0,0,1,2.07,1.09l.25.17a3.89,3.89,0,0,0,2.16.76l.1.6a24.1,24.1,0,0,1-4.51.72A18.36,18.36,0,0,1,98.83,71.61Z"/><path class="cls-5" d="M95.41,70.83a9.46,9.46,0,0,1-5-1"/><path class="cls-5" d="M89,68.34a1.42,1.42,0,0,0,0,2"/><path class="cls-4" d="M95.11,73.56a18.84,18.84,0,0,0,7.77.19"/><path class="cls-1" d="M120.52,130.54a1.63,1.63,0,1,0,1.69-1.55h0A1.63,1.63,0,0,0,120.52,130.54Z"/><path class="cls-1" d="M135.17,109.27a1.63,1.63,0,1,0,1.7-1.56h0A1.63,1.63,0,0,0,135.17,109.27Z"/><path class="cls-1" d="M88.06,50.49a.39.39,0,0,0,.37.4.38.38,0,0,0,0-.76h0A.38.38,0,0,0,88.06,50.49Z"/><path class="cls-1" d="M112,50.49a.38.38,0,0,0,.76,0,.37.37,0,0,0-.36-.4h0A.37.37,0,0,0,112,50.49Z"/><path class="cls-1" d="M66.53,164.12a1.63,1.63,0,1,0,1.7-1.56h0A1.63,1.63,0,0,0,66.53,164.12Z"/><path class="cls-1" d="M57.85,152.33a2.37,2.37,0,1,0,2.48-2.26h0a2.36,2.36,0,0,0-2.46,2.26Z"/><path class="cls-1" d="M62.77,139.53a2.37,2.37,0,1,0,2.48-2.26h0a2.36,2.36,0,0,0-2.46,2.25Z"/><path class="cls-1" d="M51.57,113a2.37,2.37,0,1,0,2.48-2.26h0A2.34,2.34,0,0,0,51.58,113Z"/><path class="cls-6" d="M21.5,183.23a10.82,10.82,0,0,0-.73,3.36,10.94,10.94,0,0,0,10.33,11.5l61.13,4.16h0l16.1,1.61a10.69,10.69,0,0,0,4.9-.8l5.3,1.44a2.32,2.32,0,0,0,.76.28l9.61,1.66a2.42,2.42,0,0,0,2.78-2l.06-.33a2.42,2.42,0,0,0-2-2.77l-8.66-1.5-3.11-.81a10.2,10.2,0,0,0,.89-1.7l4.23-.81,11.1,3a2.41,2.41,0,0,0,2.94-1.7v-.12a2.4,2.4,0,0,0-.91-2.55,2.62,2.62,0,0,0,.55-.69l.08-.16a2.42,2.42,0,0,0-1-3.22l-10.47-5.48a2.39,2.39,0,0,0-1.53-.23h-.29l-6.26,1.2a9.06,9.06,0,0,0-.88-1l4.28-1.84,11,3a2.42,2.42,0,0,0,2.95-1.73h0l.06-.25a2.41,2.41,0,0,0-1.69-2.95l-11.72-3.15a4.33,4.33,0,0,0-2,.19l-8.93,3.86c-.21,0-.42-.06-.64-.08h-1.3l4.83-4.93a2.27,2.27,0,0,0,0-3.2l0,0-.9-.87a2.26,2.26,0,0,0-3.2,0l0,0-7.33,7.52a3.79,3.79,0,0,0-1.72,1.31l-5.68,4L47,178.68m76.49,12.76a19,19,0,0,0-3.58.68h-.1c0-.33-.08-.65-.14-1l4.37-.81,5.05,2.65c-.64-.17-1.3-.33-1.94-.51-1.25-.33-2.42-1-3.71-1Z"/><path d="M71.9,43.6S76.29,41.24,82,32.05s2.67-10.87,2.67-10.87S123,32.92,125.38,50.48,141.21,92,141.21,92l11.32,1.58-12.25-42L126.9,30.84l-9.3-12.15L101,12.64H91.92L79,19.29,67.51,36.17Z"/><line class="cls-7" x1="28.26" y1="187.06" x2="38.39" y2="190.02"/><path class="cls-7" d="M98.07,63.88c4.31.11,4.67-2.92,3.79-4.13-2.36-3.27-3.59-6.66-3-10.41"/><path d="M166.61,143a11.15,11.15,0,0,1-6.13-4.65c3.21.23,8,.05,10.54-2.4-3-2.25-5.37-4.3-7.35-8.2a58.24,58.24,0,0,1-4.07-11.93,40.86,40.86,0,0,0,6.43,2.9A65.24,65.24,0,0,1,159,107.81a18,18,0,0,1-1.88-4.84,32,32,0,0,1-.27-5.79,34,34,0,0,0-8.82-22,26.63,26.63,0,0,0-17.85-8.57,9.32,9.32,0,0,1,4.68,5.85c-3.71,1-3.45,7.46-2.84,11.42s3,8.4,1.68,12.11a47.49,47.49,0,0,0-2.79,21c1.34,12,7.92,24,16.85,28.29A17.39,17.39,0,0,0,166.61,143Z"/><path d="M134,128.16a29.51,29.51,0,0,1-5.13-20.11c.81-7,4.4-12.94,9.29-15.48a9.47,9.47,0,0,0-7.86,4.14,20,20,0,0,0-3.68,11.35"/><path d="M157.5,107.41c.8,5.64,1.64,11.44,3.93,16.5s6.42,9.26,10.69,9.09"/><path d="M154.54,88.13c-.25,8.88,2.92,18.24,8.27,24.4,2.08,2.39,4.9,4.41,7.31,3.27"/><path class="cls-8" d="M183,206.4H66.25l8.64-63.73a9.83,9.83,0,0,1,9.85-9.83h97.09a9.83,9.83,0,0,1,9.84,9.82h0Z"/><path class="cls-1" d="M88,29.46c-.86-2.26-1.57-4.57-2.26-6.88s-1.3-4.65-1.78-7c.86,2.27,1.58,4.57,2.26,6.89S87.55,27.09,88,29.46Z"/><path d="M139.74,103.09A112.56,112.56,0,0,0,115,100.17l-3,15.33L101.18,124l-19.49-4.19,3-20.32.87.1a4.63,4.63,0,0,1,.1-.65l-.57-.09a55.92,55.92,0,0,0-33.94,5.9l1,1.12,7.61,4.85,5.45,7.53,8,6.73,9.7,2.33,12.61,3.26L109,132.24l10.06-10.75,9.2-4.6,9.43,5.33,7.94-1.5S152.5,106.17,139.74,103.09Z"/><path class="cls-1" d="M65.15,124.56a4.29,4.29,0,1,0,4.46-4.11h0A4.29,4.29,0,0,0,65.15,124.56Z"/><path class="cls-1" d="M82.39,128.91a1.63,1.63,0,1,0,1.7-1.55h0A1.64,1.64,0,0,0,82.39,128.91Z"/><path class="cls-1" d="M122.7,104.93a1.63,1.63,0,1,0,1.7-1.56h0A1.64,1.64,0,0,0,122.7,104.93Z"/><path class="cls-1" d="M98.33,130.15a4.29,4.29,0,1,0,4.46-4.11h0A4.29,4.29,0,0,0,98.33,130.15Z"/><path class="cls-1" d="M129.56,122.11a2.37,2.37,0,1,0,2.47-2.26h0a2.37,2.37,0,0,0-2.46,2.26Z"/><path class="cls-1" d="M116.78,117.6a1.63,1.63,0,1,0,1.7-1.56h0A1.64,1.64,0,0,0,116.78,117.6Z"/><path class="cls-1" d="M75.05,107.64a1.63,1.63,0,1,0,1.69-1.56h0A1.63,1.63,0,0,0,75.05,107.64Z"/></g></svg>